<svg width="60" height="60" viewBox="0 0 60 60" fill="none" xmlns="http://www.w3.org/2000/svg">
<path d="M51.5239 5.5394C51.9533 5.89476 52.3449 6.2815 52.7344 6.67974C52.8125 6.75407 52.8906 6.82839 52.971 6.90496C54.3281 8.28959 55.091 10.6138 55.0763 12.5108C55.0799 13.3024 55.0799 13.3024 55.4045 14.0099C55.5858 14.175 55.7708 14.3361 55.9589 14.4933C57.3799 15.8227 57.8631 18.0941 57.9272 19.9586C57.8753 22.1864 57.0489 24.2698 55.5396 25.9173C54.0144 27.3656 52.4672 27.7735 50.3906 27.7735C50.3906 36.3973 50.3906 45.0212 50.3906 53.9063C52.6336 53.9063 54.8766 53.9063 57.1875 53.9063C57.6562 54.1407 57.6562 54.1407 57.8101 54.3384C57.9292 54.7392 57.8757 55.0279 57.7734 55.4297C57.4881 55.7372 57.3171 55.78 56.8962 55.8256C56.7288 55.8276 56.5614 55.8277 56.394 55.8262C56.2548 55.8271 56.2548 55.8271 56.1129 55.828C55.8001 55.8295 55.4874 55.8285 55.1746 55.8275C54.9489 55.8281 54.7232 55.8288 54.4975 55.8297C53.8757 55.8316 53.2539 55.8313 52.6321 55.8307C51.9621 55.8304 51.2922 55.8321 50.6222 55.8335C49.309 55.836 47.9959 55.8365 46.6828 55.8363C45.6159 55.8362 44.5489 55.8366 43.482 55.8375C43.175 55.8377 42.8681 55.838 42.5612 55.8382C42.332 55.8384 42.332 55.8384 42.0983 55.8386C40.0289 55.8402 37.9595 55.8411 35.8902 55.8405C35.7687 55.8405 35.7687 55.8405 35.6449 55.8405C35.2345 55.8404 34.8242 55.8403 34.4139 55.8402C34.3324 55.8401 34.2509 55.8401 34.1669 55.8401C34.0021 55.84 33.8373 55.84 33.6725 55.84C31.1078 55.8393 28.543 55.8411 25.9783 55.8448C23.098 55.8491 20.2177 55.8513 17.3374 55.8507C15.8119 55.8505 14.2864 55.8511 12.7609 55.854C11.4623 55.8565 10.1636 55.8569 8.86502 55.8547C8.20205 55.8536 7.53912 55.8535 6.87615 55.8559C6.26974 55.8581 5.6634 55.8576 5.05699 55.8549C4.83713 55.8544 4.61727 55.8549 4.39741 55.8565C4.0994 55.8585 3.80161 55.8569 3.5036 55.8544C3.37441 55.8565 3.37441 55.8565 3.24261 55.8588C2.7896 55.8507 2.59015 55.7906 2.22731 55.5103C1.99219 55.1954 1.99219 55.1954 1.99219 54.7706C2.10298 54.3966 2.152 54.2459 2.46094 54.0235C2.8328 53.8376 3.23295 53.8921 3.64105 53.8949C3.72375 53.895 3.80645 53.8951 3.89165 53.8952C4.20088 53.8958 4.51011 53.8975 4.81934 53.899C5.85623 53.9026 5.85623 53.9026 6.91406 53.9063C6.91406 52.4755 6.91406 51.0446 6.91406 49.5704C5.54674 49.5889 5.54674 49.5889 4.1795 49.6126C4.00765 49.614 3.83579 49.6152 3.66394 49.6161C3.57525 49.6185 3.48656 49.6209 3.39518 49.6234C2.97555 49.6237 2.74473 49.6086 2.40772 49.3478C2.04512 48.8551 2.08846 48.406 2.08557 47.8139C2.0849 47.709 2.08424 47.6041 2.08355 47.496C2.08244 47.2736 2.08167 47.0513 2.08122 46.829C2.08009 46.4895 2.07645 46.15 2.07275 45.8105C2.07199 45.5945 2.07137 45.3786 2.07092 45.1626C2.06948 45.0612 2.06803 44.9599 2.06654 44.8555C2.06859 44.3002 2.09612 43.9259 2.46094 43.4766C2.75969 43.3272 2.96841 43.3454 3.30282 43.3461C3.4295 43.3461 3.55617 43.3461 3.68669 43.3462C3.8925 43.3471 3.8925 43.3471 4.10248 43.348C4.24261 43.3482 4.38273 43.3483 4.52711 43.3485C4.97608 43.3491 5.42505 43.3506 5.87402 43.3521C6.17783 43.3527 6.48163 43.3532 6.78543 43.3537C7.53144 43.355 8.27744 43.357 9.02344 43.3594C9.02344 42.586 9.02344 41.8126 9.02344 41.0157C8.76799 41.0198 8.51255 41.0238 8.24936 41.028C8.00075 41.0308 7.75214 41.0329 7.50352 41.035C7.33132 41.0368 7.15912 41.0392 6.98693 41.0422C6.73878 41.0465 6.4907 41.0485 6.24252 41.05C6.0934 41.0519 5.94427 41.0537 5.79062 41.0556C5.32826 41.0095 5.01814 40.8776 4.6875 40.5469C4.67446 40.1921 4.66905 39.8399 4.66862 39.485C4.66804 39.3735 4.66745 39.262 4.66685 39.1472C4.66514 38.7767 4.66434 38.4062 4.6637 38.0356C4.66302 37.7792 4.66235 37.5227 4.66167 37.2662C4.66044 36.7277 4.65976 36.1892 4.65935 35.6508C4.6587 34.9597 4.65589 34.2686 4.65255 33.5775C4.65037 33.0475 4.64976 32.5175 4.64958 31.9875C4.64923 31.7327 4.64828 31.4778 4.64675 31.223C4.64476 30.8669 4.64497 30.5109 4.64573 30.1548C4.64465 30.0489 4.64357 29.943 4.64246 29.8338C4.64311 29.7369 4.64376 29.6399 4.64443 29.54C4.64426 29.4558 4.64409 29.3716 4.64391 29.2848C4.70106 28.9934 4.80794 28.8926 5.03906 28.711C5.4537 28.5728 5.78221 28.5806 6.21964 28.5824C6.33984 28.5826 6.33984 28.5826 6.46247 28.5829C6.71799 28.5835 6.97349 28.585 7.229 28.5865C7.40242 28.5871 7.57584 28.5876 7.74925 28.5881C8.17398 28.5894 8.59871 28.5914 9.02344 28.5938C9.02098 28.5075 9.01853 28.4212 9.016 28.3323C9.00625 27.941 9.00016 27.5497 8.99414 27.1583C8.99021 27.0225 8.98629 26.8867 8.98224 26.7467C8.98073 26.6161 8.97922 26.4854 8.97766 26.3508C8.97521 26.2305 8.97275 26.1102 8.97022 25.9863C9.02344 25.6641 9.02344 25.6641 9.1977 25.3907C9.61764 25.1122 10.0124 25.1282 10.4997 25.1331C10.5971 25.1327 10.6944 25.1322 10.7947 25.1318C11.0001 25.1314 11.2055 25.1323 11.4108 25.1343C11.7254 25.1368 12.0397 25.1343 12.3544 25.1313C12.554 25.1316 12.7537 25.1322 12.9533 25.1331C13.0475 25.1322 13.1416 25.1312 13.2386 25.1302C13.5041 25.1347 13.5041 25.1347 13.9453 25.1954C14.2969 25.6641 14.2969 25.6641 14.2969 28.5938C20.0203 28.5938 25.7438 28.5938 31.6406 28.5938C31.6406 27.7044 31.6406 26.8149 31.6406 25.8985C31.9922 25.3126 31.9922 25.3126 32.1094 25.1954C32.4334 25.1792 32.7542 25.1704 33.0785 25.1674C33.176 25.1665 33.2736 25.1656 33.3741 25.1646C33.5811 25.163 33.7881 25.1617 33.995 25.1608C34.3115 25.1588 34.6277 25.1536 34.9441 25.1484C35.145 25.1473 35.3458 25.1463 35.5467 25.1455C35.6413 25.1434 35.736 25.1414 35.8334 25.1393C36.244 25.1408 36.5109 25.1613 36.8575 25.3899C37.0765 25.7355 37.0853 25.9433 37.077 26.3508C37.0755 26.4814 37.074 26.6121 37.0724 26.7467C37.0666 26.9504 37.0666 26.9504 37.0605 27.1583C37.0584 27.2959 37.0563 27.4335 37.0541 27.5753C37.0486 27.9149 37.0409 28.2543 37.0312 28.5938C37.1917 28.591 37.1917 28.591 37.3554 28.5882C37.754 28.5822 38.1526 28.5778 38.5512 28.5745C38.7234 28.5727 38.8956 28.5703 39.0678 28.5673C39.3159 28.563 39.564 28.561 39.8122 28.5595C40.0359 28.5567 40.0359 28.5567 40.2641 28.5539C40.6924 28.5966 40.9102 28.6864 41.25 28.9454C41.4486 29.3426 41.3855 29.7946 41.3861 30.2316C41.3867 30.3406 41.3872 30.4496 41.3878 30.562C41.3895 30.9237 41.3903 31.2854 41.391 31.6471C41.3917 31.8979 41.3923 32.1486 41.393 32.3994C41.3942 32.9257 41.3949 33.4519 41.3953 33.9782C41.396 34.6531 41.3988 35.328 41.4021 36.0029C41.4043 36.5211 41.4049 37.0392 41.4051 37.5574C41.4055 37.8062 41.4064 38.0551 41.4079 38.3039C41.4099 38.6518 41.4097 38.9996 41.409 39.3475C41.41 39.4507 41.4111 39.5538 41.4122 39.6601C41.4074 40.3576 41.4074 40.3576 41.2016 40.7263C40.7864 41.1107 40.2712 41.0294 39.7321 41.0271C39.6547 41.027 39.5773 41.0268 39.4976 41.0266C39.2517 41.026 39.0057 41.0245 38.7598 41.023C38.5925 41.0224 38.4253 41.0219 38.2581 41.0214C37.8491 41.0202 37.4402 41.0179 37.0312 41.0157C37.0312 41.7891 37.0312 42.5626 37.0312 43.3594C37.224 43.357 37.4168 43.3545 37.6155 43.352C38.33 43.3435 39.0446 43.3381 39.7592 43.3337C40.0687 43.3313 40.3781 43.3281 40.6875 43.3241C41.1319 43.3184 41.5764 43.3157 42.0209 43.3137C42.2287 43.31 42.2287 43.31 42.4408 43.3063C42.5698 43.3063 42.6988 43.3063 42.8317 43.3062C42.9451 43.3052 43.0586 43.3041 43.1755 43.3031C43.5632 43.3757 43.6988 43.5275 43.9453 43.8282C44.1441 44.2259 44.0842 44.6783 44.0863 45.1159C44.087 45.2208 44.0876 45.3257 44.0883 45.4338C44.0894 45.6562 44.0902 45.8785 44.0907 46.1008C44.0918 46.4404 44.0954 46.7798 44.0991 47.1193C44.0999 47.3353 44.1005 47.5513 44.101 47.7672C44.1024 47.8686 44.1038 47.9699 44.1053 48.0743C44.1033 48.6296 44.0758 49.0039 43.7109 49.4532C43.3391 49.6391 42.9389 49.5845 42.5308 49.5818C42.4481 49.5817 42.3654 49.5816 42.2802 49.5815C41.971 49.5808 41.6618 49.5792 41.3525 49.5777C40.6613 49.5753 39.97 49.5729 39.2578 49.5704C39.2578 51.0012 39.2578 52.4321 39.2578 53.9063C41.1527 53.9063 43.0477 53.9063 45 53.9063C45 45.2825 45 36.6587 45 27.7735C44.3426 27.7735 43.6852 27.7735 43.0078 27.7735C40.9064 27.2813 39.3454 26.0902 38.2031 24.2579C37.0596 22.2422 36.7889 19.7698 37.3937 17.5394C37.723 16.4552 38.2009 15.4769 38.9575 14.6265C39.3916 14.1116 39.444 13.8049 39.3947 13.1447C39.2702 10.7963 40.1661 8.51058 41.6803 6.74566C44.1559 4.02085 48.4567 3.20987 51.5239 5.5394ZM43.0801 7.96972C41.7587 9.5976 41.1989 11.4431 41.2767 13.5233C41.318 14.7589 41.318 14.7589 41.0971 15.1616C40.8911 15.3516 40.8911 15.3516 40.665 15.5182C39.7233 16.2584 39.1995 17.7128 39.0234 18.8672C38.887 20.9351 39.1997 22.6789 40.5835 24.2945C41.5932 25.3618 42.6948 25.9358 44.1628 26.0225C45.0777 26.0055 45.8348 25.7427 46.6187 25.2833C47.0121 25.0575 47.1908 24.9628 47.6514 24.939C47.9839 25.056 48.2365 25.1804 48.5376 25.3565C49.5562 25.9514 50.6423 26.1464 51.7969 25.8985C53.2015 25.4881 54.3168 24.6758 55.0644 23.4179C56.0603 21.5406 56.2763 19.7377 55.6641 17.6954C55.3317 16.7892 54.9795 16.1435 54.2477 15.5291C53.6804 15.0487 53.2974 14.6907 53.2127 13.9243C53.1863 13.369 53.2004 12.8144 53.2092 12.2587C53.1736 10.4662 52.2189 8.83993 50.9766 7.61724C50.8732 7.51415 50.8732 7.51415 50.7678 7.40896C49.6836 6.40403 48.3747 6.02917 46.9258 6.05764C45.4516 6.19013 44.0872 6.8856 43.0801 7.96972ZM10.8984 26.9532C10.8984 27.4946 10.8984 28.036 10.8984 28.5938C11.4398 28.5938 11.9812 28.5938 12.5391 28.5938C12.5391 28.0524 12.5391 27.511 12.5391 26.9532C11.9977 26.9532 11.4563 26.9532 10.8984 26.9532ZM33.5156 26.9532C33.5156 27.4946 33.5156 28.036 33.5156 28.5938C34.057 28.5938 34.5984 28.5938 35.1562 28.5938C35.1562 28.0524 35.1562 27.511 35.1562 26.9532C34.6148 26.9532 34.0734 26.9532 33.5156 26.9532ZM46.875 27.1876C46.875 36.0047 46.875 44.8219 46.875 53.9063C47.4164 53.9063 47.9578 53.9063 48.5156 53.9063C48.5156 45.1665 48.5156 36.4266 48.5156 27.4219C47.6139 26.8619 47.6139 26.8619 46.875 27.1876ZM6.44531 30.4688C6.44531 31.0102 6.44531 31.5516 6.44531 32.1094C17.3508 32.1094 28.2563 32.1094 39.4922 32.1094C39.4922 31.568 39.4922 31.0266 39.4922 30.4688C28.5867 30.4688 17.6812 30.4688 6.44531 30.4688ZM6.44531 33.9844C6.44531 34.5258 6.44531 35.0672 6.44531 35.6251C17.3508 35.6251 28.2563 35.6251 39.4922 35.6251C39.4922 35.0837 39.4922 34.5422 39.4922 33.9844C28.5867 33.9844 17.6812 33.9844 6.44531 33.9844ZM6.44531 37.5001C6.44531 38.0415 6.44531 38.5829 6.44531 39.1407C17.3508 39.1407 28.2563 39.1407 39.4922 39.1407C39.4922 38.5993 39.4922 38.0579 39.4922 37.5001C28.5867 37.5001 17.6812 37.5001 6.44531 37.5001ZM10.8984 41.0157C10.8984 41.7891 10.8984 42.5626 10.8984 43.3594C11.4398 43.3594 11.9812 43.3594 12.5391 43.3594C12.5391 42.586 12.5391 41.8126 12.5391 41.0157C11.9977 41.0157 11.4563 41.0157 10.8984 41.0157ZM14.2969 41.0157C14.2969 41.7891 14.2969 42.5626 14.2969 43.3594C20.0203 43.3594 25.7438 43.3594 31.6406 43.3594C31.6406 42.586 31.6406 41.8126 31.6406 41.0157C25.9172 41.0157 20.1937 41.0157 14.2969 41.0157ZM33.5156 41.0157C33.5156 41.7891 33.5156 42.5626 33.5156 43.3594C34.057 43.3594 34.5984 43.3594 35.1562 43.3594C35.1562 42.586 35.1562 41.8126 35.1562 41.0157C34.6148 41.0157 34.0734 41.0157 33.5156 41.0157ZM3.98438 45.2344C3.98438 46.0465 3.98438 46.8587 3.98438 47.6954C16.5914 47.6954 29.1984 47.6954 42.1875 47.6954C42.1875 46.8833 42.1875 46.0712 42.1875 45.2344C29.5805 45.2344 16.9734 45.2344 3.98438 45.2344ZM8.78906 49.5704C8.78906 50.9626 8.78906 52.3547 8.78906 53.7891C9.33047 53.7891 9.87187 53.7891 10.4297 53.7891C10.4297 52.3969 10.4297 51.0047 10.4297 49.5704C9.88828 49.5704 9.34688 49.5704 8.78906 49.5704ZM12.3047 49.5704C12.3047 51.0012 12.3047 52.4321 12.3047 53.9063C19.4203 53.9063 26.5359 53.9063 33.8672 53.9063C33.8672 52.4755 33.8672 51.0446 33.8672 49.5704C26.7516 49.5704 19.6359 49.5704 12.3047 49.5704ZM35.7422 49.5704C35.7422 50.9626 35.7422 52.3547 35.7422 53.7891C36.2836 53.7891 36.825 53.7891 37.3828 53.7891C37.3828 52.3969 37.3828 51.0047 37.3828 49.5704C36.8414 49.5704 36.3 49.5704 35.7422 49.5704Z" fill="#C08F4F"/>
<path d="M10.4072 5.0537C11.594 5.86163 12.3228 7.05935 12.6558 8.43749C12.8385 10.0678 12.6285 11.4881 11.623 12.8247C10.6551 13.9452 9.41251 14.6823 7.9234 14.7958C6.20052 14.8489 4.87024 14.4112 3.60669 13.2344C2.59803 12.1825 2.18938 10.9429 2.07227 9.51415C2.12161 7.99073 2.69689 6.73303 3.72388 5.63323C5.59465 3.88762 8.25774 3.79959 10.4072 5.0537ZM4.68701 7.38281C4.18225 8.1977 3.87054 8.99097 3.98389 9.96093C4.24678 11.0489 4.75347 11.7846 5.63184 12.4658C6.46445 12.9264 7.26646 13.0092 8.20264 12.8906C9.22978 12.5564 10.0528 11.9818 10.5523 11.0106C10.9242 10.0995 10.9662 9.25603 10.6636 8.32031C10.2137 7.3187 9.57856 6.6704 8.57617 6.22558C7.13634 5.75503 5.65561 6.24416 4.68701 7.38281Z" fill="#C08F4F"/>
</svg>
