<svg width="60" height="60" viewBox="0 0 60 60" fill="none" xmlns="http://www.w3.org/2000/svg">
<g clip-path="url(#clip0_693_38)">
<path d="M2.2127 -0.0156164C2.30971 -0.0158921 2.40672 -0.0161677 2.50667 -0.0164517C2.83526 -0.0172386 3.16386 -0.0171819 3.49246 -0.017134C3.72901 -0.0175204 3.96557 -0.0179569 4.20212 -0.0184396C4.85493 -0.0196168 5.50774 -0.0200499 6.16056 -0.0203603C6.86354 -0.0208168 7.56652 -0.0219393 8.2695 -0.0229633C9.8882 -0.0251723 11.5069 -0.0263645 13.1256 -0.0273532C13.9252 -0.0278459 14.7248 -0.0284579 15.5244 -0.0290741C18.2604 -0.0311707 20.9965 -0.0329282 23.7325 -0.0337991C23.9043 -0.0338547 24.0762 -0.0339105 24.248 -0.0339664C24.3758 -0.034008 24.3758 -0.034008 24.5062 -0.0340504C24.9379 -0.0341911 25.3696 -0.0343336 25.8014 -0.0344771C25.9299 -0.0345194 25.9299 -0.0345194 26.061 -0.0345624C28.8396 -0.0354876 31.6182 -0.0382339 34.3968 -0.0420423C37.3331 -0.0460596 40.2695 -0.0483713 43.2059 -0.0487574C43.5281 -0.0488063 43.8504 -0.0488625 44.1726 -0.0489242C44.2916 -0.0489459 44.2916 -0.0489459 44.413 -0.0489679C45.691 -0.0492415 46.969 -0.051078 48.247 -0.053476C49.5311 -0.0558472 50.8152 -0.056454 52.0993 -0.0553779C52.7953 -0.0548435 53.4913 -0.0550776 54.1872 -0.0573421C54.8239 -0.059396 55.4606 -0.0593015 56.0973 -0.0574713C56.328 -0.057191 56.5588 -0.0577092 56.7895 -0.0590919C57.1025 -0.0608515 57.4153 -0.0597386 57.7283 -0.0578934C57.8185 -0.0590913 57.9087 -0.0602892 58.0016 -0.0615234C58.607 -0.0536998 58.9469 0.0886311 59.414 0.468863C59.9443 1.07079 60.0172 1.42839 60.0157 2.21283C60.016 2.30984 60.0163 2.40685 60.0165 2.5068C60.0173 2.83539 60.0173 3.16399 60.0172 3.49258C60.0176 3.72914 60.0181 3.96569 60.0185 4.20225C60.0197 4.85506 60.0201 5.50787 60.0205 6.16069C60.0209 6.86367 60.022 7.56665 60.0231 8.26963C60.0253 9.88833 60.0265 11.507 60.0275 13.1257C60.0279 13.9253 60.0286 14.7249 60.0292 15.5245C60.0313 18.2605 60.033 20.9966 60.0339 23.7326C60.034 23.9045 60.034 24.0763 60.0341 24.2481C60.0341 24.3759 60.0341 24.3759 60.0341 24.5063C60.0343 24.938 60.0344 25.3698 60.0346 25.8015C60.0346 25.8872 60.0346 25.9729 60.0347 26.0611C60.0356 28.8397 60.0383 31.6183 60.0421 34.3969C60.0462 37.3333 60.0485 40.2697 60.0489 43.2061C60.0489 43.5283 60.049 43.8505 60.049 44.1727C60.049 44.252 60.049 44.3314 60.0491 44.4131C60.0493 45.6911 60.0512 46.9691 60.0536 48.2472C60.0559 49.5313 60.0565 50.8154 60.0555 52.0995C60.0549 52.7954 60.0552 53.4914 60.0574 54.1873C60.0595 54.8241 60.0594 55.4607 60.0576 56.0974C60.0573 56.3282 60.0578 56.5589 60.0592 56.7897C60.0609 57.1026 60.0598 57.4155 60.058 57.7284C60.0592 57.8186 60.0604 57.9088 60.0616 58.0018C60.0538 58.6071 59.9115 58.9471 59.5312 59.4142C58.998 59.8839 58.7266 60.0147 58.0215 60.0158C57.8737 60.0164 57.7259 60.0169 57.5736 60.0174C57.4081 60.0174 57.2425 60.0174 57.077 60.0174C56.9023 60.0177 56.7276 60.0182 56.5529 60.0187C56.0711 60.0198 55.5893 60.0203 55.1076 60.0206C54.5886 60.021 54.0697 60.0222 53.5508 60.0232C52.2967 60.0255 51.0426 60.0267 49.7885 60.0277C49.1983 60.0282 48.6082 60.0289 48.018 60.0295C46.0569 60.0315 44.0958 60.0332 42.1347 60.034C41.6256 60.0342 41.1164 60.0345 40.6073 60.0347C40.4807 60.0348 40.3542 60.0348 40.2238 60.0349C38.1729 60.0358 36.1221 60.0388 34.0712 60.0426C31.967 60.0465 29.8628 60.0486 27.7586 60.049C26.5766 60.0492 25.3946 60.0503 24.2126 60.0533C23.2061 60.0558 22.1996 60.0567 21.1932 60.0556C20.6795 60.0551 20.1658 60.0553 19.6521 60.0576C19.1819 60.0596 18.7118 60.0595 18.2417 60.0577C18.0715 60.0574 17.9013 60.0579 17.7311 60.0593C17.4999 60.0611 17.2687 60.0597 17.0374 60.0581C16.8447 60.0583 16.8447 60.0583 16.6481 60.0585C16.0634 59.9634 15.6996 59.6604 15.3149 59.2237C15.0226 58.8124 14.985 58.6008 14.9827 58.1003C14.9819 57.9709 14.9811 57.8414 14.9802 57.708C14.9799 57.5653 14.9796 57.4226 14.9792 57.2756C14.9785 57.1258 14.9777 56.9761 14.9769 56.8217C14.9744 56.3242 14.9732 55.8266 14.9721 55.3291C14.9716 55.1578 14.9711 54.9865 14.9706 54.8153C14.9684 54.0105 14.9667 53.2057 14.9657 52.4009C14.9646 51.4721 14.9615 50.5433 14.9568 49.6144C14.9532 48.8965 14.9515 48.1785 14.9511 47.4605C14.9508 47.0317 14.9498 46.603 14.9468 46.1742C14.9436 45.6956 14.9441 45.217 14.9449 44.7384C14.9434 44.5966 14.9419 44.4549 14.9404 44.3088C14.945 43.5664 14.9606 43.0988 15.4687 42.5392C15.9741 42.0831 16.3258 41.9385 17.0002 41.9391C17.1843 41.9389 17.1843 41.9389 17.3721 41.9387C17.5068 41.9391 17.6414 41.9395 17.7801 41.9399C17.9927 41.9399 17.9927 41.9399 18.2097 41.9399C18.5985 41.94 18.9873 41.9405 19.3762 41.9414C19.7825 41.9421 20.1888 41.9422 20.5951 41.9423C21.3646 41.9427 22.1341 41.9436 22.9035 41.9448C23.7795 41.9461 24.6555 41.9468 25.5315 41.9473C27.3335 41.9486 29.1355 41.9506 30.9375 41.9532C30.8988 41.8759 30.8601 41.7985 30.8203 41.7189C30.8104 41.5149 30.8077 41.3106 30.8089 41.1064C30.8092 40.9855 30.8096 40.8647 30.81 40.7402C30.811 40.6136 30.812 40.487 30.813 40.3566C30.8135 40.2291 30.814 40.1016 30.8146 39.9702C30.816 39.6546 30.8179 39.3391 30.8203 39.0236C30.75 39.026 30.6798 39.0285 30.6074 39.031C30.2853 39.0408 29.9633 39.0469 29.6411 39.0528C29.5306 39.0568 29.4201 39.0607 29.3062 39.0648C28.5683 39.075 28.1242 39.0194 27.539 38.5548C26.8812 37.8162 26.8691 37.0801 26.8773 36.1273C26.8763 35.9801 26.8752 35.8328 26.8742 35.6812C26.8715 35.2797 26.8725 34.8783 26.8744 34.4769C26.8759 34.0553 26.8745 33.6338 26.8736 33.2123C26.8725 32.5046 26.8739 31.7969 26.8767 31.0892C26.8799 30.2728 26.8789 29.4565 26.8756 28.6401C26.873 27.9373 26.8726 27.2344 26.8741 26.5316C26.8751 26.1126 26.8752 25.6937 26.8732 25.2747C26.8712 24.8074 26.874 24.3403 26.8773 23.8729C26.8761 23.7353 26.8749 23.5977 26.8737 23.4559C26.8842 22.6428 26.9873 22.0649 27.539 21.4454C28.2148 20.9088 28.7999 20.9175 29.6411 20.9474C29.7548 20.9495 29.8684 20.9516 29.9856 20.9538C30.2639 20.9593 30.5421 20.967 30.8203 20.9767C30.6939 20.681 30.5669 20.3857 30.4394 20.0904C30.3866 19.9666 30.3866 19.9666 30.3328 19.8403C30.154 19.4275 29.9663 19.0324 29.7381 18.6444C29.5312 18.2814 29.5312 18.2814 29.5312 18.047C29.3871 18.0475 29.2431 18.0481 29.0946 18.0486C25.6732 18.0613 22.2517 18.071 18.8302 18.0769C18.409 18.0776 17.9877 18.0784 17.5664 18.0792C17.4406 18.0794 17.4406 18.0794 17.3123 18.0796C15.955 18.0822 14.5976 18.0868 13.2403 18.0922C11.8472 18.0977 10.4541 18.1009 9.06099 18.1021C8.27865 18.1028 7.49633 18.1047 6.71399 18.1089C5.97759 18.1129 5.24123 18.1141 4.50481 18.1133C4.2346 18.1134 3.96438 18.1146 3.69417 18.1168C3.32496 18.1198 2.95592 18.119 2.58671 18.1174C2.42665 18.12 2.42665 18.12 2.26337 18.1226C1.36923 18.1122 0.80061 17.7998 0.179555 17.1659C-0.095663 16.5406 -0.0652188 15.9452 -0.0606704 15.2693C-0.0614918 15.1194 -0.0623132 14.9696 -0.0631595 14.8152C-0.0652906 14.4055 -0.0644703 13.9959 -0.0629818 13.5862C-0.0617921 13.1567 -0.0628965 12.7273 -0.0636316 12.2978C-0.0644835 11.5767 -0.0633628 10.8556 -0.0611282 10.1345C-0.0585773 9.30177 -0.0594036 8.46906 -0.0619842 7.63629C-0.0641139 6.9203 -0.0644105 6.20433 -0.063185 5.48834C-0.0624555 5.06114 -0.062353 4.63397 -0.0639052 4.20677C-0.0655151 3.73042 -0.0632815 3.25417 -0.0606704 2.77782C-0.0616193 2.63681 -0.0625681 2.4958 -0.0635457 2.35051C-0.0560288 1.61061 -0.037173 1.1439 0.468733 0.58605C1.07066 0.0557841 1.42826 -0.0171101 2.2127 -0.0156164ZM2.10936 2.10949C2.10936 6.67277 2.10936 11.236 2.10936 15.9376C10.6558 15.9376 19.2023 15.9376 28.0078 15.9376C26.8566 14.0189 24.9865 12.6884 23.149 11.4838C22.429 11.0112 21.7375 10.5355 21.0937 9.96105C21.0105 9.88733 20.9273 9.81361 20.8415 9.73766C20.2452 9.17802 19.8279 8.57669 19.4531 7.85168C19.3842 7.72252 19.3842 7.72252 19.3139 7.59075C18.5501 5.95643 18.7144 3.82357 18.6328 2.10949C13.1801 2.10949 7.72733 2.10949 2.10936 2.10949ZM20.7422 2.10949C20.5984 5.36751 20.5984 5.36751 22.1022 8.0476C22.2411 8.18265 22.2411 8.18265 22.3828 8.32043C22.4597 8.39837 22.5366 8.47632 22.6158 8.55663C23.2385 9.15154 23.9428 9.59519 24.6667 10.0542C29.4849 13.1228 32.5693 17.9867 33.8374 23.5218C34.5743 27.0146 34.3312 30.2658 33.5817 33.7143C32.0711 40.6897 32.9445 48.389 36.7969 54.4923C37.0231 54.8382 37.2558 55.179 37.4927 55.5177C37.5458 55.5937 37.5989 55.6697 37.6537 55.748C38.1918 56.4982 38.7793 57.1759 39.375 57.8907C45.4851 57.8907 51.5953 57.8907 57.8906 57.8907C57.8906 39.4829 57.8906 21.0751 57.8906 2.10949C45.6316 2.10949 33.3726 2.10949 20.7422 2.10949ZM29.0625 23.0861C29.0625 27.6493 29.0625 32.2126 29.0625 36.9142C29.6812 36.9142 30.3 36.9142 30.9375 36.9142C31.1332 36.5227 31.1388 36.0778 31.1938 35.6471C31.3349 34.59 31.5396 33.5543 31.7651 32.5123C32.455 29.2669 32.4485 26.3176 31.6406 23.0861C30.7898 23.0861 29.939 23.0861 29.0625 23.0861ZM17.1094 44.0626C17.1094 48.6259 17.1094 53.1892 17.1094 57.8907C23.5289 57.8907 29.9484 57.8907 36.5625 57.8907C36.1217 57.198 35.6817 56.5097 35.2295 55.8253C33.0653 52.4668 31.6815 48.5559 31.2254 44.5849C31.2164 44.2006 31.2164 44.2006 31.0547 44.0626C30.8738 44.0514 30.6924 44.0483 30.5112 44.0485C30.3349 44.0483 30.3349 44.0483 30.1551 44.048C29.9601 44.0487 29.9601 44.0487 29.7612 44.0493C29.5572 44.0493 29.5572 44.0493 29.349 44.0493C28.8969 44.0493 28.4448 44.0503 27.9927 44.0512C27.6802 44.0514 27.3677 44.0516 27.0552 44.0517C26.3152 44.052 25.5752 44.053 24.8352 44.0542C23.9104 44.0556 22.9856 44.0563 22.0608 44.0569C20.4103 44.058 18.7598 44.0604 17.1094 44.0626Z" fill="#C08F4F"/>
<path d="M2.12148 20.9593C2.20819 20.9589 2.29491 20.9585 2.38425 20.958C2.67636 20.9567 2.96846 20.9563 3.26056 20.9558C3.46939 20.9551 3.67822 20.9543 3.88705 20.9535C4.45558 20.9515 5.02411 20.9502 5.59263 20.9493C5.94775 20.9487 6.30287 20.9479 6.65798 20.9472C7.7688 20.945 8.87961 20.9433 9.99043 20.9423C11.2731 20.9412 12.5558 20.9381 13.8385 20.9334C14.8295 20.9298 15.8206 20.9281 16.8116 20.9277C17.4037 20.9274 17.9957 20.9264 18.5878 20.9234C19.145 20.9207 19.7022 20.9202 20.2594 20.9214C20.4637 20.9215 20.668 20.9207 20.8723 20.9191C21.1518 20.917 21.431 20.9179 21.7105 20.9194C21.7909 20.9181 21.8713 20.9169 21.9542 20.9155C22.5811 20.9238 22.9301 21.1038 23.4376 21.4453C23.9065 21.9513 24.0377 22.3174 24.0407 22.9979C24.042 23.1892 24.042 23.1892 24.0433 23.3843C24.0436 23.5242 24.0439 23.6641 24.0442 23.8082C24.045 23.9555 24.0458 24.1028 24.0466 24.2546C24.049 24.7434 24.0502 25.2321 24.0514 25.7208C24.0519 25.8893 24.0524 26.0577 24.0529 26.2261C24.0551 27.0174 24.0568 27.8087 24.0577 28.6001C24.0589 29.5127 24.062 30.4254 24.0667 31.338C24.0702 32.0439 24.072 32.7498 24.0724 33.4558C24.0726 33.8772 24.0737 34.2985 24.0766 34.7199C24.0799 35.1903 24.0794 35.6607 24.0786 36.1312C24.0808 36.3396 24.0808 36.3396 24.0831 36.5523C24.0782 37.3255 24.0218 37.8116 23.5547 38.4375C22.9797 38.9705 22.5332 39.0409 21.7744 39.0399C21.6448 39.0404 21.6448 39.0404 21.5126 39.041C21.2222 39.042 20.9318 39.0422 20.6414 39.0423C20.4335 39.0429 20.2256 39.0435 20.0177 39.0441C19.4524 39.0456 18.887 39.0464 18.3216 39.0469C17.9685 39.0473 17.6154 39.0477 17.2622 39.0483C16.1576 39.0499 15.053 39.051 13.9484 39.0515C12.6728 39.052 11.3972 39.054 10.1216 39.0574C9.13596 39.06 8.15028 39.0611 7.1646 39.0613C6.57576 39.0614 5.98692 39.0621 5.39808 39.0642C4.84414 39.0661 4.29022 39.0664 3.73628 39.0654C3.53305 39.0653 3.32982 39.0658 3.12659 39.0669C2.84895 39.0684 2.57139 39.0677 2.29374 39.0665C2.17338 39.0679 2.17338 39.0679 2.05058 39.0694C1.44004 39.0631 0.961419 38.913 0.51046 38.492C0.125566 37.9887 -0.0144074 37.752 -0.0171932 37.1237C-0.0180317 36.9942 -0.0188702 36.8648 -0.0197341 36.7314C-0.0200492 36.5887 -0.0203644 36.446 -0.020689 36.299C-0.0214591 36.1492 -0.0222291 35.9994 -0.0230225 35.8451C-0.0254893 35.3475 -0.0267027 34.85 -0.0278702 34.3524C-0.0283445 34.1812 -0.0288269 34.0099 -0.0293175 33.8386C-0.0315504 33.0338 -0.0332181 32.229 -0.0341939 31.4242C-0.0353388 30.4954 -0.0384221 29.5666 -0.0431588 28.6378C-0.0466944 27.9198 -0.0484286 27.2018 -0.0488167 26.4839C-0.049092 26.0551 -0.0501408 25.6263 -0.0530894 25.1976C-0.0563277 24.7189 -0.0558371 24.2404 -0.0550213 23.7617C-0.0565225 23.62 -0.0580236 23.4782 -0.0595703 23.3322C-0.0549526 22.59 -0.0397799 22.1216 0.468803 21.5625C1.04155 21.058 1.37518 20.9591 2.12148 20.9593ZM2.10943 23.086C2.10943 27.6492 2.10943 32.2125 2.10943 36.9141C8.64498 36.9141 15.1805 36.9141 21.9141 36.9141C21.9141 32.3508 21.9141 27.7875 21.9141 23.086C15.3786 23.086 8.84302 23.086 2.10943 23.086Z" fill="#C08F4F"/>
<path d="M2.27414 41.9344C2.36221 41.9338 2.45029 41.9332 2.54103 41.9326C2.8325 41.9309 3.12396 41.9301 3.41543 41.9294C3.61818 41.9288 3.82092 41.9281 4.02367 41.9274C4.44895 41.9262 4.87422 41.9255 5.2995 41.9251C5.84369 41.9245 6.38785 41.9216 6.93203 41.9183C7.35095 41.9161 7.76987 41.9155 8.18881 41.9153C8.38938 41.915 8.58996 41.914 8.79053 41.9125C9.07158 41.9105 9.35255 41.9107 9.6336 41.9115C9.716 41.9104 9.79839 41.9093 9.88328 41.9082C10.5221 41.9136 10.9962 42.0707 11.4684 42.5062C11.5245 42.5751 11.5805 42.644 11.6382 42.715C11.7246 42.8183 11.7246 42.8183 11.8126 42.9237C12.076 43.3012 12.0856 43.6368 12.0876 44.0821C12.0885 44.2075 12.0893 44.3328 12.0902 44.4619C12.0905 44.5995 12.0908 44.737 12.0911 44.8787C12.0919 45.0235 12.0926 45.1684 12.0934 45.3176C12.0958 45.7982 12.0971 46.2787 12.0983 46.7593C12.0988 46.925 12.0992 47.0906 12.0997 47.2563C12.102 48.0348 12.1036 48.8133 12.1046 49.5918C12.1058 50.4892 12.1088 51.3867 12.1136 52.2841C12.1171 52.9785 12.1188 53.6729 12.1192 54.3673C12.1195 54.7817 12.1206 55.196 12.1235 55.6104C12.1268 56.0732 12.1263 56.536 12.1254 56.9989C12.1269 57.1352 12.1284 57.2716 12.13 57.412C12.1249 58.2132 12.033 58.7331 11.6016 59.4142C11.0218 59.9657 10.5461 60.018 9.77477 60.0209C9.68441 60.0216 9.59404 60.0224 9.50094 60.0232C9.20187 60.0255 8.9028 60.0269 8.60372 60.028C8.45038 60.0288 8.45038 60.0288 8.29393 60.0295C7.75288 60.0319 7.21184 60.0336 6.67079 60.0347C6.1124 60.036 5.55406 60.04 4.99569 60.0447C4.56591 60.0478 4.13614 60.0487 3.70634 60.0492C3.50053 60.0497 3.29472 60.0511 3.08892 60.0533C2.80056 60.0561 2.51233 60.056 2.22396 60.0552C2.09708 60.0574 2.09708 60.0574 1.96764 60.0597C1.37456 60.0537 1.04407 59.9009 0.585991 59.5314C0.145086 59.0309 -0.0142606 58.7617 -0.0171932 58.1004C-0.0180317 57.9709 -0.0188702 57.8414 -0.0197341 57.708C-0.0200492 57.5653 -0.0203644 57.4226 -0.020689 57.2756C-0.0214591 57.1258 -0.0222291 56.9761 -0.0230225 56.8217C-0.0254893 56.3242 -0.0267027 55.8267 -0.0278702 55.3291C-0.0283445 55.1578 -0.0288269 54.9865 -0.0293175 54.8153C-0.0315504 54.0105 -0.0332181 53.2057 -0.0341939 52.4009C-0.0353388 51.4721 -0.0384221 50.5433 -0.0431588 49.6144C-0.0466944 48.8965 -0.0484286 48.1785 -0.0488167 47.4605C-0.049092 47.0318 -0.0501408 46.603 -0.0530894 46.1742C-0.0563277 45.6956 -0.0558371 45.217 -0.0550213 44.7384C-0.0565225 44.5966 -0.0580236 44.4549 -0.0595703 44.3089C-0.0549511 43.5664 -0.0393219 43.0988 0.468803 42.5392C1.05896 42.0066 1.50249 41.9356 2.27414 41.9344ZM2.10943 44.0626C2.10943 48.6259 2.10943 53.1892 2.10943 57.8907C4.70044 57.8907 7.29146 57.8907 9.96099 57.8907C9.96099 53.3275 9.96099 48.7642 9.96099 44.0626C7.36998 44.0626 4.77896 44.0626 2.10943 44.0626Z" fill="#C08F4F"/>
<path d="M37.9683 27.0703C38.2781 27.2901 38.3143 27.4051 38.4371 27.7734C38.487 28.7003 38.4185 29.6215 38.3126 30.542C38.2907 30.7346 38.2907 30.7346 38.2684 30.9312C38.13 32.0491 37.9058 33.1409 37.668 34.2407C37.3334 35.7922 37.0905 37.3171 37.0308 38.9062C37.0271 38.9959 37.0234 39.0856 37.0196 39.1781C36.837 44.314 38.1124 49.6207 41.2551 53.7529C41.5868 54.198 41.8151 54.5055 41.9234 55.0561C41.8099 55.5386 41.6426 55.7186 41.2496 56.0156C40.9007 56.1464 40.7346 56.1546 40.3789 56.0454C38.3741 55.0673 36.9058 50.9604 36.2105 48.9844C35.066 45.6569 34.6844 42.1798 34.8043 38.6719C34.8072 38.5733 34.8102 38.4747 34.8132 38.3731C34.8773 36.6774 35.212 35.0492 35.5648 33.3952C35.8979 31.8282 36.1159 30.2867 36.1885 28.6858C36.2608 27.5051 36.2608 27.5051 36.6587 27.1449C37.2015 26.8652 37.3861 26.9176 37.9683 27.0703Z" fill="#C08F4F"/>
<path d="M24.2575 3.98447C24.5285 4.10166 24.5285 4.10166 24.7262 4.33604C24.7698 4.47864 24.8133 4.62124 24.8581 4.76816C25.2093 5.78651 26.3941 6.31154 27.2587 6.85651C28.5583 7.6819 29.7085 8.66566 30.82 9.72666C30.97 9.86737 30.97 9.86737 31.123 10.0109C33.702 12.4963 35.5682 15.7964 36.8332 19.1163C36.8776 19.2322 36.9221 19.3481 36.9678 19.4675C37.1876 20.0719 37.3357 20.5672 37.2653 21.211C37.0822 21.5479 37.0822 21.5479 36.7966 21.797C36.3603 21.9239 36.0943 21.9526 35.6613 21.8116C35.0943 21.2905 34.8872 20.4282 34.6186 19.7189C33.5137 16.8307 31.966 14.238 29.8825 11.9532C29.8294 11.8949 29.7764 11.8365 29.7217 11.7764C28.4484 10.3958 26.9445 9.31505 25.3781 8.29111C23.0446 6.76099 23.0446 6.76099 22.7341 5.6251C22.6354 5.05498 22.6478 4.70242 22.9684 4.21152C23.4536 3.89821 23.6862 3.91192 24.2575 3.98447Z" fill="#C08F4F"/>
</g>
<defs>
<clipPath id="clip0_693_38">
<rect width="60" height="60" fill="white"/>
</clipPath>
</defs>
</svg>
