<svg width="60" height="60" viewBox="0 0 60 60" fill="none" xmlns="http://www.w3.org/2000/svg">
<path d="M35.8599 2.92981C36.0605 3.11963 36.2552 3.31579 36.4458 3.51575C36.5398 3.60835 36.6337 3.70095 36.7305 3.79636C37.2377 4.29784 37.728 4.80372 38.1917 5.34543C38.5342 5.73442 38.8891 6.11134 39.2437 6.48938C40.5278 7.86133 40.5278 7.86133 41.1333 8.55481C41.2681 8.70685 41.2681 8.70685 41.4057 8.86197C41.4922 8.96363 41.5788 9.0653 41.668 9.17004C41.7455 9.26008 41.823 9.35011 41.9028 9.44287C42.1163 9.80358 42.1262 10.0168 42.0708 10.4298C41.9326 10.6665 41.9326 10.6665 41.7339 10.8766C41.6215 10.9955 41.6215 10.9955 41.5068 11.1169C41.0448 11.5682 40.5648 11.997 40.0786 12.422C39.8783 12.6001 39.6781 12.7783 39.478 12.9567C39.3267 13.091 39.1753 13.2253 39.0239 13.3595C39.3952 13.4661 39.7443 13.501 40.1297 13.5204C40.2573 13.5271 40.3848 13.5337 40.5163 13.5406C40.6537 13.5473 40.7912 13.554 40.9328 13.5609C41.075 13.5683 41.2172 13.5756 41.3638 13.5832C41.8192 13.6067 42.2746 13.6296 42.73 13.6525C43.1829 13.6753 43.6358 13.6984 44.0887 13.7217C44.3704 13.7362 44.6521 13.7505 44.9339 13.7644C45.3078 13.7835 45.6815 13.8051 46.0552 13.8282C46.1639 13.8344 46.2727 13.8406 46.3847 13.8469C46.9941 13.8922 47.4347 13.9954 47.9737 14.3052C48.1071 14.3805 48.2406 14.4558 48.3782 14.5334C48.5194 14.6157 48.6606 14.698 48.8018 14.7804C48.9496 14.8646 49.0975 14.9486 49.2455 15.0325C49.5517 15.2061 49.8573 15.3807 50.1625 15.5561C50.6189 15.8176 51.0783 16.0734 51.5387 16.3276C51.6116 16.3679 51.6844 16.4081 51.7595 16.4496C51.9027 16.5286 52.0458 16.6076 52.189 16.6866C52.5205 16.8695 52.8516 17.0529 53.1826 17.2368C53.2916 17.2972 53.4007 17.3577 53.5131 17.42C53.7274 17.5427 53.9357 17.6757 54.1411 17.8126C54.8483 17.8789 55.5665 17.8153 56.2725 17.754C56.8927 17.7037 57.5108 17.6715 58.1328 17.6588C58.218 17.6553 58.3031 17.6519 58.3909 17.6483C58.7959 17.6437 59.0207 17.6646 59.3518 17.9065C59.6148 18.2831 59.5958 18.5364 59.5317 18.9845C59.2717 19.3252 59.1193 19.4345 58.7114 19.5704C58.4917 19.5959 58.2714 19.6161 58.0509 19.6331C57.9189 19.6435 57.787 19.6538 57.651 19.6645C57.0768 19.7055 56.5022 19.7411 55.9277 19.7765C55.624 19.7991 55.3289 19.832 55.0283 19.8776C53.4868 20.0384 52.2545 19.1273 50.9738 18.37C50.6029 18.1509 50.2282 17.9399 49.8516 17.7309C49.3915 17.4755 48.9345 17.2145 48.4775 16.9536C48.1905 16.79 47.9029 16.6274 47.6152 16.465C47.5267 16.4141 47.4382 16.3632 47.347 16.3108C47.2634 16.2638 47.1799 16.2168 47.0938 16.1683C47.0205 16.1266 46.9471 16.0848 46.8715 16.0418C46.407 15.8318 45.9161 15.8022 45.4123 15.7749C45.2862 15.7678 45.1602 15.7608 45.0303 15.7536C44.8949 15.7465 44.7596 15.7394 44.6201 15.7321C44.4791 15.7244 44.3382 15.7168 44.193 15.7089C43.8944 15.6929 43.5959 15.677 43.2973 15.6614C42.8452 15.6376 42.3931 15.6129 41.941 15.5881C41.65 15.5726 41.3589 15.5571 41.0678 15.5417C40.9346 15.5343 40.8014 15.527 40.6641 15.5195C40.2737 15.4994 39.8833 15.4834 39.4927 15.4689C39.2717 15.4585 39.2717 15.4585 39.0462 15.4479C38.9 15.4437 38.7538 15.4394 38.6032 15.435C38.4706 15.4302 38.338 15.4255 38.2013 15.4205C37.8406 15.4411 37.8406 15.4411 37.573 15.6829C37.3213 16.0209 37.3394 16.2281 37.3833 16.6407C37.422 16.7568 37.4606 16.8728 37.5005 16.9923C37.8216 17.0882 38.1249 17.1588 38.4531 17.2198C38.5521 17.2395 38.6511 17.2592 38.7531 17.2794C39.4048 17.4067 40.0588 17.5189 40.7138 17.6279C41.1666 17.7038 41.6187 17.7833 42.0708 17.8633C42.3014 17.903 42.5324 17.9405 42.7637 17.976C44.2278 18.203 45.2226 18.4542 46.1422 19.666C46.2295 19.7891 46.3168 19.9123 46.4067 20.0392C46.5351 20.2005 46.6639 20.3615 46.7931 20.5221C46.8893 20.6514 46.9851 20.7809 47.0806 20.9108C47.8054 21.8573 48.507 22.474 49.688 22.7345C50.2965 22.7709 50.9026 22.7372 51.511 22.7105C51.692 22.7058 51.692 22.7058 51.8766 22.7011C52.0395 22.694 52.0395 22.694 52.2058 22.6869C52.5974 22.7502 52.7303 22.893 52.9692 23.2032C53.0212 23.6193 53.0173 23.905 52.8594 24.2946C52.0384 24.9663 50.5742 24.7735 49.5708 24.7267C49.4935 24.688 49.4161 24.6493 49.3364 24.6095C49.4207 24.9763 49.4207 24.9763 49.7173 25.1515C50.027 25.419 50.1259 25.5666 50.3032 25.9205C50.592 26.4752 50.9688 26.8584 51.4193 27.287C51.768 27.6241 52.0737 27.9864 52.3833 28.3595C52.8087 28.1738 53.1283 27.9106 53.4819 27.6124C53.5967 27.5188 53.7115 27.4251 53.8298 27.3286C54.0506 27.1455 54.2662 26.9562 54.478 26.7628C55.1034 26.4876 55.7054 26.6236 56.3677 26.7189C56.4958 26.736 56.4958 26.736 56.6266 26.7534C56.8973 26.7903 57.1671 26.8308 57.437 26.8727C57.5661 26.8912 57.5661 26.8912 57.6979 26.91C58.0711 26.9737 58.3132 27.0256 58.5901 27.2915C58.7743 27.6675 58.7629 27.9479 58.7114 28.3595C58.5503 28.6451 58.5503 28.6451 58.2427 28.8282C57.7076 28.9027 57.1832 28.8468 56.6529 28.7591C55.7247 28.6202 55.7247 28.6202 54.8877 28.9642C54.5338 29.2452 54.2167 29.5545 53.9067 29.8829C53.9632 29.9867 53.9632 29.9867 54.0207 30.0926C54.1999 30.4781 54.1919 30.7515 54.1411 31.172C53.7569 31.7815 53.1916 32.1883 52.6328 32.6346C52.1589 33.013 51.6996 33.4087 51.2396 33.8038C50.6465 34.3097 50.6465 34.3097 50.2007 34.3947C49.0141 34.2189 47.9153 32.5107 47.1492 31.6375C47.0565 31.5323 46.9637 31.427 46.8682 31.3185C46.787 31.2248 46.7059 31.1312 46.6223 31.0347C46.411 30.7929 46.411 30.7929 46.0552 30.7032C45.7606 30.8298 45.4776 30.9637 45.1909 31.1061C44.2501 31.5437 43.412 31.7294 42.383 31.4489C41.6281 31.1294 41.1285 30.4834 40.7025 29.8042C40.3644 29.2157 40.3644 29.2157 39.8255 28.8479C39.6464 28.82 39.4669 28.7942 39.2871 28.7706C38.1993 28.5246 37.0445 26.7797 36.4458 25.8986C36.4458 25.8212 36.4458 25.7439 36.4458 25.6642C36.3419 25.6545 36.2379 25.6448 36.1309 25.6349C35.6296 25.5214 35.3136 25.3214 35.0296 24.8811C34.9056 24.6495 34.7917 24.4154 34.6807 24.1774C34.6405 24.094 34.6003 24.0106 34.5589 23.9246C34.444 23.6849 34.3313 23.4443 34.2192 23.2032C34.165 23.088 34.1108 22.9727 34.0549 22.854C33.7505 22.1899 33.7505 22.1899 33.7505 21.9142C33.6683 21.8948 33.5861 21.8755 33.5015 21.8556C33.0024 21.5952 32.7288 21.2335 32.4614 20.7423C32.3453 20.3547 32.2748 19.9719 32.2271 19.5704C32.1774 19.6198 32.1277 19.6692 32.0764 19.7201C31.7297 20.044 31.4514 20.2565 31.0039 20.4274C30.0777 20.3461 29.4662 19.3862 28.8854 18.7272C28.5591 18.3589 28.2258 17.9976 27.8911 17.6368C27.3927 17.0986 26.8996 16.5561 26.4102 16.0095C26.016 15.5735 25.6159 15.1429 25.2146 14.7133C24.2907 13.719 24.2907 13.719 24.1484 13.1691C24.1798 12.5052 24.7416 12.093 25.2008 11.6736C25.3152 11.5725 25.4295 11.4714 25.5474 11.3673C25.6808 11.2465 25.6808 11.2465 25.817 11.1233C26.0367 10.9275 26.2593 10.7362 26.4849 10.547C26.5554 10.4876 26.626 10.4283 26.6986 10.3671C26.8612 10.2311 27.0245 10.0959 27.188 9.96106C27.0521 9.62745 26.9262 9.46761 26.6533 9.22131C26.3016 8.83354 26.2599 8.60395 26.2505 8.08606C26.3916 7.72575 26.5612 7.52315 26.8584 7.2804C27.4411 6.78966 27.9907 6.26611 28.5408 5.73939C29.6338 4.7061 29.6338 4.7061 30.2788 4.65833C30.8849 4.86731 31.2249 5.2677 31.6411 5.74231C32.3187 5.27668 32.8873 4.7434 33.4621 4.15707C34.9582 2.6538 34.9582 2.6538 35.8599 2.92981ZM34.7686 5.60315C34.6624 5.69968 34.5562 5.79621 34.4467 5.89566C34.333 5.99974 34.2192 6.10382 34.1021 6.21106C33.9895 6.31393 33.877 6.41681 33.761 6.5228C33.4655 6.79326 33.1704 7.06418 32.8754 7.33521C32.5813 7.60525 32.287 7.87494 31.9927 8.14465C31.8755 8.25207 31.7583 8.3595 31.6411 8.46692C31.2896 8.78919 31.2896 8.78919 30.938 9.11145C30.88 9.16464 30.8219 9.21784 30.7622 9.27264C30.6452 9.37988 30.5282 9.48711 30.4112 9.59433C30.1151 9.86564 29.8192 10.1371 29.5235 10.4088C28.5226 11.328 27.5216 12.2462 26.4849 13.1251C26.7188 13.399 26.9531 13.6724 27.188 13.9454C27.2474 14.0146 27.3067 14.0838 27.3679 14.1551C27.9136 14.7853 28.4791 15.3966 29.0461 16.0077C29.2922 16.2732 29.5365 16.5402 29.7794 16.8087C29.8375 16.8728 29.8956 16.9369 29.9555 17.003C30.1162 17.1803 30.2765 17.358 30.4367 17.5357C30.6991 17.8278 30.6991 17.8278 31.0552 18.047C31.1957 17.9172 31.1957 17.9172 31.339 17.7847C32.161 17.0253 32.9845 16.2676 33.8099 15.512C33.9882 15.3487 34.1662 15.1852 34.3442 15.0216C34.8838 14.5261 35.4243 14.0317 35.9697 13.5426C36.4851 13.08 36.9946 12.6114 37.5029 12.141C38.0679 11.6182 38.6358 11.0985 39.2043 10.5795C39.4227 10.3774 39.6364 10.1738 39.8442 9.96106C39.7776 9.8958 39.711 9.83054 39.6424 9.76331C39.1481 9.27479 38.6724 8.78049 38.2201 8.25314C37.8037 7.78128 37.3703 7.32525 36.9396 6.86649C36.4662 6.36133 36.0025 5.84928 35.55 5.32529C35.4975 5.26955 35.4451 5.2138 35.3911 5.15637C35.1511 5.15637 34.932 5.45431 34.7686 5.60315ZM29.2827 7.6759C29.1837 7.76813 29.1837 7.76813 29.0827 7.86221C28.9194 8.01444 28.7567 8.16737 28.5942 8.32044C28.6716 8.39778 28.7489 8.47512 28.8286 8.55481C28.881 8.50103 28.9335 8.44725 28.9875 8.39185C29.3123 8.06216 29.6289 7.75027 29.9932 7.4635C30.0729 7.39824 30.1527 7.33298 30.2349 7.26575C30.2349 7.1884 30.2349 7.11106 30.2349 7.03137C29.8247 7.03137 29.5682 7.40628 29.2827 7.6759ZM35.2739 16.6407C35.1579 16.8148 35.1579 16.8148 35.0396 16.9923C35.1556 16.9923 35.2716 16.9923 35.3911 16.9923C35.3524 16.8763 35.3138 16.7603 35.2739 16.6407ZM34.2192 19.2189C34.1735 19.6305 34.1562 19.8413 34.4159 20.174C34.9049 20.5636 35.4826 20.4949 36.0869 20.5153C36.214 20.5236 36.3412 20.532 36.4721 20.5407C37.2269 20.5778 37.2269 20.5778 37.88 20.2337C38.109 19.9411 38.109 19.9411 38.1157 19.6144C37.9022 19.2086 37.5668 19.1174 37.1489 18.9845C36.7747 18.9064 36.4011 18.862 36.021 18.8234C35.8746 18.8046 35.8746 18.8046 35.7253 18.7854C35.0929 18.7179 34.6933 18.7448 34.2192 19.2189ZM39.9614 19.4532C39.9228 19.84 39.8841 20.2267 39.8442 20.6251C40.7724 20.4704 41.7005 20.3157 42.6567 20.1564C42.6181 20.079 42.5794 20.0017 42.5396 19.922C42.2792 19.8449 42.2792 19.8449 41.9641 19.7966C41.7902 19.766 41.7902 19.766 41.6128 19.7348C41.4908 19.7144 41.3688 19.694 41.2432 19.673C41.1207 19.6517 40.9983 19.6304 40.8721 19.6084C40.5687 19.5558 40.2651 19.5044 39.9614 19.4532ZM42.3308 22.0167C42.2223 22.0379 42.1139 22.059 42.0021 22.0808C41.778 22.1253 41.554 22.1704 41.3301 22.2163C40.5119 22.3741 39.7385 22.4102 38.9067 22.3829C38.7159 22.377 38.7159 22.377 38.5213 22.371C38.1321 22.3574 37.7431 22.3413 37.354 22.3243C37.2206 22.3188 37.0872 22.3132 36.9498 22.3074C36.6255 22.2938 36.3013 22.2799 35.9771 22.2657C36.05 22.4514 36.1233 22.6369 36.1968 22.8224C36.2376 22.9257 36.2784 23.029 36.3204 23.1355C36.4299 23.3994 36.5487 23.6528 36.6802 23.9064C39.607 23.8226 39.607 23.8226 42.4956 23.3864C42.6057 23.3623 42.7157 23.3383 42.8291 23.3135C43.4319 23.1884 43.4319 23.1884 43.8286 22.7345C43.8188 22.4318 43.8188 22.4318 43.7114 22.1486C43.2278 21.8261 42.872 21.9067 42.3308 22.0167ZM45.7036 22.3829C45.7036 22.499 45.7036 22.615 45.7036 22.7345C45.781 22.7345 45.8583 22.7345 45.938 22.7345C45.8993 22.6185 45.8606 22.5025 45.8208 22.3829C45.7821 22.3829 45.7435 22.3829 45.7036 22.3829ZM46.3268 24.4568C46.164 24.4879 46.164 24.4879 45.998 24.5196C45.8811 24.543 45.7641 24.5663 45.6436 24.5903C45.3926 24.6382 45.1415 24.6861 44.8904 24.734C44.4972 24.8103 44.1042 24.8869 43.7112 24.9639C42.3045 25.2382 40.9305 25.4885 39.4955 25.529C39.1504 25.5228 39.1504 25.5228 38.9067 25.6642C38.9836 25.8211 39.062 25.9772 39.1411 26.1329C39.179 26.2086 39.2169 26.2843 39.256 26.3623C39.4295 26.6289 39.5743 26.7821 39.8442 26.9532C40.342 27.019 40.8099 26.9503 41.3023 26.8768C41.6443 26.8303 41.9862 26.8005 42.3299 26.7701C44.2641 26.5723 45.7183 26.0219 47.3442 24.9611C47.3442 24.8064 47.3442 24.6517 47.3442 24.4923C46.9702 24.3732 46.7102 24.3815 46.3268 24.4568ZM47.5818 26.9011C47.409 26.9946 47.409 26.9946 47.2328 27.0901C46.9925 27.2219 46.7527 27.3544 46.5132 27.4875C45.7769 27.8845 45.1271 28.1357 44.2974 28.2423C44.2141 28.2544 44.1309 28.2665 44.0451 28.2789C43.8171 28.3109 43.5885 28.339 43.3599 28.3668C42.8141 28.4182 42.8141 28.4182 42.3052 28.5939C42.4864 29.0016 42.6873 29.3362 43.0083 29.6486C43.7225 29.733 44.2142 29.53 44.8394 29.2238C44.9339 29.1782 45.0284 29.1326 45.1258 29.0857C45.9259 28.6859 46.6784 28.2213 47.4248 27.7296C47.5334 27.6585 47.6421 27.5874 47.754 27.5142C47.8537 27.4466 47.9534 27.379 48.0561 27.3094C48.145 27.2492 48.2339 27.189 48.3255 27.127C48.4199 27.041 48.4199 27.041 48.5161 26.9532C48.5161 26.8372 48.5161 26.7212 48.5161 26.6017C48.1039 26.6017 47.9398 26.7027 47.5818 26.9011ZM48.9336 28.8063C48.8201 28.8892 48.7067 28.9721 48.5898 29.0576C48.3495 29.2444 48.1368 29.4265 47.9302 29.6486C47.9799 29.6969 48.0296 29.7452 48.0808 29.795C48.8223 30.5252 49.4949 31.3073 50.1567 32.1095C50.7178 31.6951 51.2659 31.2722 51.7974 30.8204C51.6182 30.406 51.3706 30.1178 51.0649 29.7877C50.7361 29.4303 50.4145 29.0711 50.1055 28.6964C50.0064 28.5852 49.9073 28.474 49.8052 28.3595C49.4334 28.3595 49.2279 28.5893 48.9336 28.8063Z" fill="#C08F4F"/>
<path d="M24.9625 17.8717C25.3624 17.9718 25.6627 18.1907 25.9789 18.4426C26.0479 18.4948 26.1169 18.547 26.188 18.6008C26.3321 18.7103 26.4756 18.8208 26.6183 18.9323C26.8357 19.1017 27.0555 19.2673 27.2762 19.4323C27.4151 19.5369 27.554 19.6415 27.6928 19.7463C27.7581 19.7956 27.8233 19.8449 27.8906 19.8957C28.3455 20.2461 28.3455 20.2461 28.4765 20.508C28.5297 21.0124 28.5216 21.2574 28.2457 21.6904C28.1479 21.8006 28.05 21.9107 27.9491 22.0242C27.8512 22.1364 27.7533 22.2486 27.6525 22.3643C27.5763 22.4478 27.5002 22.5314 27.4218 22.6174C27.8564 23.0682 28.3015 23.4234 28.8179 23.7733C29.3437 24.3118 29.4856 25.1807 29.6583 25.8992C29.68 25.9878 29.7018 26.0763 29.7242 26.1675C29.7952 26.4568 29.8653 26.7463 29.9354 27.0358C29.9847 27.2382 30.0342 27.4407 30.0836 27.6432C30.1867 28.0658 30.2894 28.4886 30.3918 28.9114C30.523 29.4533 30.6553 29.9949 30.7878 30.5365C30.8898 30.9538 30.9914 31.3712 31.0927 31.7887C31.1413 31.9886 31.19 32.1883 31.2389 32.3881C31.307 32.6667 31.3745 32.9455 31.4417 33.2244C31.4721 33.3478 31.4721 33.3478 31.5031 33.4738C31.5945 33.8559 31.6405 34.1741 31.6405 34.5705C31.7589 34.5856 31.8772 34.6006 31.9991 34.6161C32.4397 34.6845 32.8552 34.7809 33.2854 34.8968C33.3642 34.9179 33.443 34.9389 33.5242 34.9607C33.786 35.0308 34.0477 35.1017 34.3093 35.1725C34.4976 35.2231 34.686 35.2737 34.8744 35.3243C35.3845 35.4613 35.8945 35.599 36.4044 35.7368C36.8317 35.8522 37.2591 35.9673 37.6864 36.0823C39.0345 36.4453 40.3823 36.8095 41.73 37.1739C42.1787 37.2952 42.6274 37.4164 43.0761 37.5376C44.3629 37.8852 45.6494 38.2334 46.9359 38.5821C47.2377 38.6639 47.5395 38.7455 47.8413 38.8272C49.0045 39.1421 50.1672 39.4586 51.3287 39.7794C51.4829 39.822 51.6371 39.8645 51.7913 39.907C52.267 40.038 52.7421 40.1712 53.2168 40.3059C53.3314 40.3375 53.4461 40.3692 53.5643 40.4018C53.6675 40.4316 53.7708 40.4613 53.8773 40.492C54.01 40.5295 54.01 40.5295 54.1454 40.5678C54.4126 40.6802 54.5506 40.7854 54.7265 41.0159C54.8149 41.8118 54.8149 41.8118 54.5434 42.2463C54.071 42.537 53.637 42.4638 53.113 42.3543C52.7069 42.2531 52.3034 42.1446 51.8998 42.0339C51.7427 41.9916 51.5856 41.9494 51.4286 41.9073C50.9991 41.7919 50.5701 41.6752 50.1411 41.5582C49.6837 41.4338 49.2261 41.3105 48.7685 41.1871C47.6589 40.8875 46.5498 40.5857 45.4408 40.2837C45.001 40.1639 44.5612 40.0443 44.1213 39.9246C42.2244 39.4085 40.3276 38.8918 38.4312 38.3734C38.2759 38.331 38.2759 38.331 38.1175 38.2877C37.608 38.1484 37.0985 38.009 36.5891 37.8691C35.6817 37.6201 34.7738 37.3737 33.8632 37.1367C33.458 37.0312 33.0531 36.9246 32.6482 36.8181C32.4576 36.7683 32.2668 36.7191 32.0759 36.6706C31.8137 36.6038 31.552 36.5352 31.2904 36.4662C31.1424 36.4281 30.9945 36.39 30.842 36.3507C30.4322 36.1976 30.2558 36.0953 29.9999 35.7424C29.8922 35.4355 29.8085 35.1494 29.7353 34.8346C29.7127 34.7436 29.6901 34.6527 29.6669 34.559C29.5929 34.2588 29.5213 33.9581 29.4497 33.6573C29.3985 33.4477 29.3472 33.238 29.2957 33.0284C29.1606 32.4765 29.0276 31.924 28.8949 31.3715C28.7602 30.8121 28.6235 30.2532 28.487 29.6942C28.2871 28.8743 28.0879 28.0543 27.8905 27.2339C27.8701 27.1497 27.8498 27.0654 27.8288 26.9786C27.8095 26.898 27.7901 26.8174 27.7702 26.7343C27.7512 26.6559 27.7322 26.5774 27.7127 26.4966C27.6722 26.3202 27.6351 26.1429 27.6002 25.9653C27.5814 25.8712 27.5626 25.7772 27.5433 25.6803C27.5272 25.5948 27.511 25.5092 27.4944 25.4211C27.3642 25.0167 27.0738 24.8658 26.726 24.6462C26.5767 24.5483 26.4276 24.45 26.2787 24.3514C26.1985 24.2994 26.1183 24.2473 26.0356 24.1937C25.5717 23.8837 25.1292 23.5447 24.6825 23.2107C24.3991 23.0023 24.1153 22.7945 23.8314 22.5867C23.6494 22.4528 23.468 22.3179 23.2874 22.1821C23.0388 21.9952 22.788 21.8117 22.5365 21.6286C22.4636 21.5725 22.3906 21.5164 22.3155 21.4586C21.93 21.1832 21.6769 21.0552 21.1976 21.1077C20.8252 21.1923 20.4612 21.2781 20.0976 21.3943C19.9972 21.4258 19.8969 21.4574 19.7936 21.4899C19.683 21.526 19.683 21.526 19.5702 21.5627C19.6716 21.6127 19.7729 21.6627 19.8774 21.7143C20.294 21.9206 20.7094 22.1293 21.1245 22.3386C21.3541 22.4544 21.584 22.5697 21.814 22.6847C22.2094 22.883 22.6037 23.0833 22.9979 23.2839C23.1263 23.3479 23.2546 23.4119 23.3868 23.4779C23.508 23.54 23.6293 23.6021 23.7542 23.6662C23.8625 23.7209 23.9709 23.7757 24.0825 23.8322C24.4208 24.0537 24.6217 24.2723 24.8436 24.6096C24.8436 25.0525 24.8241 25.3135 24.536 25.657C24.0925 25.8554 23.6661 25.8632 23.2046 25.6983C22.9486 25.5786 22.6999 25.4497 22.4509 25.3159C22.3595 25.2688 22.2682 25.2217 22.174 25.1732C21.8839 25.0235 21.5949 24.8717 21.306 24.7195C21.0159 24.5669 20.7256 24.4148 20.4343 24.2645C20.2535 24.1711 20.0733 24.0765 19.8939 23.9804C19.4545 23.7364 19.4545 23.7364 18.9684 23.7075C18.682 23.8147 18.5935 23.9533 18.4276 24.2068C18.3775 24.2819 18.3273 24.3569 18.2757 24.4343C18.2388 24.4921 18.2019 24.55 18.164 24.6096C18.2789 24.6483 18.2789 24.6483 18.3962 24.6877C18.8736 24.8986 19.2887 25.1801 19.7217 25.4697C19.814 25.531 19.9062 25.5923 20.0013 25.6554C20.1956 25.7846 20.3897 25.9142 20.5837 26.044C20.8809 26.2427 21.1789 26.44 21.477 26.6373C21.6659 26.7632 21.8547 26.8891 22.0435 27.0152C22.1327 27.0741 22.222 27.1331 22.3139 27.1939C22.3965 27.2494 22.479 27.3049 22.5641 27.3621C22.6367 27.4106 22.7094 27.4591 22.7842 27.509C23.0899 27.7535 23.1969 27.9607 23.247 28.345C23.1907 28.814 23.0947 28.9908 22.7343 29.2971C21.883 29.4093 21.4587 29.1484 20.7856 28.6521C20.6926 28.5868 20.5996 28.5215 20.5038 28.4542C20.1081 28.1762 19.716 27.8931 19.3237 27.6103C19.0359 27.4039 18.7463 27.2003 18.4565 26.9968C18.3688 26.9322 18.2811 26.8675 18.1908 26.8008C17.7524 26.4937 17.5543 26.365 17.0042 26.3792C16.5179 26.5201 16.1818 26.7178 15.8202 27.0705C15.647 27.3797 15.647 27.3797 15.5858 27.6565C15.7166 27.6769 15.7166 27.6769 15.85 27.6977C16.815 27.9256 17.6363 28.7883 18.3997 29.3955C19.0247 29.8924 19.6572 30.3798 20.2891 30.8679C20.3751 30.9346 20.4612 31.0013 20.5498 31.07C20.6265 31.1293 20.7032 31.1886 20.7823 31.2497C20.9765 31.4065 20.9765 31.4065 21.2108 31.6409C21.2894 32.4527 21.2894 32.4527 21.0277 32.8713C20.6269 33.118 20.3887 33.0979 19.9218 33.0471C19.6044 32.8855 19.34 32.6712 19.0648 32.4465C18.9459 32.3534 18.9459 32.3534 18.8246 32.2584C18.6543 32.1248 18.4845 31.9903 18.3154 31.855C17.9416 31.557 17.5633 31.2649 17.1852 30.9724C16.8408 30.7055 16.4975 30.4371 16.1545 30.1684C16.0828 30.1129 16.0112 30.0574 15.9374 30.0002C15.856 29.936 15.7745 29.8718 15.6906 29.8056C15.3086 29.5355 14.9879 29.6118 14.5311 29.6487C14.4538 29.726 14.3765 29.8034 14.2968 29.883C14.3532 30.6525 14.8943 31.2646 15.3148 31.8826C15.3818 31.9815 15.3818 31.9815 15.4501 32.0825C16.1935 33.1738 16.9908 34.0132 18.0468 34.8049C18.2589 34.9905 18.469 35.1783 18.6767 35.3689C19.0085 35.67 19.3418 35.9686 19.6801 36.2624C20.1719 36.6907 20.6526 37.1308 21.1344 37.5703C21.3895 37.8013 21.6466 38.0292 21.9066 38.2546C22.3062 38.6017 22.6965 38.9582 23.0858 39.3166C23.6255 39.8131 24.1663 40.3081 24.7265 40.7815C24.8021 40.8527 24.8777 40.9239 24.9556 40.9973C25.4512 41.3486 25.9767 41.5247 26.5465 41.7272C26.6718 41.7728 26.797 41.8184 26.9261 41.8654C27.1999 41.965 27.4739 42.0641 27.7481 42.1628C28.4268 42.4072 29.1043 42.6547 29.7818 42.9021C30.0233 42.9903 30.2648 43.0784 30.5064 43.1664C32.2387 43.7985 33.9635 44.4502 35.6882 45.1028C36.4519 45.3917 37.2157 45.6802 37.9796 45.9684C38.1073 46.0166 38.1073 46.0166 38.2375 46.0657C39.593 46.577 40.9501 47.0838 42.3082 47.588C42.4464 47.6393 42.4464 47.6393 42.5873 47.6916C43.4778 48.0221 44.3685 48.3521 45.2594 48.6816C46.0454 48.9724 46.8312 49.2638 47.6164 49.557C47.9882 49.6958 48.3602 49.8343 48.7326 49.9718C49.1596 50.1295 49.5858 50.2894 50.012 50.4495C50.2022 50.5193 50.2022 50.5193 50.3964 50.5906C50.5127 50.6346 50.629 50.6787 50.7489 50.7241C50.85 50.7618 50.951 50.7995 51.0552 50.8383C51.3732 50.9997 51.5699 51.171 51.7968 51.4455C51.8622 51.9033 51.8652 52.1547 51.621 52.5515C51.2178 52.8035 50.8498 52.7771 50.3905 52.7346C50.0907 52.6538 49.8198 52.5681 49.5322 52.4572C49.4492 52.4266 49.3661 52.3959 49.2805 52.3644C48.9981 52.2598 48.7166 52.153 48.435 52.0461C48.2264 51.9683 48.0177 51.8906 47.809 51.813C47.2043 51.5876 46.6004 51.36 45.9967 51.1319C45.5649 50.9689 45.133 50.8062 44.701 50.6436C43.3723 50.1435 42.0438 49.643 40.7157 49.1413C38.4766 48.2957 36.2349 47.4577 33.9906 46.6261C33.3818 46.4005 32.7732 46.1746 32.1647 45.9484C32.0808 45.9173 31.997 45.8861 31.9105 45.854C31.5793 45.7309 31.248 45.6077 30.9168 45.4846C29.9762 45.1349 29.0353 44.7865 28.0936 44.44C27.6294 44.2688 27.1657 44.0961 26.7023 43.9229C26.4977 43.8468 26.2929 43.7714 26.0878 43.6966C25.0541 43.3198 24.1362 42.9523 23.3202 42.1877C23.2483 42.1237 23.1764 42.0596 23.1023 41.9936C22.896 41.8074 22.6939 41.6176 22.4926 41.426C22.35 41.2919 22.2073 41.158 22.0646 41.0241C21.9977 40.9613 21.9308 40.8985 21.8618 40.8338C21.575 40.5671 21.2794 40.3113 20.9829 40.0555C20.6637 39.7751 20.3515 39.4872 20.039 39.1995C19.0087 38.2521 17.9449 37.3475 16.8749 36.4455C16.3883 36.6457 16.0209 36.9898 15.6298 37.3318C15.5569 37.3948 15.4841 37.4579 15.409 37.5228C14.9873 37.8888 14.5709 38.26 14.1576 38.6355C13.6648 39.0832 13.1529 39.5022 12.6351 39.9204C12.1669 40.3102 11.7212 40.722 11.2751 41.1367C10.883 41.4852 10.6047 41.5331 10.0757 41.5244C9.84365 41.4846 9.84365 41.4846 9.54335 41.2429C9.32112 40.7888 9.3833 40.5691 9.49208 40.0784C9.63525 39.7852 9.77905 39.5196 9.94939 39.2439C10.0186 39.1283 10.0186 39.1283 10.0891 39.0103C10.2379 38.7625 10.3886 38.5159 10.5394 38.2693C10.6421 38.0992 10.7447 37.929 10.8471 37.7588C11.5882 36.5305 12.3332 35.3027 13.1203 34.1032C13.1871 33.9988 13.2539 33.8944 13.3226 33.7869C13.3787 33.7018 13.4347 33.6168 13.4925 33.5291C13.6301 33.1923 13.5929 33.0396 13.4765 32.6955C13.3306 32.4394 13.1759 32.1881 13.015 31.9412C12.5212 31.182 12.2253 30.568 12.3046 29.6487C12.4315 29.0752 12.6493 28.6975 13.059 28.279C13.5299 27.7793 13.677 27.2516 13.8486 26.5963C13.9452 26.2502 13.9452 26.2502 14.0995 26.0186C14.2172 25.7573 14.2172 25.7573 14.023 25.418C13.9444 25.2798 13.8647 25.1422 13.7841 25.0051C13.4106 24.3142 13.1899 23.7552 13.3593 22.969C13.5972 22.194 14.1495 21.4912 14.7655 20.9768C15.4835 20.6001 16.2387 20.3662 17.0182 20.1547C17.1289 20.1241 17.2396 20.0936 17.3537 20.0621C17.5861 19.9982 17.8186 19.9349 18.0513 19.8719C18.4055 19.7757 18.7591 19.6773 19.1127 19.5788C19.3398 19.5167 19.5669 19.4547 19.7941 19.3929C19.8987 19.3636 20.0033 19.3344 20.1111 19.3042C20.93 19.0855 21.6833 18.9714 22.4999 19.2776C22.5893 19.3102 22.6788 19.3428 22.7709 19.3765C22.8362 19.4018 22.9014 19.4272 22.9686 19.4534C23.0508 19.3434 23.133 19.2334 23.2177 19.1201C23.3298 18.9772 23.4421 18.8343 23.5546 18.6916C23.6082 18.619 23.6618 18.5463 23.7171 18.4715C24.0891 18.0077 24.3562 17.8178 24.9625 17.8717ZM24.8436 20.1565C24.6696 20.4465 24.6696 20.4465 24.4921 20.7424C25.0722 21.1485 25.0722 21.1485 25.664 21.5627C25.8186 21.4467 25.9733 21.3307 26.1327 21.2112C25.9981 20.8073 25.8894 20.7317 25.5541 20.4861C25.4709 20.424 25.3876 20.3619 25.3019 20.2979C25.0891 20.1356 25.0891 20.1356 24.8436 20.1565ZM16.3068 22.3473C15.7003 22.5983 15.4785 22.897 15.2269 23.5037C15.2374 23.9116 15.4302 24.0859 15.703 24.3752C15.7715 24.2962 15.7715 24.2962 15.8413 24.2155C16.4488 23.5169 17.0708 22.8322 17.6952 22.1487C17.2536 21.9278 16.7545 22.2039 16.3068 22.3473ZM14.8827 34.8049C14.6772 35.0791 14.6772 35.0791 14.5311 35.3909C14.5698 35.4682 14.6085 35.5455 14.6483 35.6252C14.8417 35.4705 15.0351 35.3159 15.2343 35.1565C15.1956 35.0405 15.1569 34.9245 15.1171 34.8049C15.0397 34.8049 14.9624 34.8049 14.8827 34.8049Z" fill="#C08F4F"/>
<path d="M2.31033 27.4379C2.41335 27.5365 2.51638 27.6351 2.62252 27.7368C2.73446 27.8422 2.8464 27.9477 2.96172 28.0563C3.06732 28.1563 3.17291 28.2563 3.2817 28.3593C3.43949 28.4995 3.59807 28.6388 3.75778 28.7768C4.21823 29.1776 4.67486 29.5823 5.12512 29.9945C5.32466 30.1744 5.53196 30.3459 5.74264 30.5127C6.45156 31.4431 6.37021 33.2714 6.51626 34.4192C6.54481 34.6419 6.57337 34.8646 6.60196 35.0873C6.66147 35.5516 6.72073 36.0159 6.77982 36.4802C6.85551 37.0749 6.93185 37.6695 7.00838 38.2641C7.06735 38.7228 7.12598 39.1817 7.1845 39.6405C7.21252 39.8599 7.24064 40.0792 7.26889 40.2985C7.30823 40.6044 7.34709 40.9103 7.38584 41.2163C7.39752 41.3064 7.40921 41.3965 7.42125 41.4893C7.47529 41.92 7.51384 42.3392 7.50045 42.7734C7.56582 42.7771 7.63118 42.7808 7.69852 42.7846C8.87091 42.8705 10.0207 43.0928 11.1763 43.2998C11.4069 43.3409 11.6375 43.3819 11.8681 43.4229C12.349 43.5086 12.8298 43.5948 13.3106 43.6812C13.9263 43.7918 14.5422 43.9008 15.1583 44.0094C15.6335 44.0934 16.1086 44.1785 16.5836 44.2639C16.8107 44.3046 17.0379 44.3449 17.2651 44.3848C17.5822 44.4405 17.899 44.4978 18.2157 44.5554C18.3091 44.5715 18.4025 44.5876 18.4987 44.6042C19.1998 44.7343 19.7127 44.9425 20.1553 45.5264C20.2178 45.6078 20.2803 45.6891 20.3447 45.7729C20.4107 45.8611 20.4768 45.9492 20.5449 46.04C20.6155 46.1325 20.6861 46.225 20.7588 46.3203C20.9102 46.5188 21.0611 46.7177 21.2116 46.9168C21.4468 47.2278 21.6834 47.5377 21.9205 47.8472C22.6818 48.8422 23.4381 49.8409 24.188 50.8446C24.7818 51.6383 25.3839 52.4257 25.9863 53.2129C26.0629 53.3132 26.1395 53.4134 26.2184 53.5167C26.321 53.6506 26.321 53.6506 26.4256 53.7873C26.8052 54.2953 26.8924 54.5569 26.8364 55.1953C26.7119 55.4736 26.7119 55.4736 26.4848 55.664C26.1108 55.7592 25.8182 55.8272 25.4425 55.7148C25.0706 55.4616 24.8394 55.1096 24.5805 54.7485C24.4555 54.578 24.3304 54.4075 24.2052 54.2372C24.1383 54.1458 24.0715 54.0545 24.0026 53.9604C23.6252 53.4494 23.2381 52.9458 22.852 52.4414C21.5058 50.6772 20.1814 48.8978 18.8676 47.1093C17.7991 47.6766 16.7654 48.2922 15.7467 48.9448C15.1 49.3562 14.4635 49.7303 13.7549 50.0303C12.5385 50.5444 12.5385 50.5444 11.7457 51.5463C11.4254 52.5843 11.343 53.6985 11.3108 54.7798C11.2903 55.2854 11.2072 55.6111 10.8989 56.0156C10.5645 56.1828 10.3323 56.1691 9.96139 56.1328C9.62447 55.9716 9.62447 55.9716 9.37545 55.664C9.23824 54.7132 9.46914 53.7019 9.60983 52.7636C9.65421 52.464 9.69818 52.1643 9.74166 51.8646C9.7613 51.7333 9.78094 51.6021 9.80117 51.4669C9.90036 50.663 9.90036 50.663 9.6025 49.9379C9.54868 49.8547 9.49485 49.7715 9.4394 49.6859C9.37962 49.597 9.31985 49.5081 9.25826 49.4165C9.12962 49.2192 9.00098 49.0219 8.87237 48.8246C8.76782 48.666 8.76782 48.666 8.66117 48.5043C8.25615 47.8869 7.86098 47.2631 7.46383 46.6406C7.31053 46.4013 7.15718 46.162 7.00378 45.9228C6.93081 45.8072 6.85783 45.6916 6.78265 45.5725C6.63932 45.3519 6.49003 45.135 6.33433 44.923C5.70637 44.0412 5.5661 43.201 5.45699 42.1508C5.43556 41.9694 5.41375 41.7879 5.39162 41.6065C5.3411 41.1896 5.2923 40.7724 5.24436 40.3551C5.09473 39.0668 4.92703 37.7806 4.76142 36.4942C4.69783 35.9998 4.63523 35.5053 4.5735 35.0106C4.54385 34.7737 4.51388 34.5368 4.48378 34.2999C4.44656 34.0068 4.40985 33.7136 4.37373 33.4204C4.35685 33.2888 4.33997 33.1572 4.32257 33.0217C4.3082 32.9073 4.29384 32.7928 4.27903 32.6749C4.17479 32.0979 4.0524 31.6399 3.61038 31.2419C3.49967 31.1405 3.49967 31.1405 3.38673 31.037C3.30856 30.9679 3.2304 30.8988 3.14987 30.8276C3.07027 30.7554 2.99067 30.6832 2.90865 30.6088C2.68265 30.4045 2.45515 30.2019 2.22701 30C2.12807 29.9114 2.02912 29.8229 1.92718 29.7317C1.58634 29.4301 1.23913 29.138 0.886682 28.8501C0.586389 28.5937 0.586389 28.5937 0.469202 28.3593C0.415011 27.5058 0.415011 27.5058 0.615686 27.1948C1.24208 26.8145 1.74847 26.995 2.31033 27.4379ZM8.67233 44.8828C9.18611 45.8572 9.78954 46.7688 10.3914 47.6901C10.7212 48.1968 11.0443 48.7078 11.3676 49.2187C11.8286 49.0485 12.2355 48.8311 12.6576 48.5801C12.724 48.5408 12.7903 48.5014 12.8587 48.4609C12.9988 48.3777 13.1389 48.2943 13.2788 48.2106C13.4883 48.0854 13.6982 47.9609 13.9082 47.8365C15.1766 47.0926 15.1766 47.0926 16.4067 46.289C16.4067 46.2503 16.4067 46.2117 16.4067 46.1718C15.4849 46.0032 14.563 45.835 13.6409 45.6676C13.2128 45.5899 12.7847 45.5119 12.3566 45.4335C11.9433 45.3578 11.53 45.2827 11.1166 45.2078C10.959 45.1792 10.8015 45.1505 10.6441 45.1215C10.4231 45.0809 10.2021 45.041 9.98099 45.0011C9.8553 44.9782 9.72961 44.9553 9.60011 44.9317C9.28483 44.8866 8.99018 44.8733 8.67233 44.8828Z" fill="#C08F4F"/>
<path d="M11.2501 16.0548C11.5617 16.2368 11.5617 16.2368 11.836 16.5236C11.8954 16.8393 11.9164 17.0821 11.9119 17.3977C11.9134 17.5286 11.9134 17.5286 11.915 17.6623C11.9175 17.9505 11.9158 18.2385 11.9139 18.5267C11.9142 18.7272 11.9148 18.9278 11.9156 19.1283C11.9164 19.5483 11.9152 19.9683 11.9124 20.3884C11.9091 20.9267 11.911 21.4649 11.9145 22.0032C11.9166 22.4173 11.916 22.8312 11.9144 23.2452C11.9141 23.4437 11.9145 23.6422 11.9159 23.8407C11.9174 24.1182 11.9151 24.3954 11.9119 24.6729C11.913 24.7548 11.9142 24.8368 11.9154 24.9212C11.9061 25.3514 11.8636 25.5183 11.5608 25.8328C11.1826 26.0555 10.9792 26.0801 10.547 26.0157C10.1795 25.8072 10.0969 25.7201 9.96103 25.3126C9.94872 25.0409 9.94361 24.7687 9.94215 24.4967C9.94157 24.4142 9.94099 24.3316 9.94039 24.2466C9.93868 23.9736 9.93788 23.7006 9.93723 23.4275C9.93656 23.2377 9.93588 23.0478 9.93521 22.8579C9.93398 22.4597 9.93329 22.0615 9.93288 21.6633C9.93224 21.1535 9.92942 20.6438 9.92609 20.134C9.9239 19.7417 9.9233 19.3495 9.92312 18.9572C9.92276 18.7693 9.92182 18.5813 9.92028 18.3934C9.91828 18.1303 9.9185 17.8673 9.91926 17.6042C9.91862 17.3797 9.91862 17.3797 9.91797 17.1508C9.96425 16.7286 10.0576 16.5079 10.3126 16.172C10.647 16.0048 10.8791 16.0184 11.2501 16.0548Z" fill="#C08F4F"/>
<path d="M3.98445 19.922C4.66066 20.4366 4.92169 21.192 5.25887 21.9508C5.35735 22.1693 5.45623 22.3876 5.55517 22.6059C5.6247 22.7593 5.69408 22.9128 5.76332 23.0663C6.02792 23.6509 6.30396 24.2295 6.58409 24.8068C6.70571 25.0592 6.82721 25.3117 6.94868 25.5642C7.02764 25.7273 7.10718 25.8903 7.18733 26.0529C7.30013 26.282 7.4106 26.5122 7.52068 26.7427C7.58463 26.874 7.64857 27.0053 7.71446 27.1406C7.88319 27.6308 7.89383 27.9607 7.85164 28.4767C7.60994 28.777 7.60994 28.777 7.2657 28.9454C6.84822 28.9528 6.84822 28.9528 6.44539 28.8283C6.10132 28.4527 5.86917 28.0665 5.65117 27.6083C5.5917 27.4841 5.53223 27.36 5.47096 27.2321C5.40822 27.099 5.34548 26.9659 5.28084 26.8287C5.21516 26.6909 5.14947 26.553 5.0818 26.411C4.40077 24.9797 3.73507 23.541 3.07205 22.1012C2.98331 21.9115 2.89185 21.723 2.79639 21.5365C2.61603 21.1646 2.61561 20.7921 2.69539 20.3908C3.07621 19.9427 3.40537 19.8134 3.98445 19.922Z" fill="#C08F4F"/>
<path d="M2.57796 16.758C2.99018 17.023 3.12863 17.4801 3.28109 17.9299C3.2665 18.3093 3.23287 18.533 3.01742 18.8454C2.74647 19.0293 2.55338 19.0784 2.2264 19.1018C1.76791 19.0123 1.65095 18.8816 1.36947 18.5012C1.12022 18.0119 1.09152 17.6531 1.17171 17.1096C1.59762 16.5804 1.94454 16.5821 2.57796 16.758Z" fill="#C08F4F"/>
<path d="M11.1439 11.9063C11.3672 11.953 11.3672 11.953 11.6602 12.1068C11.9481 12.6226 11.9328 13.1361 11.836 13.7108C11.5943 14.0917 11.5943 14.0917 11.2501 14.2968C10.8215 14.2968 10.554 14.2749 10.21 14.0111C9.87858 13.5508 9.89563 13.0884 9.96099 12.539C10.2404 11.9685 10.5393 11.859 11.1439 11.9063Z" fill="#C08F4F"/>
</svg>
