<svg width="101" height="60" viewBox="0 0 101 60" fill="none" xmlns="http://www.w3.org/2000/svg">
<path d="M10.2195 0.437531C11.4242 1.16557 12.1738 2.19752 12.6882 3.48356C12.6882 4.45632 12.6882 5.42909 12.6882 6.43133C18.9139 6.43133 25.1396 6.43133 31.5539 6.43133C31.5539 5.45857 31.5539 4.4858 31.5539 3.48356C32.0366 2.03562 32.9957 0.997089 34.3697 0.305496C35.6419 -0.0888314 37.2869 -0.108029 38.518 0.437531C39.7228 1.16557 40.4724 2.19752 40.9868 3.48356C40.9868 4.45632 40.9868 5.42909 40.9868 6.43133C47.2125 6.43133 53.4382 6.43133 59.8525 6.43133C59.8525 5.45857 59.8525 4.4858 59.8525 3.48356C60.3352 2.03562 61.2943 0.997089 62.6683 0.305496C63.9405 -0.0888314 65.5855 -0.108029 66.8166 0.437531C68.0214 1.16557 68.771 2.19752 69.2854 3.48356C69.2854 4.45632 69.2854 5.42909 69.2854 6.43133C75.5111 6.43133 81.7368 6.43133 88.1511 6.43133C88.1511 5.45857 88.1511 4.4858 88.1511 3.48356C88.6338 2.03562 89.5929 0.997089 90.9669 0.305496C92.2391 -0.0888314 93.8841 -0.108029 95.1152 0.437531C96.2622 1.13064 97.186 2.2037 97.584 3.48356C97.6407 4.11741 97.6353 4.74879 97.6313 5.3848C97.6318 5.67375 97.6318 5.67375 97.6323 5.96854C97.6329 6.61458 97.6308 7.26057 97.6286 7.90661C97.6285 8.36948 97.6286 8.83236 97.6288 9.29524C97.6289 10.5526 97.6266 11.81 97.6239 13.0674C97.6215 14.248 97.6212 15.4287 97.6208 16.6094C97.62 18.9478 97.6174 21.2861 97.6137 23.6245C97.61 25.8958 97.6073 28.1672 97.6056 30.4385C97.6055 30.5786 97.6054 30.7186 97.6053 30.8629C97.6048 31.5654 97.6043 32.2679 97.6038 32.9704C97.5997 38.7974 97.5928 44.6244 97.584 50.4514C97.7659 50.4448 97.9478 50.4382 98.1352 50.4314C99.1485 50.4636 99.6876 50.968 100.364 51.6842C101.019 52.7031 100.841 54.0056 100.827 55.1678C100.83 55.415 100.833 55.6623 100.836 55.917C100.826 58.2025 100.826 58.2025 99.9422 59.0982C98.8095 60.1386 97.5868 59.9981 96.1101 59.9886C95.8529 59.9894 95.5956 59.9901 95.3306 59.9909C94.7874 59.9921 94.2444 59.9904 93.7012 59.9867C93.0074 59.9822 92.3137 59.9848 91.6199 59.9895C90.9549 59.993 90.29 59.9906 89.625 59.9886C89.3769 59.9902 89.1288 59.9918 88.8731 59.9935C87.2207 59.9758 86.4963 59.8109 85.3323 58.6314C84.8169 57.5033 84.8935 56.3923 84.9086 55.1678C84.9055 54.9205 84.9025 54.6733 84.8994 54.4186C84.9089 52.1729 84.9089 52.1729 85.7929 51.2374C86.6914 50.4952 86.9237 50.4514 88.1511 50.4514C88.1511 49.4137 88.1511 48.3761 88.1511 47.3071C81.9254 47.3071 75.6997 47.3071 69.2854 47.3071C69.2854 48.3447 69.2854 49.3823 69.2854 50.4514C69.6745 50.4514 70.0636 50.4514 70.4645 50.4514C71.356 50.915 72.0615 51.4667 72.4297 52.4165C72.5465 53.335 72.5393 54.2431 72.5279 55.1678C72.531 55.415 72.534 55.6623 72.5372 55.917C72.5275 58.2025 72.5275 58.2025 71.6436 59.0982C70.5109 60.1386 69.2882 59.9981 67.8115 59.9886C67.5543 59.9894 67.297 59.9901 67.032 59.9909C66.4888 59.9921 65.9458 59.9904 65.4026 59.9867C64.7088 59.9822 64.0151 59.9848 63.3213 59.9895C62.6563 59.993 61.9914 59.9906 61.3264 59.9886C61.0783 59.9902 60.8302 59.9918 60.5745 59.9935C58.9221 59.9758 58.1977 59.8109 57.0337 58.6314C56.5183 57.5033 56.5949 56.3923 56.61 55.1678C56.6069 54.9205 56.6039 54.6733 56.6008 54.4186C56.6103 52.1729 56.6103 52.1729 57.4943 51.2374C58.3928 50.4952 58.6251 50.4514 59.8525 50.4514C59.8525 49.4137 59.8525 48.3761 59.8525 47.3071C53.6268 47.3071 47.4012 47.3071 40.9868 47.3071C40.9868 48.3447 40.9868 49.3823 40.9868 50.4514C41.3759 50.4514 41.765 50.4514 42.1659 50.4514C43.0574 50.915 43.7629 51.4667 44.1311 52.4165C44.2479 53.335 44.2407 54.2431 44.2294 55.1678C44.2339 55.5387 44.2339 55.5387 44.2386 55.917C44.2289 58.2025 44.2289 58.2025 43.345 59.0982C42.2123 60.1386 40.9896 59.9981 39.5129 59.9886C39.2557 59.9894 38.9984 59.9901 38.7334 59.9909C38.1902 59.9921 37.6472 59.9904 37.104 59.9867C36.4102 59.9822 35.7165 59.9848 35.0227 59.9895C34.3577 59.993 33.6928 59.9906 33.0278 59.9886C32.7797 59.9902 32.5316 59.9918 32.2759 59.9935C30.6235 59.9758 29.8991 59.8109 28.7351 58.6314C28.2197 57.5033 28.2963 56.3923 28.3114 55.1678C28.3068 54.7969 28.3068 54.7969 28.3022 54.4186C28.3117 52.1729 28.3117 52.1729 29.1957 51.2374C30.0942 50.4952 30.3265 50.4514 31.5539 50.4514C31.5539 49.4137 31.5539 48.3761 31.5539 47.3071C25.3283 47.3071 19.1026 47.3071 12.6882 47.3071C12.6882 48.3447 12.6882 49.3823 12.6882 50.4514C13.0773 50.4514 13.4664 50.4514 13.8673 50.4514C14.7588 50.915 15.4643 51.4667 15.8325 52.4165C15.9493 53.335 15.9421 54.2431 15.9308 55.1678C15.9353 55.5387 15.9353 55.5387 15.94 55.917C15.9303 58.2025 15.9303 58.2025 15.0464 59.0982C13.9137 60.1386 12.691 59.9981 11.2143 59.9886C10.9571 59.9894 10.6998 59.9901 10.4348 59.9909C9.89163 59.9921 9.34858 59.9904 8.80544 59.9867C8.11157 59.9822 7.41794 59.9848 6.72408 59.9895C6.05911 59.993 5.39421 59.9906 4.72923 59.9886C4.35703 59.991 4.35703 59.991 3.97732 59.9935C2.32494 59.9758 1.60052 59.8109 0.43654 58.6314C-0.07888 57.5033 -0.00225839 56.3923 0.0127976 55.1678C0.00975767 54.9205 0.00671779 54.6733 0.00358578 54.4186C0.0131013 52.1729 0.0131013 52.1729 0.897129 51.2374C1.72742 50.5515 2.1971 50.413 3.25534 50.4514C3.25426 50.0904 3.25426 50.0904 3.25315 49.7222C3.23612 44.0086 3.22316 38.295 3.2152 32.5814C3.21422 31.8779 3.2132 31.1744 3.21216 30.4709C3.21196 30.3309 3.21175 30.1908 3.21154 30.0465C3.20812 27.7798 3.20192 25.5132 3.1947 23.2465C3.18734 20.9201 3.18298 18.5938 3.18138 16.2674C3.1804 14.9609 3.17795 13.6545 3.17223 12.348C3.1669 11.1183 3.16525 9.88858 3.16643 8.65882C3.16622 8.20759 3.16465 7.75635 3.16164 7.30512C3.15772 6.68858 3.15867 6.07224 3.16082 5.4557C3.15853 5.27753 3.15624 5.09936 3.15388 4.91579C3.16677 3.54258 3.51612 2.51086 4.42754 1.47079C4.55547 1.3649 4.6834 1.25901 4.81521 1.14991C4.94263 1.04098 5.07005 0.93205 5.20133 0.81982C6.58961 -0.136721 8.67797 -0.245556 10.2195 0.437531ZM6.92778 3.83975C6.26044 4.70482 6.37261 5.6191 6.376 6.66094C6.37583 6.84762 6.37567 7.0343 6.37549 7.22664C6.37517 7.85488 6.37625 8.4831 6.37732 9.11134C6.37738 9.5606 6.37735 10.0099 6.37724 10.4591C6.37718 11.6812 6.37834 12.9033 6.37971 14.1254C6.38093 15.4016 6.38105 16.6778 6.38128 17.9541C6.38183 20.097 6.38306 22.2399 6.38481 24.3827C6.38661 26.5901 6.388 28.7974 6.38884 31.0047C6.38889 31.1407 6.38894 31.2767 6.38899 31.4169C6.38925 32.0993 6.3895 32.7817 6.38974 33.4641C6.39178 39.1265 6.39526 44.7889 6.39963 50.4514C7.43725 50.4514 8.47486 50.4514 9.54392 50.4514C9.55737 44.6633 9.56781 38.8752 9.57403 33.0871C9.57477 32.4037 9.57553 31.7204 9.57631 31.0371C9.57654 30.833 9.57654 30.833 9.57678 30.6248C9.57934 28.4221 9.58399 26.2193 9.58941 24.0166C9.59492 21.7563 9.59815 19.4961 9.59939 17.2359C9.60016 15.9664 9.60197 14.6969 9.60626 13.4273C9.61025 12.2328 9.61149 11.0382 9.61061 9.84363C9.61077 9.4049 9.61194 8.96617 9.6142 8.52746C9.61713 7.92888 9.61643 7.33041 9.61482 6.73183C9.61739 6.47089 9.61739 6.47089 9.62002 6.20468C9.61284 5.21878 9.50785 4.53214 8.95437 3.68008C8.20852 3.30715 7.584 3.32541 6.92778 3.83975ZM35.2264 3.83975C34.559 4.70482 34.6712 5.6191 34.6746 6.66094C34.6744 6.84762 34.6743 7.0343 34.6741 7.22664C34.6738 7.85488 34.6748 8.4831 34.6759 9.11134C34.676 9.5606 34.6759 10.0099 34.6758 10.4591C34.6758 11.6812 34.6769 12.9033 34.6783 14.1254C34.6795 15.4016 34.6796 16.6778 34.6799 17.9541C34.6804 20.097 34.6817 22.2399 34.6834 24.3827C34.6852 26.5901 34.6866 28.7974 34.6874 31.0047C34.6875 31.1407 34.6875 31.2767 34.6876 31.4169C34.6878 32.0993 34.6881 32.7817 34.6883 33.4641C34.6904 39.1265 34.6939 44.7889 34.6982 50.4514C35.7358 50.4514 36.7735 50.4514 37.8425 50.4514C37.856 44.6633 37.8664 38.8752 37.8726 33.0871C37.8734 32.4037 37.8741 31.7204 37.8749 31.0371C37.8751 30.833 37.8751 30.833 37.8754 30.6248C37.8779 28.4221 37.8826 26.2193 37.888 24.0166C37.8935 21.7563 37.8968 19.4961 37.898 17.2359C37.8988 15.9664 37.9006 14.6969 37.9049 13.4273C37.9088 12.2328 37.9101 11.0382 37.9092 9.84363C37.9094 9.4049 37.9105 8.96617 37.9128 8.52746C37.9157 7.92888 37.915 7.33041 37.9134 6.73183C37.916 6.47089 37.916 6.47089 37.9186 6.20468C37.9114 5.21878 37.8064 4.53214 37.253 3.68008C36.5071 3.30715 35.8826 3.32541 35.2264 3.83975ZM63.525 3.83975C62.8576 4.70482 62.9698 5.6191 62.9732 6.66094C62.973 6.84762 62.9729 7.0343 62.9727 7.22664C62.9724 7.85488 62.9734 8.4831 62.9745 9.11134C62.9746 9.5606 62.9745 10.0099 62.9744 10.4591C62.9744 11.6812 62.9755 12.9033 62.9769 14.1254C62.9781 15.4016 62.9782 16.6778 62.9785 17.9541C62.979 20.097 62.9802 22.2399 62.982 24.3827C62.9838 26.5901 62.9852 28.7974 62.986 31.0047C62.9861 31.1407 62.9861 31.2767 62.9862 31.4169C62.9864 32.0993 62.9867 32.7817 62.9869 33.4641C62.989 39.1265 62.9925 44.7889 62.9968 50.4514C64.0344 50.4514 65.0721 50.4514 66.1411 50.4514C66.1546 44.6633 66.165 38.8752 66.1712 33.0871C66.172 32.4037 66.1727 31.7204 66.1735 31.0371C66.1737 30.833 66.1737 30.833 66.174 30.6248C66.1765 28.4221 66.1812 26.2193 66.1866 24.0166C66.1921 21.7563 66.1953 19.4961 66.1966 17.2359C66.1973 15.9664 66.1992 14.6969 66.2035 13.4273C66.2075 12.2328 66.2087 11.0382 66.2078 9.84363C66.208 9.4049 66.2091 8.96617 66.2114 8.52746C66.2143 7.92888 66.2136 7.33041 66.212 6.73183C66.2146 6.47089 66.2146 6.47089 66.2172 6.20468C66.21 5.21878 66.105 4.53214 65.5516 3.68008C64.8057 3.30715 64.1812 3.32541 63.525 3.83975ZM91.8236 3.83975C91.1562 4.70482 91.2684 5.6191 91.2718 6.66094C91.2716 6.84762 91.2715 7.0343 91.2713 7.22664C91.271 7.85488 91.272 8.4831 91.2731 9.11134C91.2732 9.5606 91.2731 10.0099 91.273 10.4591C91.273 11.6812 91.2741 12.9033 91.2755 14.1254C91.2767 15.4016 91.2768 16.6778 91.2771 17.9541C91.2776 20.097 91.2788 22.2399 91.2806 24.3827C91.2824 26.5901 91.2838 28.7974 91.2846 31.0047C91.2847 31.1407 91.2847 31.2767 91.2848 31.4169C91.285 32.0993 91.2853 32.7817 91.2855 33.4641C91.2876 39.1265 91.291 44.7889 91.2954 50.4514C92.333 50.4514 93.3707 50.4514 94.4397 50.4514C94.4532 44.6633 94.4636 38.8752 94.4698 33.0871C94.4706 32.4037 94.4713 31.7204 94.4721 31.0371C94.4723 30.833 94.4723 30.833 94.4726 30.6248C94.4751 28.4221 94.4798 26.2193 94.4852 24.0166C94.4907 21.7563 94.4939 19.4961 94.4952 17.2359C94.496 15.9664 94.4978 14.6969 94.502 13.4273C94.506 12.2328 94.5073 11.0382 94.5064 9.84363C94.5066 9.4049 94.5077 8.96617 94.51 8.52746C94.5129 7.92888 94.5122 7.33041 94.5106 6.73183C94.5132 6.47089 94.5132 6.47089 94.5158 6.20468C94.5086 5.21878 94.4036 4.53214 93.8502 3.68008C93.1043 3.30715 92.4798 3.32541 91.8236 3.83975ZM12.6882 9.57562C12.6882 12.6885 12.6882 15.8013 12.6882 19.0085C18.9139 19.0085 25.1396 19.0085 31.5539 19.0085C31.5539 15.8956 31.5539 12.7828 31.5539 9.57562C25.3283 9.57562 19.1026 9.57562 12.6882 9.57562ZM40.9868 9.57562C40.9868 12.6885 40.9868 15.8013 40.9868 19.0085C47.2125 19.0085 53.4382 19.0085 59.8525 19.0085C59.8525 15.8956 59.8525 12.7828 59.8525 9.57562C53.6268 9.57562 47.4012 9.57562 40.9868 9.57562ZM69.2854 9.57562C69.2854 12.6885 69.2854 15.8013 69.2854 19.0085C75.5111 19.0085 81.7368 19.0085 88.1511 19.0085C88.1511 15.8956 88.1511 12.7828 88.1511 9.57562C81.9254 9.57562 75.6997 9.57562 69.2854 9.57562ZM12.6882 22.1528C12.6882 25.2656 12.6882 28.3785 12.6882 31.5856C18.9139 31.5856 25.1396 31.5856 31.5539 31.5856C31.5539 28.4728 31.5539 25.3599 31.5539 22.1528C25.3283 22.1528 19.1026 22.1528 12.6882 22.1528ZM40.9868 22.1528C40.9868 25.2656 40.9868 28.3785 40.9868 31.5856C47.2125 31.5856 53.4382 31.5856 59.8525 31.5856C59.8525 28.4728 59.8525 25.3599 59.8525 22.1528C53.6268 22.1528 47.4012 22.1528 40.9868 22.1528ZM69.2854 22.1528C69.2854 25.2656 69.2854 28.3785 69.2854 31.5856C75.5111 31.5856 81.7368 31.5856 88.1511 31.5856C88.1511 28.4728 88.1511 25.3599 88.1511 22.1528C81.9254 22.1528 75.6997 22.1528 69.2854 22.1528ZM12.6882 34.7299C12.6882 37.8428 12.6882 40.9556 12.6882 44.1628C18.9139 44.1628 25.1396 44.1628 31.5539 44.1628C31.5539 41.0499 31.5539 37.9371 31.5539 34.7299C25.3283 34.7299 19.1026 34.7299 12.6882 34.7299ZM40.9868 34.7299C40.9868 37.8428 40.9868 40.9556 40.9868 44.1628C47.2125 44.1628 53.4382 44.1628 59.8525 44.1628C59.8525 41.0499 59.8525 37.9371 59.8525 34.7299C53.6268 34.7299 47.4012 34.7299 40.9868 34.7299ZM69.2854 34.7299C69.2854 37.8428 69.2854 40.9556 69.2854 44.1628C75.5111 44.1628 81.7368 44.1628 88.1511 44.1628C88.1511 41.0499 88.1511 37.9371 88.1511 34.7299C81.9254 34.7299 75.6997 34.7299 69.2854 34.7299ZM3.25534 53.5957C3.25534 54.6333 3.25534 55.6709 3.25534 56.7399C6.36819 56.7399 9.48104 56.7399 12.6882 56.7399C12.6882 55.7023 12.6882 54.6647 12.6882 53.5957C9.57537 53.5957 6.46252 53.5957 3.25534 53.5957ZM31.5539 53.5957C31.5539 54.6333 31.5539 55.6709 31.5539 56.7399C34.6668 56.7399 37.7796 56.7399 40.9868 56.7399C40.9868 55.7023 40.9868 54.6647 40.9868 53.5957C37.874 53.5957 34.7611 53.5957 31.5539 53.5957ZM59.8525 53.5957C59.8525 54.6333 59.8525 55.6709 59.8525 56.7399C62.9654 56.7399 66.0782 56.7399 69.2854 56.7399C69.2854 55.7023 69.2854 54.6647 69.2854 53.5957C66.1726 53.5957 63.0597 53.5957 59.8525 53.5957ZM88.1511 53.5957C88.1511 54.6333 88.1511 55.6709 88.1511 56.7399C91.264 56.7399 94.3768 56.7399 97.584 56.7399C97.584 55.7023 97.584 54.6647 97.584 53.5957C94.4712 53.5957 91.3583 53.5957 88.1511 53.5957Z" fill="#C08F4F"/>
</svg>
