<svg width="60" height="60" viewBox="0 0 60 60" fill="none" xmlns="http://www.w3.org/2000/svg">
<g clip-path="url(#clip0_693_34)">
<path d="M1.40468 -0.0739189C1.4861 -0.0748056 1.56753 -0.0756924 1.65142 -0.076606C1.92494 -0.0788664 2.19827 -0.0769458 2.4718 -0.0750496C2.66958 -0.0758085 2.86737 -0.0768225 3.06516 -0.07807C3.6092 -0.0807487 4.15318 -0.0797591 4.69722 -0.0781709C5.28373 -0.0770885 5.87022 -0.0793689 6.45673 -0.0812151C7.6059 -0.0842761 8.75504 -0.0841436 9.90421 -0.0828512C10.838 -0.0818493 11.7717 -0.0819448 12.7055 -0.0828273C12.8382 -0.0829509 12.971 -0.0830746 13.1078 -0.0832019C13.3775 -0.0834563 13.6472 -0.0837126 13.9169 -0.0839707C16.4474 -0.086249 18.9779 -0.0848403 21.5084 -0.082238C23.6808 -0.0800989 25.8532 -0.081377 28.0256 -0.0850864C30.5469 -0.0893912 33.0681 -0.0913905 35.5894 -0.0898428C35.8581 -0.0896856 36.1269 -0.0895322 36.3956 -0.0893826C36.5278 -0.0893087 36.66 -0.0892348 36.7963 -0.0891587C37.7292 -0.0888034 38.6621 -0.0901256 39.5949 -0.0921073C40.7315 -0.0944852 41.8679 -0.0943933 43.0045 -0.0910957C43.5846 -0.0894779 44.1647 -0.0889996 44.7448 -0.0915586C45.2756 -0.0938688 45.8062 -0.0929527 46.3369 -0.0894264C46.5293 -0.0887204 46.7216 -0.0892095 46.9139 -0.0909924C47.1749 -0.0932358 47.4354 -0.0911736 47.6964 -0.0880112C47.8414 -0.0879606 47.9865 -0.08791 48.1359 -0.0878578C48.6717 0.0363937 48.7959 0.253648 49.1013 0.703268C49.1718 0.965778 49.1718 0.965778 49.1678 1.21339C49.1678 1.30718 49.1677 1.40098 49.1677 1.49761C49.1647 1.59652 49.1616 1.69542 49.1585 1.79732C49.1577 1.90037 49.1569 2.00342 49.156 2.10959C49.1527 2.43682 49.1454 2.76381 49.1379 3.09096C49.135 3.31359 49.1323 3.53621 49.1299 3.75884C49.1235 4.30291 49.1134 4.8468 49.1013 5.39077C49.2396 5.3877 49.3779 5.38463 49.5204 5.38147C50.0354 5.37084 50.5504 5.36413 51.0654 5.35858C51.288 5.35564 51.5105 5.35165 51.733 5.34657C52.0536 5.33943 52.3741 5.33613 52.6948 5.33355C52.7937 5.33052 52.8926 5.3275 52.9945 5.32438C53.491 5.32415 53.8078 5.35421 54.2014 5.67267C54.6802 6.17374 54.6246 6.57095 54.6206 7.23373C54.6203 7.38539 54.6203 7.38539 54.6201 7.54012C54.6194 7.86371 54.6179 8.1873 54.6164 8.51089C54.6159 8.73 54.6153 8.94912 54.6148 9.16823C54.6135 9.70596 54.6115 10.2437 54.6091 10.7814C54.7997 10.7786 54.7997 10.7786 54.9941 10.7758C55.4683 10.7694 55.9424 10.7654 56.4166 10.7621C56.6213 10.7603 56.826 10.7579 57.0307 10.7549C57.3259 10.7506 57.6212 10.7486 57.9165 10.7471C58.0071 10.7452 58.0977 10.7434 58.191 10.7416C58.8017 10.7414 59.2257 10.8402 59.7654 11.133C60.0507 11.561 60.0294 11.7626 60.0302 12.2728C60.0307 12.3538 60.0311 12.4348 60.0316 12.5182C60.0328 12.7915 60.0323 13.0647 60.0319 13.338C60.0324 13.5351 60.033 13.7322 60.0337 13.9293C60.0354 14.4725 60.0356 15.0157 60.0355 15.5589C60.0357 16.1442 60.0373 16.7294 60.0386 17.3146C60.0413 18.595 60.0422 19.8753 60.0428 21.1556C60.0432 21.9546 60.0439 22.7535 60.0448 23.5525C60.0471 25.7633 60.049 27.9741 60.0494 30.185C60.0494 30.3265 60.0494 30.4681 60.0494 30.6139C60.0495 30.9009 60.0495 31.1879 60.0495 31.4749C60.0496 31.6173 60.0496 31.7598 60.0496 31.9066C60.0496 32.1205 60.0496 32.1205 60.0497 32.3388C60.0501 34.6512 60.0533 36.9635 60.0576 39.2759C60.0621 41.6483 60.0644 44.0207 60.0644 46.393C60.0645 47.7257 60.0655 49.0584 60.0689 50.3911C60.0717 51.5257 60.0726 52.6603 60.0708 53.7949C60.07 54.3741 60.0701 54.9532 60.0727 55.5324C60.0751 56.0623 60.0749 56.5921 60.0724 57.1219C60.072 57.3139 60.0726 57.506 60.0742 57.698C60.0764 57.9585 60.0749 58.2187 60.0725 58.4792C60.0726 58.624 60.0727 58.7689 60.0728 58.9181C59.9767 59.4165 59.8222 59.5865 59.4138 59.883C59.0351 59.9563 59.0351 59.9563 58.5966 59.9564C58.5154 59.9572 58.4342 59.958 58.3505 59.9588C58.0776 59.9609 57.805 59.9587 57.5321 59.9566C57.3348 59.9572 57.1375 59.958 56.9402 59.9591C56.3975 59.9613 55.8549 59.9599 55.3122 59.9578C54.7271 59.9563 54.142 59.9581 53.557 59.9595C52.4106 59.9616 51.2643 59.9606 50.118 59.9585C49.1865 59.9569 48.255 59.9564 47.3236 59.9568C47.1911 59.9569 47.0587 59.9569 46.9222 59.957C46.6532 59.9571 46.3841 59.9572 46.1151 59.9573C43.7347 59.9583 41.3544 59.9564 38.9741 59.9529C36.6631 59.9495 34.3521 59.9487 32.041 59.9505C29.5259 59.9525 27.0108 59.9529 24.4957 59.9509C24.2277 59.9507 23.9596 59.9505 23.6915 59.9502C23.5596 59.9501 23.4277 59.95 23.2918 59.9499C22.3612 59.9493 21.4306 59.9497 20.5 59.9504C19.3663 59.9513 18.2326 59.9506 17.0989 59.9476C16.5202 59.9461 15.9415 59.9454 15.3628 59.9467C14.8334 59.9479 14.304 59.9469 13.7746 59.9442C13.5827 59.9436 13.3909 59.9438 13.199 59.9448C12.9388 59.9461 12.6787 59.9446 12.4185 59.9423C12.2014 59.9421 12.2014 59.9421 11.98 59.9418C11.5301 59.8719 11.3366 59.7304 11.0154 59.4142C10.8171 59.0177 10.8841 58.5676 10.8867 58.1315C10.8869 58.0278 10.8871 57.9241 10.8872 57.8173C10.8879 57.4853 10.8894 57.1534 10.8909 56.8214C10.8914 56.5967 10.892 56.3719 10.8925 56.1471C10.8938 55.5955 10.8958 55.0439 10.8982 54.4923C10.7599 54.4954 10.6215 54.4985 10.479 54.5016C9.96408 54.5123 9.44913 54.519 8.93409 54.5245C8.71152 54.5275 8.48897 54.5314 8.26644 54.5365C7.94584 54.5437 7.6254 54.547 7.30474 54.5495C7.20583 54.5526 7.10693 54.5556 7.00503 54.5587C6.50846 54.5589 6.19172 54.5289 5.79806 54.2104C5.31413 53.704 5.37493 53.2935 5.37892 52.6237C5.37909 52.52 5.37926 52.4163 5.37943 52.3095C5.38008 51.9775 5.38155 51.6456 5.38304 51.3136C5.38363 51.0889 5.38417 50.8641 5.38465 50.6393C5.38594 50.0877 5.38796 49.5361 5.39037 48.9845C5.17665 48.9891 5.17665 48.9891 4.95861 48.9938C4.42902 49.0044 3.89944 49.0112 3.36977 49.0167C3.14072 49.0196 2.91168 49.0236 2.68267 49.0287C2.35306 49.0358 2.0236 49.0392 1.69393 49.0417C1.59185 49.0448 1.48978 49.0478 1.38462 49.0509C1.28847 49.0509 1.19232 49.051 1.09325 49.051C1.0092 49.0523 0.925147 49.0536 0.838547 49.055C0.437737 48.9433 0.262071 48.7148 -0.000257075 48.3986C-0.0737038 48.0199 -0.0737039 48.0199 -0.0739921 47.5814C-0.0752696 47.4596 -0.0752696 47.4596 -0.0765729 47.3353C-0.0787155 47.0624 -0.0766761 46.7898 -0.0746616 46.5169C-0.0753365 46.3196 -0.076267 46.1223 -0.0774314 45.925C-0.0798823 45.3823 -0.0786663 44.8397 -0.0768536 44.297C-0.0755305 43.7119 -0.0775728 43.1268 -0.0791855 42.5418C-0.0817943 41.3954 -0.0812267 40.2491 -0.0795297 39.1027C-0.0782077 38.1713 -0.0780264 37.2398 -0.0786648 36.3083C-0.0787545 36.1759 -0.0788443 36.0435 -0.0789368 35.907C-0.0791241 35.6379 -0.0793142 35.3689 -0.0795067 35.0999C-0.0811785 32.5756 -0.0792549 30.0513 -0.076108 27.527C-0.0734901 25.3599 -0.0739448 23.1929 -0.0766464 21.0258C-0.0797803 18.5107 -0.0810175 15.9956 -0.0792173 13.4805C-0.0790306 13.2124 -0.0788465 12.9444 -0.0786648 12.6763C-0.0785744 12.5444 -0.078484 12.4125 -0.0783908 12.2766C-0.0778844 11.346 -0.07874 10.4154 -0.0801176 9.4848C-0.081759 8.35108 -0.0813203 7.21738 -0.0781953 6.08366C-0.0766528 5.50494 -0.0760567 4.92627 -0.0779897 4.34755C-0.0797314 3.81812 -0.0787835 3.28877 -0.0756591 2.75935C-0.0750028 2.56749 -0.0753418 2.37562 -0.0767583 2.18377C-0.0785329 1.9235 -0.0767208 1.6635 -0.0739921 1.40325C-0.073897 1.25855 -0.0738019 1.11384 -0.0737039 0.964754C0.0895851 0.122877 0.610219 -0.07305 1.40468 -0.0739189ZM2.34349 2.34389C2.34349 6.09507 2.34349 9.84624 2.34349 13.7111C3.02114 13.1322 3.02114 13.1322 3.66285 12.5238C3.75272 12.4342 3.84259 12.3447 3.93519 12.2525C4.03086 12.1565 4.12653 12.0606 4.2251 11.9618C4.32809 11.859 4.43108 11.7563 4.53719 11.6504C4.81725 11.3707 5.09704 11.0908 5.3767 10.8108C5.66993 10.5173 5.96345 10.224 6.25692 9.93075C6.74875 9.43912 7.24035 8.94725 7.7318 8.45524C8.30054 7.88586 8.86971 7.3169 9.43909 6.74816C9.92847 6.25931 10.4176 5.77024 10.9066 5.28097C11.1984 4.98893 11.4904 4.69697 11.7825 4.40522C12.1072 4.08095 12.4314 3.7562 12.7555 3.4314C12.8529 3.3343 12.9502 3.23721 13.0505 3.13717C13.138 3.04928 13.2256 2.96139 13.3158 2.87084C13.4309 2.75571 13.4309 2.75571 13.5483 2.63825C13.7239 2.48674 13.7239 2.48674 13.7107 2.34389C9.95951 2.34389 6.20834 2.34389 2.34349 2.34389ZM19.8044 2.34389C20.3643 3.00159 20.3643 3.00159 20.9531 3.62309C21.0328 3.70279 21.1126 3.7825 21.1947 3.86463C21.2782 3.94755 21.3617 4.03046 21.4478 4.1159C21.5352 4.20317 21.6227 4.29045 21.7128 4.38037C21.9895 4.65641 22.2666 4.93204 22.5437 5.20766C22.7325 5.39585 22.9212 5.58407 23.1099 5.77231C23.5703 6.23138 24.031 6.69011 24.4919 7.14858C25.1131 6.62949 25.6925 6.08238 26.2639 5.50933C26.3512 5.42216 26.4385 5.335 26.5284 5.24519C26.7112 5.06245 26.8939 4.87957 27.0764 4.69654C27.3573 4.41504 27.6388 4.13418 27.9204 3.85337C28.0982 3.67541 28.2761 3.49742 28.4539 3.31939C28.5385 3.23505 28.623 3.1507 28.7102 3.0638C28.7873 2.98631 28.8644 2.90882 28.9439 2.82898C29.0122 2.76058 29.0805 2.69218 29.1509 2.6217C29.3097 2.48276 29.3097 2.48276 29.2966 2.34389C26.1642 2.34389 23.0318 2.34389 19.8044 2.34389ZM35.3904 2.34389C35.9502 3.00159 35.9502 3.00159 36.5391 3.62309C36.6188 3.70279 36.6985 3.7825 36.7806 3.86463C36.8642 3.94755 36.9477 4.03046 37.0337 4.1159C37.1212 4.20317 37.2086 4.29045 37.2987 4.38037C37.5754 4.65641 37.8525 4.93204 38.1296 5.20766C38.3184 5.39585 38.5072 5.58407 38.6959 5.77231C39.1562 6.23138 39.6169 6.69011 40.0779 7.14858C40.699 6.62949 41.2785 6.08238 41.8499 5.50933C41.9371 5.42216 42.0244 5.335 42.1143 5.24519C42.2972 5.06245 42.4798 4.87957 42.6624 4.69654C42.9432 4.41504 43.2247 4.13418 43.5063 3.85337C43.6842 3.67541 43.862 3.49742 44.0398 3.31939C44.1244 3.23505 44.209 3.1507 44.2961 3.0638C44.3732 2.98631 44.4504 2.90882 44.5298 2.82898C44.5981 2.76058 44.6664 2.69218 44.7368 2.6217C44.8957 2.48276 44.8957 2.48276 44.8826 2.34389C41.7501 2.34389 38.6177 2.34389 35.3904 2.34389ZM31.9978 3.14396C31.8463 3.29562 31.8463 3.29562 31.6917 3.45035C31.6076 3.53434 31.6076 3.53434 31.5217 3.62002C31.3323 3.80922 31.1434 3.99884 30.9544 4.18845C30.8193 4.32356 30.6842 4.45864 30.5491 4.5937C30.1811 4.96169 29.8134 5.33005 29.4458 5.69847C29.062 6.08296 28.6779 6.46711 28.2939 6.85131C27.5661 7.57945 26.8386 8.30789 26.1113 9.03644C25.2834 9.86561 24.4552 10.6945 23.627 11.5233C21.9227 13.2287 20.2189 14.9346 18.5154 16.6408C18.9221 17.1239 19.3349 17.592 19.7824 18.0383C19.8879 18.1438 19.9935 18.2493 20.1022 18.358C20.215 18.4703 20.3279 18.5825 20.4407 18.6948C20.558 18.8118 20.6752 18.9288 20.7924 19.0459C21.0985 19.3515 21.4049 19.6568 21.7113 19.962C22.025 20.2744 22.3384 20.5873 22.6517 20.9C23.2648 21.5119 23.8782 22.1233 24.4919 22.7345C25.2382 22.119 25.9174 21.442 26.5994 20.7575C26.7277 20.6292 26.856 20.501 26.9843 20.3727C27.3305 20.0266 27.6763 19.68 28.0221 19.3334C28.3842 18.9705 28.7467 18.608 29.1092 18.2454C29.7946 17.5596 30.4798 16.8735 31.1648 16.1873C31.945 15.4057 32.7256 14.6245 33.5063 13.8433C35.1112 12.2371 36.7158 10.6305 38.3201 9.02358C37.9136 8.54099 37.5011 8.07277 37.0549 7.62606C36.9497 7.52054 36.8446 7.41502 36.7363 7.30631C36.6238 7.19406 36.5113 7.08182 36.3988 6.9696C36.2819 6.85255 36.1649 6.73549 36.048 6.61842C35.8046 6.37486 35.561 6.13152 35.3173 5.88833C35.0042 5.57597 34.6917 5.26308 34.3794 4.95004C34.1388 4.70907 33.898 4.46837 33.6571 4.22776C33.5416 4.11238 33.4263 3.99692 33.311 3.88138C33.1509 3.72093 32.9903 3.56091 32.8297 3.4009C32.7384 3.30969 32.6471 3.21848 32.5531 3.12451C32.2771 2.86071 32.2771 2.86071 31.9978 3.14396ZM14.7756 4.78001C14.6584 4.89768 14.5411 5.01535 14.4239 5.13302C14.2979 5.25901 14.1719 5.38498 14.0459 5.51092C13.7065 5.85029 13.3675 6.19003 13.0285 6.52983C12.6732 6.88585 12.3176 7.24154 11.962 7.59726C11.2899 8.26976 10.618 8.94257 9.94628 9.61548C9.18104 10.382 8.41545 11.1483 7.64984 11.9145C6.076 13.4895 4.50258 15.065 2.92943 16.6408C3.33615 17.1239 3.74893 17.592 4.19646 18.0383C4.30199 18.1438 4.40751 18.2493 4.51624 18.358C4.62908 18.4703 4.74193 18.5825 4.85478 18.6948C4.97204 18.8118 5.08926 18.9288 5.20646 19.0459C5.51252 19.3515 5.81892 19.6568 6.1254 19.962C6.43908 20.2744 6.75241 20.5873 7.06578 20.9C7.67886 21.5119 8.29231 22.1233 8.90599 22.7345C9.65226 22.119 10.3315 21.442 11.0135 20.7575C11.1418 20.6292 11.27 20.501 11.3983 20.3727C11.7445 20.0266 12.0904 19.68 12.4361 19.3334C12.7983 18.9705 13.1608 18.608 13.5233 18.2454C14.2087 17.5596 14.8938 16.8735 15.5788 16.1873C16.3591 15.4057 17.1397 14.6245 17.9203 13.8433C19.5253 12.2371 21.1298 10.6305 22.7341 9.02358C22.5009 8.50665 22.1306 8.18987 21.7161 7.81508C20.9849 7.14296 20.2755 6.45267 19.5756 5.74828C19.4941 5.66633 19.4126 5.58437 19.3286 5.49994C18.9958 5.16477 18.6632 4.82936 18.3316 4.49288C18.0957 4.25337 17.859 4.01454 17.6223 3.77578C17.5503 3.70226 17.4784 3.62873 17.4043 3.55298C17.2322 3.37985 17.054 3.21276 16.8747 3.04702C16.1531 3.04702 15.2539 4.30243 14.7756 4.78001ZM46.3148 4.41289C46.2233 4.50449 46.1318 4.5961 46.0375 4.69048C45.9328 4.795 45.8281 4.89952 45.7203 5.0072C45.6034 5.12452 45.4865 5.24185 45.3696 5.35918C45.2472 5.48159 45.1248 5.60397 45.0024 5.72633C44.669 6.0597 44.3359 6.39343 44.003 6.72723C43.6553 7.07559 43.3074 7.42362 42.9594 7.77168C42.3001 8.43135 41.6411 9.09131 40.9823 9.75138C40.2323 10.5026 39.4821 11.2535 38.7318 12.0044C37.1879 13.5495 35.6445 15.095 34.1013 16.6408C34.508 17.1239 34.9208 17.592 35.3683 18.0383C35.5266 18.1966 35.5266 18.1966 35.6881 18.358C35.801 18.4703 35.9138 18.5825 36.0267 18.6948C36.1439 18.8118 36.2611 18.9288 36.3783 19.0459C36.6844 19.3515 36.9908 19.6568 37.2973 19.962C37.611 20.2744 37.9243 20.5873 38.2377 20.9C38.8507 21.5119 39.4642 22.1233 40.0779 22.7345C40.1857 22.6371 40.2935 22.5396 40.4045 22.4392C40.7593 22.1343 41.1274 21.8725 41.5184 21.616C42.325 21.0795 43.0825 20.4976 43.8205 19.8707C43.9211 19.7854 43.9211 19.7854 44.0238 19.6983C45.8642 18.1054 46.7902 16.4902 46.9789 14.0419C47.1621 10.7731 46.9402 7.47483 46.6404 4.21889C46.49 4.20559 46.49 4.20559 46.3148 4.41289ZM49.1013 7.85171C49.101 8.16344 49.101 8.16344 49.1008 8.48147C49.0966 13.4121 49.09 18.3427 49.0805 23.2733C49.0793 23.8798 49.0781 24.4864 49.077 25.0929C49.0766 25.2741 49.0766 25.2741 49.0763 25.4589C49.0727 27.4155 49.0707 29.3721 49.0693 31.3287C49.0678 33.3356 49.0646 35.3425 49.0597 37.3493C49.0568 38.5882 49.0552 39.8271 49.0554 41.066C49.0554 41.9149 49.0537 42.7638 49.0507 43.6128C49.0489 44.1029 49.048 44.5931 49.0491 45.0833C49.05 45.5318 49.0489 45.9804 49.046 46.4289C49.0453 46.5914 49.0454 46.7538 49.0464 46.9163C49.0476 47.1368 49.0457 47.3574 49.0436 47.5779C49.0434 47.7005 49.0433 47.8231 49.0431 47.9494C48.9667 48.3795 48.835 48.5714 48.5154 48.8673C48.1964 48.9409 48.1964 48.9409 47.8226 48.9413C47.68 48.9428 47.5375 48.9444 47.3906 48.946C47.2321 48.9448 47.0737 48.9436 46.9152 48.9422C46.7471 48.943 46.579 48.944 46.4108 48.9452C45.9482 48.9479 45.4857 48.9468 45.0231 48.9452C44.5245 48.9442 44.0259 48.9464 43.5272 48.9483C42.6631 48.9511 41.7991 48.9518 40.935 48.951C39.6857 48.9498 38.4363 48.9519 37.187 48.9548C35.1602 48.9593 33.1333 48.9613 31.1064 48.9616C29.1373 48.9619 27.1682 48.9634 25.1991 48.9666C25.0171 48.9669 25.0171 48.9669 24.8314 48.9672C24.2227 48.9682 23.614 48.9692 23.0053 48.9703C17.9539 48.9788 12.9026 48.983 7.85131 48.9845C7.85131 49.99 7.85131 50.9955 7.85131 52.0314C8.22593 52.032 8.22593 52.032 8.60812 52.0327C10.9585 52.0369 13.3089 52.0437 15.6593 52.0529C16.8677 52.0576 18.0761 52.0614 19.2846 52.0631C20.3377 52.0647 21.3909 52.0678 22.4441 52.0729C23.0018 52.0756 23.5595 52.0774 24.1173 52.0773C24.6422 52.0772 25.167 52.0793 25.6919 52.0831C25.8846 52.0841 26.0773 52.0843 26.27 52.0836C26.5331 52.0829 26.796 52.085 27.0591 52.0878C27.2064 52.0882 27.3536 52.0886 27.5053 52.0891C27.959 52.1592 28.1535 52.2972 28.4763 52.6173C28.6604 53.0624 28.6359 53.4522 28.4543 53.8917C28.168 54.2275 27.9312 54.358 27.4904 54.4058C27.3845 54.4065 27.2787 54.4071 27.1696 54.4078C26.9867 54.4097 26.9867 54.4097 26.8001 54.4117C26.667 54.412 26.5339 54.4122 26.3968 54.4125C26.2561 54.4137 26.1155 54.4149 25.9706 54.4161C25.5854 54.4191 25.2002 54.421 24.815 54.4226C24.4123 54.4244 24.0096 54.4275 23.6068 54.4305C22.8444 54.436 22.0821 54.4403 21.3196 54.4442C20.4516 54.4487 19.5835 54.4545 18.7155 54.4604C16.93 54.4725 15.1446 54.4828 13.3591 54.4923C13.3591 55.4591 13.3591 56.4259 13.3591 57.422C27.9771 57.422 42.5951 57.422 57.656 57.422C57.656 42.8427 57.656 28.2634 57.656 13.2423C56.6505 13.2423 55.6451 13.2423 54.6091 13.2423C54.6089 13.5541 54.6089 13.5541 54.6086 13.8721C54.6044 18.8027 54.5978 23.7333 54.5883 28.6639C54.5871 29.2705 54.5859 29.877 54.5848 30.4836C54.5845 30.6647 54.5845 30.6647 54.5841 30.8495C54.5805 32.8061 54.5785 34.7627 54.5771 36.7193C54.5756 38.7262 54.5724 40.7331 54.5676 42.74C54.5646 43.9788 54.563 45.2177 54.5632 46.4566C54.5633 47.3055 54.5615 48.1545 54.5585 49.0034C54.5568 49.4936 54.5558 49.9837 54.5569 50.4739C54.5578 50.9225 54.5567 51.371 54.5538 51.8195C54.5531 51.982 54.5532 52.1445 54.5542 52.3069C54.5554 52.5274 54.5535 52.748 54.5514 52.9685C54.5513 53.0911 54.5511 53.2137 54.5509 53.34C54.4767 53.7575 54.3135 53.9546 54.0232 54.258C53.7174 54.4108 53.4932 54.3906 53.1506 54.3916C53.0151 54.3923 52.8795 54.3929 52.7399 54.3936C52.5157 54.3938 52.5157 54.3938 52.287 54.394C52.1286 54.3946 51.9701 54.3952 51.8117 54.3958C51.3807 54.3973 50.9498 54.3981 50.5188 54.3986C50.2496 54.3989 49.9803 54.3994 49.7111 54.4C48.869 54.4016 48.0269 54.4027 47.1847 54.4031C46.2123 54.4037 45.2399 54.4057 44.2675 54.4091C43.5161 54.4116 42.7647 54.4128 42.0133 54.413C41.5644 54.4131 41.1156 54.4138 40.6667 54.4159C40.2443 54.4178 39.822 54.4181 39.3996 54.4171C39.1709 54.4169 38.9422 54.4185 38.7135 54.4202C38.5087 54.4192 38.5087 54.4192 38.2998 54.4182C38.1221 54.4185 38.1221 54.4185 37.9409 54.4187C37.5606 54.3676 37.3395 54.2484 37.031 54.0236C36.8295 53.6205 36.869 53.1761 36.9138 52.7345C37.1162 52.349 37.2 52.2876 37.6169 52.1486C42.4122 52.1099 47.2076 52.0712 52.1482 52.0314C52.1482 37.4521 52.1482 22.8728 52.1482 7.85171C51.1427 7.85171 50.1372 7.85171 49.1013 7.85171ZM16.3974 18.7299C16.2965 18.831 16.1956 18.9321 16.0917 19.0363C16.0355 19.0923 15.9793 19.1483 15.9214 19.206C15.7321 19.3949 15.5436 19.5846 15.3551 19.7744C15.2201 19.9095 15.085 20.0446 14.9498 20.1796C14.582 20.5474 14.2149 20.9158 13.848 21.2844C13.4647 21.6691 13.0808 22.0531 12.697 22.4372C11.9698 23.1652 11.2432 23.8937 10.5169 24.6224C9.69009 25.4518 8.86264 26.2805 8.03514 27.1092C6.3325 28.8143 4.63069 30.5202 2.92943 32.2267C3.33615 32.7098 3.74893 33.178 4.19646 33.6242C4.30199 33.7297 4.40751 33.8353 4.51624 33.944C4.62908 34.0562 4.74193 34.1685 4.85478 34.2807C4.97204 34.3977 5.08926 34.5148 5.20646 34.6319C5.51252 34.9375 5.81892 35.2427 6.1254 35.5479C6.43908 35.8604 6.75241 36.1732 7.06578 36.486C7.67886 37.0978 8.29231 37.7092 8.90599 38.3205C9.65226 37.7049 10.3315 37.028 11.0135 36.3434C11.1418 36.2151 11.27 36.0869 11.3983 35.9587C11.7445 35.6125 12.0904 35.266 12.4361 34.9194C12.7983 34.5565 13.1608 34.1939 13.5233 33.8313C14.2087 33.1455 14.8938 32.4594 15.5788 31.7732C16.3591 30.9917 17.1397 30.2104 17.9203 29.4292C19.5253 27.823 21.1298 26.2164 22.7341 24.6095C22.5337 24.1829 22.2951 23.9065 21.9605 23.5712C21.8787 23.4888 21.8787 23.4888 21.7953 23.4047C21.6156 23.2241 21.4352 23.0443 21.2546 22.8645C21.1294 22.7391 21.0042 22.6137 20.879 22.4882C20.6169 22.2258 20.3545 21.9638 20.0917 21.7021C19.7543 21.3661 19.4181 21.0291 19.0821 20.6917C18.8239 20.4327 18.5652 20.1743 18.3064 19.916C18.1821 19.7919 18.058 19.6676 17.9341 19.5432C17.7613 19.3698 17.5877 19.1971 17.414 19.0247C17.3153 18.9262 17.2166 18.8277 17.1149 18.7262C16.7865 18.4384 16.725 18.4412 16.3974 18.7299ZM31.9833 18.7299C31.8824 18.831 31.7816 18.9321 31.6776 19.0363C31.6214 19.0923 31.5652 19.1483 31.5073 19.206C31.318 19.3949 31.1296 19.5846 30.9411 19.7744C30.806 19.9095 30.6709 20.0446 30.5357 20.1796C30.1679 20.5474 29.8009 20.9158 29.4339 21.2844C29.0507 21.6691 28.6668 22.0531 28.2829 22.4372C27.5558 23.1652 26.8292 23.8937 26.1028 24.6224C25.276 25.4518 24.4486 26.2805 23.6211 27.1092C21.9184 28.8143 20.2166 30.5202 18.5154 32.2267C18.9221 32.7098 19.3349 33.178 19.7824 33.6242C19.8879 33.7297 19.9935 33.8353 20.1022 33.944C20.215 34.0562 20.3279 34.1685 20.4407 34.2807C20.558 34.3977 20.6752 34.5148 20.7924 34.6319C21.0985 34.9375 21.4049 35.2427 21.7113 35.5479C22.025 35.8604 22.3384 36.1732 22.6517 36.486C23.2648 37.0978 23.8782 37.7092 24.4919 38.3205C25.2382 37.7049 25.9174 37.028 26.5994 36.3434C26.7277 36.2151 26.856 36.0869 26.9843 35.9587C27.3305 35.6125 27.6763 35.266 28.0221 34.9194C28.3842 34.5565 28.7467 34.1939 29.1092 33.8313C29.7946 33.1455 30.4798 32.4594 31.1648 31.7732C31.945 30.9917 32.7256 30.2104 33.5063 29.4292C35.1112 27.823 36.7158 26.2164 38.3201 24.6095C38.1196 24.1829 37.8811 23.9065 37.5464 23.5712C37.4647 23.4888 37.4647 23.4888 37.3812 23.4047C37.2016 23.2241 37.0211 23.0443 36.8406 22.8645C36.7153 22.7391 36.5901 22.6137 36.4649 22.4882C36.2029 22.2258 35.9404 21.9638 35.6776 21.7021C35.3403 21.3661 35.004 21.0291 34.668 20.6917C34.4099 20.4327 34.1512 20.1743 33.8923 19.916C33.768 19.7919 33.6439 19.6676 33.52 19.5432C33.3472 19.3698 33.1737 19.1971 32.9999 19.0247C32.9012 18.9262 32.8025 18.8277 32.7008 18.7262C32.3724 18.4384 32.3109 18.4412 31.9833 18.7299ZM2.34349 19.6876C2.34349 22.8587 2.34349 26.0298 2.34349 29.297C3.00119 28.7372 3.00119 28.7372 3.62268 28.1483C3.70239 28.0686 3.7821 27.9889 3.86422 27.9068C3.94714 27.8232 4.03006 27.7397 4.1155 27.6536C4.24641 27.5225 4.24641 27.5225 4.37997 27.3887C4.65601 27.112 4.93164 26.8349 5.20726 26.5578C5.39545 26.369 5.58367 26.1802 5.77191 25.9915C6.23098 25.5312 6.68971 25.0705 7.14818 24.6095C6.98045 24.2269 6.77518 23.9731 6.48027 23.6788C6.39152 23.5897 6.30276 23.5005 6.21131 23.4087C6.11548 23.3137 6.01965 23.2187 5.92092 23.1209C5.82268 23.0227 5.72445 22.9245 5.62324 22.8234C5.41577 22.6162 5.208 22.4094 4.99998 22.2028C4.68014 21.8851 4.36124 21.5665 4.04248 21.2477C3.84105 21.0468 3.63956 20.846 3.43801 20.6453C3.34194 20.5493 3.24587 20.4534 3.14689 20.3546C3.05851 20.2669 2.97012 20.1793 2.87905 20.089C2.80091 20.0113 2.72276 19.9336 2.64225 19.8535C2.48725 19.6745 2.48725 19.6745 2.34349 19.6876ZM46.3148 19.9988C46.2233 20.0904 46.1318 20.182 46.0375 20.2764C45.9328 20.3809 45.8281 20.4855 45.7203 20.5931C45.6034 20.7105 45.4865 20.8278 45.3696 20.9451C45.2472 21.0675 45.1248 21.1899 45.0024 21.3123C44.669 21.6456 44.3359 21.9794 44.003 22.3132C43.6553 22.6615 43.3074 23.0096 42.9594 23.3576C42.3001 24.0173 41.6411 24.6772 40.9823 25.3373C40.2323 26.0886 39.4821 26.8395 38.7318 27.5903C37.1879 29.1354 35.6445 30.6809 34.1013 32.2267C34.5048 32.7058 34.9137 33.1709 35.3576 33.6135C35.4608 33.7166 35.5639 33.8198 35.6702 33.9261C35.7794 34.0347 35.8886 34.1432 36.001 34.2551C36.1157 34.3695 36.2303 34.4839 36.3448 34.5984C36.6439 34.897 36.9434 35.1953 37.243 35.4936C37.5496 35.799 37.8558 36.1047 38.1621 36.4104C38.7613 37.0084 39.3609 37.6059 39.9607 38.2033C40.3097 38.0364 40.5442 37.8776 40.8103 37.5954C41.4643 36.9041 42.1451 36.3345 42.9723 35.8646C44.5365 34.9381 46.0777 33.6613 46.6404 31.8751C47.474 28.0411 46.9119 23.686 46.6404 19.8048C46.49 19.7915 46.49 19.7915 46.3148 19.9988ZM16.4175 34.2954C16.3261 34.3868 16.2348 34.4783 16.1406 34.5725C16.0358 34.6768 15.9309 34.7812 15.8229 34.8887C15.7064 35.0058 15.5899 35.123 15.4735 35.2401C15.3511 35.3624 15.2287 35.4846 15.1062 35.6067C14.773 35.9393 14.4406 36.2727 14.1083 36.6062C13.7611 36.9543 13.4134 37.3019 13.0657 37.6495C12.4819 38.2334 11.8985 38.8178 11.3155 39.4025C10.6404 40.0794 9.96461 40.7558 9.28851 41.4318C8.63937 42.0809 7.99056 42.7303 7.34194 43.3799C7.06532 43.6569 6.7886 43.9339 6.51181 44.2107C6.18623 44.5364 5.86095 44.8624 5.53591 45.1886C5.4162 45.3087 5.2964 45.4286 5.17649 45.5485C5.01355 45.7113 4.85101 45.8746 4.6885 46.0379C4.5972 46.1294 4.5059 46.2209 4.41184 46.3152C4.20521 46.4905 4.20521 46.4905 4.21849 46.6408C6.07081 46.8405 7.92335 46.9748 9.7849 47.0509C9.92125 47.0565 10.0576 47.0622 10.1981 47.0679C13.5479 47.19 16.3565 47.1116 18.9057 44.7439C19.3602 44.3023 19.7845 43.8378 20.1999 43.3595C20.2682 43.281 20.3364 43.2026 20.4067 43.1217C21.2432 42.1495 22.0151 41.1402 22.7341 40.0783C22.1414 39.3629 21.4989 38.7069 20.8426 38.0499C20.7286 37.9355 20.6146 37.8211 20.5005 37.7066C20.2632 37.4686 20.0256 37.2308 19.7878 36.9931C19.4828 36.688 19.1785 36.3821 18.8744 36.0761C18.64 35.8403 18.405 35.6051 18.1699 35.3701C18.0574 35.2574 17.9451 35.1446 17.8329 35.0315C17.677 34.8745 17.5203 34.7182 17.3635 34.562C17.2746 34.4729 17.1856 34.3838 17.0939 34.2919C16.7923 34.0302 16.7187 34.0336 16.4175 34.2954ZM32.0035 34.2954C31.9121 34.3868 31.8207 34.4783 31.7265 34.5725C31.6217 34.6768 31.5169 34.7812 31.4088 34.8887C31.2924 35.0058 31.1759 35.123 31.0594 35.2401C30.937 35.3624 30.8146 35.4846 30.6922 35.6067C30.359 35.9393 30.0265 36.2727 29.6942 36.6062C29.3471 36.9543 28.9993 37.3019 28.6516 37.6495C28.0678 38.2334 27.4845 38.8178 26.9014 39.4025C26.2263 40.0794 25.5506 40.7558 24.8745 41.4318C24.2253 42.0809 23.5765 42.7303 22.9279 43.3799C22.6513 43.6569 22.3745 43.9339 22.0977 44.2107C21.7722 44.5364 21.4469 44.8624 21.1218 45.1886C21.0021 45.3087 20.8823 45.4286 20.7624 45.5485C20.5995 45.7113 20.437 45.8746 20.2744 46.0379C20.1831 46.1294 20.0918 46.2209 19.9978 46.3152C19.7911 46.4905 19.7911 46.4905 19.8044 46.6408C21.6567 46.8405 23.5093 46.9748 25.3708 47.0509C25.5072 47.0565 25.6435 47.0622 25.784 47.0679C29.1338 47.19 31.9425 47.1116 34.4916 44.7439C34.9461 44.3023 35.3704 43.8378 35.7859 43.3595C35.8541 43.281 35.9224 43.2026 35.9927 43.1217C36.8292 42.1495 37.601 41.1402 38.3201 40.0783C37.7273 39.3629 37.0848 38.7069 36.4286 38.0499C36.3145 37.9355 36.2005 37.8211 36.0865 37.7066C35.8491 37.4686 35.6115 37.2308 35.3738 36.9931C35.0687 36.688 34.7644 36.3821 34.4604 36.0761C34.2259 35.8403 33.991 35.6051 33.7559 35.3701C33.6433 35.2574 33.531 35.1446 33.4189 35.0315C33.263 34.8745 33.1062 34.7182 32.9495 34.562C32.8605 34.4729 32.7715 34.3838 32.6799 34.2919C32.3783 34.0302 32.3046 34.0336 32.0035 34.2954ZM2.34349 35.2736C2.34349 38.406 2.34349 41.5384 2.34349 44.7658C3.04148 44.1676 3.04148 44.1676 3.69802 43.5358C3.7916 43.4413 3.88518 43.3468 3.9816 43.2494C4.17325 43.0547 4.3649 42.86 4.55655 42.6653C5.06489 42.1521 5.58057 41.6588 6.12877 41.1883C6.36166 40.9865 6.58102 40.7744 6.79662 40.5543C6.89813 40.4512 6.89813 40.4512 7.0017 40.3461C7.07421 40.2715 7.07421 40.2715 7.14818 40.1955C6.98045 39.8129 6.77518 39.559 6.48027 39.2647C6.39152 39.1756 6.30276 39.0865 6.21131 38.9946C6.11548 38.8997 6.01965 38.8047 5.92092 38.7068C5.82268 38.6086 5.72445 38.5104 5.62324 38.4093C5.41577 38.2022 5.208 37.9953 4.99998 37.7888C4.68014 37.4711 4.36124 37.1524 4.04248 36.8336C3.84105 36.6328 3.63956 36.432 3.43801 36.2312C3.34194 36.1353 3.24587 36.0393 3.14689 35.9405C3.05851 35.8529 2.97012 35.7652 2.87905 35.6749C2.80091 35.5972 2.72276 35.5195 2.64225 35.4395C2.48725 35.2604 2.48725 35.2604 2.34349 35.2736ZM46.0864 35.8126C45.9926 35.9061 45.8988 35.9996 45.8021 36.096C45.6466 36.2518 45.6466 36.2518 45.4879 36.4109C45.3793 36.5193 45.2707 36.6277 45.1588 36.7393C44.86 37.0376 44.5616 37.3362 44.2633 37.6349C43.9517 37.9468 43.6399 38.2583 43.3281 38.5699C42.8045 39.0933 42.2811 39.617 41.7579 40.1408C41.152 40.7473 40.5457 41.3534 39.9392 41.9592C39.4195 42.4784 38.9 42.9979 38.3807 43.5175C38.0701 43.8282 37.7594 44.1389 37.4485 44.4494C37.1022 44.7954 36.7563 45.1418 36.4105 45.4883C36.3066 45.592 36.2026 45.6957 36.0956 45.8025C36.0021 45.8963 35.9086 45.9902 35.8122 46.0868C35.7303 46.1688 35.6483 46.2508 35.5639 46.3353C35.3771 46.4953 35.3771 46.4953 35.3904 46.6408C39.1029 46.6408 42.8154 46.6408 46.6404 46.6408C46.6404 42.9283 46.6404 39.2158 46.6404 35.3908C46.4108 35.3908 46.2369 35.6623 46.0864 35.8126Z" fill="#C08F4F"/>
<path d="M33.1642 52.031C33.5399 52.2537 33.7969 52.4218 33.9492 52.844C34.0206 53.2495 34.0069 53.4984 33.8526 53.884C33.5073 54.2869 33.2257 54.4696 32.6954 54.5359C32.2911 54.4854 32.0786 54.3898 31.7579 54.1404C31.4855 53.7902 31.4683 53.4025 31.4773 52.9648C31.5561 52.5716 31.8051 52.3873 32.1095 52.1482C32.4785 51.9637 32.7564 51.9902 33.1642 52.031Z" fill="#C08F4F"/>
</g>
<defs>
<clipPath id="clip0_693_34">
<rect width="60" height="60" fill="white"/>
</clipPath>
</defs>
</svg>
