<svg width="60" height="60" viewBox="0 0 60 60" fill="none" xmlns="http://www.w3.org/2000/svg">
<g clip-path="url(#clip0_702_18)">
<path d="M15.9424 -0.0471344C16.1735 -0.0483408 16.1735 -0.0483408 16.4092 -0.0495716C16.8305 -0.0516699 17.2518 -0.0515366 17.6731 -0.0508674C18.0255 -0.0505046 18.3778 -0.0512197 18.7302 -0.0519267C19.5619 -0.0535714 20.3936 -0.0533907 21.2252 -0.0520554C22.0817 -0.0507106 22.9381 -0.0523584 23.7946 -0.0555003C24.5313 -0.058101 25.2679 -0.0588736 26.0046 -0.0581866C26.444 -0.0577925 26.8834 -0.0580694 27.3228 -0.060091C27.8131 -0.0622486 28.3033 -0.0605885 28.7937 -0.0585785C28.9382 -0.0597115 29.0828 -0.0608444 29.2317 -0.0620117C30.273 -0.0530812 31.0003 0.131319 31.7674 0.87958C31.847 0.956055 31.9267 1.03253 32.0087 1.11132C32.0904 1.1918 32.1721 1.27228 32.2563 1.3552C32.432 1.52449 32.6077 1.69371 32.7836 1.86286C32.8686 1.94528 32.9537 2.0277 33.0413 2.11262C33.3607 2.42003 33.6864 2.7193 34.0141 3.01779C34.4914 3.45346 34.9676 3.89028 35.4423 4.32883C35.5056 4.38733 35.569 4.44583 35.6342 4.5061C35.7625 4.62459 35.8907 4.7431 36.019 4.86161C36.3369 5.15531 36.655 5.44885 36.973 5.7424C37.1 5.85959 37.227 5.97678 37.3539 6.09397C37.4482 6.18098 37.4482 6.18098 37.5443 6.26975C38.2426 6.91428 38.9408 7.55881 39.6391 8.20334C39.702 8.26141 39.7649 8.31949 39.8298 8.37932C39.9559 8.49579 40.082 8.61231 40.208 8.72888C40.5374 9.03336 40.8677 9.33669 41.1996 9.63843C41.3025 9.73235 41.3025 9.73235 41.4074 9.82817C41.5379 9.94723 41.6686 10.066 41.7997 10.1843C42.5333 10.8553 42.9685 11.3913 43.0403 12.4082C43.0428 12.5817 43.044 12.7553 43.0441 12.9289C43.0451 13.0243 43.0461 13.1197 43.0471 13.218C43.0499 13.5319 43.0509 13.8458 43.0517 14.1598C43.0527 14.3793 43.0538 14.5988 43.0549 14.8183C43.0568 15.2781 43.0577 15.738 43.0581 16.1978C43.0587 16.7846 43.0631 17.3714 43.0685 17.9582C43.072 18.4117 43.0728 18.8651 43.0729 19.3185C43.0734 19.5347 43.0749 19.7509 43.0773 19.9671C43.101 22.2295 43.101 22.2295 42.4223 23.0862C41.7459 23.7189 41.1095 24.0511 40.1713 24.0577C40.027 24.0592 39.8826 24.0607 39.7339 24.0622C39.5771 24.0626 39.4204 24.0628 39.2637 24.063C39.1015 24.0638 38.9394 24.0646 38.7772 24.0654C38.4376 24.0668 38.0979 24.0672 37.7583 24.0671C37.3255 24.0671 36.8928 24.0703 36.4601 24.0743C36.1251 24.0769 35.7901 24.0774 35.4551 24.0773C35.2187 24.0777 34.9824 24.0802 34.7461 24.0828C33.6233 24.0772 32.8404 23.8631 31.928 23.2079C31.8378 23.1439 31.7475 23.0798 31.6545 23.0138C31.5606 22.9458 31.4668 22.8779 31.37 22.8078C31.163 22.6604 30.9559 22.513 30.7488 22.3656C30.6441 22.2906 30.5393 22.2156 30.4313 22.1382C29.9386 21.7865 29.4421 21.4404 28.9457 21.094C28.7508 20.9576 28.556 20.8212 28.3611 20.6847C27.966 20.4081 27.5708 20.1317 27.1755 19.8553C27.0772 19.7863 26.9789 19.7172 26.8776 19.6461C26.6791 19.5078 26.4796 19.3708 26.2791 19.2351C25.8206 18.9225 25.3975 18.6148 25.0048 18.2215C23.5487 16.8461 21.6919 17.0768 19.8087 17.1087C19.718 17.1118 19.6272 17.1149 19.5337 17.1181C18.496 17.1436 17.5697 16.9609 16.7582 16.2893C16.0746 15.4966 15.7903 14.5554 15.4893 13.5715C15.4381 13.4086 15.3867 13.2457 15.3352 13.0828C15.2001 12.6541 15.067 12.2248 14.9343 11.7954C14.8033 11.3724 14.6704 10.9501 14.5376 10.5276C14.3794 10.0242 14.2217 9.52062 14.0663 9.01634C13.8303 8.25164 13.5922 7.4882 13.3392 6.72892C13.2278 6.39389 13.1181 6.05828 13.0086 5.72262C12.957 5.56625 12.9045 5.41018 12.851 5.25446C12.4453 4.07299 12.0958 2.66775 12.6054 1.45774C12.8869 1.00005 13.2669 0.64956 13.7113 0.351778C13.8006 0.291546 13.8899 0.231314 13.9819 0.169257C14.6305 -0.0842061 15.2519 -0.0496461 15.9424 -0.0471344ZM14.5316 2.46115C14.4825 3.0182 14.5593 3.47176 14.7263 4.0017C14.7691 4.13943 14.8119 4.27716 14.8561 4.41907C14.9037 4.56813 14.9513 4.71719 14.999 4.86624C15.0482 5.02284 15.0972 5.17947 15.1462 5.33612C15.2767 5.75254 15.4088 6.16848 15.5412 6.58428C15.6229 6.84091 15.7043 7.09764 15.7855 7.3544C16.0517 8.19562 16.3189 9.03649 16.5874 9.87698C16.7947 10.5261 16.9991 11.1761 17.2007 11.8271C17.3144 12.1929 17.4302 12.558 17.5467 12.9228C17.5968 13.0808 17.646 13.239 17.6942 13.3975C17.759 13.6098 17.8275 13.821 17.8962 14.032C17.9316 14.1445 17.967 14.2569 18.0035 14.3728C18.2337 14.7673 18.4373 14.8512 18.8676 15.0002C19.2378 15.046 19.6032 15.0464 19.9758 15.0437C20.193 15.0457 20.4102 15.0478 20.6275 15.0499C20.9669 15.0511 21.3063 15.0515 21.6457 15.0513C21.9753 15.0517 22.3049 15.0549 22.6345 15.0584C22.7345 15.0574 22.8345 15.0564 22.9376 15.0554C23.8735 15.0669 24.6202 15.3893 25.3774 15.9331C25.4677 15.9972 25.558 16.0613 25.651 16.1273C25.7449 16.1952 25.8388 16.2632 25.9355 16.3332C26.142 16.4803 26.3486 16.6274 26.5553 16.7745C26.66 16.8495 26.7647 16.9245 26.8726 17.0018C27.373 17.3589 27.8775 17.71 28.3817 18.0617C29.0122 18.5027 29.6424 18.944 30.27 19.389C30.4318 19.5029 30.5942 19.6161 30.7574 19.7279C31.197 20.0313 31.6122 20.3447 32.0143 20.6966C33.5467 21.9814 34.8603 22.1423 36.8224 22.0638C37.272 22.0459 37.7207 22.0398 38.1706 22.0356C38.4574 22.0303 38.7443 22.0244 39.0312 22.0177C39.1649 22.015 39.2987 22.0123 39.4365 22.0095C39.5603 22.0042 39.6841 21.9989 39.8116 21.9935C39.9743 21.9877 39.9743 21.9877 40.1403 21.9817C40.532 21.8906 40.6674 21.7742 40.8988 21.4455C40.9481 21.1378 40.9689 20.8779 40.9688 20.57C40.9705 20.4824 40.9723 20.3949 40.9741 20.3047C40.9792 20.0156 40.9807 19.7265 40.9817 19.4373C40.9835 19.2356 40.9853 19.0338 40.9873 18.8321C40.9906 18.409 40.9919 17.9859 40.9921 17.5628C40.9927 17.0226 41.0003 16.4827 41.0097 15.9426C41.0159 15.5257 41.0172 15.1088 41.0171 14.6918C41.0179 14.4928 41.0204 14.2938 41.0247 14.0949C41.0672 12.9755 41.0672 12.9755 40.6728 11.9563C40.4099 11.6899 40.1463 11.47 39.8441 11.2502C39.6837 11.1105 39.5243 10.9697 39.3662 10.8272C39.2899 10.7616 39.2135 10.696 39.1348 10.6283C38.7458 10.29 38.373 9.93445 37.9984 9.58029C37.326 8.9472 36.6497 8.31905 35.9678 7.69614C35.6012 7.36091 35.2359 7.02431 34.871 6.68723C34.8077 6.62874 34.7444 6.57025 34.6791 6.50999C34.5508 6.39148 34.4225 6.27297 34.2943 6.15445C33.9132 5.80238 33.5319 5.45052 33.1506 5.09867C32.8286 4.80154 32.5068 4.50423 32.1853 4.20661C32.0872 4.11586 32.0872 4.11586 31.9871 4.02327C31.8654 3.91073 31.7438 3.79812 31.6222 3.68544C31.507 3.57886 31.3908 3.47328 31.2736 3.36875C31.1141 3.21954 30.9614 3.06302 30.8131 2.9027C30.1652 2.24084 29.7174 1.98873 28.7894 1.97446C28.6539 1.9777 28.5184 1.98094 28.3788 1.98428C28.2329 1.98356 28.087 1.98284 27.9366 1.9821C27.5399 1.98123 27.1437 1.98502 26.747 1.99107C26.3309 1.99639 25.9147 1.99595 25.4985 1.99623C24.8008 1.99752 24.1031 2.00276 23.4054 2.01071C22.5098 2.0209 21.6143 2.02451 20.7186 2.02607C19.9475 2.02747 19.1763 2.03186 18.4051 2.03674C18.1576 2.03818 17.91 2.03921 17.6625 2.04018C17.2021 2.04222 16.7418 2.04738 16.2815 2.05294C16.0757 2.05353 16.0757 2.05353 15.8658 2.05413C15.7408 2.05614 15.6158 2.05815 15.4871 2.06022C15.3239 2.06179 15.3239 2.06179 15.1575 2.06339C14.8298 2.11858 14.723 2.19241 14.5316 2.46115Z" fill="#C08F4F"/>
<path d="M35.5866 25.8794C35.7383 25.8786 35.7383 25.8786 35.8929 25.8777C36.2265 25.876 36.5601 25.8752 36.8937 25.8745C37.1265 25.8739 37.3593 25.8732 37.5922 25.8725C38.0803 25.8713 38.5684 25.8706 39.0565 25.8702C39.6797 25.8695 40.3029 25.8667 40.9261 25.8634C41.4072 25.8612 41.8883 25.8606 42.3693 25.8604C42.599 25.8601 42.8286 25.8591 43.0582 25.8576C45.9738 25.8394 45.9738 25.8394 47.0286 26.8473C47.631 27.5248 47.8503 28.2188 47.8386 29.1112C47.7894 29.6866 47.6195 30.2287 47.4571 30.7808C47.42 30.9108 47.3829 31.0408 47.3447 31.1747C47.2261 31.5891 47.1056 32.003 46.9851 32.4169C46.9072 32.6885 46.8295 32.9601 46.7519 33.2317C46.5603 33.9005 46.3647 34.5681 46.1681 35.2354C46.0566 35.6192 45.9492 36.004 45.8426 36.3892C45.7744 36.6286 45.7062 36.8679 45.6379 37.1071C45.6093 37.2145 45.5806 37.3218 45.5511 37.4324C45.2034 38.6275 44.3732 39.4512 43.5096 40.3137C43.3799 40.4445 43.3799 40.4445 43.2477 40.578C42.9649 40.863 42.6812 41.1471 42.3974 41.4312C42.1988 41.6305 42.0002 41.8299 41.8016 42.0294C41.3865 42.4458 40.971 42.8618 40.5551 43.2775C40.0237 43.8089 39.4939 44.3419 38.9645 44.8753C38.5553 45.2871 38.1451 45.6978 37.7345 46.1083C37.5388 46.3043 37.3434 46.5007 37.1484 46.6975C36.8753 46.9729 36.6008 47.2467 36.3259 47.5202C36.2466 47.6008 36.1673 47.6815 36.0856 47.7645C35.066 48.771 34.1547 49.1194 32.729 49.1185C32.6413 49.1189 32.5535 49.1193 32.4631 49.1197C32.1747 49.1208 31.8863 49.121 31.5978 49.1211C31.3962 49.1215 31.1945 49.1219 30.9928 49.1223C30.5706 49.123 30.1484 49.1232 29.7262 49.1232C29.1869 49.1232 28.6477 49.1248 28.1084 49.1268C27.6919 49.1281 27.2755 49.1283 26.8591 49.1283C26.6604 49.1284 26.4616 49.1289 26.2629 49.1298C25.9842 49.131 25.7055 49.1306 25.4268 49.1299C25.3458 49.1306 25.2648 49.1312 25.1813 49.1319C24.118 49.1251 23.2163 48.8448 22.4343 48.12C21.97 47.5079 21.7231 46.7638 21.4456 46.0546C21.4051 45.9539 21.3645 45.8533 21.3228 45.7496C20.3009 43.1964 20.3009 43.1964 20.5081 42.0702C20.5201 41.9915 20.5322 41.9128 20.5447 41.8317C20.7569 41.0242 21.4508 40.4012 21.9906 39.7904C22.2 39.5504 22.3983 39.3027 22.5955 39.0526C23.2227 38.2619 23.8679 37.4858 24.5104 36.7074C24.8563 36.2883 25.2017 35.8687 25.5471 35.4491C25.6838 35.2831 25.8206 35.1171 25.9573 34.9511C26.0249 34.8689 26.0926 34.7867 26.1624 34.702C26.9143 33.789 27.6663 32.8759 28.4182 31.9628C28.4859 31.8806 28.5536 31.7984 28.6234 31.7136C28.7598 31.548 28.8962 31.3824 29.0327 31.2167C29.3792 30.7961 29.7254 30.3753 30.0712 29.9541C30.7107 29.1755 31.3512 28.3979 31.9998 27.6268C32.0978 27.5102 32.1958 27.3936 32.2968 27.2735C33.2743 26.1609 34.1334 25.8815 35.5866 25.8794ZM33.7209 28.8866C33.6297 28.9907 33.5385 29.0948 33.4445 29.202C32.9911 29.7347 32.5491 30.276 32.1096 30.8202C31.9462 31.0205 31.7826 31.2207 31.6189 31.4208C31.5319 31.5271 31.4449 31.6335 31.3552 31.7431C30.7812 32.4436 30.2048 33.1422 29.6288 33.8411C29.2838 34.2598 28.9389 34.6787 28.594 35.0976C28.4573 35.2636 28.3206 35.4296 28.1838 35.5956C28.1162 35.6778 28.0485 35.76 27.9788 35.8446C25.7229 38.5839 25.7229 38.5839 25.5175 38.8333C25.3819 38.998 25.2463 39.1626 25.1108 39.3273C24.752 39.7632 24.3927 40.1987 24.0328 40.6337C23.9578 40.7246 23.8827 40.8155 23.8053 40.9091C23.6611 41.0836 23.5168 41.258 23.3723 41.4323C23.3075 41.5108 23.2427 41.5893 23.1759 41.6701C23.1188 41.7391 23.0618 41.808 23.003 41.879C22.6736 42.2942 22.6736 42.2942 22.6257 42.8154C22.7398 43.547 23.0359 44.2268 23.3059 44.912C23.3583 45.0492 23.4107 45.1863 23.4647 45.3277C23.7669 46.1548 23.7669 46.1548 24.2581 46.8749C24.6736 47.0134 25.0064 47.0087 25.4452 47.011C25.5298 47.0115 25.6145 47.0121 25.7017 47.0127C25.9817 47.0144 26.2618 47.0152 26.5418 47.0159C26.7367 47.0166 26.9316 47.0172 27.1264 47.0179C27.5352 47.0191 27.9439 47.0198 28.3526 47.0202C28.8755 47.0209 29.3984 47.0237 29.9213 47.027C30.3239 47.0292 30.7266 47.0298 31.1292 47.03C31.3219 47.0304 31.5147 47.0313 31.7074 47.0328C31.9775 47.0348 32.2475 47.0346 32.5176 47.0339C32.6711 47.0343 32.8247 47.0347 32.9828 47.0351C33.8922 46.941 34.3901 46.4031 35.0044 45.7834C35.0919 45.6965 35.1795 45.6096 35.2697 45.52C35.558 45.2332 35.845 44.9452 36.132 44.657C36.3324 44.4569 36.5329 44.2567 36.7334 44.0567C37.1531 43.6375 37.5721 43.2177 37.9908 42.7974C38.5271 42.2591 39.0649 41.7224 39.6033 41.1861C40.0174 40.7733 40.4307 40.3596 40.8437 39.9457C41.0417 39.7474 41.2399 39.5495 41.4385 39.3518C41.7159 39.0752 41.9922 38.7976 42.2682 38.5196C42.3502 38.4384 42.4322 38.3571 42.5167 38.2733C43.1617 37.6198 43.4686 37.0079 43.723 36.1227C43.7449 36.0469 43.7669 35.9712 43.7895 35.8932C43.8612 35.6451 43.9318 35.3968 44.0023 35.1484C44.052 34.9747 44.1017 34.8011 44.1514 34.6275C44.2551 34.2646 44.3583 33.9017 44.4611 33.5386C44.5927 33.0737 44.7263 32.6094 44.8603 32.1452C44.9633 31.7873 45.0652 31.429 45.1667 31.0706C45.2154 30.8993 45.2646 30.728 45.3142 30.5569C45.3833 30.3178 45.4508 30.0782 45.5179 29.8385C45.576 29.6344 45.576 29.6344 45.6353 29.4262C45.7044 29.0567 45.6973 28.8326 45.5862 28.4765C45.3586 28.1868 45.242 28.1273 44.8831 28.0077C44.5635 27.9952 44.2469 27.9893 43.9273 27.9888C43.8299 27.9882 43.7325 27.9877 43.6321 27.9871C43.3097 27.9853 42.9872 27.9846 42.6647 27.9839C42.4407 27.9832 42.2166 27.9826 41.9926 27.9819C41.5227 27.9806 41.0528 27.98 40.5829 27.9796C39.9809 27.9789 39.3789 27.9761 38.7769 27.9728C38.3141 27.9706 37.8512 27.97 37.3884 27.9698C37.1664 27.9694 36.9445 27.9685 36.7226 27.967C36.412 27.965 36.1016 27.9652 35.791 27.9659C35.6994 27.9649 35.6079 27.9638 35.5135 27.9627C34.6658 27.9692 34.2629 28.2684 33.7209 28.8866Z" fill="#C08F4F"/>
<path d="M11.2679 18.9502C11.3874 18.9494 11.507 18.9486 11.6302 18.9478C12.0252 18.9456 12.4202 18.9451 12.8153 18.9449C13.0904 18.9441 13.3655 18.9434 13.6407 18.9425C14.2175 18.9411 14.7944 18.9407 15.3713 18.9408C16.1091 18.9409 16.8468 18.9377 17.5846 18.9336C18.153 18.931 18.7214 18.9305 19.2899 18.9307C19.5618 18.9304 19.8337 18.9294 20.1056 18.9275C20.4868 18.9252 20.8678 18.9259 21.249 18.9273C21.3604 18.926 21.4719 18.9247 21.5867 18.9233C22.5506 18.9324 23.3067 19.2391 24.0877 19.8C24.178 19.8641 24.2684 19.9282 24.3615 19.9943C24.5022 20.0962 24.5022 20.0962 24.6457 20.2001C24.8511 20.3465 25.0564 20.4928 25.2618 20.6391C25.3664 20.714 25.471 20.7889 25.5787 20.8661C25.8958 21.092 26.2147 21.3151 26.5344 21.5372C26.6893 21.6449 26.6893 21.6449 26.8474 21.7547C27.0431 21.8906 27.2389 22.0264 27.4348 22.162C29.8856 23.871 29.8856 23.871 30.2341 24.9608C30.3681 26.3356 30.0343 27.1967 29.1794 28.2421C28.9135 28.5591 28.6467 28.8752 28.3782 29.19C27.9822 29.6547 27.5982 30.1272 27.2188 30.6055C26.663 31.299 26.0944 31.982 25.5286 32.6673C25.1827 33.0865 24.8373 33.5061 24.4919 33.9257C24.3552 34.0917 24.2185 34.2577 24.0817 34.4237C24.0141 34.5059 23.9464 34.5881 23.8767 34.6727C23.569 35.0463 23.569 35.0463 23.2614 35.4198C23.1937 35.5021 23.126 35.5843 23.0562 35.669C22.92 35.8344 22.7837 35.9998 22.6475 36.1651C22.2976 36.5897 21.9483 37.0148 21.6002 37.4408C21.2587 37.8585 20.9154 38.2746 20.5702 38.6893C20.4573 38.8254 20.3449 38.962 20.2333 39.0992C19.6656 39.7962 19.1726 40.3289 18.2809 40.5468C17.1946 40.65 16.1905 40.4638 15.1484 40.1848C14.911 40.1218 14.6729 40.0629 14.4344 40.0043C13.2425 39.701 12.2747 39.3523 11.6249 38.2642C11.3332 37.6519 11.2069 36.9887 11.0588 36.3303C11.0196 36.162 10.9803 35.9937 10.9408 35.8254C10.8309 35.3544 10.7235 34.8828 10.6168 34.411C10.5442 34.091 10.4711 33.771 10.398 33.4511C10.0445 31.9053 9.69562 30.3584 9.34823 28.8111C9.1798 28.0613 9.01096 27.3115 8.84214 26.5617C8.71133 25.9807 8.58059 25.3996 8.45008 24.8186C8.42635 24.713 8.40263 24.6075 8.37819 24.4988C8.33408 24.3025 8.29 24.1063 8.24598 23.91C8.13998 23.4354 8.13998 23.4354 8.02272 22.9636C7.798 22.014 7.87488 21.0156 8.36396 20.1708C9.13365 19.1643 10.0635 18.9491 11.2679 18.9502ZM10.2446 21.2817C9.80233 22.026 10.1935 23.0045 10.3753 23.7897C10.4069 23.9295 10.4386 24.0692 10.4712 24.2132C10.5577 24.5947 10.645 24.976 10.7327 25.3572C10.8245 25.757 10.9154 26.1571 11.0064 26.5571C11.1593 27.2284 11.3128 27.8996 11.4669 28.5708C11.6447 29.3459 11.8217 30.1212 11.998 30.8967C12.168 31.6439 12.3385 32.3911 12.5094 33.1381C12.5819 33.4556 12.6543 33.773 12.7266 34.0905C12.8276 34.5338 12.9294 34.977 13.0313 35.4201C13.0611 35.5515 13.0909 35.6829 13.1217 35.8182C13.1636 35.9996 13.1636 35.9996 13.2063 36.1846C13.2303 36.2893 13.2543 36.394 13.279 36.5018C13.4363 37.1294 13.4362 37.1294 13.8718 37.5718C14.4708 37.8009 15.0804 37.9556 15.7028 38.1078C15.8279 38.1398 15.953 38.1717 16.0819 38.2046C16.2033 38.2348 16.3248 38.2649 16.4499 38.2959C16.6144 38.3368 16.6144 38.3368 16.7822 38.3784C17.315 38.4745 17.6781 38.5238 18.1418 38.225C18.6786 37.7287 19.1163 37.133 19.57 36.5624C19.7332 36.3619 19.8968 36.1617 20.0607 35.9618C20.1906 35.8032 20.1906 35.8032 20.323 35.6414C20.4236 35.5187 20.5241 35.396 20.6247 35.2733C20.6859 35.1986 20.7472 35.1239 20.8103 35.047C21.5193 34.1826 22.2293 33.3196 22.9538 32.4682C23.3873 31.9585 23.8101 31.4419 24.2259 30.9177C24.5695 30.4889 24.9187 30.0649 25.2683 29.641C25.3377 29.5568 25.4071 29.4726 25.4787 29.3858C25.7728 29.0293 26.0671 28.6728 26.3615 28.3165C26.5855 28.0452 26.8095 27.7737 27.0334 27.5023C27.1023 27.419 27.1712 27.3357 27.2422 27.2498C27.8396 26.5893 27.8396 26.5893 28.2053 25.8031C28.0035 24.8676 26.6734 24.2321 25.9274 23.723C25.7107 23.574 25.494 23.4249 25.2774 23.2758C25.1626 23.1991 25.0477 23.1224 24.9294 23.0434C24.6046 22.8208 24.3021 22.5803 23.9992 22.3287C22.4744 21.1032 21.3212 20.859 19.3979 20.9169C19.1423 20.9188 18.8866 20.92 18.631 20.9206C18.1006 20.9235 17.5706 20.9316 17.0404 20.9441C16.3607 20.9602 15.6814 20.9668 15.0016 20.9701C14.3503 20.9737 13.6991 20.9817 13.0478 20.9902C12.9241 20.9914 12.8005 20.9927 12.6731 20.9939C12.3245 20.9983 11.9761 21.0058 11.6276 21.0144C11.5245 21.0153 11.4214 21.0162 11.3151 21.0171C10.8811 21.0309 10.6181 21.0491 10.2446 21.2817Z" fill="#C08F4F"/>
<path d="M45.9962 41.5427C46.1757 41.5409 46.1757 41.5409 46.3588 41.5391C47.5099 41.7186 48.2043 42.3774 49.0007 43.1842C49.1154 43.2983 49.2303 43.4123 49.3452 43.5262C49.655 43.8338 49.9629 44.1432 50.2705 44.4531C50.5937 44.7782 50.9184 45.1019 51.2429 45.4258C51.7874 45.9698 52.3307 46.5149 52.8732 47.0607C53.4992 47.6904 54.127 48.3182 54.7559 48.9451C55.3626 49.5499 55.9679 50.1561 56.5727 50.7629C56.8293 51.0203 57.0864 51.2772 57.3438 51.5338C57.6472 51.8363 57.9494 52.1399 58.2508 52.4445C58.4134 52.6083 58.5772 52.771 58.7411 52.9337C59.6665 53.8732 60.0591 54.5854 60.0699 55.9236C60.068 56.1394 60.068 56.1394 60.0661 56.3596C60.0688 56.5031 60.0716 56.6465 60.0745 56.7943C60.0729 57.8052 59.9176 58.5426 59.2016 59.2817C58.5813 59.8575 58.038 60.0287 57.1891 60.0319C57.108 60.0325 57.027 60.0331 56.9435 60.0337C56.6728 60.0355 56.402 60.0356 56.1313 60.0357C55.9368 60.0366 55.7423 60.0375 55.5479 60.0386C55.02 60.0412 54.4922 60.0422 53.9643 60.0428C53.6342 60.0432 53.3041 60.044 52.974 60.0448C51.8216 60.0477 50.6691 60.0492 49.5166 60.0496C48.4438 60.05 47.3711 60.0536 46.2984 60.0585C45.3763 60.0625 44.4542 60.0643 43.5321 60.0644C42.9819 60.0645 42.4317 60.0655 41.8815 60.0689C41.3635 60.0719 40.8456 60.0722 40.3276 60.0703C40.1382 60.0701 39.9488 60.0709 39.7593 60.0728C38.7186 60.0824 37.7838 60.0685 36.9142 59.4138C36.2935 58.754 35.9503 58.115 35.9408 57.197C35.9389 57.0601 35.937 56.9231 35.9351 56.782C35.9345 56.6349 35.9339 56.4878 35.9332 56.3363C35.9321 56.1838 35.9311 56.0314 35.93 55.8743C35.9281 55.5517 35.9272 55.2291 35.9268 54.9065C35.9262 54.496 35.9218 54.0857 35.9164 53.6753C35.9121 53.2806 35.9119 52.8858 35.9112 52.4911C35.9089 52.3451 35.9067 52.1992 35.9043 52.0489C35.9142 50.1288 36.9603 49.2011 38.249 47.923C38.4165 47.7551 38.5839 47.5872 38.7513 47.4191C39.101 47.0685 39.4518 46.719 39.8033 46.3702C40.2523 45.9246 40.6985 45.4764 41.1441 45.0273C41.4889 44.6804 41.835 44.3349 42.1817 43.9898C42.3467 43.8251 42.5114 43.66 42.6755 43.4945C42.9057 43.2628 43.1376 43.0332 43.3701 42.8039C43.4367 42.7362 43.5032 42.6685 43.5717 42.5988C44.2489 41.9389 45.0356 41.533 45.9962 41.5427ZM44.8171 44.3847C44.7451 44.4563 44.6732 44.528 44.5991 44.6018C44.3624 44.8384 44.1288 45.0778 43.8951 45.3174C43.7312 45.4826 43.5671 45.6475 43.4029 45.8123C42.9715 46.2462 42.5426 46.6826 42.1142 47.1194C41.7634 47.4763 41.4108 47.8314 41.0582 48.1865C40.3307 48.9189 39.6044 49.6524 38.8813 50.3892C38.8139 50.4574 38.7466 50.5256 38.6772 50.5958C38.2238 51.0593 38.0723 51.2639 38.0653 51.9064C38.0638 52.0269 38.0623 52.1474 38.0608 52.2715C38.0599 52.4021 38.059 52.5327 38.0581 52.6673C38.0572 52.8011 38.0563 52.9349 38.0553 53.0728C38.0537 53.3563 38.0524 53.6398 38.0515 53.9233C38.0495 54.3575 38.0443 54.7916 38.0391 55.2257C38.038 55.5009 38.037 55.776 38.0362 56.0511C38.0341 56.1812 38.0321 56.3114 38.03 56.4454C38.0303 56.5667 38.0306 56.6879 38.031 56.8127C38.0303 56.9193 38.0296 57.0258 38.0289 57.1355C38.1066 57.5245 38.245 57.6457 38.5548 57.8904C38.9153 57.9609 38.9153 57.9609 39.3243 57.9499C39.4014 57.9506 39.4785 57.9514 39.558 57.9521C39.8162 57.954 40.0743 57.9525 40.3325 57.951C40.5177 57.9517 40.7029 57.9525 40.8881 57.9535C41.391 57.9557 41.8939 57.9548 42.3967 57.9533C42.9228 57.9522 43.4489 57.9533 43.975 57.954C44.8584 57.9548 45.7419 57.9537 46.6254 57.9515C47.647 57.9489 48.6687 57.9498 49.6904 57.9523C50.5673 57.9545 51.4442 57.9548 52.3211 57.9535C52.8449 57.9528 53.3688 57.9527 53.8926 57.9543C54.3851 57.9556 54.8776 57.9547 55.3701 57.952C55.5509 57.9514 55.7317 57.9515 55.9126 57.9526C56.1593 57.9538 56.4058 57.9522 56.6525 57.9499C56.7906 57.9497 56.9287 57.9496 57.071 57.9494C57.4983 57.8776 57.6325 57.764 57.8908 57.4216C58.1206 56.6672 58.1471 55.9484 57.8908 55.1951C57.2997 54.219 56.4173 53.4356 55.5987 52.6503C55.2757 52.3382 54.9587 52.02 54.6408 51.7025C54.1073 51.1713 53.5697 50.6445 53.0292 50.1204C52.4048 49.5151 51.786 48.9046 51.17 48.2908C50.5122 47.6354 49.8512 46.9831 49.189 46.332C48.999 46.1449 48.8094 45.9572 48.62 45.7695C48.3223 45.4749 48.0226 45.1826 47.7211 44.8919C47.5585 44.7342 47.3979 44.5745 47.2373 44.4148C46.68 43.8793 46.68 43.8793 45.9726 43.6049C45.4485 43.7483 45.1876 43.9986 44.8171 44.3847Z" fill="#C08F4F"/>
<path d="M13.389 41.4899C13.4895 41.5148 13.59 41.5397 13.6936 41.5654C13.9049 41.618 14.116 41.6713 14.327 41.725C14.6475 41.8064 14.9685 41.8854 15.2897 41.9642C15.496 42.0159 15.7023 42.0678 15.9086 42.1198C16.0507 42.1546 16.0507 42.1546 16.1957 42.1902C17.3019 42.4757 18.0891 42.8634 18.7504 43.8282C18.9379 44.1848 19.0773 44.549 19.2109 44.9287C19.2485 45.0303 19.286 45.1319 19.3248 45.2365C19.4429 45.5574 19.5581 45.8793 19.6732 46.2012C19.753 46.4189 19.833 46.6365 19.9131 46.854C20.0587 47.2513 20.2038 47.6487 20.3465 48.0471C20.375 48.1265 20.4035 48.2059 20.4329 48.2877C20.7888 49.3653 20.6392 50.1978 20.1566 51.211C19.934 51.597 19.687 51.9627 19.4334 52.3289C19.3636 52.4316 19.2938 52.5343 19.222 52.6401C18.9975 52.9701 18.7714 53.2991 18.5453 53.628C18.3131 53.968 18.0812 54.3082 17.8494 54.6484C17.6969 54.8721 17.5442 55.0957 17.3914 55.3192C16.97 55.9361 16.5534 56.5556 16.1457 57.1816C16.0612 57.3109 15.9767 57.4402 15.8897 57.5734C15.742 57.8005 15.5952 58.0281 15.4496 58.2565C14.9347 59.0444 14.3992 59.7074 13.4769 60.0001C13.1084 60.0354 12.7411 60.0345 12.3711 60.0341C12.2605 60.0349 12.1499 60.0357 12.0359 60.0365C11.6708 60.0387 11.3056 60.0392 10.9405 60.0394C10.6861 60.0402 10.4317 60.041 10.1773 60.0418C9.64404 60.0432 9.11082 60.0436 8.57758 60.0435C7.89548 60.0435 7.21343 60.0467 6.53134 60.0507C6.00584 60.0533 5.48035 60.0538 4.95485 60.0537C4.70344 60.0539 4.45204 60.055 4.20064 60.0568C3.84836 60.0591 3.49621 60.0584 3.14393 60.057C3.04083 60.0583 2.93774 60.0596 2.83151 60.061C2.02011 60.0528 1.40652 59.8393 0.79231 59.3011C0.697594 59.1866 0.697594 59.1866 0.600965 59.0699C0.536008 58.9939 0.471052 58.9179 0.404127 58.8396C0.0449469 58.3183 -0.0297187 57.8664 -0.0355266 57.2392C-0.0383369 57.0092 -0.0383369 57.0092 -0.041204 56.7745C-0.0419515 56.6077 -0.0425834 56.441 -0.0431083 56.2743C-0.0441603 56.1019 -0.0452293 55.9295 -0.0463145 55.7572C-0.0482443 55.3959 -0.0491487 55.0347 -0.0494884 54.6735C-0.0501175 54.2134 -0.0545268 53.7534 -0.0598882 53.2934C-0.063396 52.9371 -0.0642218 52.5809 -0.0643389 52.2247C-0.064828 52.0553 -0.0662719 51.8858 -0.0687359 51.7164C-0.0839021 50.583 -0.00400444 49.6056 0.811672 48.7473C1.03972 48.5375 1.27584 48.3499 1.52382 48.1641C1.60439 48.1025 1.68496 48.0409 1.76798 47.9774C2.02382 47.7851 2.28238 47.5971 2.54188 47.4097C3.36249 46.8115 4.17471 46.2036 4.98085 45.586C5.85937 44.9136 6.74348 44.2499 7.63696 43.5976C8.08155 43.2726 8.52237 42.9443 8.95652 42.6055C9.03956 42.5413 9.1226 42.477 9.20815 42.4108C9.362 42.2914 9.51501 42.1709 9.66689 42.049C10.8411 41.142 12.0004 41.1358 13.389 41.4899ZM9.93202 44.5753C9.19666 45.155 8.45423 45.722 7.69813 46.2745C6.79055 46.9384 5.89358 47.6151 5.00073 48.2987C4.51392 48.6712 4.02616 49.0421 3.53386 49.4074C3.44642 49.4724 3.35898 49.5373 3.2689 49.6042C3.10579 49.725 2.94241 49.8455 2.77869 49.9655C2.38473 50.2416 2.38473 50.2416 2.10975 50.6251C2.09671 50.8391 2.09109 51.0537 2.08901 51.2682C2.08751 51.4027 2.086 51.5373 2.08445 51.6759C2.08359 51.8219 2.08272 51.9679 2.08183 52.1183C2.08088 52.2677 2.07994 52.4171 2.07896 52.5711C2.07734 52.8877 2.07605 53.2043 2.07516 53.5209C2.07387 53.9263 2.06984 54.3316 2.06518 54.737C2.06138 55.1238 2.06085 55.5107 2.05986 55.8976C2.05781 56.0431 2.05575 56.1886 2.05364 56.3386C2.05398 56.4738 2.05433 56.6091 2.05468 56.7485C2.05399 56.8675 2.0533 56.9865 2.0526 57.1091C2.09073 57.4305 2.09073 57.4305 2.28522 57.694C2.70154 57.9732 3.09119 57.9608 3.57611 57.9606C3.67659 57.9624 3.77707 57.9642 3.88059 57.966C4.21273 57.971 4.54476 57.9725 4.87694 57.9735C5.10814 57.9753 5.33934 57.9772 5.57054 57.9791C6.05532 57.9825 6.54006 57.9838 7.02485 57.984C7.6452 57.9846 8.26525 57.9922 8.88552 58.0016C9.36317 58.0077 9.84075 58.009 10.3184 58.009C10.5471 58.0098 10.7757 58.0123 11.0043 58.0165C12.2103 58.0822 12.2103 58.0822 13.3078 57.6889C13.5264 57.416 13.6747 57.1495 13.8285 56.836C13.9552 56.6461 14.084 56.4578 14.215 56.2708C14.3474 56.0698 14.4793 55.8685 14.6108 55.6669C14.6823 55.5581 14.7538 55.4493 14.8275 55.3372C15.054 54.9924 15.2799 54.6471 15.5057 54.3018C15.7299 53.9601 15.9541 53.6185 16.1784 53.2769C16.3238 53.0552 16.4691 52.8335 16.6141 52.6116C16.936 52.1198 17.2594 51.6297 17.5915 51.1447C17.6463 51.0643 17.7012 50.9838 17.7577 50.9009C17.8575 50.755 17.958 50.6096 18.0595 50.4649C18.3152 50.0904 18.5022 49.7937 18.516 49.336C18.4271 49.0136 18.33 48.717 18.2107 48.4063C18.1778 48.3177 18.1449 48.2292 18.1111 48.138C18.0413 47.9511 17.9709 47.7644 17.8997 47.578C17.7917 47.2945 17.6862 47.0102 17.581 46.7256C17.5127 46.5436 17.4443 46.3616 17.3757 46.1797C17.3288 46.0533 17.3288 46.0533 17.281 45.9244C17.0844 45.4135 16.8638 44.9667 16.5238 44.5313C16.1975 44.3959 15.9257 44.3076 15.5863 44.231C15.4951 44.2082 15.404 44.1853 15.31 44.1618C15.1148 44.1132 14.9192 44.0657 14.7234 44.0193C14.4035 43.9428 14.0851 43.8614 13.7667 43.7788C13.1555 43.6213 13.1555 43.6213 12.5436 43.467C12.4606 43.4462 12.3777 43.4254 12.2923 43.4039C11.3814 43.2211 10.5981 44.0434 9.93202 44.5753Z" fill="#C08F4F"/>
<path d="M4.27043 19.1602C5.23188 19.7461 5.67095 20.6098 5.94921 21.6684C6.04667 22.0779 6.13969 22.4882 6.23132 22.8991C6.26691 23.0564 6.30257 23.2138 6.33828 23.3711C6.43449 23.7959 6.5299 24.2208 6.62514 24.6458C6.72518 25.0916 6.82597 25.5371 6.92667 25.9827C7.09554 26.7304 7.26393 27.4781 7.43197 28.226C7.66883 29.2801 7.90651 30.334 8.14438 31.3878C8.46315 32.8002 8.78167 34.2128 9.09924 35.6255C9.14991 35.8508 9.20064 36.0762 9.25138 36.3015C9.2816 36.436 9.31182 36.5706 9.34296 36.7092C9.36918 36.8258 9.39541 36.9425 9.42242 37.0626C9.69274 38.2961 9.68958 39.1431 9.02064 40.2297C8.62679 40.7684 8.11098 41.1273 7.57365 41.5137C7.41852 41.6274 7.41852 41.6274 7.26026 41.7434C7.0503 41.8971 6.83998 42.0504 6.62929 42.2031C6.35406 42.4033 6.08086 42.606 5.80852 42.8101C5.65472 42.9249 5.50091 43.0396 5.34709 43.1543C5.2783 43.206 5.20951 43.2577 5.13864 43.311C4.2461 43.9696 3.45066 44.3007 2.34416 44.1797C1.51976 43.9711 0.849521 43.5914 0.351973 42.8907C0.054383 42.2919 -0.0438738 41.8575 -0.0458092 41.178C-0.046523 41.0919 -0.0472369 41.0058 -0.0479724 40.9171C-0.0499128 40.6306 -0.0493626 40.3441 -0.0487989 40.0576C-0.0496596 39.8514 -0.050666 39.6452 -0.0518066 39.4389C-0.0544063 38.8801 -0.0547539 38.3213 -0.0545317 37.7625C-0.0545177 37.2954 -0.0555219 36.8282 -0.0564978 36.3611C-0.0587505 35.2588 -0.05909 34.1565 -0.0582975 33.0542C-0.0575194 31.9183 -0.0601989 30.7825 -0.0645453 29.6467C-0.0681456 28.6703 -0.0694734 27.6938 -0.0690174 26.7174C-0.0687755 26.1347 -0.0694125 25.5521 -0.0722861 24.9695C-0.0749003 24.4214 -0.0746716 23.8734 -0.0722946 23.3253C-0.0718959 23.1247 -0.0724878 22.924 -0.0741677 22.7234C-0.0834771 21.5288 -0.0478641 20.5741 0.828047 19.6733C0.902974 19.6224 0.977901 19.5715 1.0551 19.5191C1.13002 19.4661 1.20495 19.413 1.28215 19.3584C2.15484 18.8543 3.33243 18.7445 4.27043 19.1602ZM2.10979 21.5625C2.03886 21.9427 2.03886 21.9427 2.04947 22.3765C2.04866 22.4584 2.04785 22.5403 2.04701 22.6247C2.04486 22.8991 2.04607 23.1734 2.04727 23.4478C2.04645 23.6446 2.04542 23.8413 2.04421 24.038C2.04157 24.5724 2.04192 25.1067 2.04296 25.6411C2.04356 26.087 2.04271 26.5329 2.04185 26.9787C2.03986 28.0304 2.04028 29.0821 2.04224 30.1338C2.04422 31.2193 2.04236 32.3049 2.03858 33.3905C2.03545 34.3221 2.0346 35.2537 2.03559 36.1854C2.03617 36.742 2.03591 37.2986 2.03351 37.8552C2.03136 38.3785 2.03205 38.9017 2.03494 39.425C2.03552 39.6171 2.03511 39.8093 2.03363 40.0015C2.03177 40.2636 2.03351 40.5255 2.03617 40.7876C2.03624 40.9344 2.03631 41.0811 2.03638 41.2323C2.07882 41.6221 2.07882 41.6221 2.38953 41.8868C2.67699 42.0946 2.67699 42.0946 2.98091 42.0713C3.36634 41.9199 3.65821 41.7156 3.99211 41.4698C4.06065 41.4194 4.1292 41.3691 4.19982 41.3173C4.35381 41.2038 4.50742 41.0899 4.66073 40.9756C4.95334 40.7582 5.24793 40.5437 5.54256 40.329C5.7558 40.1723 5.96897 40.0154 6.18205 39.8584C6.33705 39.7456 6.33705 39.7456 6.49519 39.6304C6.6402 39.5226 6.6402 39.5226 6.78813 39.4126C6.87465 39.3488 6.96117 39.2851 7.05031 39.2194C7.29037 39.0014 7.38632 38.8575 7.50041 38.5547C7.49035 38.2484 7.49035 38.2484 7.41924 37.9204C7.38371 37.733 7.38371 37.733 7.34747 37.5418C7.21169 36.886 7.07159 36.2315 6.92414 35.5781C6.89057 35.428 6.857 35.2779 6.82241 35.1232C6.71237 34.6313 6.6015 34.1396 6.49058 33.6479C6.45221 33.4776 6.41384 33.3073 6.37547 33.1369C6.19543 32.3377 6.01501 31.5387 5.83411 30.7397C5.62592 29.8201 5.41907 28.9002 5.21332 27.9801C5.0536 27.2662 4.89266 26.5526 4.7308 25.8393C4.63438 25.4142 4.53849 24.9889 4.44389 24.5634C4.33856 24.0898 4.23071 23.6169 4.12263 23.1439C4.09181 23.0036 4.06099 22.8632 4.02924 22.7187C3.99935 22.5897 3.96946 22.4608 3.93867 22.328C3.91348 22.2163 3.88829 22.1046 3.86234 21.9895C3.72797 21.6176 3.55376 21.3792 3.28166 21.0938C2.70436 20.9855 2.46165 21.1049 2.10979 21.5625Z" fill="#C08F4F"/>
<path d="M59.2968 26.2501C59.8514 26.8485 60.0288 27.36 60.0312 28.1713C60.0322 28.3226 60.0332 28.4739 60.0343 28.6298C60.0342 28.7966 60.0341 28.9634 60.034 29.1303C60.0347 29.3066 60.0355 29.483 60.0363 29.6594C60.0384 30.1378 60.039 30.6163 60.0391 31.0947C60.0393 31.3939 60.0398 31.693 60.0404 31.9922C60.0426 33.0365 60.0435 34.0808 60.0433 35.1252C60.0432 36.0975 60.0457 37.0698 60.0494 38.0422C60.0524 38.8779 60.0537 39.7136 60.0535 40.5493C60.0535 41.048 60.0541 41.5467 60.0566 42.0454C60.0589 42.5148 60.0589 42.984 60.0572 43.4533C60.057 43.6251 60.0575 43.7969 60.0589 43.9686C60.0673 45.0486 60.0296 45.8147 59.3133 46.665C58.56 47.3047 57.8741 47.6587 56.8679 47.6089C56.0179 47.5111 55.5295 47.2436 54.8983 46.6536C54.8373 46.5967 54.7762 46.5397 54.7133 46.4811C54.0354 45.8456 53.3745 45.1931 52.7164 44.5373C52.6525 44.4737 52.5886 44.4101 52.5227 44.3446C52.1859 44.0095 51.8494 43.6741 51.5132 43.3384C51.1686 42.9945 50.8229 42.6516 50.477 42.309C50.208 42.0423 49.9399 41.7747 49.672 41.507C49.5449 41.3802 49.4175 41.2538 49.2898 41.1276C47.452 39.3107 47.452 39.3107 47.4297 37.9827C47.4371 37.1532 47.6071 36.429 47.8422 35.6375C47.9017 35.4283 47.9017 35.4283 47.9624 35.2149C48.0887 34.7725 48.2179 34.3309 48.3471 33.8893C48.4306 33.5983 48.514 33.3072 48.5972 33.0161C48.7613 32.4432 48.9272 31.8709 49.0947 31.299C49.2539 30.7541 49.4089 30.2084 49.5601 29.6612C49.5958 29.5339 49.6314 29.4066 49.6682 29.2754C49.7344 29.0388 49.7995 28.8019 49.8633 28.5647C50.1578 27.5228 50.6207 26.6072 51.5624 26.0157C52.499 25.6011 53.5406 25.5549 54.5479 25.4746C54.8278 25.4519 55.1074 25.426 55.387 25.3998C56.8217 25.2748 58.1957 25.1756 59.2968 26.2501ZM54.2357 27.6344C54.0614 27.6467 54.0614 27.6467 53.8836 27.6592C53.0696 27.7185 53.0696 27.7185 52.3827 28.1251C52.1009 28.6286 51.9206 29.1401 51.7653 29.693C51.7413 29.7765 51.7172 29.8601 51.6924 29.9462C51.6137 30.2203 51.5361 30.4947 51.4585 30.7692C51.4039 30.9609 51.3492 31.1526 51.2945 31.3444C51.1802 31.7453 51.0666 32.1465 50.9532 32.5477C50.8081 33.061 50.6616 33.574 50.5146 34.0868C50.4015 34.4823 50.2892 34.8781 50.1771 35.2739C50.1235 35.4631 50.0695 35.6522 50.0152 35.8413C49.9394 36.1057 49.8649 36.3705 49.7905 36.6354C49.7569 36.7516 49.7569 36.7516 49.7225 36.8701C49.5962 37.3261 49.5113 37.7314 49.5702 38.2032C49.7486 38.4916 49.7486 38.4916 50.012 38.7464C50.1089 38.8476 50.2057 38.9487 50.3055 39.053C50.4109 39.1593 50.5163 39.2656 50.6249 39.3751C50.73 39.4833 50.8351 39.5915 50.9434 39.703C51.2905 40.0591 51.6416 40.4113 51.9932 40.7631C52.1219 40.8922 52.2506 41.0213 52.3794 41.1505C52.6468 41.4185 52.9144 41.6864 53.1821 41.954C53.5249 42.2968 53.8668 42.6403 54.2085 42.9841C54.473 43.2499 54.7381 43.5151 55.0032 43.7803C55.1296 43.9068 55.2558 44.0335 55.3818 44.1604C55.5573 44.337 55.7335 44.5129 55.9099 44.6886C56.0597 44.8387 56.0597 44.8387 56.2126 44.9917C56.4575 45.2106 56.6474 45.3539 56.953 45.4689C57.2727 45.4455 57.4697 45.402 57.7298 45.213C57.9591 44.9093 57.9348 44.6889 57.9352 44.3107C57.9362 44.1667 57.9372 44.0228 57.9382 43.8745C57.9375 43.7147 57.9368 43.555 57.936 43.3952C57.9365 43.2271 57.9371 43.0591 57.9379 42.8911C57.9395 42.4344 57.9389 41.9778 57.9378 41.5212C57.9369 41.0437 57.9377 40.5662 57.9382 40.0887C57.9389 39.2868 57.938 38.4849 57.9364 37.683C57.9345 36.7554 57.9351 35.8278 57.937 34.9002C57.9386 34.1043 57.9388 33.3084 57.9379 32.5125C57.9374 32.0369 57.9373 31.5613 57.9384 31.0858C57.9395 30.6387 57.9388 30.1916 57.9367 29.7445C57.9363 29.5803 57.9364 29.416 57.9372 29.2518C57.9381 29.0279 57.9367 28.804 57.9352 28.5802C57.935 28.4548 57.9349 28.3294 57.9348 28.2002C57.9148 27.8889 57.9148 27.8889 57.7338 27.6745C56.9845 27.154 55.1085 27.5674 54.2357 27.6344Z" fill="#C08F4F"/>
<path d="M58.7244 8.62884C59.3199 9.06035 59.7781 9.6096 60.0002 10.3125C60.0351 10.6668 60.0347 11.0195 60.0343 11.3753C60.0351 11.4814 60.0359 11.5874 60.0367 11.6966C60.0389 12.0466 60.0393 12.3965 60.0396 12.7464C60.0404 12.9903 60.0411 13.2342 60.042 13.4781C60.0434 13.9893 60.0438 14.5004 60.0437 15.0116C60.0436 15.6653 60.0468 16.319 60.0509 16.9727C60.0535 17.4765 60.054 17.9803 60.0538 18.484C60.0541 18.725 60.0551 18.9659 60.057 19.2069C60.0593 19.5445 60.0586 19.8821 60.0572 20.2198C60.0585 20.3185 60.0598 20.4172 60.0612 20.5189C60.0523 21.3569 59.8 21.9547 59.2532 22.5879C56.9607 24.5529 51.7207 24.0617 48.8161 24.0894C48.7359 24.091 48.6557 24.0927 48.573 24.0945C47.5789 24.1127 46.7608 24.035 45.9377 23.4375C45.2549 22.7147 44.9726 22.0595 44.9643 21.0593C44.9633 20.9754 44.9624 20.8915 44.9614 20.805C44.9586 20.5285 44.9575 20.252 44.9567 19.9754C44.9557 19.782 44.9546 19.5886 44.9535 19.3952C44.9516 18.9898 44.9507 18.5845 44.9504 18.1791C44.9497 17.6623 44.9453 17.1456 44.94 16.6287C44.9365 16.2291 44.9356 15.8295 44.9355 15.4298C44.935 15.2394 44.9336 15.049 44.9311 14.8587C44.9161 13.5962 45.0055 12.6064 45.8791 11.6235C46.8527 10.9143 48.2289 10.6389 49.37 10.3088C49.5135 10.2668 49.6569 10.2248 49.8047 10.1816C50.1061 10.0934 50.4076 10.0055 50.7093 9.91807C51.0888 9.80803 51.4681 9.69716 51.8473 9.58601C53.1939 9.19144 54.5415 8.79951 55.8964 8.43429C55.9838 8.41022 56.0712 8.38616 56.1612 8.36136C57.0939 8.11512 57.877 8.15784 58.7244 8.62884ZM56.0589 10.5392C55.9708 10.5647 55.8827 10.5902 55.7919 10.6165C55.5013 10.7011 55.2113 10.7876 54.9213 10.8742C54.719 10.9337 54.5165 10.9932 54.3141 11.0526C53.89 11.1774 53.4661 11.3031 53.0425 11.4295C52.5007 11.591 51.9582 11.7504 51.4155 11.909C50.9973 12.0314 50.5795 12.1551 50.1617 12.2791C49.9619 12.3382 49.762 12.397 49.562 12.4555C49.2817 12.5376 49.002 12.6213 48.7223 12.7053C48.6403 12.729 48.5583 12.7527 48.4738 12.7771C47.9526 12.9361 47.5207 13.1149 47.1096 13.4766C47.005 13.8394 47.005 13.8394 47.0223 14.2538C47.0215 14.3309 47.0206 14.4079 47.0198 14.4873C47.0179 14.7413 47.021 14.995 47.0245 15.249C47.0246 15.4259 47.0245 15.6028 47.0241 15.7796C47.0241 16.1501 47.0266 16.5204 47.0308 16.8908C47.0361 17.3653 47.0363 17.8396 47.0347 18.3141C47.0339 18.6793 47.0354 19.0444 47.0378 19.4095C47.0387 19.5844 47.0389 19.7594 47.0386 19.9343C47.0385 20.179 47.0414 20.4234 47.0452 20.668C47.0463 20.8071 47.0474 20.9462 47.0485 21.0896C47.1216 21.5152 47.24 21.6541 47.5784 21.9141C47.8451 21.9856 47.8451 21.9856 48.14 21.9763C48.3157 21.9777 48.3157 21.9777 48.4949 21.9791C48.6251 21.977 48.7553 21.9748 48.8894 21.9727C49.0274 21.9716 49.1653 21.9705 49.3075 21.9694C50.8317 21.9408 52.3508 21.8171 53.8699 21.6943C53.9969 21.6842 54.124 21.674 54.2549 21.6635C54.6227 21.6336 54.9904 21.6025 55.358 21.5707C55.4678 21.5617 55.5776 21.5526 55.6907 21.5433C56.6921 21.4666 56.6921 21.4666 57.6565 21.2109C57.9522 20.7673 57.9247 20.4138 57.923 19.8999C57.9239 19.7532 57.9239 19.7532 57.9249 19.6036C57.9265 19.28 57.9264 18.9564 57.9261 18.6328C57.9266 18.4082 57.9271 18.1836 57.9276 17.959C57.9285 17.4881 57.9285 17.0172 57.9278 16.5463C57.9272 15.9422 57.9292 15.3381 57.9319 14.734C57.9336 14.2701 57.9337 13.8063 57.9333 13.3424C57.9334 13.1197 57.934 12.8969 57.9352 12.6741C57.9366 12.3629 57.9358 12.0519 57.9345 11.7407C57.9354 11.6483 57.9363 11.5559 57.9372 11.4607C57.9339 10.9832 57.9339 10.9832 57.749 10.5528C57.1635 10.209 56.6758 10.3525 56.0589 10.5392Z" fill="#C08F4F"/>
<path d="M2.58912 -0.0357751C2.70495 -0.0376486 2.82078 -0.0395221 2.94011 -0.0414524C3.06414 -0.0420808 3.18817 -0.0427093 3.31596 -0.0433568C3.44501 -0.0444148 3.57406 -0.0454728 3.70701 -0.0465629C3.97996 -0.0482614 4.25291 -0.0493036 4.52586 -0.0497369C4.94074 -0.0511271 5.35542 -0.0568892 5.77026 -0.0628117C6.03614 -0.0639214 6.30203 -0.064769 6.56791 -0.0653294C6.69076 -0.0676184 6.8136 -0.0699073 6.94017 -0.0722656C7.867 -0.066656 8.6484 0.14564 9.35292 0.775538C10.0528 1.53491 10.278 2.71594 10.5766 3.67689C10.6456 3.89514 10.7147 4.11336 10.784 4.33155C10.9354 4.81002 11.0856 5.28888 11.2352 5.76795C11.4334 6.40166 11.6356 7.03404 11.8394 7.66601C12.0363 8.27697 12.2315 8.88845 12.4256 9.50031C12.5448 9.87616 12.6647 10.2518 12.7862 10.6269C12.9231 11.051 13.057 11.4759 13.1904 11.9011C13.2313 12.0259 13.2722 12.1507 13.3144 12.2793C13.6478 13.3594 13.8193 14.4669 13.3451 15.5275C12.9275 16.2532 12.381 16.6743 11.6019 16.9923C11.0558 17.0876 10.5294 17.1247 9.97559 17.1265C9.89963 17.1269 9.82367 17.1273 9.74541 17.1277C9.49679 17.1288 9.24818 17.1291 8.99955 17.1292C8.82487 17.1296 8.65019 17.13 8.47551 17.1304C8.11017 17.1311 7.74484 17.1313 7.3795 17.1312C6.9142 17.1312 6.44891 17.1328 5.98361 17.1348C5.62297 17.1361 5.26234 17.1364 4.9017 17.1363C4.73029 17.1364 4.55889 17.137 4.38749 17.1379C1.74993 17.1506 1.74993 17.1506 0.703504 16.172C0.000344634 15.4133 -0.034561 14.7475 -0.0336676 13.7544C-0.0344547 13.629 -0.0352419 13.5035 -0.0360529 13.3743C-0.0382788 12.9596 -0.0387371 12.545 -0.0389891 12.1304C-0.0397423 11.8419 -0.0405307 11.5533 -0.041353 11.2647C-0.0427565 10.6598 -0.0431905 10.0548 -0.0430517 9.44989C-0.0430279 8.67557 -0.0462268 7.90129 -0.050264 7.12698C-0.0528729 6.53091 -0.0533452 5.93486 -0.0532213 5.33879C-0.0534975 5.05336 -0.0545322 4.76794 -0.0563461 4.48252C-0.0586483 4.08282 -0.0579664 3.68323 -0.0565557 3.28353C-0.0578728 3.16618 -0.0591899 3.04884 -0.0605469 2.92795C-0.0528785 2.07076 0.129081 1.44286 0.699384 0.792062C0.77567 0.728918 0.851956 0.665774 0.930554 0.600717C1.00654 0.53576 1.08252 0.470803 1.16081 0.403878C1.61953 0.0878123 2.03546 -0.0289629 2.58912 -0.0357751ZM2.10975 2.46107C2.05718 2.69645 2.05718 2.69645 2.06511 2.95922C2.06412 3.06075 2.06313 3.16229 2.06211 3.2669C2.06282 3.37795 2.06353 3.489 2.06426 3.60342C2.06365 3.72063 2.06303 3.83785 2.0624 3.95862C2.06085 4.3469 2.06187 4.73513 2.06306 5.12342C2.06283 5.3927 2.06248 5.66197 2.06204 5.93125C2.06152 6.49593 2.06228 7.06059 2.06392 7.62527C2.06592 8.35 2.06477 9.07468 2.06266 9.7994C2.0614 10.3555 2.0618 10.9117 2.06271 11.4678C2.06294 11.7351 2.06265 12.0023 2.06184 12.2696C2.06095 12.6428 2.0623 13.0159 2.06426 13.389C2.06355 13.5001 2.06284 13.6111 2.06211 13.7255C2.0631 13.8271 2.06409 13.9286 2.06511 14.0332C2.06524 14.1215 2.06538 14.2097 2.06551 14.3006C2.1219 14.5947 2.23091 14.6977 2.46132 14.8829C2.85848 15.0336 3.26119 15.0165 3.68211 15.019C3.91093 15.0207 3.91093 15.0207 4.14437 15.0224C4.31058 15.023 4.4768 15.0235 4.64302 15.0239C4.81407 15.0246 4.98512 15.0253 5.15617 15.026C5.51455 15.0272 5.87291 15.0279 6.23129 15.0283C6.68943 15.0289 7.14754 15.0317 7.60567 15.0351C7.95895 15.0373 8.31222 15.0379 8.66551 15.0381C8.83436 15.0384 9.00321 15.0393 9.17205 15.0409C9.40872 15.0429 9.6454 15.0424 9.88207 15.0419C10.0837 15.0425 10.0837 15.0425 10.2894 15.0432C10.7175 14.994 11.0005 14.871 11.3676 14.6486C11.7676 13.8484 11.1344 12.5405 10.8805 11.761C10.8306 11.6051 10.7807 11.4493 10.7309 11.2934C10.5997 10.8829 10.4672 10.4728 10.3345 10.0628C10.1778 9.57792 10.0223 9.09266 9.86672 8.60742C9.73848 8.20747 9.60997 7.80761 9.48078 7.40796C9.22202 6.60603 8.96952 5.80281 8.7281 4.99548C8.68055 4.83765 8.63299 4.67983 8.58541 4.52201C8.49619 4.22595 8.40897 3.92953 8.32274 3.63256C8.28301 3.50055 8.24329 3.36853 8.20236 3.23251C8.16846 3.11702 8.13456 3.00153 8.09963 2.88253C7.94914 2.53165 7.80052 2.34462 7.50038 2.10951C7.25418 2.0405 7.25418 2.0405 6.99017 2.05071C6.89046 2.04961 6.79074 2.04851 6.688 2.04738C6.5813 2.0487 6.4746 2.05001 6.36467 2.05137C6.25432 2.0512 6.14397 2.05103 6.03027 2.05085C5.79731 2.05105 5.56435 2.0524 5.33141 2.05483C4.97439 2.05823 4.61758 2.05725 4.26056 2.05572C4.03419 2.05645 3.80783 2.05743 3.58146 2.05869C3.47453 2.05835 3.36759 2.05801 3.25741 2.05765C3.15806 2.05914 3.05872 2.06062 2.95636 2.06216C2.82537 2.06311 2.82537 2.06311 2.69174 2.06407C2.39141 2.12329 2.30028 2.22423 2.10975 2.46107Z" fill="#C08F4F"/>
<path d="M40.8232 -0.0314379C40.9735 -0.0324375 41.1239 -0.0334371 41.2787 -0.034467C41.4445 -0.0343851 41.6102 -0.0342769 41.7759 -0.0341452C41.9511 -0.0348467 42.1264 -0.0356443 42.3016 -0.0365305C42.7769 -0.0385991 43.2522 -0.0391503 43.7275 -0.0392999C44.0247 -0.0394666 44.3218 -0.0399672 44.619 -0.0405883C45.6565 -0.042756 46.694 -0.0437138 47.7315 -0.0435293C48.6975 -0.0433886 49.6634 -0.0458607 50.6293 -0.049563C51.4596 -0.0526313 52.2898 -0.0538847 53.12 -0.0537351C53.6155 -0.0536754 54.1109 -0.0543378 54.6064 -0.0568237C55.0726 -0.0590991 55.5388 -0.0591069 56.005 -0.0574057C56.1756 -0.0571614 56.3463 -0.0577097 56.5169 -0.0591308C57.5932 -0.067511 58.3715 -0.0344052 59.2083 0.698906C59.2715 0.775192 59.3346 0.851479 59.3997 0.930077C59.4646 1.00606 59.5296 1.08205 59.5965 1.16033C60.1439 1.95476 60.1164 2.93834 60.0003 3.86709C59.7743 4.63527 59.3905 5.18912 58.7112 5.6249C57.6706 6.11819 56.5404 6.40623 55.4391 6.72994C55.2341 6.7906 55.0292 6.85131 54.8242 6.91205C54.3953 7.03905 53.9662 7.16568 53.5371 7.29202C52.9948 7.45166 52.4528 7.61203 51.9108 7.77264C50.7076 8.12914 49.5036 8.48297 48.2986 8.83309C48.0659 8.9007 47.8333 8.96851 47.6007 9.03634C47.2391 9.14124 46.877 9.24439 46.5146 9.34652C46.418 9.37462 46.3214 9.40271 46.2219 9.43166C45.277 9.69242 44.3648 9.7217 43.4768 9.25771C43.0567 8.9359 42.6841 8.57154 42.305 8.20303C42.1366 8.04835 41.9683 7.89369 41.7992 7.73991C41.6216 7.57843 41.4448 7.41615 41.2681 7.25362C41.0136 7.0195 40.7588 6.7858 40.5037 6.55233C40.1822 6.25792 39.863 5.96121 39.5445 5.6637C39.3943 5.5253 39.2411 5.39035 39.0873 5.25594C38.3831 4.61577 38.0024 3.90851 37.9512 2.94515C38.0043 1.96232 38.2903 1.26633 39.0164 0.600487C39.5846 0.114718 40.0788 -0.0291967 40.8232 -0.0314379ZM40.3349 2.26996C40.1434 2.53235 40.0948 2.72275 40.0784 3.04678C40.2082 3.28749 40.2082 3.28749 40.4226 3.49355C40.4988 3.57392 40.5749 3.65428 40.6534 3.73708C40.7343 3.81866 40.8153 3.90023 40.8987 3.98428C41.0129 4.10301 41.0129 4.10301 41.1294 4.22414C41.5624 4.66747 42.0122 5.08248 42.4839 5.48391C42.7288 5.70209 42.9642 5.92524 43.199 6.15408C43.3143 6.2653 43.3143 6.2653 43.4319 6.37878C43.5865 6.52826 43.74 6.67888 43.8923 6.83071C43.9646 6.90018 44.0368 6.96965 44.1113 7.04122C44.2073 7.13557 44.2073 7.13557 44.3052 7.23182C44.6986 7.49412 45.0983 7.52372 45.5583 7.44338C45.7247 7.39314 45.7247 7.39314 45.8944 7.34189C46.0221 7.30414 46.1499 7.26639 46.2814 7.2275C46.419 7.18521 46.5565 7.14292 46.6981 7.09936C46.843 7.05614 46.9878 7.01292 47.137 6.96839C47.5285 6.85157 47.9194 6.73297 48.3102 6.61401C48.7145 6.49125 49.1193 6.37006 49.5241 6.2488C50.012 6.1026 50.4998 5.95628 50.9874 5.80925C51.958 5.51671 52.93 5.22951 53.9042 4.94924C54.0732 4.90053 54.0732 4.90053 54.2455 4.85083C54.6629 4.73055 55.0803 4.61034 55.498 4.49152C55.7759 4.41244 56.0534 4.33236 56.3308 4.25207C56.4102 4.22982 56.4896 4.20757 56.5714 4.18464C57.0162 4.05488 57.394 3.90004 57.7737 3.63271C57.9528 3.27448 57.9181 2.97297 57.8909 2.57803C57.7673 2.30987 57.7673 2.30987 57.5393 2.10928C57.2221 2.03885 57.2221 2.03885 56.8543 2.05054C56.7114 2.04939 56.5684 2.04824 56.4212 2.04705C56.2625 2.04815 56.1038 2.04929 55.9452 2.05048C55.7783 2.05004 55.6114 2.04939 55.4445 2.04856C54.991 2.04692 54.5376 2.04824 54.0841 2.05017C53.6099 2.05179 53.1357 2.05104 52.6615 2.05062C51.8651 2.05031 51.0687 2.05189 50.2723 2.0546C49.3511 2.05772 48.4299 2.05792 47.5086 2.05655C46.6231 2.05529 45.7375 2.05601 44.8519 2.05767C44.4748 2.05834 44.0976 2.05833 43.7205 2.05778C43.2764 2.05722 42.8325 2.0584 42.3885 2.06094C42.2254 2.06159 42.0622 2.06164 41.8991 2.06106C41.6768 2.06036 41.4545 2.06204 41.2322 2.06384C41.1076 2.06413 40.9831 2.06441 40.8548 2.06471C40.5445 2.08436 40.5445 2.08436 40.3349 2.26996Z" fill="#C08F4F"/>
<path d="M24.1797 50.9275C24.2614 50.9265 24.343 50.9255 24.4272 50.9245C24.6948 50.9218 24.9624 50.9216 25.2301 50.9218C25.4179 50.921 25.6057 50.9201 25.7936 50.9191C26.1865 50.9175 26.5794 50.9173 26.9723 50.918C27.4731 50.9187 27.9738 50.9151 28.4746 50.9104C28.8624 50.9073 29.2502 50.907 29.638 50.9074C29.8225 50.9072 30.0069 50.9061 30.1914 50.904C31.3579 50.8922 32.3462 50.9539 33.2682 51.7554C34.068 52.5539 34.1419 53.6479 34.1496 54.7226C34.1493 54.8921 34.1484 55.0616 34.1469 55.2311C34.1451 55.488 34.1469 55.7447 34.1492 56.0016C34.1529 58.2615 34.1529 58.2615 33.376 59.1066C33.3139 59.1776 33.2518 59.2486 33.1879 59.3218C32.4719 59.9022 31.8077 60.0697 30.8997 60.0608C30.7948 60.0616 30.6899 60.0625 30.5818 60.0633C30.2375 60.0654 29.8934 60.064 29.5491 60.0624C29.3083 60.0627 29.0676 60.0632 28.8268 60.0638C28.3233 60.0645 27.8197 60.0635 27.3162 60.0613C26.6723 60.0586 26.0285 60.0601 25.3847 60.0629C24.8878 60.0646 24.391 60.0641 23.8941 60.0629C23.6568 60.0626 23.4194 60.063 23.1821 60.064C22.8498 60.0652 22.5176 60.0634 22.1853 60.0608C22.0397 60.0622 22.0397 60.0622 21.8912 60.0637C21.1035 60.0523 20.5014 59.8226 19.8972 59.3135C19.2205 58.5167 18.9527 57.8564 18.9258 56.8109C19.121 55.7152 19.8428 54.7865 20.4508 53.8804C20.6101 53.6425 20.7673 53.4033 20.9244 53.1639C21.0266 53.0103 21.129 52.8568 21.2315 52.7034C21.2777 52.6328 21.3239 52.5623 21.3714 52.4896C22.0691 51.4601 22.9373 50.9359 24.1797 50.9275ZM22.2508 55.0294C22.1038 55.247 21.9541 55.4626 21.8042 55.6782C21.7102 55.8173 21.6163 55.9565 21.5227 56.0959C21.3948 56.2836 21.3948 56.2836 21.2643 56.4751C21.0613 56.9036 21.0639 57.0927 21.2105 57.5392C21.3271 57.7499 21.3271 57.7499 21.562 57.8908C21.887 57.9255 22.1857 57.9388 22.5108 57.9363C22.6074 57.9369 22.704 57.9375 22.8036 57.9381C23.1234 57.9397 23.4432 57.9387 23.763 57.9375C23.985 57.9377 24.2069 57.9381 24.4289 57.9385C24.8943 57.939 25.3596 57.9383 25.825 57.9366C26.4221 57.9346 27.019 57.9358 27.6161 57.9379C28.0745 57.9391 28.5329 57.9387 28.9913 57.9378C29.2115 57.9376 29.4317 57.9379 29.6518 57.9387C29.9593 57.9396 30.2668 57.9382 30.5743 57.9363C30.6656 57.937 30.7569 57.9377 30.851 57.9384C31.329 57.9356 31.329 57.9356 31.7507 57.7341C32.151 57.104 32.0133 56.278 32.0137 55.5617C32.0151 55.4117 32.0166 55.2617 32.0181 55.1071C32.0183 54.9626 32.0185 54.818 32.0187 54.669C32.0192 54.5369 32.0197 54.4047 32.0202 54.2686C31.9911 53.8987 31.9304 53.6476 31.7574 53.3205C31.3437 53.0447 31.1663 53.0548 30.6759 53.0502C30.5254 53.0483 30.3748 53.0464 30.2196 53.0445C30.055 53.0438 29.8904 53.0431 29.7258 53.0426C29.5569 53.0416 29.3881 53.0405 29.2192 53.0394C28.8651 53.0375 28.5111 53.0366 28.157 53.0362C27.704 53.0356 27.251 53.0312 26.798 53.0258C26.4491 53.0223 26.1003 53.0215 25.7514 53.0214C25.5844 53.0209 25.4175 53.0194 25.2505 53.017C25.0166 53.0138 24.7827 53.0148 24.5488 53.0159C24.3493 53.015 24.3493 53.015 24.1459 53.0141C23.2424 53.1962 22.736 54.3074 22.2508 55.0294Z" fill="#C08F4F"/>
</g>
<defs>
<clipPath id="clip0_702_18">
<rect width="60" height="60" fill="white"/>
</clipPath>
</defs>
</svg>
