<svg width="60" height="61" viewBox="0 0 60 61" fill="none" xmlns="http://www.w3.org/2000/svg">
<path d="M59.1361 0.684521C59.7783 1.32501 59.9568 1.92894 59.9816 2.81012C59.9877 2.95658 59.9937 3.10305 60 3.25396C59.8488 4.3338 59.0066 5.07304 58.2615 5.80933C58.1613 5.90961 58.0611 6.00989 57.9578 6.11321C57.7472 6.32351 57.5362 6.53336 57.3247 6.74276C57.0003 7.06419 56.6776 7.38726 56.3552 7.71058C56.1499 7.91513 55.9446 8.1196 55.7391 8.32395C55.5942 8.46907 55.5942 8.46907 55.4463 8.61712C55.3563 8.70589 55.2664 8.79466 55.1737 8.88612C55.0948 8.96447 55.0158 9.04283 54.9345 9.12355C54.5503 9.44991 54.1716 9.45341 53.6872 9.46145C53.5725 9.46465 53.4577 9.46786 53.3394 9.47115C52.981 9.43041 52.981 9.43041 52.2359 9.05787C51.6622 9.63158 51.0885 10.2053 50.4974 10.7964C50.9756 11.3543 51.4268 11.8616 51.9497 12.3675C52.0809 12.4959 52.212 12.6244 52.3431 12.7529C52.5458 12.951 52.7489 13.1487 52.9529 13.3454C54.7494 15.0805 54.7494 15.0805 54.848 16.4805C54.8342 17.355 54.5192 18.1757 53.9152 18.8132C53.362 19.2823 52.7477 19.5167 52.0749 19.7601C51.9828 19.794 51.8907 19.8278 51.7958 19.8628C51.5701 19.9457 51.3442 20.0278 51.1183 20.1098C51.2048 20.1103 51.2912 20.1107 51.3803 20.1112C52.1987 20.1159 53.0171 20.123 53.8355 20.1326C54.2561 20.1375 54.6767 20.1415 55.0974 20.1435C55.582 20.1461 56.0665 20.1519 56.5511 20.1583C56.7757 20.1585 56.7757 20.1585 57.0048 20.1588C57.9275 20.1747 58.6901 20.2411 59.3823 20.9192C59.8023 21.4055 59.9504 21.6964 59.9513 22.3267C59.9518 22.4547 59.9523 22.5828 59.9528 22.7148C59.9527 22.8565 59.9526 22.9983 59.9524 23.1444C59.953 23.3691 59.953 23.3691 59.9536 23.5983C59.9545 24.0154 59.9548 24.4325 59.9549 24.8496C59.9551 25.2989 59.956 25.7482 59.9569 26.1976C59.9586 27.1807 59.9593 28.1639 59.9599 29.1471C59.9602 29.7608 59.9607 30.3744 59.9613 30.9881C59.9628 32.6866 59.9641 34.385 59.9645 36.0835C59.9645 36.1922 59.9646 36.301 59.9646 36.413C59.9646 36.5221 59.9646 36.6311 59.9647 36.7434C59.9647 36.9643 59.9648 37.1853 59.9648 37.4062C59.9649 37.5158 59.9649 37.6254 59.9649 37.7383C59.9654 39.514 59.9676 41.2898 59.9705 43.0655C59.9734 44.8878 59.975 46.71 59.9751 48.5323C59.9752 49.5557 59.9759 50.5792 59.9782 51.6027C59.9801 52.4742 59.9807 53.3458 59.9797 54.2173C59.9792 54.6621 59.9793 55.1068 59.9811 55.5515C59.9829 56.0336 59.9819 56.5157 59.9806 56.9977C59.9821 57.2088 59.9821 57.2088 59.9837 57.424C59.9787 58.2163 59.9347 58.8181 59.3762 59.4304C58.7414 59.9246 58.2939 59.9895 57.5129 59.9876C57.4166 59.9878 57.3204 59.9881 57.2213 59.9883C56.8961 59.9891 56.571 59.9889 56.2459 59.9887C56.0115 59.989 55.7771 59.9894 55.5428 59.9898C54.8966 59.9908 54.2504 59.991 53.6042 59.9911C52.9082 59.9914 52.2121 59.9923 51.516 59.9931C49.993 59.9948 48.4701 59.9956 46.9471 59.9961C45.9967 59.9965 45.0463 59.997 44.0959 59.9975C41.4661 59.9991 38.8363 60.0003 36.2065 60.0008C36.0364 60.0008 35.8663 60.0008 35.6962 60.0008C35.5257 60.0009 35.3552 60.0009 35.1847 60.0009C34.8426 60.001 34.5006 60.001 34.1585 60.0011C34.0737 60.0011 33.9889 60.0011 33.9015 60.0011C31.1507 60.0016 28.3999 60.0036 25.6491 60.0064C22.7417 60.0095 19.8342 60.0112 16.9268 60.0114C15.3416 60.0115 13.7563 60.0122 12.1711 60.0144C10.8214 60.0163 9.4718 60.017 8.12215 60.016C7.4332 60.0155 6.74427 60.0156 6.05532 60.0173C5.42499 60.0189 4.79469 60.0188 4.16436 60.0173C3.93597 60.017 3.70759 60.0174 3.4792 60.0185C3.16935 60.0199 2.85958 60.0189 2.54973 60.0174C2.46055 60.0184 2.37137 60.0193 2.27948 60.0203C1.62106 60.0134 1.11313 59.8608 0.621581 59.4124C0.0957152 58.7371 0.0621055 58.2412 0.061612 57.4106C0.0610678 57.2999 0.0605242 57.1892 0.0599635 57.0752C0.0582998 56.7028 0.0575329 56.3305 0.0567726 55.9581C0.0557916 55.6918 0.0547648 55.4254 0.0536954 55.159C0.0504383 54.2829 0.0485385 53.4068 0.046768 52.5307C0.0461025 52.2292 0.0454333 51.9278 0.0447633 51.6263C0.0420772 50.3724 0.0397526 49.1185 0.038355 47.8645C0.0363381 46.0669 0.0322159 44.2692 0.0251405 42.4715C0.0203363 41.2079 0.0179111 39.9443 0.0172542 38.6806C0.0168004 37.9257 0.0153063 37.1709 0.0112818 36.416C0.00754908 35.7057 0.00676024 34.9954 0.00822352 34.2851C0.00825096 34.0246 0.00721641 33.7641 0.00503643 33.5036C0.00221854 33.1474 0.00325016 32.7915 0.00522213 32.4353C0.00349826 32.3326 0.0017761 32.23 0 32.1242C0.0101169 31.3807 0.22199 30.8643 0.701618 30.2925C1.53869 29.6031 2.65426 29.7127 3.68191 29.7026C3.86285 29.6991 4.04378 29.6954 4.22471 29.6915C4.66466 29.6824 5.10458 29.6762 5.5446 29.6716C5.57514 29.6054 5.60569 29.5391 5.63716 29.4709C5.87236 28.9781 6.0791 28.5667 6.49923 28.2047C6.57398 28.1373 6.64873 28.0699 6.72575 28.0005C7.65857 27.4221 8.61168 27.3823 9.68443 27.3882C9.90879 27.3872 9.90879 27.3872 10.1377 27.3862C10.5449 27.3848 10.952 27.3851 11.3592 27.3863C11.7874 27.3873 12.2155 27.3864 12.6437 27.3858C13.3626 27.3851 14.0814 27.386 14.8003 27.3878C15.6287 27.3898 16.457 27.3892 17.2853 27.3871C17.9993 27.3854 18.7133 27.3852 19.4273 27.3862C19.8525 27.3867 20.2777 27.3868 20.7029 27.3856C21.1775 27.3846 21.652 27.3861 22.1266 27.3882C22.335 27.387 22.335 27.387 22.5476 27.3859C23.5667 27.3941 24.6744 27.4827 25.4598 28.2047C25.535 28.2705 25.6103 28.3363 25.6878 28.4041C25.91 28.6781 25.91 28.6781 26.4067 29.6716C27.8204 29.733 27.8204 29.733 29.2628 29.7958C29.2602 29.5551 29.2576 29.3145 29.2549 29.0666C29.2469 28.2701 29.2412 27.4737 29.2371 26.6771C29.2345 26.1944 29.231 25.7116 29.2253 25.2289C29.2199 24.7627 29.2169 24.2966 29.2157 23.8303C29.2147 23.6528 29.213 23.4753 29.2103 23.2977C29.2066 23.0484 29.2065 22.799 29.2064 22.5497C29.2053 22.4079 29.2042 22.2662 29.2031 22.1202C29.3052 21.4431 29.7347 20.9119 30.2562 20.4823C30.8983 20.206 31.4753 20.2013 32.1606 20.2097C32.2698 20.2101 32.379 20.2104 32.4915 20.2108C32.8382 20.2122 33.1848 20.2153 33.5314 20.2185C33.7673 20.2197 34.0033 20.2208 34.2392 20.2219C34.8156 20.2246 35.392 20.2289 35.9685 20.234C35.9905 20.1584 36.0125 20.0828 36.0352 20.0049C36.2564 19.2555 36.4992 18.5172 36.7606 17.781C36.8009 17.6668 36.8411 17.5527 36.8826 17.4351C37.0147 17.0614 37.1473 16.688 37.2801 16.3146C37.3258 16.186 37.3715 16.0575 37.4186 15.925C37.7113 15.1022 38.0053 14.2797 38.2997 13.4575C38.4527 13.0296 38.6053 12.6016 38.7578 12.1736C39.0068 11.475 39.2578 10.7773 39.5102 10.08C39.6061 9.81427 39.7014 9.54838 39.7961 9.28227C39.9291 8.90935 40.0641 8.53728 40.1998 8.16533C40.2381 8.05628 40.2765 7.94722 40.316 7.83486C40.684 6.83879 41.2047 5.95256 42.1774 5.45668C43.102 5.13624 43.9786 5.11805 44.8712 5.53217C45.4528 5.82793 45.8675 6.22705 46.318 6.69265C46.4399 6.81563 46.4399 6.81563 46.5643 6.94109C46.821 7.20056 47.0759 7.4617 47.3308 7.72295C47.5057 7.90027 47.6806 8.07749 47.8557 8.25459C48.2823 8.68662 48.7073 9.12017 49.1314 9.55459C49.2701 9.43656 49.4087 9.3184 49.5472 9.20018C49.6243 9.13439 49.7015 9.06861 49.781 9.00083C50.0497 8.76685 50.3021 8.52027 50.5517 8.26623C50.6783 8.13801 50.6783 8.13801 50.8074 8.0072C50.8998 7.9126 50.8998 7.9126 50.9941 7.81608C50.9019 7.67393 50.9019 7.67393 50.8078 7.52892C50.56 6.91975 50.5097 6.35436 50.6216 5.70504C50.9784 4.98194 51.4342 4.46676 52.0055 3.90347C52.1336 3.77523 52.1336 3.77523 52.2644 3.64439C52.4444 3.46466 52.6249 3.28539 52.8058 3.10656C53.0808 2.83444 53.3542 2.56071 53.6273 2.28672C53.8032 2.11151 53.9792 1.9364 54.1553 1.76139C54.2362 1.6804 54.3171 1.59941 54.4004 1.51596C55.7312 0.205408 57.4518 -0.680689 59.1361 0.684521ZM56.1582 2.19407C56.0496 2.2953 55.941 2.39653 55.8291 2.50082C55.7075 2.61674 55.586 2.73278 55.4646 2.84892C55.399 2.9111 55.3335 2.97328 55.2659 3.03735C54.8347 3.44693 54.4081 3.86094 53.9846 4.27856C53.8364 4.42404 53.6874 4.56874 53.5378 4.7127C53.3188 4.92336 53.1024 5.13633 52.8864 5.34996C52.7853 5.44583 52.7853 5.44583 52.6822 5.54364C52.4733 5.74536 52.4732 5.74536 52.2359 6.07758C52.2473 6.64307 52.4981 6.91025 52.8878 7.30384C53.0309 7.45319 53.0309 7.45319 53.1769 7.60556C53.4536 7.84085 53.4536 7.84085 53.7494 7.82142C54.2908 7.62061 54.6216 7.23223 55.0197 6.82362C55.1065 6.73648 55.1932 6.64934 55.2826 6.55955C55.4655 6.37536 55.6478 6.19057 55.8295 6.00524C56.1079 5.7214 56.3879 5.43925 56.6683 5.15739C56.8458 4.97817 57.0233 4.79886 57.2006 4.61944C57.2843 4.53483 57.368 4.45023 57.4542 4.36305C57.5318 4.28393 57.6093 4.2048 57.6892 4.12327C57.7574 4.05388 57.8255 3.98449 57.8958 3.913C58.2813 3.48755 58.3848 3.17635 58.3668 2.60153C58.3306 2.31399 58.3306 2.31399 58.0723 1.97967C57.697 1.72947 57.4361 1.60886 56.9797 1.64127C56.623 1.75876 56.4326 1.93752 56.1582 2.19407ZM42.5499 7.19519C42.0687 7.80568 41.829 8.47205 41.5701 9.19951C41.5267 9.31915 41.4833 9.43878 41.4386 9.56204C41.3475 9.8136 41.257 10.0653 41.1669 10.3172C41.0285 10.704 40.8885 11.0903 40.7484 11.4765C40.66 11.7212 40.5717 11.966 40.4835 12.2109C40.4416 12.3267 40.3997 12.4426 40.3565 12.5621C40.2993 12.7225 40.2993 12.7225 40.2409 12.8862C40.1902 13.0276 40.1902 13.0276 40.1384 13.1719C40.0541 13.4031 40.0541 13.4031 40.0664 13.6525C40.1728 13.6467 40.2793 13.641 40.3889 13.635C41.265 13.6074 41.8547 13.59 42.5499 14.1492C43.006 14.7129 42.9632 15.2293 42.938 15.9188C42.9284 16.2813 42.9232 16.6426 42.9225 17.0053C42.9839 17.0668 42.9839 17.0668 43.0467 17.1295C43.5076 17.1243 43.9674 17.1137 44.4279 17.0919C45.11 17.0769 45.486 17.1695 46.027 17.6262C46.5586 18.3173 46.4327 19.1564 46.3995 19.9856C47.5254 19.6691 48.6195 19.2718 49.7169 18.8695C50.0405 18.7512 50.3646 18.6346 50.6888 18.518C50.8962 18.4422 51.1035 18.3663 51.3109 18.2903C51.407 18.256 51.5031 18.2217 51.6021 18.1864C52.2007 17.9642 52.7926 17.7303 53.109 17.1382C53.1282 17.0585 53.1475 16.9788 53.1672 16.8967C53.189 16.8176 53.2108 16.7385 53.2332 16.657C53.2218 15.8535 52.5675 15.3003 52.0327 14.7788C51.9533 14.7 51.8738 14.6211 51.792 14.5398C51.5399 14.2897 51.2864 14.0409 51.0329 13.7922C50.861 13.6222 50.6892 13.4521 50.5175 13.2819C50.0979 12.8663 49.6771 12.4519 49.2556 12.0382C48.7813 12.4369 48.3183 12.8345 47.893 13.2863C47.8096 13.3729 47.7261 13.4596 47.6401 13.5489C47.4687 13.7281 47.2983 13.9083 47.1288 14.0893C46.4996 14.7378 46.4996 14.7378 45.9843 14.904C45.6544 14.8943 45.6544 14.8943 45.3517 14.7003C45.1577 14.3976 45.1577 14.3976 45.1696 14.048C45.3108 13.5507 45.5221 13.3411 45.8916 12.9821C45.9521 12.9225 46.0125 12.863 46.0748 12.8016C46.267 12.6128 46.4612 12.4264 46.6556 12.24C46.7868 12.1119 46.9179 11.9837 47.0488 11.8553C47.3688 11.542 47.6908 11.2308 48.0138 10.9206C47.378 10.1503 46.6887 9.43568 45.987 8.72605C45.8528 8.58979 45.7193 8.45287 45.5864 8.31531C45.3921 8.11422 45.1959 7.91526 44.9991 7.71664C44.9115 7.62487 44.9115 7.62487 44.8222 7.53124C44.1042 6.81769 43.4218 6.66878 42.5499 7.19519ZM39.3213 15.5152C38.9974 15.9012 38.8636 16.3165 38.714 16.7933C38.6469 16.9833 38.6469 16.9833 38.5784 17.1772C38.4851 17.4446 38.3947 17.713 38.3069 17.9823C38.1731 18.3931 38.0314 18.8004 37.8879 19.2078C37.798 19.4687 37.7086 19.7297 37.6196 19.991C37.5574 20.173 37.5574 20.173 37.4939 20.3587C37.2705 21.0479 37.1476 21.62 37.2102 22.345C37.3758 22.6762 37.3758 22.6762 37.707 22.8417C38.5642 22.9158 39.2541 22.7083 40.061 22.4323C40.1883 22.389 40.3155 22.3457 40.4466 22.3011C40.7142 22.2089 40.9815 22.1157 41.2485 22.0217C41.6566 21.8796 42.067 21.7459 42.4779 21.6121C42.7383 21.5212 42.9986 21.4299 43.2586 21.338C43.3813 21.2995 43.5039 21.261 43.6302 21.2214C44.1543 21.0269 44.4559 20.9005 44.7027 20.3825C44.8741 19.7538 44.9499 19.2564 44.7852 18.6197C44.6429 18.6254 44.5006 18.6312 44.3539 18.6371C44.1639 18.6418 43.974 18.6463 43.784 18.6507C43.6906 18.6549 43.5972 18.659 43.5009 18.6633C42.7892 18.6756 42.3779 18.555 41.8049 18.1229C41.3782 17.5258 41.3858 16.9803 41.409 16.2758C41.4116 16.1298 41.4116 16.1298 41.4141 15.9808C41.4185 15.7428 41.4252 15.5048 41.4323 15.2668C40.6816 15.0726 40.0188 15.1828 39.3213 15.5152ZM31.0094 22.0136C29.6128 24.2012 30.7529 27.2003 30.7529 29.7958C36.7359 29.7958 42.7188 29.7958 48.8831 29.7958C48.8831 27.1731 48.8831 24.5504 48.8831 21.8483C46.4454 21.7669 46.4454 21.7669 44.2753 22.3285C44.1432 22.3776 44.0111 22.4266 43.875 22.4771C43.465 22.6304 43.0581 22.7901 42.6508 22.9504C42.3707 23.0564 42.0904 23.162 41.81 23.2671C40.5846 23.7275 40.5846 23.7275 39.3717 24.2194C38.6598 24.4874 37.7399 24.4672 37.022 24.2276C36.4115 23.8816 35.9822 23.3678 35.7201 22.7176C35.6758 22.4282 35.6342 22.1385 35.5959 21.8483C34.9838 21.8391 34.3717 21.8323 33.7595 21.8278C33.5512 21.826 33.3429 21.8234 33.1347 21.8202C32.8354 21.8157 32.5361 21.8136 32.2368 21.8119C32.0971 21.809 32.0971 21.809 31.9545 21.8061C31.4524 21.8029 31.4524 21.8029 31.0094 22.0136ZM50.4974 21.8483C50.4974 24.471 50.4974 27.0936 50.4974 29.7958C53.1201 29.7958 55.7427 29.7958 58.4449 29.7958C58.4525 28.6202 58.4602 27.4446 58.4681 26.2334C58.4715 25.863 58.4749 25.4927 58.4784 25.1111C58.4795 24.8172 58.4805 24.5234 58.4812 24.2295C58.4831 24.0772 58.485 23.9249 58.487 23.7679C58.4871 23.6218 58.4871 23.4756 58.4871 23.325C58.488 23.1985 58.4888 23.0719 58.4896 22.9415C58.4327 22.4991 58.2656 22.1658 57.9481 21.8483C57.7157 21.8366 57.4828 21.8337 57.2501 21.8342C57.0232 21.8342 57.0232 21.8342 56.7917 21.8343C56.6315 21.8349 56.4713 21.8355 56.3062 21.8362C56.0866 21.8364 56.0866 21.8364 55.8627 21.8366C55.3135 21.8372 54.7642 21.8389 54.215 21.8405C52.9882 21.8431 51.7614 21.8457 50.4974 21.8483ZM7.36848 29.7104C7.1263 30.0961 7.04404 30.3336 7.03475 30.7892C7.24675 31.3781 7.51695 31.6801 8.02818 32.031C8.42076 32.151 8.42076 32.151 8.83534 32.2173C9.44941 32.3263 9.81768 32.4545 10.2634 32.9002C10.7113 33.5996 10.6899 34.2449 10.7097 35.054C10.7637 35.54 10.8674 35.8438 11.1327 36.2531C11.5995 36.3974 11.858 36.453 12.2968 36.222C12.6567 35.8344 12.6343 35.4497 12.6462 34.9432C12.669 34.1523 12.7045 33.5069 13.1637 32.8357C13.7292 32.3266 14.2923 32.2318 15.0331 32.2299C15.1188 32.2295 15.2045 32.2292 15.2928 32.2288C15.4728 32.2285 15.6528 32.2292 15.8328 32.2308C16.1073 32.2328 16.3815 32.2308 16.656 32.2284C16.8316 32.2287 17.0073 32.2291 17.183 32.2299C17.3415 32.2303 17.5 32.2307 17.6632 32.2311C18.1127 32.2823 18.3386 32.4011 18.7076 32.6519C18.7895 32.6519 18.8715 32.6519 18.9559 32.6519C19.3023 33.32 19.4835 33.8313 19.4844 34.5939C19.4848 34.6741 19.4853 34.7544 19.4857 34.837C19.4866 35.0104 19.4869 35.1837 19.4867 35.357C19.4866 35.6316 19.4882 35.9062 19.4903 36.1808C19.4961 36.9612 19.4991 37.7416 19.4999 38.5221C19.5006 39.0003 19.5036 39.4784 19.5081 39.9566C19.5093 40.1384 19.5096 40.3202 19.5089 40.502C19.508 40.7564 19.5102 41.0107 19.513 41.2651C19.5133 41.4096 19.5137 41.5542 19.5141 41.7031C19.5902 42.1717 19.7377 42.38 20.0735 42.7104C20.4461 42.8035 20.4461 42.8035 20.8186 42.7104C21.1744 42.4404 21.3016 42.2946 21.3773 41.8495C21.3773 41.708 21.3772 41.5665 21.3772 41.4207C21.3785 41.2598 21.3797 41.099 21.381 40.9333C21.3805 40.8476 21.38 40.7619 21.3795 40.6737C21.3779 40.4041 21.3793 40.1348 21.3814 39.8653C21.3848 39.3896 21.3855 38.9139 21.3853 38.4382C21.385 37.6786 21.3868 36.9191 21.3922 36.1596C21.3934 35.8955 21.3923 35.6314 21.3911 35.3672C21.3966 34.3328 21.4041 33.4967 22.107 32.6829C22.4926 32.3905 22.9096 32.2909 23.372 32.1629C24.0408 31.9802 24.0408 31.9802 24.5828 31.5731C24.8541 31.0404 24.9233 30.6298 24.7923 30.0441C24.5113 29.5039 24.1218 29.2353 23.5506 29.0507C23.2364 29.0136 23.2364 29.0136 22.9058 29.0183C22.7785 29.0174 22.6513 29.0166 22.5202 29.0156C22.3819 29.016 22.2436 29.0163 22.1012 29.0166C21.9545 29.0159 21.8079 29.0153 21.6568 29.0147C21.2555 29.0132 20.8542 29.0129 20.4529 29.0132C20.1175 29.0134 19.7821 29.0128 19.4466 29.0122C18.6551 29.0108 17.8635 29.0107 17.0719 29.0115C16.2563 29.0122 15.4407 29.0107 14.625 29.0081C13.9238 29.0059 13.2226 29.0051 12.5214 29.0055C12.103 29.0058 11.6846 29.0054 11.2662 29.0037C10.7995 29.0022 10.3329 29.003 9.86616 29.0045C9.72815 29.0035 9.59014 29.0026 9.44795 29.0016C8.59 29.0074 8.00031 29.0786 7.36848 29.7104ZM1.69505 31.6584C1.07253 34.1485 1.57087 36.7908 1.57087 39.3575C6.98011 39.3575 12.3893 39.3575 17.9625 39.3575C17.9625 37.6364 17.9625 35.9153 17.9625 34.142C17.6384 33.7434 17.6384 33.7434 17.2666 33.7233C17.0768 33.7238 17.0768 33.7238 16.8832 33.7244C16.7455 33.7245 16.6077 33.7245 16.4658 33.7246C16.322 33.7266 16.1781 33.7286 16.03 33.7307C15.8857 33.7303 15.7413 33.7299 15.5927 33.7295C14.8436 33.6799 14.8436 33.6799 14.2371 34.0178C14.2118 34.3069 14.1982 34.597 14.1906 34.8871C14.1473 35.7775 14.0701 36.6767 13.4033 37.3314C12.6383 37.9023 11.9305 37.9544 11.0085 37.8674C10.2806 37.6753 9.90462 37.2968 9.52597 36.6645C9.30098 36.1742 9.27524 35.6841 9.24669 35.151C9.23293 34.9417 9.21826 34.7324 9.20254 34.5233C9.19739 34.4321 9.19224 34.3408 9.18693 34.2469C9.16286 33.9877 9.16286 33.9877 8.89743 33.7695C8.64053 33.7049 8.38135 33.6492 8.12131 33.5987C7.09638 33.3719 6.54515 33.0038 5.91714 32.1552C5.79007 31.9083 5.66542 31.6601 5.5446 31.4101C5.05625 31.4039 4.56791 31.3994 4.07952 31.3964C3.83177 31.3946 3.58404 31.3914 3.3363 31.3883C3.18063 31.3875 3.02495 31.3867 2.86456 31.3858C2.72085 31.3845 2.57713 31.3832 2.42906 31.3819C2.04347 31.3824 2.04347 31.3824 1.69505 31.6584ZM25.8867 32.0119C25.8117 32.2252 25.7366 32.4385 25.6616 32.6519C25.0738 33.2792 24.4341 33.5038 23.6025 33.6657C23.2362 33.7609 23.2362 33.7609 22.9297 34.2662C22.9297 35.9463 22.9297 37.6265 22.9297 39.3575C28.216 39.3575 33.5023 39.3575 38.9487 39.3575C38.9487 36.7349 38.9487 34.1122 38.9487 31.4101C36.7378 31.374 36.7378 31.374 34.5268 31.3495C33.6249 31.342 32.7232 31.3332 31.8214 31.3164C31.0944 31.3029 30.3674 31.2955 29.6402 31.2923C29.3629 31.29 29.0855 31.2855 28.8082 31.2788C27.1308 31.1289 27.1308 31.1289 25.8867 32.0119ZM40.5631 31.4101C40.5631 34.0327 40.5631 36.6554 40.5631 39.3575C46.4641 39.3575 52.365 39.3575 58.4449 39.3575C58.4449 36.7349 58.4449 34.1122 58.4449 31.4101C52.5439 31.4101 46.6429 31.4101 40.5631 31.4101ZM1.57087 40.9719C1.57087 43.5945 1.57087 46.2172 1.57087 48.9193C4.19353 48.9193 6.81619 48.9193 9.51833 48.9193C9.51833 46.2967 9.51833 43.674 9.51833 40.9719C6.89567 40.9719 4.27301 40.9719 1.57087 40.9719ZM11.1327 40.9719C11.1327 43.5945 11.1327 46.2172 11.1327 48.9193C17.1156 48.9193 23.0985 48.9193 29.2628 48.9193C29.2628 46.2967 29.2628 43.674 29.2628 40.9719C27.1729 40.9719 25.0829 40.9719 22.9297 40.9719C22.8887 41.5046 22.8477 42.0373 22.8055 42.5862C22.6192 43.0363 22.6192 43.0363 22.4329 43.3313C22.3715 43.5157 22.3715 43.5157 22.3088 43.7038C22.0915 43.8357 22.0915 43.8357 21.812 43.9522C21.7174 43.9946 21.6228 44.037 21.5254 44.0807C20.7943 44.3428 19.9804 44.3176 19.2741 43.991C18.7422 43.681 18.4417 43.3186 18.1876 42.7569C18.0472 42.1739 18.0168 41.5691 17.9625 40.9719C15.7087 40.9719 13.4548 40.9719 11.1327 40.9719ZM30.7529 40.9719C30.7529 43.5945 30.7529 46.2172 30.7529 48.9193C36.7359 48.9193 42.7188 48.9193 48.8831 48.9193C48.8831 46.2967 48.8831 43.674 48.8831 40.9719C42.9001 40.9719 36.9172 40.9719 30.7529 40.9719ZM50.4974 40.9719C50.4974 43.5945 50.4974 46.2172 50.4974 48.9193C53.1201 48.9193 55.7427 48.9193 58.4449 48.9193C58.4449 46.2967 58.4449 43.674 58.4449 40.9719C55.8222 40.9719 53.1995 40.9719 50.4974 40.9719ZM1.57087 50.5337C1.08554 54.6313 1.08554 54.6313 1.94341 58.3569C2.33283 58.4867 2.60271 58.4964 3.01132 58.496C3.15602 58.4962 3.30073 58.4964 3.44981 58.4966C3.68817 58.4959 3.68817 58.4959 3.93133 58.4952C4.10022 58.4952 4.26911 58.4952 4.438 58.4953C4.89671 58.4953 5.35541 58.4946 5.81412 58.4937C6.29342 58.4929 6.77271 58.4928 7.25201 58.4927C8.15973 58.4923 9.06745 58.4913 9.97516 58.49C11.2017 58.4884 12.4282 58.4877 13.6548 58.487C15.5874 58.4858 17.52 58.4834 19.4526 58.4811C19.4526 55.8584 19.4526 53.2358 19.4526 50.5337C13.5517 50.5337 7.65067 50.5337 1.57087 50.5337ZM21.067 50.5337C21.067 53.1563 21.067 55.779 21.067 58.4811C26.968 58.4811 32.8689 58.4811 38.9487 58.4811C38.9487 55.8584 38.9487 53.2358 38.9487 50.5337C33.0478 50.5337 27.1468 50.5337 21.067 50.5337ZM40.5631 50.5337C40.5631 53.1563 40.5631 55.779 40.5631 58.4811C43.5937 58.492 43.5937 58.492 46.6243 58.4993C47.86 58.5015 49.0957 58.5041 50.3313 58.5092C51.2312 58.5129 52.1311 58.5153 53.031 58.5162C53.5075 58.5166 53.984 58.5178 54.4605 58.5205C54.9091 58.523 55.3576 58.5238 55.8062 58.5232C56.0491 58.5234 56.2921 58.5254 56.535 58.5275C56.6801 58.5269 56.8251 58.5264 56.9745 58.5259C57.1003 58.5262 57.2261 58.5266 57.3557 58.5269C57.7623 58.4728 57.9949 58.3554 58.3207 58.1086C59.1192 55.7128 58.4449 53.059 58.4449 50.5337C52.5439 50.5337 46.6429 50.5337 40.5631 50.5337Z" fill="#C08F4F"/>
</svg>
