<svg width="60" height="60" viewBox="0 0 60 60" fill="none" xmlns="http://www.w3.org/2000/svg">
<g clip-path="url(#clip0_707_4)">
<path d="M11.5632 0.391031C14.023 2.14919 15.1495 4.85407 15.8717 7.69053C16.0205 8.19894 16.2776 8.48439 16.638 8.86378C19.1275 11.7714 19.5933 15.6707 19.4532 19.336C19.4001 20.018 19.2739 20.6656 19.1017 21.3282C19.0822 21.4044 19.0627 21.4806 19.0426 21.5591C18.2503 24.5744 16.6097 27.3254 13.8855 28.9523C12.8851 29.509 12.0344 29.7729 10.8986 30.0001C10.8986 33.5192 10.8986 37.0384 10.8986 40.6642C11.788 40.6642 12.6775 40.6642 13.5939 40.6642C13.4817 41.1687 13.3693 41.6732 13.2563 42.1776C13.218 42.349 13.1798 42.5204 13.1417 42.6918C13.0868 42.9392 13.0314 43.1864 12.9759 43.4336C12.9428 43.5821 12.9096 43.7307 12.8755 43.8837C12.7824 44.261 12.6621 44.6314 12.5392 45.0001C9.75481 45.0001 6.97043 45.0001 4.10168 45.0001C4.62375 42.8538 4.62375 42.8538 5.15637 40.6642C6.31653 40.6642 7.47668 40.6642 8.672 40.6642C8.672 37.145 8.672 33.6259 8.672 30.0001C8.28528 29.9228 7.89856 29.8454 7.50012 29.7657C4.7178 28.8631 2.80098 26.7166 1.45764 24.2066C1.12973 23.5346 0.884513 22.8562 0.666625 22.1412C0.638216 22.0486 0.609806 21.956 0.580536 21.8606C0.17667 20.4636 0.0690979 19.0716 0.0733629 17.6222C0.0734267 17.5402 0.0734904 17.4581 0.073556 17.3736C0.0783389 16.0303 0.18139 14.764 0.586058 13.4767C0.611172 13.3959 0.636286 13.3152 0.662162 13.232C1.26675 11.354 2.21607 9.7385 3.4617 8.21739C3.6411 7.957 3.71523 7.75569 3.79224 7.45066C3.81859 7.35072 3.84494 7.25077 3.87209 7.14779C3.89951 7.04169 3.92694 6.93559 3.9552 6.82627C4.70179 4.09199 5.97581 1.66002 8.45227 0.124612C9.43758 -0.240574 10.6675 -0.13991 11.5632 0.391031ZM8.78918 15.7032C8.74609 16.0359 8.73219 16.2913 8.75256 16.6188C8.75521 16.6999 8.75785 16.7811 8.76057 16.8648C8.76743 17.0637 8.77794 17.2624 8.78918 17.461C8.63538 17.3414 8.48157 17.2218 8.32776 17.1021C8.23153 17.0281 8.13531 16.9541 8.03616 16.8778C7.84029 16.7239 7.64745 16.5659 7.45846 16.4036C7.03967 16.0504 6.78072 15.8386 6.23303 15.7398C5.79228 15.8349 5.6446 15.9181 5.39075 16.2892C5.25351 16.6243 5.25351 16.6243 5.27356 16.9923C5.60003 17.5738 6.00504 17.9596 6.51135 18.3766C6.57669 18.4316 6.64202 18.4867 6.70933 18.5434C6.77709 18.6003 6.84484 18.6572 6.91464 18.7158C7.01634 18.8039 7.01634 18.8039 7.1201 18.8938C7.38362 19.112 7.38362 19.112 7.70532 19.2907C8.15122 19.5794 8.57334 19.8557 8.74606 20.382C8.8643 21.0535 8.83718 21.7337 8.82352 22.4127C8.82374 22.6319 8.82454 22.8511 8.82587 23.0702C8.82786 23.6443 8.82217 24.218 8.81483 24.792C8.80871 25.3788 8.80991 25.9656 8.81047 26.5525C8.8105 27.7018 8.80175 28.8508 8.78918 30.0001C9.44661 30.0001 10.104 30.0001 10.7814 30.0001C10.7814 28.4146 10.7814 26.829 10.7814 25.1954C11.1294 25.0794 11.1294 25.0794 11.4845 24.961C11.8706 24.7828 12.2441 24.5816 12.6198 24.3824C12.7699 24.3046 12.7699 24.3046 12.923 24.2252C13.0192 24.1745 13.1153 24.1238 13.2144 24.0716C13.3013 24.0258 13.3883 23.9801 13.4779 23.9329C13.717 23.7855 13.8883 23.658 14.0626 23.4376C14.1418 22.7821 14.1418 22.7821 13.8649 22.2145C13.5607 22.0089 13.3713 21.9534 13.0079 21.9142C12.7307 21.9916 12.7307 21.9916 12.4637 22.1334C12.3651 22.1814 12.2665 22.2294 12.165 22.2788C12.0637 22.3301 11.9624 22.3813 11.858 22.4342C11.7545 22.485 11.6509 22.5358 11.5442 22.5882C11.2892 22.7137 11.035 22.8406 10.7814 22.9688C10.7827 22.8791 10.784 22.7894 10.7853 22.697C10.7971 21.8504 10.806 21.0039 10.8117 20.1572C10.8148 19.722 10.8189 19.2868 10.8256 18.8516C10.832 18.4314 10.8354 18.0113 10.837 17.5911C10.838 17.431 10.8402 17.2708 10.8433 17.1107C10.9087 16.1433 10.9087 16.1433 10.5105 15.3119C9.78134 14.8614 9.28882 15.0628 8.78918 15.7032Z" fill="#C08F4F"/>
<path d="M37.6172 54.6094C41.2137 54.6094 44.8102 54.6094 48.5156 54.6094C49.9219 59.5312 49.9219 59.5312 49.9219 60C45.8613 60 41.8008 60 37.6172 60C37.6172 58.2211 37.6172 56.4422 37.6172 54.6094Z" fill="#C08F4F"/>
<path d="M46.2891 9.02353C47.3463 9.79664 48.1404 10.7657 48.3985 12.0704C48.5305 13.5099 48.2653 14.6934 47.3438 15.8204C46.4738 16.7374 45.3536 17.2098 44.0992 17.2706C42.8765 17.2386 41.7561 16.8137 40.8985 15.9376C39.9895 14.8812 39.6506 13.8383 39.685 12.4513C39.8252 11.1693 40.4898 10.0645 41.4844 9.25791C42.9135 8.40137 44.7925 8.16205 46.2891 9.02353Z" fill="#C08F4F"/>
<path d="M24.7266 47.1094C28.2844 47.1094 31.8422 47.1094 35.5078 47.1094C35.5078 48.8883 35.5078 50.6672 35.5078 52.5C31.95 52.5 28.3922 52.5 24.7266 52.5C24.7266 50.7211 24.7266 48.9422 24.7266 47.1094Z" fill="#C08F4F"/>
<path d="M12.3047 54.6094C15.7465 54.6094 19.1883 54.6094 22.7344 54.6094C22.7344 56.3883 22.7344 58.1672 22.7344 60C18.9059 60 15.0773 60 11.1328 60C11.4351 58.1862 11.8835 56.3993 12.3047 54.6094ZM17.3438 56.8359C17.3438 57.4934 17.3438 58.1508 17.3438 58.8281C18.0012 58.8281 18.6586 58.8281 19.3359 58.8281C19.3359 58.1707 19.3359 57.5133 19.3359 56.8359C18.6785 56.8359 18.0211 56.8359 17.3438 56.8359Z" fill="#C08F4F"/>
<path d="M24.7266 54.6094C28.2844 54.6094 31.8422 54.6094 35.5078 54.6094C35.5078 56.3883 35.5078 58.1672 35.5078 60C31.95 60 28.3922 60 24.7266 60C24.7266 58.2211 24.7266 56.4422 24.7266 54.6094ZM31.2891 56.8359C31.2891 57.4934 31.2891 58.1508 31.2891 58.8281C31.9465 58.8281 32.6039 58.8281 33.2812 58.8281C33.2812 58.1707 33.2812 57.5133 33.2812 56.8359C32.6238 56.8359 31.9664 56.8359 31.2891 56.8359Z" fill="#C08F4F"/>
<path d="M37.6172 47.1094C40.4789 47.1094 43.3406 47.1094 46.2891 47.1094C47.1059 49.696 47.1059 49.696 47.4463 50.9253C47.4822 51.053 47.5182 51.1807 47.5552 51.3123C47.8125 52.2351 47.8125 52.2351 47.8125 52.5C44.448 52.5 41.0836 52.5 37.6172 52.5C37.6172 50.7211 37.6172 48.9422 37.6172 47.1094Z" fill="#C08F4F"/>
<path d="M14.0625 47.1094C16.9242 47.1094 19.7859 47.1094 22.7344 47.1094C22.7344 48.8883 22.7344 50.6672 22.7344 52.5C19.4859 52.5 16.2375 52.5 12.8906 52.5C13.1929 50.6862 13.6413 48.8993 14.0625 47.1094Z" fill="#C08F4F"/>
<path d="M2.09667 54.5952C2.24839 54.5955 2.4001 54.5957 2.55641 54.596C2.68159 54.596 2.68159 54.596 2.80931 54.596C3.08641 54.596 3.3635 54.5969 3.64059 54.5979C3.83223 54.5981 4.02386 54.5982 4.21549 54.5984C4.72082 54.5988 5.22615 54.6 5.73149 54.6013C6.24676 54.6025 6.76203 54.603 7.2773 54.6036C8.28903 54.6048 9.30077 54.6068 10.3125 54.6093C10.0479 55.8854 9.77712 57.1585 9.47021 58.4252C9.43978 58.5529 9.40934 58.6807 9.37798 58.8123C9.15563 59.7356 9.15563 59.7356 9.02344 59.9999C6.16172 59.9999 3.3 59.9999 0.351562 59.9999C0.561841 59.1322 0.772119 58.2645 0.98877 57.3705C1.08812 56.9592 1.08812 56.9592 1.18947 56.5395C1.24201 56.3235 1.29459 56.1075 1.3472 55.8915C1.37443 55.7782 1.40167 55.665 1.42972 55.5483C1.45588 55.4412 1.48204 55.3342 1.50899 55.2239C1.53163 55.1305 1.55427 55.037 1.57759 54.9408C1.68081 54.5899 1.71317 54.6112 2.09667 54.5952Z" fill="#C08F4F"/>
<path d="M50.5078 54.6094C53.1762 54.6094 55.8445 54.6094 58.5938 54.6094C58.9128 55.8457 58.9128 55.8457 59.2383 57.1069C59.3392 57.4967 59.3392 57.4967 59.4422 57.8944C59.4951 58.1002 59.548 58.306 59.6008 58.5118C59.6287 58.6188 59.6565 58.7258 59.6852 58.8361C59.7113 58.9383 59.7375 59.0406 59.7645 59.146C59.7874 59.2347 59.8103 59.3234 59.8339 59.4149C59.8828 59.6484 59.8828 59.6484 59.8828 60C57.2918 60 54.7008 60 52.0312 60C51.7799 59.1323 51.5285 58.2646 51.2695 57.3706C51.1502 56.9592 51.1502 56.9592 51.0285 56.5396C50.966 56.3236 50.9035 56.1076 50.8411 55.8916C50.7917 55.7217 50.7917 55.7217 50.7414 55.5483C50.7105 55.4413 50.6795 55.3342 50.6477 55.224C50.6206 55.1305 50.5935 55.0371 50.5656 54.9409C50.5078 54.7266 50.5078 54.7266 50.5078 54.6094Z" fill="#C08F4F"/>
<path d="M24.7266 40.6641C28.2844 40.6641 31.8422 40.6641 35.5078 40.6641C35.5078 42.0949 35.5078 43.5258 35.5078 45C31.95 45 28.3922 45 24.7266 45C24.7266 43.5691 24.7266 42.1383 24.7266 40.6641ZM26.9531 41.8359C26.9531 42.4934 26.9531 43.1508 26.9531 43.8281C27.6492 43.8281 28.3453 43.8281 29.0625 43.8281C29.0625 43.1707 29.0625 42.5133 29.0625 41.8359C28.3664 41.8359 27.6703 41.8359 26.9531 41.8359Z" fill="#C08F4F"/>
<path d="M3.96722 47.0952C4.11686 47.0955 4.26649 47.0957 4.42065 47.096C4.50297 47.096 4.58528 47.096 4.67009 47.096C4.94338 47.096 5.21667 47.0969 5.48996 47.0979C5.67896 47.0981 5.86797 47.0982 6.05697 47.0984C6.55537 47.0988 7.05377 47.1 7.55216 47.1013C8.06036 47.1025 8.56857 47.103 9.07677 47.1036C10.0746 47.1048 11.0725 47.1068 12.0703 47.1093C11.8057 48.3854 11.5349 49.6585 11.228 50.9252C11.1976 51.0529 11.1671 51.1807 11.1358 51.3123C10.9134 52.2356 10.9134 52.2356 10.7812 52.4999C7.9582 52.4999 5.13516 52.4999 2.22656 52.4999C2.43684 51.6322 2.64712 50.7645 2.86377 49.8705C2.96312 49.4592 2.96312 49.4592 3.06447 49.0395C3.11701 48.8235 3.16959 48.6075 3.2222 48.3915C3.24943 48.2782 3.27667 48.165 3.30472 48.0483C3.33088 47.9412 3.35704 47.8342 3.38399 47.7239C3.40663 47.6305 3.42927 47.537 3.45259 47.4408C3.55516 47.0921 3.58685 47.1112 3.96722 47.0952ZM5.50781 48.2812C5.50781 48.9386 5.50781 49.596 5.50781 50.2734C6.20391 50.2734 6.9 50.2734 7.61719 50.2734C7.61719 49.6159 7.61719 48.9585 7.61719 48.2812C6.92109 48.2812 6.225 48.2812 5.50781 48.2812Z" fill="#C08F4F"/>
<path d="M48.3984 47.1094C51.1441 47.1094 53.8898 47.1094 56.7188 47.1094C57.0378 48.3457 57.0378 48.3457 57.3633 49.6069C57.4642 49.9967 57.4642 49.9967 57.5672 50.3944C57.6201 50.6002 57.673 50.806 57.7258 51.0118C57.7537 51.1188 57.7815 51.2258 57.8102 51.3361C57.8363 51.4383 57.8625 51.5406 57.8895 51.646C57.9124 51.7347 57.9353 51.8234 57.9589 51.9149C58.0078 52.1484 58.0078 52.1484 58.0078 52.5C55.3395 52.5 52.6711 52.5 49.9219 52.5C49.105 49.9133 49.105 49.9133 48.7646 48.6841C48.7107 48.4925 48.7107 48.4925 48.6557 48.297C48.3984 47.3742 48.3984 47.3742 48.3984 47.1094ZM51.6797 49.3359C51.6797 49.9934 51.6797 50.6508 51.6797 51.3281C52.3371 51.3281 52.9945 51.3281 53.6719 51.3281C53.6719 50.6707 53.6719 50.0133 53.6719 49.3359C53.0145 49.3359 52.357 49.3359 51.6797 49.3359Z" fill="#C08F4F"/>
<path d="M46.5234 40.6641C49.3465 40.6641 52.1695 40.6641 55.0781 40.6641C56.1328 44.4609 56.1328 44.4609 56.1328 45C53.3484 45 50.5641 45 47.6953 45C47.502 44.3281 47.3086 43.6562 47.1094 42.9639C47.0482 42.7519 46.987 42.5399 46.924 42.3215C46.8759 42.1538 46.8278 41.9862 46.7798 41.8185C46.7545 41.7312 46.7292 41.6438 46.7031 41.5538C46.5234 40.9252 46.5234 40.9252 46.5234 40.6641Z" fill="#C08F4F"/>
<path d="M15.5859 40.6641C17.9449 40.6641 20.3039 40.6641 22.7344 40.6641C22.7344 42.0949 22.7344 43.5258 22.7344 45C20.066 45 17.3977 45 14.6484 45C14.8915 43.5414 15.2408 42.1019 15.5859 40.6641Z" fill="#C08F4F"/>
<path d="M37.6172 40.6641C39.8602 40.6641 42.1031 40.6641 44.4141 40.6641C44.9435 42.0759 45.3021 43.5465 45.7031 45C43.0348 45 40.3664 45 37.6172 45C37.6172 43.5691 37.6172 42.1383 37.6172 40.6641Z" fill="#C08F4F"/>
<path d="M42.8906 21.3281C43.6641 21.3281 44.4375 21.3281 45.2344 21.3281C45.2344 22.1016 45.2344 22.875 45.2344 23.6719C44.4609 23.6719 43.6875 23.6719 42.8906 23.6719C42.8906 22.8984 42.8906 22.125 42.8906 21.3281Z" fill="#C08F4F"/>
<path d="M36.3284 16.2891C36.5061 16.5579 36.6648 16.8205 36.8191 17.1021C36.8622 17.1778 36.9054 17.2536 36.9498 17.3316C37.2659 17.8964 37.2659 17.8964 37.2659 18.1641C36.3378 18.6862 36.3378 18.6862 35.3909 19.2188C35.0078 18.8357 34.7852 18.5647 34.5266 18.1055C34.4629 17.9955 34.3991 17.8855 34.3334 17.7722C34.219 17.461 34.219 17.461 34.2698 17.2142C34.5357 16.8926 34.8403 16.74 35.2078 16.5454C35.343 16.4722 35.4782 16.3989 35.6175 16.3234C35.9768 16.1719 35.9768 16.1719 36.3284 16.2891Z" fill="#C08F4F"/>
<path d="M52.9688 6.5625C53.1259 6.8281 53.282 7.09425 53.4375 7.36084C53.4822 7.43614 53.5269 7.51145 53.573 7.58904C53.9062 8.1633 53.9062 8.1633 53.9062 8.55469C52.9781 9.07676 52.9781 9.07676 52.0312 9.60938C51.7363 9.21607 51.4922 8.83284 51.2476 8.4082C51.1746 8.28192 51.1016 8.15563 51.0265 8.02551C50.9438 7.8814 50.9438 7.8814 50.8594 7.73438C51.2003 7.36368 51.5373 7.12328 51.98 6.88477C52.147 6.79322 52.147 6.79322 52.3174 6.69983C52.6172 6.5625 52.6172 6.5625 52.9688 6.5625Z" fill="#C08F4F"/>
<path d="M35.1562 6.5625C35.6679 6.63166 36.0325 6.82062 36.4746 7.08252C36.5985 7.15488 36.7224 7.22724 36.85 7.30179C37.1484 7.5 37.1484 7.5 37.2656 7.73438C37.1821 7.9331 37.1821 7.9331 37.0464 8.16742C36.9984 8.25126 36.9504 8.3351 36.901 8.42148C36.8241 8.55268 36.8241 8.55268 36.7456 8.68652C36.6948 8.77489 36.6439 8.86327 36.5916 8.95432C36.4655 9.17315 36.3383 9.39133 36.2109 9.60938C35.9886 9.49981 35.7665 9.38988 35.5444 9.27979C35.4207 9.21861 35.297 9.15742 35.1695 9.09439C34.8436 8.92633 34.5306 8.74734 34.2188 8.55469C34.3006 8.08892 34.5268 7.70323 34.7534 7.29492C34.792 7.22438 34.8306 7.15383 34.8704 7.08115C34.9652 6.908 35.0607 6.73522 35.1562 6.5625Z" fill="#C08F4F"/>
<path d="M51.9141 16.1719C52.3934 16.3186 52.8093 16.4938 53.2397 16.7505C53.3408 16.8096 53.4419 16.8686 53.546 16.9295C53.7891 17.1094 53.7891 17.1094 53.9062 17.4609C53.7674 17.7524 53.6242 18.0199 53.4595 18.2959C53.3946 18.4094 53.3946 18.4094 53.3283 18.5252C53.0013 19.0853 53.0013 19.0853 52.7344 19.2188C52.5356 19.1352 52.5356 19.1352 52.3013 18.9995C52.2175 18.9515 52.1337 18.9036 52.0473 18.8541C51.9598 18.8029 51.8723 18.7516 51.7822 18.6987C51.6939 18.6479 51.6055 18.5971 51.5144 18.5447C51.2956 18.4187 51.0774 18.2915 50.8594 18.1641C51.0334 17.6903 51.2612 17.2721 51.5186 16.8384C51.5926 16.7131 51.6666 16.5879 51.7429 16.4589C51.7994 16.3642 51.8559 16.2695 51.9141 16.1719Z" fill="#C08F4F"/>
<path d="M42.8906 2.10938C43.6641 2.10938 44.4375 2.10938 45.2344 2.10938C45.2344 2.84414 45.2344 3.57891 45.2344 4.33594C44.4609 4.33594 43.6875 4.33594 42.8906 4.33594C42.8906 3.60117 42.8906 2.86641 42.8906 2.10938Z" fill="#C08F4F"/>
</g>
<defs>
<clipPath id="clip0_707_4">
<rect width="60" height="60" fill="white"/>
</clipPath>
</defs>
</svg>
