<svg width="60" height="60" viewBox="0 0 60 60" fill="none" xmlns="http://www.w3.org/2000/svg">
<path d="M24.801 0.0331433C24.9866 0.0314663 24.9866 0.0314663 25.176 0.0297554C25.5828 0.0266084 25.9896 0.0259437 26.3965 0.0255852C26.6814 0.0245143 26.9663 0.0233944 27.2512 0.0222278C27.8478 0.0202379 28.4444 0.0196175 29.041 0.0198151C29.8018 0.0198488 30.5624 0.0153094 31.3231 0.00957159C31.9115 0.00585136 32.5 0.00519578 33.0885 0.00537128C33.3687 0.00498104 33.649 0.00352325 33.9292 0.000933196C36.091 -0.0171738 37.9227 0.21639 39.5455 1.7459C40.3857 2.7284 40.9104 3.89695 41.4531 5.05195C41.8548 5.73218 42.1953 6.12983 42.9925 6.33939C43.6017 6.45435 44.2136 6.54146 44.8275 6.62826C46.3581 6.87232 47.8646 7.50364 48.8399 8.73119C49.773 10.0322 50.2028 11.1796 50.1732 12.7579C50.1716 12.9132 50.17 13.0685 50.1684 13.2286C50.1214 15.7173 49.8999 18.2022 49.7062 20.6832C49.6485 21.4265 49.5923 22.1698 49.5358 22.9131C49.4412 24.1572 49.3455 25.4012 49.2491 26.6452C49.1378 28.0819 49.0278 29.5186 48.9185 30.9554C48.8017 32.4922 48.6841 34.029 48.5661 35.5657C48.5323 36.0066 48.4987 36.4475 48.465 36.8884C48.4122 37.5796 48.3589 38.2708 48.3051 38.9619C48.2855 39.2152 48.266 39.4685 48.2468 39.7218C48.2205 40.0675 48.1935 40.4132 48.1663 40.7589C48.1514 40.9523 48.1365 41.1456 48.1211 41.3447C48.0682 41.858 48.0682 41.858 47.8977 42.6902C50.5415 42.6902 53.1852 42.6902 55.9091 42.6902C55.9091 44.8872 55.9091 47.0842 55.9091 49.3478C57.2591 49.3478 58.6091 49.3478 60 49.3478C60 52.863 60 56.3783 60 60C40.2 60 20.4 60 0 60C0 56.4848 0 52.9696 0 49.3478C1.35 49.3478 2.7 49.3478 4.09091 49.3478C4.09091 47.1508 4.09091 44.9538 4.09091 42.6902C6.73466 42.6902 9.37841 42.6902 12.1023 42.6902C11.9335 41.2072 11.9335 41.2072 11.7614 39.6943C11.6865 38.8414 11.6152 37.9893 11.5505 37.1358C11.5321 36.8969 11.5135 36.6581 11.495 36.4193C11.4455 35.7807 11.3967 35.142 11.3482 34.5033C11.3176 34.1018 11.2869 33.7002 11.2562 33.2986C11.1484 31.8904 11.0412 30.4822 10.9346 29.0739C10.836 27.7727 10.736 26.4716 10.6353 25.1706C10.5482 24.0435 10.4622 22.9164 10.3769 21.7893C10.3263 21.1205 10.2753 20.4517 10.2232 19.783C9.85288 15.0245 9.85289 15.0245 9.83884 12.7812C9.8373 12.6379 9.83577 12.4947 9.83418 12.347C9.84501 10.8069 10.3553 9.4591 11.4544 8.32484C12.9082 7.12085 14.4713 6.70055 16.3164 6.47417C17.2311 6.33755 17.7592 6.08871 18.4091 5.40759C18.6804 4.95939 18.8878 4.49443 19.0909 4.01365C19.6619 2.67648 20.3233 1.59743 21.6477 0.861688C21.7848 0.783376 21.9219 0.705065 22.0632 0.62438C22.9876 0.179927 23.7711 0.0390103 24.801 0.0331433ZM22.5861 3.77626C22.1396 4.29798 21.8799 4.87682 21.6158 5.50121C20.8659 7.21763 19.9151 8.28192 18.1214 9.02766C17.4865 9.24305 16.848 9.31138 16.1825 9.39175C14.9373 9.55154 14.163 9.80603 13.3168 10.7441C12.7436 11.5177 12.7566 12.1664 12.7619 13.0865C12.7623 13.2202 12.7628 13.3539 12.7633 13.4916C12.7747 14.8417 12.8632 16.182 12.9692 17.5277C12.9891 17.7921 13.009 18.0566 13.0288 18.3211C13.082 19.0287 13.1366 19.7363 13.1915 20.4438C13.2491 21.1883 13.3054 21.9329 13.3619 22.6775C13.4567 23.9248 13.5524 25.1721 13.6486 26.4194C13.7598 27.8596 13.8698 29.3 13.9792 30.7404C14.0961 32.2798 14.2137 33.8192 14.3316 35.3586C14.3654 35.8004 14.3991 36.2422 14.4327 36.6841C14.4856 37.3776 14.5389 38.071 14.5926 38.7645C14.6122 39.0185 14.6317 39.2725 14.651 39.5265C14.6773 39.8737 14.7043 40.2209 14.7314 40.568C14.7463 40.762 14.7612 40.9561 14.7766 41.156C14.8274 41.6701 14.913 42.1807 15 42.6902C24.9 42.6902 34.8 42.6902 45 42.6902C45.2022 40.7156 45.4008 38.7476 45.5517 36.7698C45.5702 36.5315 45.5887 36.2932 45.6073 36.0548C45.6566 35.4194 45.7055 34.7839 45.7541 34.1484C45.7847 33.749 45.8154 33.3496 45.8461 32.9502C45.9538 31.5503 46.0609 30.1504 46.1677 28.7504C46.2665 27.4555 46.3664 26.1606 46.4669 24.8658C46.5539 23.7445 46.6399 22.6232 46.7253 21.5019C46.776 20.8363 46.8271 20.1707 46.8791 19.5052C47.1452 16.2336 47.1452 16.2336 47.2834 12.9553C47.2899 12.6338 47.2899 12.6338 47.2965 12.3058C47.1656 11.3745 46.7405 10.7733 46.0653 10.0991C45.276 9.58038 44.5461 9.45041 43.6217 9.33844C41.9147 9.12475 40.7012 8.69456 39.5455 7.40487C39.4389 7.28644 39.3323 7.16801 39.2225 7.04598C38.7153 6.37703 38.389 5.64595 38.0413 4.88876C37.6519 4.08581 37.2623 3.57035 36.4773 3.07742C35.2505 2.66033 33.967 2.69609 32.6847 2.70033C32.471 2.70001 32.2574 2.6997 32.0373 2.69937C31.473 2.69908 30.9087 2.70041 30.3443 2.70228C30.0003 2.70293 29.6562 2.70228 29.3122 2.70115C28.6466 2.69908 27.981 2.69934 27.3153 2.70033C27.0101 2.69932 27.0101 2.69932 26.6986 2.69829C24.458 2.70356 24.458 2.70356 22.5861 3.77626ZM6.81818 45.3533C6.81818 46.6715 6.81818 47.9897 6.81818 49.3478C22.1182 49.3478 37.4182 49.3478 53.1818 49.3478C53.1818 48.0296 53.1818 46.7114 53.1818 45.3533C37.8818 45.3533 22.5818 45.3533 6.81818 45.3533ZM2.72727 52.0109C2.72727 53.7685 2.72727 55.5261 2.72727 57.337C20.7273 57.337 38.7273 57.337 57.2727 57.337C57.2727 55.5793 57.2727 53.8217 57.2727 52.0109C39.2727 52.0109 21.2727 52.0109 2.72727 52.0109Z" fill="#C08F4F"/>
<path d="M32.0464 9.68389C33.6374 10.5151 34.6393 11.8206 35.2744 13.4704C35.7876 15.428 35.7341 17.9203 34.7737 19.7223C33.8635 21.1991 32.9314 22.2395 31.1942 22.7182C29.3779 22.9179 28.1319 22.6151 26.6685 21.5779C25.4362 20.5224 24.6466 18.9463 24.5165 17.3597C24.3773 14.9174 24.6295 12.9634 26.201 10.9712C27.6922 9.43329 30.0048 8.8402 32.0464 9.68389ZM27.9003 13.5374C27.2374 14.7206 27.2901 16.0889 27.4442 17.3922C27.773 18.4688 28.3227 19.3164 29.3192 19.8888C30.0149 20.0074 30.3929 20.0415 31.0111 19.7158C31.8307 19.1023 32.3213 18.3717 32.5578 17.3922C32.7342 15.8172 32.7104 14.3876 31.7055 13.0647C31.2144 12.4717 30.7967 12.2519 30.0116 12.1181C29.0204 12.1884 28.4562 12.7831 27.9003 13.5374Z" fill="#C08F4F"/>
<path d="M20.4541 33.3701C26.7541 33.3701 33.0541 33.3701 39.545 33.3701C39.545 34.2489 39.545 35.1277 39.545 36.0332C33.245 36.0332 26.945 36.0332 20.4541 36.0332C20.4541 35.1544 20.4541 34.2756 20.4541 33.3701Z" fill="#C08F4F"/>
<path d="M20.4541 26.7124C26.7541 26.7124 33.0541 26.7124 39.545 26.7124C39.545 27.5912 39.545 28.47 39.545 29.3754C33.245 29.3754 26.945 29.3754 20.4541 29.3754C20.4541 28.4966 20.4541 27.6178 20.4541 26.7124Z" fill="#C08F4F"/>
</svg>
