<svg width="60" height="60" viewBox="0 0 60 60" fill="none" xmlns="http://www.w3.org/2000/svg">
<g clip-path="url(#clip0_693_48)">
<path d="M49.8048 6.03528C49.9187 6.03347 50.0326 6.03165 50.15 6.02979C50.8289 6.03348 51.2801 6.07806 51.797 6.56262C52.1094 7.08207 52.1919 7.46257 52.187 8.06546C52.1864 8.21494 52.1858 8.36441 52.1852 8.51842C52.1828 8.67303 52.1804 8.82764 52.1779 8.98694C52.1771 9.14448 52.1765 9.30203 52.176 9.45958C52.1667 10.6098 52.1667 10.6098 52.0314 11.0157C51.9854 11.5546 51.9771 12.0939 51.9655 12.6344C51.9581 12.7834 51.9508 12.9324 51.9433 13.086C51.9041 13.8664 51.9041 13.8664 52.2311 14.5394C52.4695 14.7123 52.7128 14.8554 52.9689 15.0001C53.8532 16.0269 54.1609 17.1504 54.1541 18.4864C54.1541 18.5745 54.1541 18.6626 54.1541 18.7534C54.154 19.0425 54.1531 19.3317 54.1522 19.6208C54.152 19.8221 54.1518 20.0234 54.1517 20.2247C54.1512 20.7529 54.1501 21.2812 54.1488 21.8095C54.1476 22.3491 54.1471 22.8888 54.1465 23.4285C54.1452 24.4862 54.1432 25.5439 54.1408 26.6017C54.2883 26.5997 54.4358 26.5978 54.5879 26.5958C55.0747 26.5896 55.5615 26.5856 56.0483 26.5824C56.2644 26.5806 56.4805 26.5782 56.6965 26.5752C57.0081 26.5709 57.3196 26.5689 57.6312 26.5674C57.7269 26.5655 57.8227 26.5637 57.9213 26.5619C58.6852 26.5616 59.2271 26.6793 59.8131 27.2069C60.0594 27.6445 60.0676 28.0309 60.0624 28.5202C60.0628 28.6139 60.0633 28.7077 60.0637 28.8042C60.0641 29.0019 60.0632 29.1996 60.0612 29.3973C60.0587 29.6985 60.0612 29.9994 60.0642 30.3006C60.0639 30.4933 60.0633 30.6859 60.0624 30.8786C60.0633 30.9679 60.0643 31.0573 60.0653 31.1494C60.0548 31.7517 59.9356 32.1053 59.5314 32.5782C59.0926 32.8903 58.6114 32.8391 58.0958 32.8273C58.0085 32.8262 57.9212 32.8252 57.8312 32.8241C57.6167 32.8213 57.4022 32.8171 57.1876 32.8126C57.188 32.9134 57.1883 33.0143 57.1886 33.1181C57.1964 35.5711 57.2022 38.024 57.2058 40.477C57.2077 41.6632 57.2101 42.8494 57.2141 44.0357C57.2177 45.0696 57.2199 46.1035 57.2207 47.1374C57.2212 47.6848 57.2222 48.2323 57.2248 48.7797C57.2272 49.2951 57.2279 49.8104 57.2274 50.3258C57.2275 50.5149 57.2282 50.7039 57.2295 50.893C57.2313 51.1514 57.2309 51.4097 57.2299 51.6682C57.2302 51.8127 57.2306 51.9572 57.2309 52.1061C57.1663 52.6941 56.9758 53.074 56.5431 53.4742C56.1582 53.734 55.8697 53.8039 55.4159 53.8033C55.2687 53.8035 55.2687 53.8035 55.1186 53.8038C54.9577 53.8031 54.9577 53.8031 54.7937 53.8025C54.6805 53.8025 54.5673 53.8025 54.4506 53.8025C54.0759 53.8025 53.7011 53.8015 53.3264 53.8006C53.0668 53.8004 52.8072 53.8002 52.5476 53.8001C51.8638 53.7997 51.1801 53.7985 50.4964 53.7972C49.7989 53.796 49.1013 53.7955 48.4038 53.7949C47.0349 53.7936 45.6659 53.7916 44.297 53.7892C44.3357 53.9052 44.3743 54.0212 44.4142 54.1407C44.6592 54.2661 44.6592 54.2661 44.9562 54.3605C45.9266 54.7282 46.568 55.2344 47.1095 56.1329C47.1095 56.2103 47.1095 56.2876 47.1095 56.3673C47.2634 56.3605 47.4174 56.3537 47.576 56.3467C47.7794 56.3412 47.9828 56.3359 48.1862 56.3307C48.2875 56.3258 48.3887 56.3209 48.4931 56.3158C49.0261 56.3056 49.2591 56.3089 49.6963 56.6406C49.922 56.9532 49.922 56.9532 49.9952 57.3048C49.8938 57.7918 49.7305 57.9401 49.3361 58.2423C48.9549 58.3282 48.5818 58.3224 48.1923 58.3181C48.0205 58.3197 48.0205 58.3197 47.8451 58.3212C47.4668 58.3238 47.0886 58.3221 46.7103 58.3201C46.4472 58.3205 46.1841 58.3211 45.921 58.3218C45.3697 58.3227 44.8185 58.3214 44.2672 58.3187C43.5606 58.3154 42.8541 58.3173 42.1475 58.3208C41.6043 58.3229 41.061 58.3222 40.5177 58.3207C40.2572 58.3203 39.9967 58.3208 39.7361 58.3222C39.372 58.3237 39.008 58.3214 38.6439 58.3181C38.5362 58.3193 38.4286 58.3205 38.3176 58.3217C37.7926 58.313 37.569 58.2951 37.1403 57.9666C36.9142 57.6564 36.9142 57.6564 36.841 57.3048C36.9425 56.8173 37.1038 56.668 37.5001 56.3673C37.8863 56.2967 38.2591 56.3117 38.65 56.3307C38.7536 56.3333 38.8571 56.336 38.9638 56.3387C39.2182 56.3456 39.4725 56.3561 39.7267 56.3673C39.7616 56.2765 39.7965 56.1857 39.8324 56.0922C40.2009 55.2017 41.0831 54.6222 41.9533 54.2579C42.1079 54.2579 42.2626 54.2579 42.422 54.2579C42.422 54.1032 42.422 53.9486 42.422 53.7892C38.4388 53.7892 34.4556 53.7892 30.3517 53.7892C30.3904 53.9052 30.429 54.0212 30.4689 54.1407C30.7029 54.249 30.7029 54.249 30.9889 54.3312C31.7369 54.6095 32.2764 55.0807 32.8126 55.6642C32.8602 55.7705 32.9078 55.8769 32.9568 55.9865C33.1325 56.2665 33.1325 56.2665 33.3794 56.2998C33.6556 56.3175 33.9275 56.3202 34.2042 56.316C35.1749 56.3059 35.1749 56.3059 35.6265 56.587C35.8997 56.8791 35.967 57.0237 35.9767 57.422C35.852 57.8688 35.7862 57.9786 35.3908 58.2423C35.1643 58.2725 35.1643 58.2725 34.9031 58.2736C34.8039 58.2746 34.7046 58.2756 34.6024 58.2767C34.4939 58.2766 34.3854 58.2765 34.2736 58.2764C34.1591 58.2771 34.0445 58.2779 33.9265 58.2787C33.547 58.281 33.1675 58.2814 32.7879 58.2817C32.5245 58.2824 32.261 58.2832 31.9975 58.284C31.4449 58.2854 30.8922 58.2859 30.3396 58.2857C29.6311 58.2857 28.9228 58.2889 28.2144 58.293C27.6701 58.2956 27.1258 58.296 26.5815 58.2959C26.3203 58.2962 26.0592 58.2972 25.798 58.299C25.4327 58.3013 25.0675 58.3007 24.7023 58.2992C24.5942 58.3006 24.4862 58.3019 24.3749 58.3032C23.8821 58.2984 23.6223 58.2842 23.195 58.019C22.9524 57.7556 22.8888 57.6573 22.8956 57.3048C22.8941 57.2275 22.8926 57.1501 22.8911 57.0704C23.0184 56.687 23.2094 56.5691 23.5548 56.3673C23.9024 56.3212 24.245 56.3364 24.5949 56.3453C25.3211 56.347 25.3211 56.347 25.9517 56.0341C26.1514 55.7627 26.1514 55.7627 26.316 55.4719C26.6738 54.8847 27.3483 54.4412 28.0079 54.2579C28.1626 54.2579 28.3173 54.2579 28.4767 54.2579C28.4767 54.1032 28.4767 53.9486 28.4767 53.7892C24.4935 53.7892 20.5103 53.7892 16.4064 53.7892C16.4064 53.9439 16.4064 54.0986 16.4064 54.2579C16.4982 54.2628 16.5901 54.2676 16.6847 54.2726C17.6159 54.4974 18.4757 55.0761 18.9845 55.8986C19.0263 56.0541 19.0657 56.2103 19.1017 56.3673C19.2556 56.3605 19.4096 56.3537 19.5682 56.3467C19.7715 56.3412 19.9749 56.3359 20.1784 56.3307C20.2796 56.3258 20.3809 56.3209 20.4853 56.3158C21.0154 56.3057 21.2516 56.3101 21.6885 56.6365C21.9142 56.9532 21.9142 56.9532 21.9874 57.3707C21.9142 57.7736 21.9142 57.7736 21.6882 58.0293C21.1818 58.3289 20.7611 58.3081 20.1827 58.303C20.0105 58.3042 20.0105 58.3042 19.8349 58.3055C19.456 58.3075 19.0773 58.3061 18.6984 58.3046C18.435 58.3049 18.1716 58.3053 17.9082 58.3059C17.3564 58.3066 16.8047 58.3056 16.2529 58.3034C15.5453 58.3008 14.8377 58.3023 14.1301 58.3051C13.5863 58.3068 13.0426 58.3062 12.4988 58.305C12.2378 58.3047 11.9769 58.3051 11.7159 58.3062C11.3515 58.3074 10.9872 58.3056 10.6227 58.303C10.5147 58.3039 10.4066 58.3049 10.2953 58.3058C9.56641 58.2961 9.56641 58.2961 9.19416 58.0257C8.9705 57.6951 8.91452 57.4695 8.90638 57.0704C9.15604 56.5354 9.15604 56.5354 9.49232 56.3673C9.65658 56.3578 9.82125 56.3546 9.98579 56.3549C10.0834 56.3532 10.181 56.3515 10.2815 56.3497C10.4869 56.3468 10.6923 56.3462 10.8977 56.3479C11.1866 56.3405 11.4396 56.3255 11.7189 56.2501C12.0062 55.9321 12.0062 55.9321 12.1876 55.547C12.7733 54.9067 13.3557 54.5065 14.1835 54.2447C14.2596 54.2104 14.3357 54.1761 14.4142 54.1407C14.4529 54.0247 14.4915 53.9087 14.5314 53.7892C14.3377 53.7904 14.3377 53.7904 14.1402 53.7916C12.9229 53.7987 11.7055 53.8039 10.4882 53.8074C9.8624 53.8092 9.23659 53.8117 8.61078 53.8157C8.00671 53.8195 7.40266 53.8216 6.79858 53.8225C6.56824 53.8232 6.3379 53.8245 6.10757 53.8264C5.78467 53.8289 5.46184 53.8293 5.13893 53.8291C4.99643 53.831 4.99643 53.831 4.85106 53.8329C4.28017 53.8298 3.8945 53.7505 3.39857 53.4376C2.97439 52.9791 2.79946 52.6285 2.79375 52.0069C2.79262 51.908 2.79149 51.809 2.79033 51.707C2.78984 51.6005 2.78934 51.4939 2.78883 51.3841C2.78816 51.2741 2.78749 51.1642 2.7868 51.0509C2.78569 50.8182 2.78493 50.5855 2.78448 50.3529C2.78334 49.9974 2.7797 49.6421 2.77601 49.2866C2.77524 49.0605 2.77463 48.8344 2.77418 48.6082C2.77273 48.5021 2.77128 48.396 2.76979 48.2867C2.77179 47.7216 2.78947 47.3307 3.16419 46.8751C3.5265 46.694 3.81977 46.7235 4.21888 46.7579C4.47694 46.9277 4.47694 46.9277 4.68763 47.2267C4.75197 47.5844 4.74216 47.9355 4.73341 48.2979C4.73274 48.4012 4.73208 48.5046 4.7314 48.6111C4.72878 48.9407 4.72289 49.2702 4.71693 49.5997C4.71457 49.8234 4.71244 50.0471 4.71052 50.2708C4.70535 50.8187 4.69727 51.3664 4.68763 51.9142C5.15169 51.9142 5.61575 51.9142 6.09388 51.9142C6.09388 45.6107 6.09388 39.3072 6.09388 32.8126C5.62982 32.8126 5.16575 32.8126 4.68763 32.8126C4.68958 33.0199 4.68958 33.0199 4.69157 33.2313C4.70345 34.5332 4.71223 35.835 4.71799 37.1369C4.72105 37.8062 4.72519 38.4755 4.73183 39.1448C4.7382 39.7906 4.7417 40.4365 4.74322 41.0823C4.74431 41.3288 4.74642 41.5753 4.74958 41.8217C4.75383 42.1669 4.75442 42.5118 4.75415 42.857C4.75731 43.0099 4.75731 43.0099 4.76053 43.166C4.75618 43.677 4.73296 43.885 4.41706 44.3064C4.10169 44.5314 4.10169 44.5314 3.67689 44.5314C3.30296 44.4206 3.15225 44.3716 2.92982 44.0626C2.73286 43.6687 2.79754 43.2236 2.79933 42.7904C2.79931 42.683 2.79929 42.5755 2.79927 42.4648C2.79935 42.1084 2.80027 41.752 2.80118 41.3957C2.8014 41.1491 2.80157 40.9024 2.80169 40.6558C2.80214 40.0058 2.80329 39.3557 2.80458 38.7057C2.80578 38.0428 2.80632 37.3798 2.80691 36.7169C2.80816 35.4155 2.81017 34.114 2.81263 32.8126C2.68543 32.8181 2.55824 32.8235 2.42719 32.8291C2.25782 32.8335 2.08845 32.8378 1.91907 32.8419C1.83554 32.8458 1.752 32.8498 1.66593 32.8538C1.05514 32.865 0.718449 32.7479 0.234504 32.3439C-0.063479 31.8969 -0.0398679 31.5273 -0.0433586 31.0086C-0.0444166 30.9119 -0.0454764 30.8152 -0.0465665 30.7156C-0.0482663 30.511 -0.0493057 30.3064 -0.0497386 30.1018C-0.0511302 29.79 -0.0568913 29.4785 -0.0628135 29.1668C-0.063923 28.9677 -0.0647706 28.7687 -0.0653312 28.5696C-0.0676202 28.4769 -0.0699073 28.3843 -0.0722656 28.2888C-0.0685318 27.8276 -0.0292392 27.512 0.253244 27.1379C0.773546 26.666 1.28127 26.5723 1.97051 26.5728C2.10458 26.5724 2.23865 26.5719 2.37678 26.5714C2.52292 26.5721 2.66906 26.5728 2.81963 26.5735C2.97734 26.5734 3.13504 26.5732 3.29274 26.5729C3.7254 26.5724 4.15804 26.5733 4.5907 26.5745C5.05752 26.5755 5.52435 26.5752 5.99117 26.575C6.79975 26.5749 7.60832 26.5756 8.41689 26.5769C9.58595 26.5788 10.755 26.5794 11.9241 26.5797C13.8208 26.5802 15.7176 26.5818 17.6143 26.584C19.4568 26.5862 21.2992 26.5878 23.1417 26.5888C23.2553 26.5889 23.3688 26.5889 23.4859 26.589C24.0556 26.5893 24.6254 26.5896 25.1952 26.5899C29.9219 26.5923 34.6485 26.5964 39.3751 26.6017C39.3643 26.2242 39.3504 25.8468 39.3358 25.4694C39.3328 25.3629 39.3298 25.2565 39.3267 25.1467C39.2917 24.3003 39.1168 23.7788 38.5402 23.1447C38.3915 22.9622 38.2429 22.7797 38.0943 22.5972C38.0165 22.5055 37.9388 22.4139 37.8587 22.3195C37.438 21.8173 37.0455 21.2941 36.6505 20.7716C36.5751 20.6753 36.4997 20.579 36.422 20.4798C36.0173 19.9518 35.7394 19.5278 35.6251 18.8673C35.7276 18.4573 35.8739 18.1848 36.2111 17.9298C36.5572 17.8844 36.5572 17.8844 36.9858 17.8825C37.064 17.8817 37.1421 17.8809 37.2227 17.88C37.481 17.8779 37.7393 17.8783 37.9977 17.879C38.1774 17.8785 38.357 17.8778 38.5367 17.8771C38.9133 17.8761 39.2899 17.8764 39.6665 17.8775C40.149 17.8789 40.6314 17.8765 41.1139 17.8731C41.485 17.8709 41.856 17.871 42.2271 17.8716C42.405 17.8717 42.5828 17.871 42.7607 17.8695C43.0096 17.8678 43.2582 17.869 43.5071 17.871C43.6486 17.871 43.7902 17.8711 43.936 17.8711C44.3669 17.9412 44.5002 18.0598 44.7658 18.3986C44.9337 18.7345 44.9188 18.9624 44.8829 19.3361C44.6925 19.6771 44.6925 19.6771 44.4142 20.0465C44.3636 20.1146 44.3131 20.1826 44.261 20.2527C44.0796 20.4956 43.8955 20.7361 43.7111 20.9767C43.5514 21.1865 43.3918 21.3963 43.2322 21.6061C42.9838 21.9326 42.735 22.2588 42.4847 22.5839C42.3326 22.7819 42.1814 22.9807 42.0313 23.1803C41.8761 23.3849 41.7147 23.5847 41.5513 23.7828C41.2772 24.316 41.2884 24.8241 41.2794 25.4152C41.2698 25.8067 41.2601 26.1983 41.2501 26.6017C42.681 26.6017 44.1118 26.6017 45.5861 26.6017C45.5806 25.9216 45.5752 25.2415 45.5696 24.5408C45.5672 24.1082 45.5649 23.6757 45.5632 23.2431C45.5604 22.5575 45.5571 21.8719 45.5507 21.1863C45.5456 20.6331 45.5428 20.08 45.5416 19.5268C45.5407 19.3165 45.5391 19.1061 45.5365 18.8958C45.5193 17.4129 45.6333 16.3305 46.5405 15.104C46.7579 14.8829 46.7579 14.8829 46.962 14.786C47.2326 14.6471 47.3899 14.5384 47.5783 14.297C47.6865 13.7257 47.6606 13.1612 47.6368 12.5831C47.6337 12.4251 47.631 12.267 47.6286 12.1089C47.6248 11.3153 47.6248 11.3153 47.4611 10.547C47.4303 10.0299 47.4339 9.51215 47.4318 8.99426C47.4281 8.78059 47.4281 8.78059 47.4244 8.56259C47.4184 7.17551 47.4184 7.17551 47.8126 6.56262C48.4087 5.98888 49.0232 6.02284 49.8048 6.03528ZM49.3361 7.96887C49.3361 8.62629 49.3361 9.28372 49.3361 9.96106C49.6454 9.96106 49.9548 9.96106 50.2736 9.96106C50.2736 9.30364 50.2736 8.64622 50.2736 7.96887C49.9642 7.96887 49.6548 7.96887 49.3361 7.96887ZM49.5704 11.8361C49.5693 11.9366 49.5683 12.037 49.5671 12.1406C49.562 12.5145 49.5547 12.8884 49.5461 13.2623C49.5428 13.4239 49.5403 13.5855 49.5387 13.7472C49.5362 13.9799 49.5305 14.2126 49.5247 14.4453C49.521 14.6552 49.521 14.6552 49.5172 14.8693C49.4412 15.3035 49.3255 15.4338 48.9845 15.7032C48.8733 15.7733 48.7621 15.8434 48.6476 15.9156C48.1159 16.2878 47.6689 16.7205 47.4611 17.3439C47.4611 17.8853 47.4611 18.4267 47.4611 18.9845C49.0466 18.9845 50.6322 18.9845 52.2658 18.9845C52.2658 17.8876 52.2541 17.329 51.7311 16.4503C51.3679 16.0965 50.9667 15.8702 50.5249 15.625C50.2736 15.4689 50.2736 15.4689 50.1564 15.2345C50.1383 14.9794 50.1271 14.7238 50.1193 14.4682C50.1144 14.3156 50.1095 14.1631 50.1044 14.0059C50.0998 13.8441 50.0951 13.6824 50.0905 13.5206C50.0854 13.358 50.0803 13.1953 50.0751 13.0327C50.0627 12.6338 50.0507 12.2349 50.0392 11.8361C49.8845 11.8361 49.7298 11.8361 49.5704 11.8361ZM38.4376 19.8048C38.8545 20.4302 39.2601 21.0329 39.712 21.6285C39.8036 21.7495 39.8951 21.8705 39.9894 21.9952C40.0574 22.0845 40.1254 22.1738 40.1954 22.2657C40.6607 21.8192 41.0653 21.345 41.4625 20.8375C41.5214 20.7639 41.5802 20.6902 41.6408 20.6144C41.9612 20.2529 41.9612 20.2529 42.0704 19.8048C40.8716 19.8048 39.6728 19.8048 38.4376 19.8048ZM47.4611 20.8595C47.4611 21.5169 47.4611 22.1743 47.4611 22.8517C49.0466 22.8517 50.6322 22.8517 52.2658 22.8517C52.2658 22.1943 52.2658 21.5368 52.2658 20.8595C50.6802 20.8595 49.0947 20.8595 47.4611 20.8595ZM47.4611 24.7267C47.4611 25.3454 47.4611 25.9642 47.4611 26.6017C49.0466 26.6017 50.6322 26.6017 52.2658 26.6017C52.2658 25.9829 52.2658 25.3642 52.2658 24.7267C50.6802 24.7267 49.0947 24.7267 47.4611 24.7267ZM1.75794 28.4767C1.75794 29.2888 1.75794 30.1009 1.75794 30.9376C2.09158 30.9382 2.09158 30.9382 2.43196 30.9388C7.70811 30.948 12.9843 30.9585 18.2604 30.9704C18.9093 30.9719 19.5583 30.9734 20.2072 30.9748C20.401 30.9752 20.401 30.9753 20.5988 30.9757C22.6926 30.9804 24.7865 30.9842 26.8803 30.9877C29.0277 30.9914 31.1751 30.9959 33.3225 31.0012C34.6482 31.0045 35.974 31.0071 37.2998 31.0088C38.2081 31.01 39.1164 31.0121 40.0247 31.0149C40.5492 31.0164 41.0738 31.0176 41.5984 31.0178C42.0782 31.018 42.558 31.0192 43.0379 31.0213C43.2118 31.0219 43.3858 31.0221 43.5598 31.0218C43.7956 31.0215 44.0313 31.0228 44.2671 31.0241C44.3983 31.0244 44.5295 31.0247 44.6646 31.025C44.9981 31.0546 45.1917 31.1053 45.4689 31.2892C45.6335 31.6184 45.6152 31.862 45.5861 32.2267C45.4475 32.4802 45.4475 32.4802 45.2345 32.6954C44.9519 32.7544 44.9519 32.7544 44.6093 32.7549C44.4787 32.7563 44.3482 32.7576 44.2138 32.759C44.0698 32.7581 43.9258 32.7572 43.7775 32.7563C43.5488 32.7576 43.5488 32.7576 43.3154 32.7589C42.8913 32.7613 42.4673 32.7608 42.0432 32.7597C41.5861 32.7592 41.1291 32.7613 40.6721 32.7631C39.8801 32.7658 39.088 32.7668 38.2959 32.7667C37.1507 32.7665 36.0054 32.7689 34.8602 32.7719C33.0023 32.7767 31.1443 32.7794 29.2864 32.7809C27.4813 32.7822 25.6762 32.7846 23.8712 32.7883C23.7588 32.7885 23.6465 32.7888 23.5307 32.789C22.652 32.7908 21.7734 32.7926 20.8947 32.7945C16.5861 32.8036 12.2775 32.8078 7.96888 32.8126C7.96888 39.1161 7.96888 45.4197 7.96888 51.9142C10.1345 51.9142 12.3001 51.9142 14.5314 51.9142C14.5314 51.2568 14.5314 50.5993 14.5314 49.922C14.3619 49.919 14.1924 49.916 14.0178 49.9128C13.7935 49.9062 13.5692 49.8995 13.3449 49.8927C13.2334 49.891 13.1219 49.8894 13.007 49.8877C12.1228 49.857 11.7055 49.692 11.089 49.0431C10.7811 48.3799 10.7709 47.6743 10.9718 46.9699C11.2823 46.328 11.6132 46.2834 12.3048 45.9376C13.0396 45.8989 13.7743 45.8603 14.5314 45.8204C14.5314 44.1575 14.5314 42.4947 14.5314 40.7814C13.2518 40.7568 13.2518 40.7568 11.9722 40.7359C11.8105 40.7321 11.6489 40.7282 11.4873 40.7242C11.4048 40.7234 11.3224 40.7227 11.2375 40.7219C10.6901 40.7061 10.3112 40.597 9.84388 40.3126C9.21114 39.6362 9.34965 38.7426 9.34583 37.8737C9.34342 37.7373 9.341 37.601 9.33851 37.4605C9.33238 36.1151 9.33238 36.1151 9.72669 35.5079C10.284 35.1516 10.7788 35.1053 11.4236 35.109C11.5695 35.1078 11.5695 35.1078 11.7184 35.1066C12.0384 35.1044 12.3583 35.1049 12.6784 35.1056C12.9016 35.105 13.1249 35.1044 13.3481 35.1037C13.8155 35.1027 14.2828 35.1029 14.7501 35.1041C15.3483 35.1054 15.9464 35.1031 16.5446 35.0997C17.0054 35.0975 17.4662 35.0975 17.9271 35.0982C18.1476 35.0982 18.3681 35.0975 18.5887 35.0961C18.8972 35.0943 19.2056 35.0956 19.5141 35.0976C19.6047 35.0964 19.6953 35.0953 19.7887 35.0941C20.3967 35.1024 20.7416 35.2425 21.2111 35.6251C21.6246 36.1794 21.489 36.9798 21.4889 37.6427C21.4894 37.894 21.4936 38.1451 21.4981 38.3964C21.4988 38.5576 21.4992 38.7187 21.4995 38.8798C21.5004 39.0254 21.5014 39.1709 21.5024 39.3208C21.4333 39.8131 21.3039 40.057 20.9767 40.4298C20.4545 40.6849 19.9312 40.7032 19.359 40.7127C19.2836 40.7148 19.2083 40.7168 19.1307 40.719C18.8525 40.7263 18.5743 40.7318 18.296 40.7374C17.6724 40.7519 17.0489 40.7664 16.4064 40.7814C16.4064 42.4443 16.4064 44.1072 16.4064 45.8204C17.1411 45.8591 17.8759 45.8978 18.6329 45.9376C19.3142 46.2782 19.71 46.503 20.0172 47.212C20.0826 47.9527 20.0668 48.4433 19.7531 49.1182C19.4026 49.5363 18.9953 49.7637 18.4638 49.8528C18.151 49.8767 17.8407 49.8877 17.527 49.8927C17.4189 49.8962 17.3108 49.8997 17.1995 49.9032C16.9352 49.9114 16.6708 49.917 16.4064 49.922C16.4064 50.5794 16.4064 51.2368 16.4064 51.9142C20.3896 51.9142 24.3728 51.9142 28.4767 51.9142C28.4767 51.2568 28.4767 50.5993 28.4767 49.922C28.317 49.919 28.1573 49.916 27.9928 49.9128C27.7806 49.9062 27.5683 49.8995 27.3561 49.8927C27.2512 49.891 27.1463 49.8894 27.0382 49.8877C26.3297 49.8617 25.8897 49.7561 25.3126 49.3361C24.8842 48.8346 24.7724 48.2358 24.8068 47.5901C24.8909 47.0318 25.1311 46.6743 25.547 46.3112C26.4846 45.6275 27.0602 45.895 28.4767 45.8204C28.4767 44.1575 28.4767 42.4947 28.4767 40.7814C27.241 40.7568 27.241 40.7568 26.0052 40.7359C25.8486 40.7321 25.6921 40.7282 25.5356 40.7242C25.4563 40.7234 25.377 40.7227 25.2952 40.7219C24.7233 40.7049 24.2891 40.5914 23.7892 40.3126C23.2596 39.6929 23.3765 38.8896 23.3789 38.1189C23.379 37.8601 23.3742 37.6017 23.369 37.3429C23.3684 37.1769 23.368 37.011 23.368 36.8451C23.3672 36.6954 23.3664 36.5457 23.3655 36.3914C23.4605 35.845 23.6305 35.659 24.0236 35.2736C24.4626 35.1272 24.8717 35.1391 25.329 35.1393C25.4749 35.1388 25.4749 35.1388 25.6236 35.1382C25.9455 35.137 26.2674 35.1368 26.5893 35.1367C26.8131 35.1363 27.0369 35.1359 27.2606 35.1355C27.73 35.1348 28.1995 35.1346 28.6689 35.1347C29.2698 35.1347 29.8707 35.1331 30.4716 35.1311C30.934 35.1297 31.3964 35.1295 31.8587 35.1296C32.0802 35.1294 32.3017 35.1289 32.5232 35.128C32.8335 35.1269 33.1436 35.1272 33.4539 35.1279C33.545 35.1272 33.6362 35.1266 33.7301 35.1259C34.2488 35.1289 34.6795 35.1815 35.1564 35.3907C35.4417 35.8448 35.4284 36.337 35.4301 36.8593C35.4309 36.9429 35.4317 37.0265 35.4325 37.1126C35.4337 37.2887 35.4342 37.4648 35.4342 37.6409C35.4347 37.9095 35.439 38.1778 35.4434 38.4463C35.4441 38.618 35.4445 38.7896 35.4448 38.9613C35.4465 39.041 35.4481 39.1208 35.4499 39.2029C35.4461 39.6014 35.3968 39.8339 35.1896 40.1774C34.6532 40.6834 34.1183 40.7013 33.4073 40.7127C33.3295 40.7148 33.2518 40.7168 33.1717 40.719C32.8836 40.7263 32.5954 40.7318 32.3073 40.7374C31.6619 40.7519 31.0166 40.7664 30.3517 40.7814C30.3517 42.4443 30.3517 44.1072 30.3517 45.8204C31.0865 45.8591 31.8212 45.8978 32.5783 45.9376C33.6739 46.4855 33.6739 46.4855 33.9113 46.9781C34.1059 47.6386 34.1116 48.3567 33.7941 48.9772C33.4384 49.4358 33.1173 49.7537 32.525 49.8531C32.1955 49.877 31.8685 49.8878 31.5382 49.8927C31.424 49.8962 31.3098 49.8997 31.1921 49.9032C30.912 49.9115 30.6319 49.917 30.3517 49.922C30.3517 50.5794 30.3517 51.2368 30.3517 51.9142C34.3349 51.9142 38.3181 51.9142 42.422 51.9142C42.422 51.2568 42.422 50.5993 42.422 49.922C42.261 49.919 42.0999 49.916 41.934 49.9128C41.7207 49.9062 41.5074 49.8995 41.2941 49.8927C41.1882 49.891 41.0823 49.8894 40.9732 49.8877C40.2891 49.8627 39.9051 49.7751 39.3751 49.3361C39.3075 49.2829 39.2398 49.2297 39.1701 49.1749C38.8161 48.7148 38.7683 48.2584 38.8038 47.6954C38.8758 47.1573 38.9976 46.813 39.3751 46.4064C40.3126 45.9376 40.3126 45.9376 42.422 45.8204C42.422 44.1575 42.422 42.4947 42.422 40.7814C41.1863 40.7568 41.1863 40.7568 39.9505 40.7359C39.794 40.7321 39.6374 40.7282 39.4809 40.7242C39.4016 40.7234 39.3223 40.7227 39.2406 40.7219C38.668 40.7049 38.2314 40.5994 37.7345 40.3126C37.3941 39.8201 37.338 39.4127 37.3363 38.8221C37.3358 38.6743 37.3353 38.5264 37.3349 38.374C37.3369 38.1445 37.3369 38.1445 37.339 37.9103C37.3376 37.7573 37.3363 37.6042 37.3349 37.4466C37.3353 37.2987 37.3358 37.1508 37.3363 36.9984C37.3366 36.8642 37.337 36.73 37.3375 36.5917C37.4023 36.0492 37.5427 35.6597 37.9786 35.3148C38.425 35.1079 38.8294 35.1063 39.3117 35.109C39.4101 35.1082 39.5085 35.1074 39.6099 35.1066C39.9343 35.1044 40.2587 35.1049 40.5832 35.1056C40.8092 35.105 41.0353 35.1044 41.2613 35.1037C41.7349 35.1027 42.2084 35.1029 42.6819 35.1041C43.2881 35.1054 43.8943 35.1031 44.5005 35.0997C44.9672 35.0975 45.434 35.0975 45.9008 35.0982C46.1243 35.0982 46.3477 35.0975 46.5712 35.0961C46.884 35.0943 47.1966 35.0956 47.5093 35.0976C47.6012 35.0964 47.6931 35.0953 47.7878 35.0941C48.3931 35.1023 48.7381 35.2261 49.2189 35.6251C49.6127 36.3035 49.4917 37.1437 49.4899 37.903C49.4918 38.0565 49.4937 38.2101 49.4956 38.3683C49.4957 38.5167 49.4957 38.6651 49.4958 38.818C49.4963 39.0205 49.4963 39.0205 49.4969 39.227C49.4456 39.6765 49.3599 39.9398 49.1017 40.3126C48.5227 40.6482 47.9868 40.7183 47.3297 40.7242C47.2522 40.7261 47.1747 40.7281 47.0948 40.7301C46.8092 40.7368 46.5236 40.7406 46.2379 40.7448C45.2772 40.7629 45.2772 40.7629 44.297 40.7814C44.297 42.4443 44.297 44.1072 44.297 45.8204C45.0318 45.8591 45.7665 45.8978 46.5236 45.9376C47.6405 46.4961 47.6405 46.4961 47.9298 47.1095C48.0992 47.7436 48.0843 48.2869 47.8236 48.8916C47.5669 49.3124 47.1975 49.585 46.7579 49.8048C46.5713 49.8226 46.384 49.834 46.1967 49.8419C46.0313 49.8493 46.0313 49.8493 45.8626 49.8568C45.7471 49.8614 45.6317 49.866 45.5128 49.8707C45.3383 49.8783 45.3383 49.8783 45.1603 49.8861C44.8726 49.8985 44.5848 49.9103 44.297 49.922C44.297 50.5794 44.297 51.2368 44.297 51.9142C46.8493 51.9142 49.4017 51.9142 52.0314 51.9142C52.0314 45.6107 52.0314 39.3072 52.0314 32.8126C50.8326 32.774 49.6337 32.7353 48.3986 32.6954C48.0294 32.2032 47.9853 32.1036 48.047 31.5236C48.2814 31.172 48.2814 31.172 48.6329 31.0548C48.9412 31.0408 49.2466 31.0331 49.555 31.0307C49.6956 31.029 49.6956 31.029 49.8391 31.0272C50.1492 31.0235 50.4593 31.0206 50.7693 31.0177C50.9843 31.0153 51.1992 31.0129 51.4142 31.0104C51.98 31.0039 52.5458 30.9981 53.1116 30.9924C53.689 30.9866 54.2663 30.98 54.8437 30.9736C55.9765 30.961 57.1094 30.9491 58.2423 30.9376C58.2423 30.1255 58.2423 29.3134 58.2423 28.4767C39.6025 28.4767 20.9626 28.4767 1.75794 28.4767ZM53.9064 32.8126C53.9064 39.1161 53.9064 45.4197 53.9064 51.9142C54.3704 51.9142 54.8345 51.9142 55.3126 51.9142C55.3126 45.6107 55.3126 39.3072 55.3126 32.8126C54.8486 32.8126 54.3845 32.8126 53.9064 32.8126ZM11.1329 36.9142C11.1329 37.5716 11.1329 38.229 11.1329 38.9064C13.956 38.9064 16.779 38.9064 19.6876 38.9064C19.6876 38.249 19.6876 37.5915 19.6876 36.9142C16.8646 36.9142 14.0415 36.9142 11.1329 36.9142ZM25.1954 36.9142C25.1954 37.5716 25.1954 38.229 25.1954 38.9064C27.9798 38.9064 30.7642 38.9064 33.6329 38.9064C33.6329 38.249 33.6329 37.5915 33.6329 36.9142C30.8486 36.9142 28.0642 36.9142 25.1954 36.9142ZM39.1408 36.9142C39.1408 37.5716 39.1408 38.229 39.1408 38.9064C41.9638 38.9064 44.7868 38.9064 47.6954 38.9064C47.6954 38.249 47.6954 37.5915 47.6954 36.9142C44.8724 36.9142 42.0493 36.9142 39.1408 36.9142ZM12.6564 47.6954C12.6564 47.8115 12.6564 47.9275 12.6564 48.047C13.2751 48.047 13.8939 48.047 14.5314 48.047C14.5314 47.931 14.5314 47.815 14.5314 47.6954C13.9126 47.6954 13.2939 47.6954 12.6564 47.6954ZM16.4064 47.6954C16.4064 47.8115 16.4064 47.9275 16.4064 48.047C17.0251 48.047 17.6439 48.047 18.2814 48.047C18.2427 47.931 18.204 47.815 18.1642 47.6954C17.5841 47.6954 17.004 47.6954 16.4064 47.6954ZM26.7189 47.6954C26.6802 47.8115 26.6415 47.9275 26.6017 48.047C27.2204 48.047 27.8392 48.047 28.4767 48.047C28.4767 47.931 28.4767 47.815 28.4767 47.6954C27.8966 47.6954 27.3165 47.6954 26.7189 47.6954ZM30.3517 47.6954C30.3517 47.8115 30.3517 47.9275 30.3517 48.047C30.9704 48.047 31.5892 48.047 32.2267 48.047C32.188 47.931 32.1493 47.815 32.1095 47.6954C31.5294 47.6954 30.9493 47.6954 30.3517 47.6954ZM40.6642 47.6954C40.6642 47.8115 40.6642 47.9275 40.6642 48.047C41.2443 48.047 41.8243 48.047 42.422 48.047C42.422 47.931 42.422 47.815 42.422 47.6954C41.8419 47.6954 41.2618 47.6954 40.6642 47.6954ZM44.297 47.6954C44.297 47.8115 44.297 47.9275 44.297 48.047C44.9158 48.047 45.5345 48.047 46.172 48.047C46.172 47.931 46.172 47.815 46.172 47.6954C45.5533 47.6954 44.9345 47.6954 44.297 47.6954ZM14.297 56.2501C14.297 56.2888 14.297 56.3275 14.297 56.3673C15.0704 56.3673 15.8439 56.3673 16.6408 56.3673C16.1452 55.9956 16.0519 55.9697 15.4689 55.9791C15.2876 55.9798 15.2876 55.9798 15.1027 55.9805C14.7744 56.0148 14.5769 56.0813 14.297 56.2501ZM28.2423 56.3673C29.0158 56.3673 29.7892 56.3673 30.5861 56.3673C30.0932 55.9976 29.9949 55.9674 29.4142 55.9718C29.2329 55.9704 29.2329 55.9704 29.048 55.9691C28.6597 55.9951 28.6597 55.9951 28.2423 56.3673ZM42.1876 56.2501C42.1876 56.2888 42.1876 56.3275 42.1876 56.3673C42.9997 56.3673 43.8118 56.3673 44.6486 56.3673C43.9492 55.6679 43.0116 55.9302 42.1876 56.2501Z" fill="#C08F4F"/>
<path d="M6.4514 1.7301C6.54636 1.72915 6.64132 1.7282 6.73916 1.72723C6.94062 1.72561 7.14208 1.72435 7.34355 1.72343C7.65147 1.72141 7.95924 1.71627 8.26711 1.7111C8.46266 1.70991 8.6582 1.70891 8.85374 1.70812C8.9458 1.70607 9.03785 1.70402 9.1327 1.70191C9.55238 1.70357 9.79621 1.72334 10.1401 1.97354C10.3126 2.22677 10.3126 2.22677 10.3126 2.57833C11.7048 2.57833 13.097 2.57833 14.5314 2.57833C14.5701 2.42364 14.6087 2.26896 14.6486 2.10958C14.7713 1.90794 14.7713 1.90794 15.0001 1.75802C15.3309 1.72021 15.6354 1.70317 15.9665 1.70309C16.1084 1.70175 16.1084 1.70175 16.2532 1.70038C16.4533 1.69912 16.6534 1.69878 16.8534 1.69931C17.1593 1.69943 17.4649 1.69455 17.7707 1.68935C17.9652 1.68874 18.1597 1.68843 18.3542 1.68844C18.4455 1.68652 18.5368 1.6846 18.6309 1.68262C19.0929 1.6885 19.2922 1.71604 19.6318 2.04069C19.8048 2.34396 19.8048 2.34396 19.8048 2.57833C21.197 2.57833 22.5892 2.57833 24.0236 2.57833C24.0622 2.38497 24.1009 2.19161 24.1408 1.99239C24.4448 1.68834 24.6572 1.72771 25.0716 1.72245C25.2143 1.72261 25.2143 1.72261 25.3598 1.72277C25.4575 1.72227 25.5551 1.72177 25.6558 1.72125C25.8625 1.72058 26.0693 1.72052 26.2761 1.72103C26.5927 1.7214 26.9092 1.71865 27.2259 1.71568C27.4266 1.71541 27.6273 1.71533 27.828 1.71545C27.9229 1.71437 28.0178 1.71329 28.1155 1.71218C28.7776 1.71765 28.7776 1.71765 29.0245 1.91455C29.1798 2.10958 29.1798 2.10958 29.297 2.46114C29.3968 2.46156 29.3968 2.46156 29.4985 2.46199C31.1172 2.46893 32.736 2.4778 34.3547 2.48877C35.1375 2.49401 35.9203 2.49861 36.7031 2.50174C37.4584 2.50479 38.2136 2.50952 38.9689 2.51542C39.2572 2.51738 39.5455 2.51873 39.8339 2.51946C40.2374 2.52058 40.6408 2.52387 41.0442 2.52766C41.1637 2.5275 41.2833 2.52733 41.4064 2.52715C42.4291 2.54078 42.4291 2.54078 42.8908 2.92989C43.2971 3.51812 43.2959 4.0648 43.2863 4.75362C43.2876 4.85174 43.289 4.94985 43.2904 5.05094C43.2869 5.77391 43.1649 6.16189 42.6529 6.69157C42.1692 7.00102 41.7763 6.9839 41.2131 6.98064C41.056 6.98173 41.056 6.98173 40.8958 6.98285C40.675 6.98368 40.4543 6.98331 40.2336 6.98182C39.8958 6.98019 39.5584 6.98419 39.2206 6.98866C39.0059 6.98877 38.7911 6.98855 38.5763 6.98797C38.4755 6.98952 38.3747 6.99108 38.2708 6.99268C37.5733 6.98181 37.5733 6.98181 37.2022 6.63912C36.9933 6.25906 36.9586 6.05252 37.0314 5.62521C37.2502 5.35535 37.4247 5.19416 37.7345 5.03927C38.0069 5.02921 38.2795 5.02672 38.5521 5.02783C38.6324 5.02799 38.7127 5.02816 38.7954 5.02833C39.0521 5.02898 39.3088 5.03046 39.5656 5.03194C39.7395 5.03253 39.9135 5.03307 40.0874 5.03355C40.514 5.03484 40.9407 5.03686 41.3673 5.03927C41.3673 4.84591 41.3673 4.65255 41.3673 4.45333C28.2962 4.45333 15.2251 4.45333 1.75794 4.45333C1.75794 4.64669 1.75794 4.84005 1.75794 5.03927C1.86027 5.03907 1.86027 5.03907 1.96466 5.03886C6.00618 5.031 10.0477 5.02497 14.0892 5.02132C14.5743 5.02088 15.0594 5.02042 15.5445 5.01996C15.6894 5.01982 15.6894 5.01982 15.8371 5.01968C17.4016 5.01815 18.9661 5.01538 20.5305 5.01215C22.1353 5.00886 23.7402 5.00691 25.345 5.00619C26.3356 5.00571 27.3261 5.00418 28.3167 5.00133C28.9956 4.99947 29.6746 4.99891 30.3535 4.99937C30.7454 4.99959 31.1373 4.99905 31.5292 4.99736C31.954 4.99562 32.3786 4.99603 32.8033 4.99699C32.9896 4.99546 32.9896 4.99546 33.1795 4.99389C34.232 5.00036 34.232 5.00036 34.6876 5.39083C34.8548 5.7252 34.8412 5.95738 34.8048 6.32833C34.5762 6.69341 34.4525 6.88613 34.0261 6.98918C33.9085 6.98996 33.7909 6.99074 33.6697 6.99155C33.536 6.99385 33.4023 6.99615 33.2645 6.99852C33.1208 6.99806 32.9772 6.9976 32.8291 6.99712C32.6815 6.9989 32.5339 7.00067 32.3818 7.00249C31.9903 7.00668 31.599 7.00836 31.2074 7.00883C30.8076 7.00992 30.4078 7.0143 30.0079 7.01841C29.2241 7.02579 28.4403 7.02987 27.6564 7.03146C27.7013 7.08895 27.7463 7.14644 27.7926 7.20568C29.4301 9.30188 29.4301 9.30188 30.2052 10.364C30.2741 10.4577 30.343 10.5514 30.4139 10.648C31.233 11.7649 31.233 11.7649 31.2173 12.4216C31.1393 12.8259 30.9045 13.0035 30.5861 13.2424C30.2021 13.374 29.8354 13.3758 29.4317 13.3785C29.2936 13.3796 29.1555 13.3807 29.0132 13.3819C28.79 13.3826 28.79 13.3826 28.5623 13.3834C28.4088 13.3841 28.2554 13.3847 28.0973 13.3854C27.7725 13.3866 27.4477 13.3873 27.1229 13.3877C26.7084 13.3884 26.2939 13.3912 25.8794 13.3945C25.4822 13.3972 25.085 13.3975 24.6878 13.398C24.5397 13.3995 24.3916 13.4009 24.239 13.4024C23.4971 13.4005 22.9101 13.3957 22.2658 13.008C21.9654 12.5575 21.9622 12.3726 22.0314 11.8361C22.4753 11.0246 23.0936 10.2958 23.6574 9.56564C24.3009 8.72992 24.9263 7.88494 25.547 7.03146C23.1107 6.99278 20.6743 6.95411 18.1642 6.91427C19.5709 8.82421 19.5709 8.82421 20.9973 10.719C21.0684 10.8132 21.1396 10.9073 21.2129 11.0044C21.3059 11.1267 21.3059 11.1267 21.4007 11.2516C21.68 11.6535 21.8002 11.864 21.7824 12.3635C21.6703 12.8118 21.5778 12.97 21.2111 13.2424C20.8226 13.3726 20.4536 13.3758 20.0459 13.3785C19.9055 13.3796 19.765 13.3807 19.6204 13.3819C19.3933 13.3826 19.3933 13.3826 19.1617 13.3834C19.004 13.3841 18.8464 13.3847 18.6888 13.3854C18.3585 13.3866 18.0282 13.3873 17.6979 13.3877C17.2763 13.3884 16.8547 13.3912 16.4331 13.3945C16.1074 13.3967 15.7818 13.3973 15.4562 13.3975C15.2257 13.398 14.9952 13.4002 14.7647 13.4024C14.0141 13.4006 13.4298 13.3896 12.7736 13.008C12.5042 12.705 12.5395 12.524 12.5488 12.1145C12.6353 11.486 12.9824 11.101 13.3815 10.6276C13.5305 10.4439 13.6793 10.2598 13.8278 10.0756C13.9048 9.98076 13.9818 9.88593 14.0612 9.78822C14.4565 9.29225 14.8308 8.7811 15.2052 8.26925C15.275 8.17426 15.3448 8.07927 15.4168 7.9814C15.675 7.62918 15.9297 7.27774 16.172 6.91427C13.7357 6.95294 11.2994 6.99161 8.78919 7.03146C9.40794 7.84357 10.0267 8.65568 10.6642 9.49239C12.3867 11.8517 12.3867 11.8517 12.3048 12.6565C11.9869 13.0627 11.7548 13.2731 11.2501 13.3596C11.0212 13.3708 10.7919 13.3758 10.5626 13.3766C10.4242 13.3774 10.2857 13.3781 10.143 13.3789C9.99386 13.379 9.84468 13.3791 9.69099 13.3793C9.53725 13.3797 9.38352 13.38 9.22512 13.3804C8.89986 13.3811 8.57459 13.3814 8.24932 13.3813C7.83375 13.3813 7.41819 13.3829 7.00263 13.3849C6.6048 13.3865 6.20698 13.3865 5.80915 13.3866C5.66045 13.3874 5.51175 13.3883 5.35855 13.3891C5.21934 13.3888 5.08014 13.3884 4.93671 13.388C4.81478 13.3882 4.69284 13.3884 4.56721 13.3886C4.08482 13.3484 3.66649 13.2558 3.29603 12.9348C3.10254 12.5263 3.08448 12.1569 3.16419 11.719C3.35389 11.3439 3.60553 11.0284 3.86732 10.7009C3.93955 10.6069 4.01177 10.5129 4.08619 10.416C4.24155 10.2141 4.39785 10.0129 4.55499 9.81237C4.89742 9.37379 5.23296 8.93011 5.56877 8.48646C5.93775 8.0004 6.30877 7.51593 6.67982 7.03146C6.60944 7.03103 6.53906 7.0306 6.46656 7.03016C5.7327 7.02525 4.99892 7.01712 4.26512 7.00714C3.99142 7.00383 3.71771 7.00135 3.444 6.9997C3.05008 6.99718 2.65629 6.99172 2.2624 6.98568C2.14043 6.98554 2.01845 6.98539 1.89278 6.98524C1.18881 6.97109 0.767977 6.91964 0.234507 6.44552C-0.119809 5.91405 -0.0476649 5.39378 -0.0511378 4.76827C-0.0549899 4.6472 -0.058842 4.52612 -0.0628108 4.40138C-0.069866 3.40146 -0.069866 3.40146 0.281656 2.9688C0.768257 2.53196 1.12603 2.56269 1.75382 2.56185C1.94372 2.55971 2.13362 2.55741 2.32351 2.55499C2.6234 2.55159 2.92319 2.54903 3.2231 2.54898C3.51225 2.54859 3.80115 2.54455 4.09025 2.53988C4.17998 2.54071 4.26971 2.54154 4.36216 2.54239C4.64578 2.54233 4.64578 2.54233 5.03919 2.46114C5.27611 2.18532 5.27611 2.18532 5.39076 1.87521C5.62986 1.63611 6.12272 1.73316 6.4514 1.7301ZM7.61732 8.90646C7.34557 9.26967 7.07486 9.63364 6.80433 9.99776C6.72706 10.101 6.64979 10.2043 6.57018 10.3106C6.45972 10.4596 6.45972 10.4596 6.34702 10.6116C6.27891 10.7031 6.21079 10.7945 6.1406 10.8887C5.95779 11.1378 5.95779 11.1378 5.85951 11.4846C7.09701 11.4846 8.33451 11.4846 9.60951 11.4846C9.24198 10.8279 9.24198 10.8279 8.82124 10.2294C8.76565 10.1585 8.71006 10.0877 8.65278 10.0147C8.59628 9.94385 8.53979 9.87301 8.48158 9.80001C8.42417 9.72644 8.36677 9.65288 8.30763 9.57708C8.01212 9.18482 8.01212 9.18482 7.61732 8.90646ZM17.1095 8.90646C16.825 9.23712 16.5634 9.58692 16.2965 9.93185C16.1829 10.0769 16.1829 10.0769 16.0669 10.2248C15.9578 10.3653 15.9578 10.3653 15.8465 10.5086C15.7464 10.6375 15.7464 10.6375 15.6442 10.769C15.4409 11.0419 15.4409 11.0419 15.2345 11.4846C16.5107 11.4846 17.7868 11.4846 19.1017 11.4846C18.6718 10.8397 18.2491 10.2125 17.776 9.60226C17.7243 9.53435 17.6725 9.46645 17.6192 9.39649C17.4914 9.23074 17.3595 9.06824 17.2267 8.90646C17.188 8.90646 17.1493 8.90646 17.1095 8.90646ZM26.6017 8.90646C25.4235 10.0883 25.4235 10.0883 24.7267 11.4846C25.9642 11.4846 27.2017 11.4846 28.4767 11.4846C28.1951 10.9214 27.8423 10.4402 27.4733 9.93185C27.4027 9.83335 27.332 9.73486 27.2593 9.63339C27.192 9.54033 27.1247 9.44728 27.0553 9.3514C26.9936 9.26602 26.9319 9.18063 26.8683 9.09265C26.7943 9.00048 26.7943 9.00048 26.7189 8.90646C26.6802 8.90646 26.6415 8.90646 26.6017 8.90646Z" fill="#C08F4F"/>
</g>
<defs>
<clipPath id="clip0_693_48">
<rect width="60" height="60" fill="white"/>
</clipPath>
</defs>
</svg>
