<svg width="60" height="60" viewBox="0 0 60 60" fill="none" xmlns="http://www.w3.org/2000/svg">
<g clip-path="url(#clip0_702_30)">
<path d="M3.70301 52.8213C3.84101 52.8206 3.84101 52.8206 3.9818 52.82C4.29266 52.8189 4.60349 52.8195 4.91435 52.8201C5.13844 52.8196 5.36253 52.8191 5.58662 52.8185C6.20443 52.817 6.82223 52.8171 7.44004 52.8173C8.10556 52.8174 8.77107 52.8161 9.43659 52.815C10.7412 52.813 12.0459 52.8124 13.3505 52.8123C14.4106 52.8121 15.4708 52.8117 16.5309 52.8109C19.0452 52.8092 21.5595 52.8078 24.0738 52.8079C24.1543 52.8079 24.2347 52.8079 24.3176 52.8079C24.7254 52.8079 25.1331 52.8079 25.5409 52.808C25.6219 52.808 25.7029 52.808 25.7863 52.808C25.9501 52.808 26.1139 52.808 26.2777 52.808C28.8259 52.8081 31.3741 52.8064 33.9223 52.8032C36.7839 52.7996 39.6454 52.7976 42.507 52.7978C44.0226 52.7979 45.5383 52.7972 47.0539 52.7947C48.3443 52.7926 49.6347 52.792 50.9251 52.7936C51.5838 52.7944 52.2424 52.7944 52.9011 52.7924C53.5038 52.7905 54.1064 52.7909 54.7091 52.7929C54.9274 52.7933 55.1458 52.7928 55.3642 52.7915C55.6604 52.7899 55.9565 52.7911 56.2528 52.7931C56.3381 52.7919 56.4234 52.7908 56.5112 52.7896C57.1013 52.7978 57.4338 52.9535 57.8906 53.3202C58.0505 53.5209 58.0505 53.5209 58.1529 53.7235C58.1929 53.8004 58.2329 53.8773 58.2741 53.9566C58.3344 54.0802 58.3344 54.0802 58.396 54.2064C58.4397 54.2931 58.4833 54.3799 58.5283 54.4692C58.6208 54.6541 58.7124 54.8394 58.8032 55.0251C58.9469 55.3156 59.0966 55.6023 59.2475 55.8891C60.2575 57.8507 60.2575 57.8507 60 58.9452C59.7451 59.4833 59.4779 59.7458 58.9453 59.9999C58.6118 60.0331 58.3043 60.0473 57.9711 60.0444C57.8729 60.045 57.7747 60.0455 57.6735 60.0461C57.3429 60.0475 57.0124 60.0464 56.6819 60.0453C56.4431 60.0458 56.2043 60.0464 55.9655 60.0472C55.3081 60.0489 54.6508 60.0484 53.9934 60.0475C53.2849 60.047 52.5764 60.0484 51.8679 60.0496C50.5598 60.0515 49.2517 60.0518 47.9436 60.0512C46.7351 60.0507 45.5266 60.0508 44.3181 60.0515C44.1561 60.0515 43.9941 60.0516 43.8321 60.0517C43.588 60.0519 43.3439 60.052 43.0998 60.0521C40.8297 60.0534 38.5597 60.0539 36.2896 60.053C36.204 60.053 36.1184 60.0529 36.0302 60.0529C35.3351 60.0526 34.6399 60.0523 33.9448 60.052C31.2329 60.0508 28.521 60.0518 25.8091 60.0545C22.7632 60.0576 19.7174 60.0591 16.6715 60.0583C16.3469 60.0582 16.0222 60.0581 15.6976 60.058C15.6176 60.058 15.5377 60.058 15.4553 60.058C14.2476 60.0577 13.0399 60.0586 11.8322 60.0602C10.4591 60.0619 9.08594 60.062 7.71278 60.0599C7.01183 60.0589 6.3109 60.0587 5.60995 60.0605C4.96871 60.0621 4.32751 60.0615 3.68627 60.0593C3.45387 60.0588 3.22147 60.0592 2.98908 60.0604C2.6739 60.0619 2.35886 60.0606 2.04369 60.0585C1.95283 60.0596 1.86197 60.0608 1.76835 60.0619C1.16225 60.0537 0.818533 59.9137 0.351585 59.5311C-0.0402085 59.0136 -0.0851931 58.5913 -0.0683559 57.9559C0.0586784 57.1812 0.414378 56.5069 0.768922 55.8128C0.901422 55.553 1.02948 55.2914 1.15702 55.0292C1.24031 54.8612 1.32385 54.6932 1.40765 54.5255C1.44564 54.4483 1.48362 54.3711 1.52276 54.2917C2.03272 53.301 2.59428 52.8151 3.70301 52.8213Z" fill="#C08F4F"/>
<path d="M35.3758 1.68475C35.5396 1.82327 35.7006 1.96505 35.8592 2.10956C36.0031 2.23736 36.0031 2.23736 36.1498 2.36774C37.6085 3.73592 38.6627 5.6822 38.8126 7.70267C38.8235 8.05847 38.8275 8.41359 38.8282 8.76956C38.8294 8.96521 38.8294 8.96521 38.8306 9.1648C38.8318 9.43948 38.8323 9.71416 38.8323 9.98884C38.8328 10.4055 38.8371 10.8219 38.8415 11.2385C38.8422 11.5068 38.8426 11.7752 38.8429 12.0435C38.8446 12.1662 38.8462 12.2889 38.848 12.4154C38.8369 14.2412 38.0069 15.6118 36.8827 16.9887C36.8377 17.044 36.7926 17.0992 36.7462 17.1562C36.5623 17.3439 36.5623 17.3439 36.2697 17.547C35.8018 17.9083 35.4575 18.212 35.3284 18.7967C35.2386 19.6307 35.271 20.4694 35.2952 21.3063C35.3423 23.5669 35.3115 25.1924 33.6816 26.9149C32.4476 28.0798 31.047 28.3091 29.4303 28.2822C27.9845 28.2184 26.8484 27.4924 25.8763 26.4626C25.2242 25.6611 24.6957 24.642 24.7265 23.5954C24.729 23.4877 24.7316 23.3801 24.7343 23.2692C24.7371 23.1533 24.7399 23.0375 24.7428 22.9181C24.7465 22.5407 24.7489 22.1633 24.7511 21.7859C24.7541 21.5266 24.7596 21.2674 24.7677 21.0082C24.8612 19.2755 24.8612 19.2755 24.0793 17.8064C23.8201 17.5684 23.5501 17.3519 23.2683 17.1414C22.2601 16.3184 21.4584 14.7418 21.2107 13.4767C21.1749 13.0263 21.1723 12.5772 21.1714 12.1254C21.1706 11.9955 21.1698 11.8656 21.169 11.7317C21.1678 11.4571 21.1673 11.1825 21.1673 10.9079C21.1668 10.4931 21.1625 10.0784 21.1581 9.66357C21.1509 8.24698 21.1776 6.96204 21.6795 5.62518C21.7318 5.48359 21.7318 5.48359 21.7851 5.33914C21.879 5.10755 21.9821 4.88756 22.097 4.66571C22.1363 4.58852 22.1757 4.51132 22.2162 4.43179C22.6556 3.61471 23.2428 2.98412 23.906 2.34393C23.9888 2.25752 24.0716 2.17112 24.1569 2.08209C27.0926 -0.808749 32.2036 -0.680399 35.3758 1.68475Z" fill="#C08F4F"/>
<path d="M11.8414 39.7123C12.0447 39.7818 12.248 39.8514 12.4513 39.921C12.609 39.9756 12.609 39.9756 12.7699 40.0314C23.9711 43.9014 34.9568 44.1508 46.2355 40.3705C46.3408 40.3354 46.4462 40.3003 46.5547 40.2642C47.075 40.0908 47.5945 39.9153 48.1126 39.7356C48.304 39.6711 48.4954 39.6067 48.6868 39.5424C48.8152 39.4966 48.8152 39.4966 48.9461 39.4498C49.565 39.2453 50.1049 39.221 50.7422 39.3749C52.0085 40.0985 52.4566 41.7241 52.8516 43.0077C52.8516 45.096 52.8516 47.1843 52.8516 49.3358C37.7695 49.3358 22.6875 49.3358 7.14844 49.3358C7.14844 41.4608 7.14844 41.4608 8.74695 39.7557C9.67238 38.9331 10.7924 39.3416 11.8414 39.7123Z" fill="#C08F4F"/>
<path d="M38.6719 19.3359C38.8959 19.3899 39.1198 19.4443 39.3436 19.4991C39.5307 19.5445 39.5307 19.5445 39.7215 19.5908C40.1849 19.7164 40.5981 19.8916 41.0229 20.1123C41.1417 20.1732 41.1417 20.1732 41.2628 20.2353C43.2884 21.3112 44.8324 23.1333 45.52 25.3198C45.5849 25.5507 45.6464 25.7826 45.7031 26.0156C45.7239 26.0981 45.7446 26.1805 45.766 26.2654C45.8393 26.719 45.8356 27.1674 45.8336 27.6255C45.8336 27.7273 45.8336 27.8291 45.8337 27.934C45.8336 28.2694 45.8327 28.6049 45.8318 28.9403C45.8315 29.1733 45.8314 29.4063 45.8313 29.6393C45.8308 30.2517 45.8297 30.8642 45.8284 31.4766C45.8272 32.1019 45.8266 32.7272 45.826 33.3524C45.8248 34.5787 45.8228 35.805 45.8203 37.0312C42.004 38.3297 42.004 38.3297 40.3857 38.7158C40.3095 38.7344 40.2333 38.753 40.1548 38.7722C37.4089 39.4415 34.5912 39.92 31.7578 39.8438C31.9629 38.4051 32.5447 37.3049 33.6328 36.3281C34.7757 35.5241 35.8158 35.2604 37.1928 35.1279C37.6713 35.0277 37.9436 34.879 38.3203 34.5703C38.5534 34.2037 38.5847 33.9149 38.5873 33.4846C38.5886 33.3597 38.5899 33.2349 38.5913 33.1062C38.5915 32.9698 38.5918 32.8334 38.5921 32.6929C38.5938 32.4768 38.5938 32.4768 38.5956 32.2563C38.5986 31.8617 38.6006 31.4671 38.6021 31.0724C38.6039 30.6598 38.6071 30.2473 38.6101 29.8347C38.6156 29.0536 38.6199 28.2725 38.6238 27.4915C38.6282 26.6021 38.634 25.7128 38.6399 24.8235C38.652 22.9943 38.6625 21.1651 38.6719 19.3359Z" fill="#C08F4F"/>
<path d="M21.0934 19.3359C21.1707 19.3746 21.2481 19.4133 21.3278 19.4531C21.328 19.528 21.3281 19.6028 21.3283 19.6799C21.3326 21.5021 21.3396 23.3243 21.3493 25.1465C21.354 26.0276 21.3578 26.9088 21.3595 27.79C21.3611 28.5582 21.3642 29.3263 21.3693 30.0945C21.372 30.5011 21.3738 30.9077 21.3737 31.3144C21.3736 31.7686 21.3771 32.2228 21.381 32.6771C21.3804 32.8115 21.3798 32.9459 21.3792 33.0845C21.3887 33.808 21.4213 34.2577 21.9137 34.8047C22.458 35.1463 23.1421 35.1804 23.7667 35.2515C25.1618 35.4377 26.2477 36.1119 27.1872 37.1484C27.7702 37.9212 28.2418 38.8577 28.2418 39.8437C27.0254 39.8692 25.847 39.8059 24.6383 39.6533C24.555 39.643 24.4718 39.6327 24.386 39.6221C20.8892 39.1833 17.4886 38.2266 14.1793 37.0312C14.1684 35.6845 14.1601 34.3377 14.1551 32.9908C14.1526 32.3653 14.1493 31.7398 14.144 31.1143C14.1388 30.5094 14.1361 29.9046 14.1349 29.2998C14.134 29.0702 14.1323 28.8406 14.1298 28.6111C14.1012 25.9304 14.7693 23.7364 16.6682 21.758C17.9322 20.5436 19.4525 19.8829 21.0934 19.3359Z" fill="#C08F4F"/>
<path d="M24.7266 30C25.1595 30.1732 25.5359 30.3515 25.9424 30.5713C27.0178 31.1143 28.2104 31.4418 29.4141 31.5234C29.4953 31.5295 29.5766 31.5355 29.6603 31.5417C31.5693 31.6184 33.4575 31.0444 35.0391 30C35.1164 30 35.1938 30 35.2734 30C35.2734 30.6574 35.2734 31.3148 35.2734 31.9922C34.9906 32.0937 34.7079 32.1952 34.4165 32.2998C32.7003 32.9386 31.2715 33.8295 30.1172 35.2734C29.7462 35.1107 29.6252 35.0106 29.3555 34.6802C28.1882 33.28 26.4377 32.5025 24.7266 31.9922C24.7266 31.3348 24.7266 30.6773 24.7266 30Z" fill="#C08F4F"/>
</g>
<defs>
<clipPath id="clip0_702_30">
<rect width="60" height="60" fill="white"/>
</clipPath>
</defs>
</svg>
