<svg width="60" height="60" viewBox="0 0 60 60" fill="none" xmlns="http://www.w3.org/2000/svg">
<g clip-path="url(#clip0_693_45)">
<path d="M53.0181 -0.170737C53.4444 -0.157517 53.8705 -0.154187 54.297 -0.151134C54.8115 -0.146975 55.3259 -0.137254 55.8404 -0.127049C55.9361 -0.125592 56.0318 -0.124135 56.1304 -0.122633C57.1879 -0.102529 58.1818 -0.0788746 59.0621 0.586147C59.8606 1.43556 60.0571 2.18968 60.0353 3.34646C59.965 4.14236 59.6627 4.59244 59.0914 5.13449C58.039 5.97722 57.37 5.85958 55.8981 5.85958C55.8981 11.5057 55.8981 17.1518 55.8981 22.969C57.1742 22.969 58.4504 22.969 59.7653 22.969C60.0667 23.2704 60.0291 23.3836 60.0295 23.8025C60.0301 23.9302 60.0308 24.0579 60.0315 24.1894C60.0311 24.3309 60.0306 24.4723 60.0302 24.618C60.0306 24.7673 60.0311 24.9167 60.0315 25.0705C60.0328 25.4864 60.0325 25.9023 60.032 26.3182C60.0317 26.7662 60.0327 27.2142 60.0336 27.6622C60.0351 28.5403 60.0353 29.4184 60.0351 30.2966C60.0349 31.01 60.0351 31.7234 60.0356 32.4368C60.0356 32.5382 60.0357 32.6396 60.0358 32.744C60.0359 32.95 60.0361 33.1559 60.0362 33.3618C60.0375 35.2946 60.0372 37.2273 60.0365 39.1601C60.0359 40.9301 60.0372 42.7002 60.0394 44.4702C60.0417 46.2857 60.0427 48.1013 60.0422 49.9168C60.042 50.9369 60.0423 51.9569 60.044 52.977C60.0454 53.8453 60.0455 54.7136 60.0441 55.5819C60.0434 56.0253 60.0433 56.4686 60.0447 56.912C60.0462 57.3917 60.045 57.8714 60.0435 58.3512C60.0443 58.4926 60.0452 58.634 60.0461 58.7797C60.0453 58.9074 60.0444 59.0351 60.0435 59.1666C60.0435 59.2775 60.0436 59.3883 60.0436 59.5026C60.0291 59.5894 60.0146 59.6763 59.9996 59.7658C59.5592 60.0595 59.2153 60.0329 58.7054 60.03C58.6077 60.0304 58.5101 60.0308 58.4095 60.0312C58.0794 60.0322 57.7494 60.0314 57.4193 60.0308C57.1814 60.0311 56.9436 60.0316 56.7057 60.0321C56.0498 60.0333 55.3939 60.0331 54.738 60.0326C54.0315 60.0323 53.325 60.0333 52.6185 60.0342C51.2336 60.0357 49.8487 60.0359 48.4638 60.0356C47.3387 60.0354 46.2136 60.0356 45.0885 60.0361C44.9271 60.0362 44.7656 60.0363 44.6041 60.0363C44.3608 60.0365 44.1174 60.0366 43.8741 60.0367C41.6111 60.0377 39.3481 60.0382 37.0851 60.0377C36.957 60.0377 36.957 60.0376 36.8264 60.0376C36.3938 60.0375 35.9611 60.0374 35.5284 60.0373C35.4425 60.0373 35.3566 60.0373 35.268 60.0373C35.0943 60.0372 34.9205 60.0372 34.7467 60.0371C32.042 60.0365 29.3372 60.0374 26.6324 60.0396C23.5956 60.042 20.5588 60.0433 17.522 60.0428C17.1985 60.0428 16.8749 60.0427 16.5514 60.0427C16.4717 60.0427 16.392 60.0427 16.3099 60.0427C15.1053 60.0425 13.9006 60.0433 12.6959 60.0445C11.3266 60.046 9.95724 60.0461 8.58788 60.0447C7.88864 60.044 7.18941 60.0439 6.49017 60.0453C5.8509 60.0465 5.21164 60.0462 4.57237 60.0445C4.34029 60.0442 4.1082 60.0445 3.87612 60.0454C3.56223 60.0466 3.24842 60.0457 2.93453 60.0441C2.84306 60.045 2.75158 60.0458 2.65733 60.0467C2.05133 60.0405 2.05133 60.0405 1.75976 59.843C1.56792 59.531 1.59831 59.2503 1.60034 58.888C1.60029 58.8114 1.60024 58.7347 1.60019 58.6558C1.60044 58.4027 1.60317 58.1498 1.60592 57.8968C1.60658 57.7213 1.60708 57.5457 1.60743 57.3702C1.60877 56.9084 1.61223 56.4466 1.61612 55.9848C1.61971 55.5135 1.62132 55.0422 1.62309 54.5709C1.62686 53.6463 1.63286 52.7217 1.64026 51.7971C1.53074 51.764 1.42122 51.7309 1.30838 51.6968C0.666658 51.465 0.301463 50.9868 -0.000369355 50.3908C-0.0938767 49.7253 -0.126475 48.9982 0.197385 48.3913C0.591285 47.891 0.954889 47.628 1.52307 47.344C3.14729 47.344 4.77151 47.344 6.44494 47.344C6.40627 42.5486 6.3676 37.7533 6.32776 32.8127C5.28362 33.4508 5.28362 33.4508 4.21838 34.1018C3.26734 34.4188 2.41274 34.5232 1.47912 34.0944C0.75415 33.683 0.2531 33.1443 -0.000369355 32.344C-0.0923712 31.3886 -0.135828 30.4437 0.468381 29.6486C1.2096 28.7592 2.35216 28.2037 3.33215 27.6125C4.32096 27.0135 5.30719 26.4104 6.29113 25.8034C7.42423 25.1048 8.56068 24.412 9.69914 23.7222C10.8128 23.0474 11.9226 22.3666 13.0309 21.683C13.9703 21.104 14.9128 20.5305 15.8566 19.9587C16.8042 19.3846 17.75 18.8078 18.691 18.2229C19.7018 17.5946 20.7183 16.9761 21.7361 16.3594C22.7353 15.754 23.7319 15.1448 24.7262 14.5315C25.8471 13.8401 26.9714 13.1546 28.0977 12.4722C29.0857 11.8734 30.0711 11.2707 31.0543 10.6643C32.1752 9.97291 33.2995 9.28742 34.4259 8.60497C35.4138 8.00624 36.3992 7.40354 37.3824 6.79708C38.5033 6.10572 39.6276 5.42023 40.754 4.73778C41.6086 4.21985 42.4622 3.7004 43.3122 3.17483C43.563 3.02061 43.8145 2.86754 44.0671 2.71613C44.7132 2.32642 45.3296 1.92825 45.9311 1.47072C48.218 -0.197366 50.2556 -0.272081 53.0181 -0.170737ZM46.5457 2.84893C46.2033 3.11292 45.8468 3.32797 45.4743 3.54742C45.2502 3.68577 45.026 3.82417 44.8019 3.96261C43.6688 4.66125 42.5323 5.354 41.3939 6.0438C40.4059 6.64255 39.4204 7.24529 38.4371 7.85177C37.3162 8.54313 36.1919 9.22863 35.0656 9.91108C34.0776 10.5098 33.0922 11.1125 32.109 11.719C30.9881 12.4103 29.8638 13.0958 28.7375 13.7783C27.7495 14.377 26.7641 14.9797 25.7809 15.5861C24.7288 16.2351 23.674 16.8792 22.6168 17.5197C21.4199 18.245 20.2265 18.9756 19.0353 19.7101C18.109 20.281 17.1801 20.8476 16.2502 21.4125C15.4139 21.9209 14.5802 22.4333 13.7472 22.947C12.6141 23.6455 11.4776 24.3384 10.3392 25.0282C9.22665 25.7024 8.11764 26.3821 7.0108 27.0657C6.33318 27.4836 5.65384 27.8984 4.97186 28.3092C4.89773 28.354 4.8236 28.3987 4.74722 28.4447C4.3891 28.6608 4.03073 28.8764 3.67181 29.0911C2.32741 29.8025 2.32741 29.8025 1.40588 30.9377C1.32982 31.3781 1.30732 31.8067 1.52078 32.2089C1.79082 32.5471 2.06266 32.7695 2.46057 32.9299C3.35252 33.0148 4.01927 32.5688 4.7384 32.1023C4.97826 31.9515 5.21813 31.8007 5.458 31.65C5.5818 31.5712 5.7056 31.4924 5.83314 31.4113C6.45062 31.02 7.07429 30.6388 7.69738 30.2566C7.95343 30.0988 8.20947 29.941 8.46551 29.7832C9.35626 29.2355 10.2505 28.6935 11.1449 28.1517C12.0224 27.6199 12.8977 27.0848 13.7692 26.5432C14.7102 25.9583 15.656 25.3814 16.6036 24.8073C17.8127 24.0748 19.0183 23.337 20.2217 22.5951C21.0379 22.092 21.8559 21.5918 22.6754 21.094C23.6345 20.5113 24.5912 19.9249 25.5465 19.3361C26.6119 18.6796 27.6794 18.0268 28.7489 17.3771C29.5852 16.8686 30.419 16.3562 31.2521 15.8425C32.3982 15.1358 33.5479 14.4353 34.6996 13.7376C35.5771 13.2059 36.4524 12.6708 37.3238 12.1291C38.2649 11.5442 39.2107 10.9674 40.1583 10.3933C41.3667 9.66119 42.5716 8.92377 43.7743 8.18228C44.7106 7.60523 45.6491 7.0318 46.5891 6.46077C46.7377 6.37052 46.7377 6.37052 46.8893 6.27844C46.9969 6.21596 47.1044 6.15349 47.2153 6.08912C47.495 5.91201 47.7358 5.73505 47.9911 5.52773C49.6111 4.2862 51.3666 4.40968 53.3084 4.45501C53.9977 4.46995 54.6871 4.47403 55.3766 4.47717C55.6148 4.47937 55.8527 4.48503 56.0908 4.49124C56.9469 4.50212 57.5197 4.46047 58.2418 3.98458C58.5935 3.5889 58.6565 3.22367 58.6346 2.69461C58.5456 2.19019 58.2676 1.86352 57.8653 1.56668C57.4667 1.37113 57.173 1.35348 56.7297 1.34051C56.6109 1.33648 56.6109 1.33648 56.4897 1.33237C56.2281 1.32427 55.9666 1.319 55.7049 1.31445C55.5692 1.31186 55.5692 1.31186 55.4307 1.30922C54.9497 1.30052 54.4687 1.2943 53.9876 1.28982C53.5948 1.28569 53.2027 1.27681 52.8101 1.26338C50.3451 1.18096 48.5688 1.26477 46.5457 2.84893ZM48.9108 6.56271C48.6749 6.71414 48.439 6.8655 48.2031 7.01681C48.0208 7.136 48.0208 7.136 47.8349 7.25759C47.2096 7.66285 46.5728 8.04906 45.9371 8.43771C45.6824 8.59466 45.4278 8.75168 45.1731 8.90875C44.6668 9.22041 44.1593 9.53009 43.6506 9.83801C43.5288 9.9118 43.4069 9.9856 43.2814 10.0616C43.0524 10.2002 42.8232 10.3384 42.5939 10.4764C42.4906 10.5388 42.3874 10.6013 42.281 10.6656C42.1471 10.7462 42.1471 10.7462 42.0106 10.8285C41.9142 10.8903 41.8177 10.9521 41.7184 11.0158C41.5789 11.0782 41.4395 11.1405 41.2958 11.2047C40.9718 11.441 40.9051 11.5675 40.8235 11.9659C40.7965 12.4637 40.7966 12.9558 40.8049 13.454C40.8052 13.6458 40.805 13.8375 40.8046 14.0292C40.8043 14.5493 40.8092 15.0693 40.8149 15.5893C40.82 16.133 40.8205 16.6766 40.8215 17.2203C40.824 18.2496 40.8308 19.2788 40.839 20.3081C40.8482 21.4799 40.8527 22.6518 40.8568 23.8237C40.8654 26.2341 40.88 28.6445 40.8981 31.0549C42.0582 31.0549 43.2184 31.0549 44.4137 31.0549C44.4137 29.8561 44.4137 28.6572 44.4137 27.4221C43.8916 27.132 43.8916 27.132 43.359 26.8361C42.8798 26.2252 42.7451 25.6184 42.7731 24.844C42.8887 24.1561 43.2088 23.766 43.7435 23.3356C45.9243 21.9033 48.9534 23.011 51.5621 22.969C51.5621 17.3229 51.5621 11.6768 51.5621 5.85958C50.2855 5.85958 49.8761 5.90991 48.9108 6.56271ZM52.9684 5.85958C52.9684 11.5057 52.9684 17.1518 52.9684 22.969C53.4711 22.969 53.9739 22.969 54.4918 22.969C54.4918 17.3229 54.4918 11.6768 54.4918 5.85958C53.9891 5.85958 53.4863 5.85958 52.9684 5.85958ZM37.9684 13.3596C37.7815 13.9271 37.8048 14.4863 37.822 15.0771C37.8224 15.2515 37.8222 15.426 37.8215 15.6005C37.8211 16.0725 37.8287 16.544 37.8377 17.016C37.8458 17.5097 37.8465 18.0034 37.848 18.4972C37.852 19.4315 37.8626 20.3656 37.8755 21.2998C37.89 22.3637 37.897 23.4276 37.9035 24.4915C37.917 26.6794 37.9399 28.8671 37.9684 31.0549C38.4711 31.0549 38.9739 31.0549 39.4918 31.0549C39.4918 24.9447 39.4918 18.8346 39.4918 12.5393C38.899 12.5393 38.3701 12.9587 37.9684 13.3596ZM35.5441 14.7805C35.3725 14.8893 35.2008 14.9979 35.0291 15.1064C34.9361 15.1652 34.8431 15.2239 34.7473 15.2845C34.2275 15.61 33.7028 15.9274 33.1783 16.2453C32.0672 16.9199 30.9595 17.5998 29.853 18.282C28.8477 18.9014 27.8394 19.5159 26.8289 20.1269C26.7234 20.1909 26.6179 20.2549 26.5092 20.3208C26.4163 20.377 26.3234 20.4332 26.2276 20.4911C26.0215 20.6104 26.0215 20.6104 25.8981 20.7424C25.8867 20.9797 25.8838 21.2174 25.884 21.455C25.8839 21.5302 25.8838 21.6054 25.8837 21.6829C25.8835 21.9368 25.8841 22.1907 25.8848 22.4446C25.8848 22.6259 25.8848 22.8072 25.8847 22.9885C25.8847 23.4821 25.8854 23.9758 25.8862 24.4695C25.8869 24.9848 25.887 25.5001 25.8871 26.0155C25.8875 26.9921 25.8885 27.9686 25.8896 28.9452C25.8909 30.0567 25.8916 31.1682 25.8922 32.2797C25.8934 34.5667 25.8955 36.8538 25.8981 39.1408C27.2903 39.1408 28.6824 39.1408 30.1168 39.1408C30.1168 37.942 30.1168 36.7432 30.1168 35.508C29.5947 35.218 29.5947 35.218 29.0621 34.9221C28.5608 34.2129 28.4711 33.5527 28.5934 32.6955C28.7572 32.1443 28.9699 31.8314 29.421 31.4724C31.5262 30.3526 34.1781 31.0982 36.5621 31.0549C36.5621 25.5248 36.5621 19.9947 36.5621 14.2971C36.1678 14.2971 35.8676 14.5724 35.5441 14.7805ZM22.8512 22.6174C22.6514 23.1591 22.6724 23.6683 22.6915 24.2406C22.6919 24.4036 22.6917 24.5665 22.6909 24.7294C22.6905 25.1695 22.6988 25.6091 22.7086 26.049C22.7174 26.5096 22.7182 26.9702 22.7199 27.4308C22.7243 28.302 22.7358 29.173 22.7499 30.0442C22.7657 31.0363 22.7734 32.0285 22.7804 33.0208C22.7951 35.0609 22.8201 37.1008 22.8512 39.1408C23.3539 39.1408 23.8567 39.1408 24.3746 39.1408C24.3746 33.3787 24.3746 27.6166 24.3746 21.6799C23.8368 21.6799 23.2114 22.2699 22.8512 22.6174ZM20.7441 23.8305C20.6478 23.8907 20.5514 23.951 20.4522 24.013C20.3472 24.0794 20.2421 24.1457 20.1339 24.2141C19.9081 24.3553 19.6823 24.4965 19.4564 24.6375C19.2808 24.7473 19.2808 24.7473 19.1017 24.8594C18.5498 25.2026 17.9943 25.5397 17.4386 25.8767C16.4581 26.4724 15.4791 27.0704 14.5016 27.6711C14.3854 27.7424 14.2692 27.8137 14.1495 27.8871C13.9145 28.0316 13.6819 28.18 13.4518 28.3321C13.1285 28.5357 12.8078 28.6757 12.451 28.8112C11.7846 29.0951 11.2161 29.4069 10.7809 30.0002C10.3965 31.1494 10.5145 32.4485 10.5551 33.645C10.5691 34.1273 10.5704 34.6096 10.573 35.092C10.5799 36.0037 10.5981 36.9147 10.6205 37.8261C10.6455 38.8644 10.6577 39.9028 10.6688 40.9413C10.692 43.0759 10.7328 45.2097 10.7809 47.344C12.4824 47.344 14.184 47.344 15.9371 47.344C15.9565 46.7566 15.9758 46.1693 15.9957 45.5642C16.0043 45.3798 16.0128 45.1955 16.0216 45.0056C16.0683 44.1793 16.0683 44.1793 15.7325 43.4646C15.412 43.2592 15.1493 43.1252 14.7653 43.1252C14.3988 42.4447 14.2 41.7943 14.2965 41.0158C14.4928 40.4063 14.7328 40.0105 15.234 39.6096C17.178 38.8806 19.3693 39.187 21.4449 39.1408C21.4449 33.9975 21.4449 28.8541 21.4449 23.5549C21.136 23.5549 21.0054 23.6658 20.7441 23.8305ZM44.1793 24.844C44.1012 25.2591 44.1012 25.2591 44.1793 25.6643C44.5187 25.9984 44.7653 26.0596 45.2339 26.0581C45.4108 26.0588 45.4108 26.0588 45.5914 26.0596C45.7201 26.0583 45.8488 26.057 45.9814 26.0557C46.1855 26.0558 46.1855 26.0558 46.3938 26.0559C46.844 26.0557 47.2942 26.0529 47.7444 26.0502C48.0564 26.0495 48.3684 26.049 48.6803 26.0487C49.4178 26.0476 50.1553 26.0447 50.8928 26.0412C51.7325 26.0372 52.5723 26.0353 53.412 26.0335C55.1391 26.0299 56.8663 26.0236 58.5934 26.0158C58.5934 25.4744 58.5934 24.933 58.5934 24.3752C56.7832 24.3644 54.9731 24.356 53.1629 24.3509C52.3224 24.3485 51.482 24.3452 50.6415 24.3398C49.909 24.3352 49.1765 24.3321 48.4439 24.3311C48.056 24.3305 47.6681 24.3288 47.2802 24.3256C46.8473 24.3223 46.4144 24.3218 45.9814 24.322C45.8527 24.3203 45.724 24.3186 45.5914 24.3169C45.4734 24.3175 45.3554 24.3182 45.2339 24.3188C45.0802 24.3182 45.0802 24.3182 44.9235 24.3175C44.5514 24.3955 44.4112 24.5482 44.1793 24.844ZM45.8199 27.5393C45.7907 30.0303 45.7907 30.0303 45.7639 32.5213C45.7598 32.8328 45.7556 33.1443 45.7513 33.4559C45.7506 33.5369 45.75 33.6179 45.7493 33.7013C45.7473 33.94 45.7437 34.1787 45.7401 34.4173C45.7386 34.5518 45.737 34.6864 45.7354 34.825C45.7028 35.1565 45.7028 35.1565 45.4684 35.508C45.2218 35.5531 45.2218 35.5531 44.9108 35.5547C44.7931 35.5562 44.6755 35.5577 44.5542 35.5592C44.3599 35.5589 44.3599 35.5589 44.1616 35.5587C43.9576 35.5605 43.9576 35.5605 43.7494 35.5623C43.2979 35.5659 42.8464 35.5669 42.395 35.568C42.0826 35.57 41.7703 35.5721 41.458 35.5744C40.7188 35.5795 39.9797 35.5828 39.2405 35.5855C38.3991 35.5887 37.5577 35.5938 36.7163 35.5992C34.9852 35.6101 33.2541 35.6184 31.5231 35.6252C31.5219 35.7233 31.5207 35.8214 31.5194 35.9225C31.5079 36.8451 31.4959 37.7677 31.4833 38.6903C31.4768 39.1646 31.4706 39.639 31.4648 40.1134C31.4592 40.5708 31.4531 41.0282 31.4466 41.4856C31.4442 41.6605 31.442 41.8354 31.44 42.0103C31.4372 42.2545 31.4336 42.4986 31.4299 42.7427C31.4281 42.8819 31.4263 43.0212 31.4244 43.1646C31.4059 43.4768 31.4059 43.4768 31.2887 43.594C31.1079 43.6066 30.9265 43.6112 30.7452 43.6125C30.5689 43.6142 30.5689 43.6142 30.3891 43.616C30.2591 43.6166 30.1292 43.6173 29.9953 43.618C29.8592 43.6192 29.7232 43.6203 29.583 43.6215C29.1309 43.6253 28.6788 43.6281 28.2267 43.631C27.9142 43.6334 27.6017 43.6359 27.2892 43.6384C26.5492 43.6443 25.8093 43.6495 25.0693 43.6546C24.227 43.6604 23.3847 43.6668 22.5425 43.6733C20.8094 43.6867 19.0764 43.6992 17.3434 43.7111C17.3422 43.8058 17.341 43.9004 17.3397 43.998C17.3282 44.8894 17.3162 45.7809 17.3036 46.6724C17.2971 47.1307 17.2909 47.5891 17.2851 48.0474C17.2795 48.4896 17.2734 48.9318 17.2669 49.3741C17.2645 49.5429 17.2623 49.7117 17.2603 49.8805C17.2575 50.1167 17.2539 50.353 17.2503 50.5892C17.2484 50.7237 17.2466 50.8583 17.2447 50.9969C17.2262 51.3283 17.2262 51.3283 17.109 51.6799C16.8242 51.8223 16.6399 51.8133 16.3215 51.8156C16.2048 51.8168 16.0881 51.8179 15.9679 51.8191C15.7752 51.8201 15.7752 51.8201 15.5786 51.8211C15.4437 51.8223 15.3088 51.8235 15.1698 51.8247C14.7222 51.8284 14.2745 51.8313 13.8268 51.8342C13.5171 51.8366 13.2074 51.839 12.8978 51.8415C12.1648 51.8474 11.4319 51.8527 10.6989 51.8577C9.7828 51.8641 8.86666 51.8712 7.95053 51.8783C6.31586 51.8911 4.68118 51.9026 3.04651 51.9143C3.04651 54.1186 3.04651 56.3229 3.04651 58.594C21.377 58.594 39.7074 58.594 58.5934 58.594C58.5934 48.3459 58.5934 38.0979 58.5934 27.5393C54.3781 27.5393 50.1629 27.5393 45.8199 27.5393ZM7.85119 31.758C7.66663 32.2659 7.68747 32.7463 7.70485 33.2819C7.70466 33.434 7.70447 33.5862 7.70428 33.7429C7.70391 34.1583 7.71147 34.5732 7.72049 34.9884C7.72857 35.4231 7.72931 35.8577 7.73084 36.2924C7.73484 37.1146 7.7454 37.9366 7.75836 38.7588C7.77279 39.6951 7.77986 40.6315 7.78632 41.5679C7.79978 43.4934 7.8227 45.4186 7.85119 47.344C8.35393 47.344 8.85666 47.344 9.37463 47.344C9.37463 41.9299 9.37463 36.5158 9.37463 30.9377C8.79057 30.9377 8.25517 31.3714 7.85119 31.758ZM30.0922 32.7317C29.8454 33.043 29.8454 33.043 29.8678 33.4719C29.9637 33.8672 29.9637 33.8672 30.2173 34.0654C30.7796 34.2999 31.3183 34.2649 31.9215 34.2589C32.0564 34.2589 32.1914 34.259 32.3304 34.259C32.7762 34.2588 33.2219 34.256 33.6677 34.2533C33.9769 34.2526 34.2861 34.2521 34.5953 34.2518C35.3257 34.2507 36.0561 34.2478 36.7866 34.2443C37.6184 34.2403 38.4501 34.2384 39.2819 34.2366C40.9925 34.233 42.7031 34.2267 44.4137 34.219C44.4137 33.6389 44.4137 33.0588 44.4137 32.4611C42.6056 32.4476 40.7975 32.4371 38.9893 32.4308C38.1497 32.4278 37.3102 32.4236 36.4707 32.4169C35.7389 32.4111 35.0071 32.4073 34.2753 32.406C33.8878 32.4053 33.5004 32.4032 33.1129 32.3992C32.6803 32.395 32.2477 32.3944 31.815 32.3946C31.6867 32.3925 31.5585 32.3904 31.4263 32.3882C30.7105 32.3922 30.7105 32.3922 30.0922 32.7317ZM15.7174 40.9865C15.5317 41.358 15.578 41.5626 15.7028 41.9533C16.0484 42.2821 16.2861 42.3487 16.7573 42.3472C16.9343 42.3479 16.9343 42.3479 17.1148 42.3486C17.2435 42.3474 17.3722 42.3461 17.5049 42.3448C17.709 42.3449 17.709 42.3449 17.9172 42.345C18.3675 42.3447 18.8176 42.342 19.2678 42.3392C19.5798 42.3386 19.8918 42.3381 20.2038 42.3377C20.9413 42.3366 21.6788 42.3337 22.4163 42.3302C23.256 42.3263 24.0957 42.3244 24.9354 42.3226C26.6626 42.3189 28.3897 42.3127 30.1168 42.3049C30.1168 41.7248 30.1168 41.1447 30.1168 40.5471C28.3545 40.5417 26.5923 40.5375 24.83 40.5349C24.0117 40.5337 23.1934 40.5321 22.3751 40.5294C21.5857 40.5268 20.7962 40.5255 20.0068 40.5248C19.7053 40.5244 19.4039 40.5236 19.1025 40.5223C18.6808 40.5206 18.2592 40.5204 17.8375 40.5205C17.7124 40.5196 17.5874 40.5188 17.4586 40.5179C17.2859 40.5184 17.2859 40.5184 17.1096 40.5189C17.0099 40.5187 16.9102 40.5185 16.8075 40.5182C16.3688 40.5627 16.0403 40.6852 15.7174 40.9865ZM1.40588 49.219C1.32776 49.5705 1.32776 49.5705 1.40588 49.9221C1.66745 50.2558 1.82189 50.3733 2.22619 50.508C2.41356 50.5185 2.60133 50.5223 2.78899 50.5221C2.90484 50.5223 3.02069 50.5224 3.14005 50.5226C3.26699 50.5222 3.39394 50.5218 3.52473 50.5213C3.65851 50.5213 3.79229 50.5214 3.93013 50.5214C4.37335 50.5213 4.81657 50.5204 5.25979 50.5195C5.56669 50.5192 5.8736 50.5191 6.1805 50.519C6.90637 50.5186 7.63225 50.5176 8.35812 50.5165C9.18452 50.5152 10.0109 50.5145 10.8373 50.5139C12.5373 50.5127 14.2372 50.5106 15.9371 50.508C15.9371 49.9279 15.9371 49.3479 15.9371 48.7502C14.1117 48.7394 12.2863 48.731 10.4608 48.7259C9.61327 48.7235 8.76571 48.7202 7.91814 48.7148C7.17943 48.7102 6.44074 48.7072 5.70201 48.7061C5.31082 48.7055 4.9197 48.7038 4.52851 48.7006C4.09189 48.6973 3.65537 48.6968 3.21874 48.697C3.08893 48.6953 2.95912 48.6936 2.82538 48.6919C2.70641 48.6925 2.58744 48.6932 2.46487 48.6938C2.3616 48.6934 2.25833 48.693 2.15193 48.6925C1.78013 48.7699 1.63932 48.9255 1.40588 49.219Z" fill="#C08F4F"/>
</g>
<defs>
<clipPath id="clip0_693_45">
<rect width="60" height="60" fill="white"/>
</clipPath>
</defs>
</svg>
