<svg width="60" height="60" viewBox="0 0 60 60" fill="none" xmlns="http://www.w3.org/2000/svg">
<g clip-path="url(#clip0_702_4)">
<path d="M15.2344 34.4531C24.9797 34.4531 34.725 34.4531 44.7656 34.4531C44.7656 39.0164 44.7656 43.5797 44.7656 48.2812C35.0203 48.2812 25.275 48.2812 15.2344 48.2812C15.2344 43.718 15.2344 39.1547 15.2344 34.4531Z" fill="#C08F4F"/>
<path d="M30.9375 16.9922C40.5281 16.9922 50.1188 16.9922 60 16.9922C60 21.5555 60 26.1188 60 30.8203C50.4094 30.8203 40.8187 30.8203 30.9375 30.8203C30.9375 26.257 30.9375 21.6937 30.9375 16.9922Z" fill="#C08F4F"/>
<path d="M0 16.9922C9.59062 16.9922 19.1813 16.9922 29.0625 16.9922C29.0625 21.5555 29.0625 26.1188 29.0625 30.8203C19.4719 30.8203 9.88125 30.8203 0 30.8203C0 26.257 0 21.6937 0 16.9922Z" fill="#C08F4F"/>
<path d="M15.2344 0C24.9797 0 34.725 0 44.7656 0C44.7656 4.40859 44.7656 8.81719 44.7656 13.3594C35.0203 13.3594 25.275 13.3594 15.2344 13.3594C15.2344 8.95078 15.2344 4.54219 15.2344 0Z" fill="#C08F4F"/>
<path d="M30.9375 51.9141C40.5281 51.9141 50.1188 51.9141 60 51.9141C60 56.3227 60 60.7313 60 65.2734C50.4094 65.2734 40.8187 65.2734 30.9375 65.2734C30.9375 60.8648 30.9375 56.4562 30.9375 51.9141Z" fill="#C08F4F"/>
<path d="M0 51.9141C9.59062 51.9141 19.1813 51.9141 29.0625 51.9141C29.0625 56.3227 29.0625 60.7313 29.0625 65.2734C19.4719 65.2734 9.88125 65.2734 0 65.2734C0 60.8648 0 56.4562 0 51.9141Z" fill="#C08F4F"/>
<path d="M46.6406 34.4531C51.0492 34.4531 55.4578 34.4531 60 34.4531C60 39.0164 60 43.5797 60 48.2812C55.5914 48.2812 51.1828 48.2812 46.6406 48.2812C46.6406 43.718 46.6406 39.1547 46.6406 34.4531Z" fill="#C08F4F"/>
<path d="M0 34.4531C4.40859 34.4531 8.81719 34.4531 13.3594 34.4531C13.3594 39.0164 13.3594 43.5797 13.3594 48.2812C8.95078 48.2812 4.54219 48.2812 0 48.2812C0 43.718 0 39.1547 0 34.4531Z" fill="#C08F4F"/>
<path d="M46.6406 0C51.0492 0 55.4578 0 60 0C60 4.40859 60 8.81719 60 13.3594C55.5914 13.3594 51.1828 13.3594 46.6406 13.3594C46.6406 8.95078 46.6406 4.54219 46.6406 0Z" fill="#C08F4F"/>
<path d="M0 0C4.40859 0 8.81719 0 13.3594 0C13.3594 4.40859 13.3594 8.81719 13.3594 13.3594C8.95078 13.3594 4.54219 13.3594 0 13.3594C0 8.95078 0 4.54219 0 0Z" fill="#C08F4F"/>
</g>
<defs>
<clipPath id="clip0_702_4">
<rect width="60" height="60" fill="white"/>
</clipPath>
</defs>
</svg>
