<svg width="606" height="488" viewBox="0 0 606 488" fill="none" xmlns="http://www.w3.org/2000/svg">
<g clip-path="url(#clip0_501_2)">
<mask id="mask0_501_2" style="mask-type:alpha" maskUnits="userSpaceOnUse" x="-461" y="-386" width="1528" height="1260">
<g opacity="0.43">
<path d="M14 -20.5469L42 -3.66456V29.3415L14 45.4003L-14 29.3415V-3.66456L14 -20.5469Z" stroke="white" stroke-width="4"/>
<path d="M14 28.0412L42 44.9236V77.9296L14 93.9885L-14 77.9296V44.9236L14 28.0412Z" stroke="white" stroke-width="4"/>
<path d="M14 76.6294L42 93.5117V126.518L14 142.577L-14 126.518V93.5117L14 76.6294Z" stroke="white" stroke-width="4"/>
<path d="M14 125.218L42 142.1V175.106L14 191.165L-14 175.106V142.1L14 125.218Z" stroke="white" stroke-width="4"/>
<path d="M14 173.806L42 190.688V223.694L14 239.753L-14 223.694V190.688L14 173.806Z" stroke="white" stroke-width="4"/>
<path d="M14 222.394L42 239.277V272.283L14 288.341L-14 272.283V239.277L14 222.394Z" stroke="white" stroke-width="4"/>
<path d="M14 270.982L42 287.865V320.871L14 336.93L-14 320.871V287.865L14 270.982Z" stroke="white" stroke-width="4"/>
<path d="M14 319.571L42 336.453V369.459L14 385.518L-14 369.459V336.453L14 319.571Z" stroke="white" stroke-width="4"/>
<path d="M14 368.159L42 385.041V418.047L14 434.106L-14 418.047V385.041L14 368.159Z" stroke="white" stroke-width="4"/>
<path d="M14 416.747L42 433.63V466.636L14 482.695L-14 466.636V433.63L14 416.747Z" stroke="white" stroke-width="4"/>
<path d="M14 465.335L42 482.218V515.224L14 531.283L-14 515.224V482.218L14 465.335Z" stroke="white" stroke-width="4"/>
<path d="M58 -43.5469L86 -26.6646V6.3415L58 22.4003L30 6.3415V-26.6646L58 -43.5469Z" stroke="white" stroke-width="4"/>
<path d="M58 5.04122L86 21.9236V54.9296L58 70.9885L30 54.9296V21.9236L58 5.04122Z" stroke="white" stroke-width="4"/>
<path d="M58 53.6294L86 70.5117V103.518L58 119.577L30 103.518V70.5117L58 53.6294Z" stroke="white" stroke-width="4"/>
<path d="M58 102.218L86 119.1V152.106L58 168.165L30 152.106V119.1L58 102.218Z" stroke="white" stroke-width="4"/>
<path d="M58 150.806L86 167.688V200.694L58 216.753L30 200.694V167.688L58 150.806Z" stroke="white" stroke-width="4"/>
<path d="M58 199.394L86 216.277V249.283L58 265.341L30 249.283V216.277L58 199.394Z" stroke="white" stroke-width="4"/>
<path d="M58 247.982L86 264.865V297.871L58 313.93L30 297.871V264.865L58 247.982Z" stroke="white" stroke-width="4"/>
<path d="M58 296.571L86 313.453V346.459L58 362.518L30 346.459V313.453L58 296.571Z" stroke="white" stroke-width="4"/>
<path d="M58 345.159L86 362.041V395.047L58 411.106L30 395.047V362.041L58 345.159Z" stroke="white" stroke-width="4"/>
<path d="M58 393.747L86 410.63V443.636L58 459.695L30 443.636V410.63L58 393.747Z" stroke="white" stroke-width="4"/>
<path d="M58 442.335L86 459.218V492.224L58 508.283L30 492.224V459.218L58 442.335Z" stroke="white" stroke-width="4"/>
<path d="M103 -20.5469L131 -3.66456V29.3415L103 45.4003L75 29.3415V-3.66456L103 -20.5469Z" stroke="white" stroke-width="4"/>
<path d="M103 28.0412L131 44.9236V77.9296L103 93.9885L75 77.9296V44.9236L103 28.0412Z" stroke="white" stroke-width="4"/>
<path d="M103 76.6294L131 93.5117V126.518L103 142.577L75 126.518V93.5117L103 76.6294Z" stroke="white" stroke-width="4"/>
<path d="M103 125.218L131 142.1V175.106L103 191.165L75 175.106V142.1L103 125.218Z" stroke="white" stroke-width="4"/>
<path d="M103 173.806L131 190.688V223.694L103 239.753L75 223.694V190.688L103 173.806Z" stroke="white" stroke-width="4"/>
<path d="M103 222.394L131 239.277V272.283L103 288.341L75 272.283V239.277L103 222.394Z" stroke="white" stroke-width="4"/>
<path d="M103 270.982L131 287.865V320.871L103 336.93L75 320.871V287.865L103 270.982Z" stroke="white" stroke-width="4"/>
<path d="M103 319.571L131 336.453V369.459L103 385.518L75 369.459V336.453L103 319.571Z" stroke="white" stroke-width="4"/>
<path d="M103 368.159L131 385.041V418.047L103 434.106L75 418.047V385.041L103 368.159Z" stroke="white" stroke-width="4"/>
<path d="M103 416.747L131 433.63V466.636L103 482.695L75 466.636V433.63L103 416.747Z" stroke="white" stroke-width="4"/>
<path d="M103 465.335L131 482.218V515.224L103 531.283L75 515.224V482.218L103 465.335Z" stroke="white" stroke-width="4"/>
<path d="M147 -43.5469L175 -26.6646V6.3415L147 22.4003L119 6.3415V-26.6646L147 -43.5469Z" stroke="white" stroke-width="4"/>
<path d="M147 5.04122L175 21.9236V54.9296L147 70.9885L119 54.9296V21.9236L147 5.04122Z" stroke="white" stroke-width="4"/>
<path d="M147 53.6294L175 70.5117V103.518L147 119.577L119 103.518V70.5117L147 53.6294Z" stroke="white" stroke-width="4"/>
<path d="M147 102.218L175 119.1V152.106L147 168.165L119 152.106V119.1L147 102.218Z" stroke="white" stroke-width="4"/>
<path d="M147 150.806L175 167.688V200.694L147 216.753L119 200.694V167.688L147 150.806Z" stroke="white" stroke-width="4"/>
<path d="M147 199.394L175 216.277V249.283L147 265.341L119 249.283V216.277L147 199.394Z" stroke="white" stroke-width="4"/>
<path d="M147 247.982L175 264.865V297.871L147 313.93L119 297.871V264.865L147 247.982Z" stroke="white" stroke-width="4"/>
<path d="M147 296.571L175 313.453V346.459L147 362.518L119 346.459V313.453L147 296.571Z" stroke="white" stroke-width="4"/>
<path d="M147 345.159L175 362.041V395.047L147 411.106L119 395.047V362.041L147 345.159Z" stroke="white" stroke-width="4"/>
<path d="M147 393.747L175 410.63V443.636L147 459.695L119 443.636V410.63L147 393.747Z" stroke="white" stroke-width="4"/>
<path d="M147 442.335L175 459.218V492.224L147 508.283L119 492.224V459.218L147 442.335Z" stroke="white" stroke-width="4"/>
<path d="M192 -20.5469L220 -3.66456V29.3415L192 45.4003L164 29.3415V-3.66456L192 -20.5469Z" stroke="white" stroke-width="4"/>
<path d="M192 28.0412L220 44.9236V77.9296L192 93.9885L164 77.9296V44.9236L192 28.0412Z" stroke="white" stroke-width="4"/>
<path d="M192 76.6294L220 93.5117V126.518L192 142.577L164 126.518V93.5117L192 76.6294Z" stroke="white" stroke-width="4"/>
<path d="M192 125.218L220 142.1V175.106L192 191.165L164 175.106V142.1L192 125.218Z" stroke="white" stroke-width="4"/>
<path d="M192 173.806L220 190.688V223.694L192 239.753L164 223.694V190.688L192 173.806Z" stroke="white" stroke-width="4"/>
<path d="M192 222.394L220 239.277V272.283L192 288.341L164 272.283V239.277L192 222.394Z" stroke="white" stroke-width="4"/>
<path d="M192 270.982L220 287.865V320.871L192 336.93L164 320.871V287.865L192 270.982Z" stroke="white" stroke-width="4"/>
<path d="M192 319.571L220 336.453V369.459L192 385.518L164 369.459V336.453L192 319.571Z" stroke="white" stroke-width="4"/>
<path d="M192 368.159L220 385.041V418.047L192 434.106L164 418.047V385.041L192 368.159Z" stroke="white" stroke-width="4"/>
<path d="M192 416.747L220 433.63V466.636L192 482.695L164 466.636V433.63L192 416.747Z" stroke="white" stroke-width="4"/>
<path d="M192 465.335L220 482.218V515.224L192 531.283L164 515.224V482.218L192 465.335Z" stroke="white" stroke-width="4"/>
<path d="M236 -43.5469L264 -26.6646V6.3415L236 22.4003L208 6.3415V-26.6646L236 -43.5469Z" stroke="white" stroke-width="4"/>
<path d="M236 5.04122L264 21.9236V54.9296L236 70.9885L208 54.9296V21.9236L236 5.04122Z" stroke="white" stroke-width="4"/>
<path d="M236 53.6294L264 70.5117V103.518L236 119.577L208 103.518V70.5117L236 53.6294Z" stroke="white" stroke-width="4"/>
<path d="M236 102.218L264 119.1V152.106L236 168.165L208 152.106V119.1L236 102.218Z" stroke="white" stroke-width="4"/>
<path d="M236 150.806L264 167.688V200.694L236 216.753L208 200.694V167.688L236 150.806Z" stroke="white" stroke-width="4"/>
<path d="M236 199.394L264 216.277V249.283L236 265.341L208 249.283V216.277L236 199.394Z" stroke="white" stroke-width="4"/>
<path d="M236 247.982L264 264.865V297.871L236 313.93L208 297.871V264.865L236 247.982Z" stroke="white" stroke-width="4"/>
<path d="M236 296.571L264 313.453V346.459L236 362.518L208 346.459V313.453L236 296.571Z" stroke="white" stroke-width="4"/>
<path d="M236 345.159L264 362.041V395.047L236 411.106L208 395.047V362.041L236 345.159Z" stroke="white" stroke-width="4"/>
<path d="M236 393.747L264 410.63V443.636L236 459.695L208 443.636V410.63L236 393.747Z" stroke="white" stroke-width="4"/>
<path d="M236 442.335L264 459.218V492.224L236 508.283L208 492.224V459.218L236 442.335Z" stroke="white" stroke-width="4"/>
<path d="M281 -20.5469L309 -3.66456V29.3415L281 45.4003L253 29.3415V-3.66456L281 -20.5469Z" stroke="white" stroke-width="4"/>
<path d="M281 28.0412L309 44.9236V77.9296L281 93.9885L253 77.9296V44.9236L281 28.0412Z" stroke="white" stroke-width="4"/>
<path d="M281 76.6294L309 93.5117V126.518L281 142.577L253 126.518V93.5117L281 76.6294Z" stroke="white" stroke-width="4"/>
<path d="M281 125.218L309 142.1V175.106L281 191.165L253 175.106V142.1L281 125.218Z" stroke="white" stroke-width="4"/>
<path d="M281 173.806L309 190.688V223.694L281 239.753L253 223.694V190.688L281 173.806Z" stroke="white" stroke-width="4"/>
<path d="M281 222.394L309 239.277V272.283L281 288.341L253 272.283V239.277L281 222.394Z" stroke="white" stroke-width="4"/>
<path d="M281 270.982L309 287.865V320.871L281 336.93L253 320.871V287.865L281 270.982Z" stroke="white" stroke-width="4"/>
<path d="M281 319.571L309 336.453V369.459L281 385.518L253 369.459V336.453L281 319.571Z" stroke="white" stroke-width="4"/>
<path d="M281 368.159L309 385.041V418.047L281 434.106L253 418.047V385.041L281 368.159Z" stroke="white" stroke-width="4"/>
<path d="M281 416.747L309 433.63V466.636L281 482.695L253 466.636V433.63L281 416.747Z" stroke="white" stroke-width="4"/>
<path d="M281 465.335L309 482.218V515.224L281 531.283L253 515.224V482.218L281 465.335Z" stroke="white" stroke-width="4"/>
<path d="M325 -43.5469L353 -26.6646V6.3415L325 22.4003L297 6.3415V-26.6646L325 -43.5469Z" stroke="white" stroke-width="4"/>
<path d="M325 5.04122L353 21.9236V54.9296L325 70.9885L297 54.9296V21.9236L325 5.04122Z" stroke="white" stroke-width="4"/>
<path d="M325 53.6294L353 70.5117V103.518L325 119.577L297 103.518V70.5117L325 53.6294Z" stroke="white" stroke-width="4"/>
<path d="M325 102.218L353 119.1V152.106L325 168.165L297 152.106V119.1L325 102.218Z" stroke="white" stroke-width="4"/>
<path d="M325 150.806L353 167.688V200.694L325 216.753L297 200.694V167.688L325 150.806Z" stroke="white" stroke-width="4"/>
<path d="M325 199.394L353 216.277V249.283L325 265.341L297 249.283V216.277L325 199.394Z" stroke="white" stroke-width="4"/>
<path d="M325 247.982L353 264.865V297.871L325 313.93L297 297.871V264.865L325 247.982Z" stroke="white" stroke-width="4"/>
<path d="M325 296.571L353 313.453V346.459L325 362.518L297 346.459V313.453L325 296.571Z" stroke="white" stroke-width="4"/>
<path d="M325 345.159L353 362.041V395.047L325 411.106L297 395.047V362.041L325 345.159Z" stroke="white" stroke-width="4"/>
<path d="M325 393.747L353 410.63V443.636L325 459.695L297 443.636V410.63L325 393.747Z" stroke="white" stroke-width="4"/>
<path d="M325 442.335L353 459.218V492.224L325 508.283L297 492.224V459.218L325 442.335Z" stroke="white" stroke-width="4"/>
<path d="M370 -20.5469L398 -3.66456V29.3415L370 45.4003L342 29.3415V-3.66456L370 -20.5469Z" stroke="white" stroke-width="4"/>
<path d="M370 28.0412L398 44.9236V77.9296L370 93.9885L342 77.9296V44.9236L370 28.0412Z" stroke="white" stroke-width="4"/>
<path d="M370 76.6294L398 93.5117V126.518L370 142.577L342 126.518V93.5117L370 76.6294Z" stroke="white" stroke-width="4"/>
<path d="M370 125.218L398 142.1V175.106L370 191.165L342 175.106V142.1L370 125.218Z" stroke="white" stroke-width="4"/>
<path d="M370 173.806L398 190.688V223.694L370 239.753L342 223.694V190.688L370 173.806Z" stroke="white" stroke-width="4"/>
<path d="M370 222.394L398 239.277V272.283L370 288.341L342 272.283V239.277L370 222.394Z" stroke="white" stroke-width="4"/>
<path d="M370 270.982L398 287.865V320.871L370 336.93L342 320.871V287.865L370 270.982Z" stroke="white" stroke-width="4"/>
<path d="M370 319.571L398 336.453V369.459L370 385.518L342 369.459V336.453L370 319.571Z" stroke="white" stroke-width="4"/>
<path d="M370 368.159L398 385.041V418.047L370 434.106L342 418.047V385.041L370 368.159Z" stroke="white" stroke-width="4"/>
<path d="M370 416.747L398 433.63V466.636L370 482.695L342 466.636V433.63L370 416.747Z" stroke="white" stroke-width="4"/>
<path d="M370 465.335L398 482.218V515.224L370 531.283L342 515.224V482.218L370 465.335Z" stroke="white" stroke-width="4"/>
<path d="M414 -43.5469L442 -26.6646V6.3415L414 22.4003L386 6.3415V-26.6646L414 -43.5469Z" stroke="white" stroke-width="4"/>
<path d="M414 5.04122L442 21.9236V54.9296L414 70.9885L386 54.9296V21.9236L414 5.04122Z" stroke="white" stroke-width="4"/>
<path d="M414 53.6294L442 70.5117V103.518L414 119.577L386 103.518V70.5117L414 53.6294Z" stroke="white" stroke-width="4"/>
<path d="M414 102.218L442 119.1V152.106L414 168.165L386 152.106V119.1L414 102.218Z" stroke="white" stroke-width="4"/>
<path d="M414 150.806L442 167.688V200.694L414 216.753L386 200.694V167.688L414 150.806Z" stroke="white" stroke-width="4"/>
<path d="M414 199.394L442 216.277V249.283L414 265.341L386 249.283V216.277L414 199.394Z" stroke="white" stroke-width="4"/>
<path d="M414 247.982L442 264.865V297.871L414 313.93L386 297.871V264.865L414 247.982Z" stroke="white" stroke-width="4"/>
<path d="M414 296.571L442 313.453V346.459L414 362.518L386 346.459V313.453L414 296.571Z" stroke="white" stroke-width="4"/>
<path d="M414 345.159L442 362.041V395.047L414 411.106L386 395.047V362.041L414 345.159Z" stroke="white" stroke-width="4"/>
<path d="M414 393.747L442 410.63V443.636L414 459.695L386 443.636V410.63L414 393.747Z" stroke="white" stroke-width="4"/>
<path d="M414 442.335L442 459.218V492.224L414 508.283L386 492.224V459.218L414 442.335Z" stroke="white" stroke-width="4"/>
<path d="M459 -20.5469L487 -3.66456V29.3415L459 45.4003L431 29.3415V-3.66456L459 -20.5469Z" stroke="white" stroke-width="4"/>
<path d="M459 28.0412L487 44.9236V77.9296L459 93.9885L431 77.9296V44.9236L459 28.0412Z" stroke="white" stroke-width="4"/>
<path d="M459 76.6294L487 93.5117V126.518L459 142.577L431 126.518V93.5117L459 76.6294Z" stroke="white" stroke-width="4"/>
<path d="M459 125.218L487 142.1V175.106L459 191.165L431 175.106V142.1L459 125.218Z" stroke="white" stroke-width="4"/>
<path d="M459 173.806L487 190.688V223.694L459 239.753L431 223.694V190.688L459 173.806Z" stroke="white" stroke-width="4"/>
<path d="M459 222.394L487 239.277V272.283L459 288.341L431 272.283V239.277L459 222.394Z" stroke="white" stroke-width="4"/>
<path d="M459 270.982L487 287.865V320.871L459 336.93L431 320.871V287.865L459 270.982Z" stroke="white" stroke-width="4"/>
<path d="M459 319.571L487 336.453V369.459L459 385.518L431 369.459V336.453L459 319.571Z" stroke="white" stroke-width="4"/>
<path d="M459 368.159L487 385.041V418.047L459 434.106L431 418.047V385.041L459 368.159Z" stroke="white" stroke-width="4"/>
<path d="M459 416.747L487 433.63V466.636L459 482.695L431 466.636V433.63L459 416.747Z" stroke="white" stroke-width="4"/>
<path d="M459 465.335L487 482.218V515.224L459 531.283L431 515.224V482.218L459 465.335Z" stroke="white" stroke-width="4"/>
<path d="M503 -43.5469L531 -26.6646V6.3415L503 22.4003L475 6.3415V-26.6646L503 -43.5469Z" stroke="white" stroke-width="4"/>
<path d="M503 5.04122L531 21.9236V54.9296L503 70.9885L475 54.9296V21.9236L503 5.04122Z" stroke="white" stroke-width="4"/>
<path d="M503 53.6294L531 70.5117V103.518L503 119.577L475 103.518V70.5117L503 53.6294Z" stroke="white" stroke-width="4"/>
<path d="M503 102.218L531 119.1V152.106L503 168.165L475 152.106V119.1L503 102.218Z" stroke="white" stroke-width="4"/>
<path d="M503 150.806L531 167.688V200.694L503 216.753L475 200.694V167.688L503 150.806Z" stroke="white" stroke-width="4"/>
<path d="M503 199.394L531 216.277V249.283L503 265.341L475 249.283V216.277L503 199.394Z" stroke="white" stroke-width="4"/>
<path d="M503 247.982L531 264.865V297.871L503 313.93L475 297.871V264.865L503 247.982Z" stroke="white" stroke-width="4"/>
<path d="M503 296.571L531 313.453V346.459L503 362.518L475 346.459V313.453L503 296.571Z" stroke="white" stroke-width="4"/>
<path d="M503 345.159L531 362.041V395.047L503 411.106L475 395.047V362.041L503 345.159Z" stroke="white" stroke-width="4"/>
<path d="M503 393.747L531 410.63V443.636L503 459.695L475 443.636V410.63L503 393.747Z" stroke="white" stroke-width="4"/>
<path d="M503 442.335L531 459.218V492.224L503 508.283L475 492.224V459.218L503 442.335Z" stroke="white" stroke-width="4"/>
<path d="M548 -20.5469L576 -3.66456V29.3415L548 45.4003L520 29.3415V-3.66456L548 -20.5469Z" stroke="white" stroke-width="4"/>
<path d="M548 28.0412L576 44.9236V77.9296L548 93.9885L520 77.9296V44.9236L548 28.0412Z" stroke="white" stroke-width="4"/>
<path d="M548 76.6294L576 93.5117V126.518L548 142.577L520 126.518V93.5117L548 76.6294Z" stroke="white" stroke-width="4"/>
<path d="M548 125.218L576 142.1V175.106L548 191.165L520 175.106V142.1L548 125.218Z" stroke="white" stroke-width="4"/>
<path d="M548 173.806L576 190.688V223.694L548 239.753L520 223.694V190.688L548 173.806Z" stroke="white" stroke-width="4"/>
<path d="M548 222.394L576 239.277V272.283L548 288.341L520 272.283V239.277L548 222.394Z" stroke="white" stroke-width="4"/>
<path d="M548 270.982L576 287.865V320.871L548 336.93L520 320.871V287.865L548 270.982Z" stroke="white" stroke-width="4"/>
<path d="M548 319.571L576 336.453V369.459L548 385.518L520 369.459V336.453L548 319.571Z" stroke="white" stroke-width="4"/>
<path d="M548 368.159L576 385.041V418.047L548 434.106L520 418.047V385.041L548 368.159Z" stroke="white" stroke-width="4"/>
<path d="M548 416.747L576 433.63V466.636L548 482.695L520 466.636V433.63L548 416.747Z" stroke="white" stroke-width="4"/>
<path d="M548 465.335L576 482.218V515.224L548 531.283L520 515.224V482.218L548 465.335Z" stroke="white" stroke-width="4"/>
<path d="M592 -43.5469L620 -26.6646V6.3415L592 22.4003L564 6.3415V-26.6646L592 -43.5469Z" stroke="white" stroke-width="4"/>
<path d="M592 5.04122L620 21.9236V54.9296L592 70.9885L564 54.9296V21.9236L592 5.04122Z" stroke="white" stroke-width="4"/>
<path d="M592 53.6294L620 70.5117V103.518L592 119.577L564 103.518V70.5117L592 53.6294Z" stroke="white" stroke-width="4"/>
<path d="M592 102.218L620 119.1V152.106L592 168.165L564 152.106V119.1L592 102.218Z" stroke="white" stroke-width="4"/>
<path d="M592 150.806L620 167.688V200.694L592 216.753L564 200.694V167.688L592 150.806Z" stroke="white" stroke-width="4"/>
<path d="M592 199.394L620 216.277V249.283L592 265.341L564 249.283V216.277L592 199.394Z" stroke="white" stroke-width="4"/>
<path d="M592 247.982L620 264.865V297.871L592 313.93L564 297.871V264.865L592 247.982Z" stroke="white" stroke-width="4"/>
<path d="M592 296.571L620 313.453V346.459L592 362.518L564 346.459V313.453L592 296.571Z" stroke="white" stroke-width="4"/>
<path d="M592 345.159L620 362.041V395.047L592 411.106L564 395.047V362.041L592 345.159Z" stroke="white" stroke-width="4"/>
<path d="M592 393.747L620 410.63V443.636L592 459.695L564 443.636V410.63L592 393.747Z" stroke="white" stroke-width="4"/>
<path d="M592 442.335L620 459.218V492.224L592 508.283L564 492.224V459.218L592 442.335Z" stroke="white" stroke-width="4"/>
</g>
</mask>
<g mask="url(#mask0_501_2)">
<rect x="-19" y="-20" width="648" height="516" fill="url(#paint0_linear_501_2)"/>
</g>
</g>
<defs>
<linearGradient id="paint0_linear_501_2" x1="-197" y1="-147" x2="641" y2="472.5" gradientUnits="userSpaceOnUse">
<stop stop-color="white"/>
<stop offset="1" stop-color="#C7BDAE" stop-opacity="0.6"/>
</linearGradient>
<clipPath id="clip0_501_2">
<rect width="606" height="488" fill="white"/>
</clipPath>
</defs>
</svg>
