<svg width="285" height="285" viewBox="0 0 285 285" fill="none" xmlns="http://www.w3.org/2000/svg">
<path d="M14.25 80.75H4.75V90.25H14.25V80.75Z" fill="#393737"/>
<path d="M14.25 90.25H4.75V99.75H14.25V90.25Z" fill="#393737"/>
<path d="M14.25 99.75H4.75V109.25H14.25V99.75Z" fill="#393737"/>
<path d="M14.25 109.25H4.75V118.75H14.25V109.25Z" fill="#393737"/>
<path d="M14.25 118.75H4.75V128.25H14.25V118.75Z" fill="#393737"/>
<path d="M14.25 128.25H4.75V137.75H14.25V128.25Z" fill="#393737"/>
<path d="M14.25 137.75H4.75V147.25H14.25V137.75Z" fill="#393737"/>
<path d="M14.25 156.75H4.75V166.25H14.25V156.75Z" fill="#393737"/>
<path d="M14.25 166.25H4.75V175.75H14.25V166.25Z" fill="#393737"/>
<path d="M14.25 175.75H4.75V185.25H14.25V175.75Z" fill="#393737"/>
<path d="M23.75 80.75H14.25V90.25H23.75V80.75Z" fill="#393737"/>
<path d="M23.75 90.25H14.25V99.75H23.75V90.25Z" fill="#393737"/>
<path d="M23.75 128.25H14.25V137.75H23.75V128.25Z" fill="#393737"/>
<path d="M23.75 166.25H14.25V175.75H23.75V166.25Z" fill="#393737"/>
<path d="M23.75 175.75H14.25V185.25H23.75V175.75Z" fill="#393737"/>
<path d="M33.25 80.75H23.75V90.25H33.25V80.75Z" fill="#393737"/>
<path d="M33.25 99.75H23.75V109.25H33.25V99.75Z" fill="#393737"/>
<path d="M33.25 118.75H23.75V128.25H33.25V118.75Z" fill="#393737"/>
<path d="M33.25 137.75H23.75V147.25H33.25V137.75Z" fill="#393737"/>
<path d="M33.25 147.25H23.75V156.75H33.25V147.25Z" fill="#393737"/>
<path d="M33.25 156.75H23.75V166.25H33.25V156.75Z" fill="#393737"/>
<path d="M33.25 185.25H23.75V194.75H33.25V185.25Z" fill="#393737"/>
<path d="M42.75 80.75H33.25V90.25H42.75V80.75Z" fill="#393737"/>
<path d="M42.75 99.75H33.25V109.25H42.75V99.75Z" fill="#393737"/>
<path d="M42.75 109.25H33.25V118.75H42.75V109.25Z" fill="#393737"/>
<path d="M42.75 128.25H33.25V137.75H42.75V128.25Z" fill="#393737"/>
<path d="M42.75 147.25H33.25V156.75H42.75V147.25Z" fill="#393737"/>
<path d="M42.75 156.75H33.25V166.25H42.75V156.75Z" fill="#393737"/>
<path d="M42.75 175.75H33.25V185.25H42.75V175.75Z" fill="#393737"/>
<path d="M52.25 80.75H42.75V90.25H52.25V80.75Z" fill="#393737"/>
<path d="M52.25 90.25H42.75V99.75H52.25V90.25Z" fill="#393737"/>
<path d="M52.25 128.25H42.75V137.75H52.25V128.25Z" fill="#393737"/>
<path d="M52.25 185.25H42.75V194.75H52.25V185.25Z" fill="#393737"/>
<path d="M52.25 194.75H42.75V204.25H52.25V194.75Z" fill="#393737"/>
<path d="M61.75 109.25H52.25V118.75H61.75V109.25Z" fill="#393737"/>
<path d="M61.75 137.75H52.25V147.25H61.75V137.75Z" fill="#393737"/>
<path d="M61.75 147.25H52.25V156.75H61.75V147.25Z" fill="#393737"/>
<path d="M61.75 156.75H52.25V166.25H61.75V156.75Z" fill="#393737"/>
<path d="M61.75 166.25H52.25V175.75H61.75V166.25Z" fill="#393737"/>
<path d="M61.75 185.25H52.25V194.75H61.75V185.25Z" fill="#393737"/>
<path d="M61.75 194.75H52.25V204.25H61.75V194.75Z" fill="#393737"/>
<path d="M71.25 80.75H61.75V90.25H71.25V80.75Z" fill="#393737"/>
<path d="M71.25 99.75H61.75V109.25H71.25V99.75Z" fill="#393737"/>
<path d="M71.25 118.75H61.75V128.25H71.25V118.75Z" fill="#393737"/>
<path d="M71.25 137.75H61.75V147.25H71.25V137.75Z" fill="#393737"/>
<path d="M71.25 156.75H61.75V166.25H71.25V156.75Z" fill="#393737"/>
<path d="M71.25 175.75H61.75V185.25H71.25V175.75Z" fill="#393737"/>
<path d="M71.25 194.75H61.75V204.25H71.25V194.75Z" fill="#393737"/>
<path d="M80.75 80.75H71.25V90.25H80.75V80.75Z" fill="#393737"/>
<path d="M80.75 90.25H71.25V99.75H80.75V90.25Z" fill="#393737"/>
<path d="M80.75 118.75H71.25V128.25H80.75V118.75Z" fill="#393737"/>
<path d="M80.75 128.25H71.25V137.75H80.75V128.25Z" fill="#393737"/>
<path d="M80.75 156.75H71.25V166.25H80.75V156.75Z" fill="#393737"/>
<path d="M80.75 166.25H71.25V175.75H80.75V166.25Z" fill="#393737"/>
<path d="M80.75 175.75H71.25V185.25H80.75V175.75Z" fill="#393737"/>
<path d="M80.75 185.25H71.25V194.75H80.75V185.25Z" fill="#393737"/>
<path d="M80.75 194.75H71.25V204.25H80.75V194.75Z" fill="#393737"/>
<path d="M90.25 14.25H80.75V23.75H90.25V14.25Z" fill="#393737"/>
<path d="M90.25 23.75H80.75V33.25H90.25V23.75Z" fill="#393737"/>
<path d="M90.25 42.75H80.75V52.25H90.25V42.75Z" fill="#393737"/>
<path d="M90.25 61.75H80.75V71.25H90.25V61.75Z" fill="#393737"/>
<path d="M90.25 71.25H80.75V80.75H90.25V71.25Z" fill="#393737"/>
<path d="M90.25 90.25H80.75V99.75H90.25V90.25Z" fill="#393737"/>
<path d="M90.25 128.25H80.75V137.75H90.25V128.25Z" fill="#393737"/>
<path d="M90.25 156.75H80.75V166.25H90.25V156.75Z" fill="#393737"/>
<path d="M90.25 175.75H80.75V185.25H90.25V175.75Z" fill="#393737"/>
<path d="M90.25 194.75H80.75V204.25H90.25V194.75Z" fill="#393737"/>
<path d="M90.25 213.75H80.75V223.25H90.25V213.75Z" fill="#393737"/>
<path d="M90.25 232.75H80.75V242.25H90.25V232.75Z" fill="#393737"/>
<path d="M90.25 242.25H80.75V251.75H90.25V242.25Z" fill="#393737"/>
<path d="M90.25 251.75H80.75V261.25H90.25V251.75Z" fill="#393737"/>
<path d="M90.25 261.25H80.75V270.75H90.25V261.25Z" fill="#393737"/>
<path d="M90.25 270.75H80.75V280.25H90.25V270.75Z" fill="#393737"/>
<path d="M99.75 4.75H90.25V14.25H99.75V4.75Z" fill="#393737"/>
<path d="M99.75 14.25H90.25V23.75H99.75V14.25Z" fill="#393737"/>
<path d="M99.75 42.75H90.25V52.25H99.75V42.75Z" fill="#393737"/>
<path d="M99.75 71.25H90.25V80.75H99.75V71.25Z" fill="#393737"/>
<path d="M99.75 109.25H90.25V118.75H99.75V109.25Z" fill="#393737"/>
<path d="M99.75 128.25H90.25V137.75H99.75V128.25Z" fill="#393737"/>
<path d="M99.75 137.75H90.25V147.25H99.75V137.75Z" fill="#393737"/>
<path d="M99.75 147.25H90.25V156.75H99.75V147.25Z" fill="#393737"/>
<path d="M99.75 156.75H90.25V166.25H99.75V156.75Z" fill="#393737"/>
<path d="M99.75 166.25H90.25V175.75H99.75V166.25Z" fill="#393737"/>
<path d="M99.75 175.75H90.25V185.25H99.75V175.75Z" fill="#393737"/>
<path d="M99.75 185.25H90.25V194.75H99.75V185.25Z" fill="#393737"/>
<path d="M99.75 204.25H90.25V213.75H99.75V204.25Z" fill="#393737"/>
<path d="M99.75 251.75H90.25V261.25H99.75V251.75Z" fill="#393737"/>
<path d="M99.75 270.75H90.25V280.25H99.75V270.75Z" fill="#393737"/>
<path d="M109.25 14.25H99.75V23.75H109.25V14.25Z" fill="#393737"/>
<path d="M109.25 33.25H99.75V42.75H109.25V33.25Z" fill="#393737"/>
<path d="M109.25 42.75H99.75V52.25H109.25V42.75Z" fill="#393737"/>
<path d="M109.25 52.25H99.75V61.75H109.25V52.25Z" fill="#393737"/>
<path d="M109.25 61.75H99.75V71.25H109.25V61.75Z" fill="#393737"/>
<path d="M109.25 71.25H99.75V80.75H109.25V71.25Z" fill="#393737"/>
<path d="M109.25 80.75H99.75V90.25H109.25V80.75Z" fill="#393737"/>
<path d="M109.25 109.25H99.75V118.75H109.25V109.25Z" fill="#393737"/>
<path d="M109.25 118.75H99.75V128.25H109.25V118.75Z" fill="#393737"/>
<path d="M109.25 128.25H99.75V137.75H109.25V128.25Z" fill="#393737"/>
<path d="M109.25 147.25H99.75V156.75H109.25V147.25Z" fill="#393737"/>
<path d="M109.25 175.75H99.75V185.25H109.25V175.75Z" fill="#393737"/>
<path d="M109.25 194.75H99.75V204.25H109.25V194.75Z" fill="#393737"/>
<path d="M109.25 232.75H99.75V242.25H109.25V232.75Z" fill="#393737"/>
<path d="M109.25 242.25H99.75V251.75H109.25V242.25Z" fill="#393737"/>
<path d="M109.25 261.25H99.75V270.75H109.25V261.25Z" fill="#393737"/>
<path d="M109.25 270.75H99.75V280.25H109.25V270.75Z" fill="#393737"/>
<path d="M118.75 52.25H109.25V61.75H118.75V52.25Z" fill="#393737"/>
<path d="M118.75 71.25H109.25V80.75H118.75V71.25Z" fill="#393737"/>
<path d="M118.75 90.25H109.25V99.75H118.75V90.25Z" fill="#393737"/>
<path d="M118.75 99.75H109.25V109.25H118.75V99.75Z" fill="#393737"/>
<path d="M118.75 147.25H109.25V156.75H118.75V147.25Z" fill="#393737"/>
<path d="M118.75 166.25H109.25V175.75H118.75V166.25Z" fill="#393737"/>
<path d="M118.75 175.75H109.25V185.25H118.75V175.75Z" fill="#393737"/>
<path d="M118.75 185.25H109.25V194.75H118.75V185.25Z" fill="#393737"/>
<path d="M118.75 194.75H109.25V204.25H118.75V194.75Z" fill="#393737"/>
<path d="M118.75 204.25H109.25V213.75H118.75V204.25Z" fill="#393737"/>
<path d="M118.75 213.75H109.25V223.25H118.75V213.75Z" fill="#393737"/>
<path d="M118.75 232.75H109.25V242.25H118.75V232.75Z" fill="#393737"/>
<path d="M118.75 261.25H109.25V270.75H118.75V261.25Z" fill="#393737"/>
<path d="M128.25 14.25H118.75V23.75H128.25V14.25Z" fill="#393737"/>
<path d="M128.25 61.75H118.75V71.25H128.25V61.75Z" fill="#393737"/>
<path d="M128.25 71.25H118.75V80.75H128.25V71.25Z" fill="#393737"/>
<path d="M128.25 80.75H118.75V90.25H128.25V80.75Z" fill="#393737"/>
<path d="M128.25 99.75H118.75V109.25H128.25V99.75Z" fill="#393737"/>
<path d="M128.25 137.75H118.75V147.25H128.25V137.75Z" fill="#393737"/>
<path d="M128.25 166.25H118.75V175.75H128.25V166.25Z" fill="#393737"/>
<path d="M128.25 185.25H118.75V194.75H128.25V185.25Z" fill="#393737"/>
<path d="M128.25 194.75H118.75V204.25H128.25V194.75Z" fill="#393737"/>
<path d="M128.25 213.75H118.75V223.25H128.25V213.75Z" fill="#393737"/>
<path d="M128.25 223.25H118.75V232.75H128.25V223.25Z" fill="#393737"/>
<path d="M137.75 4.75H128.25V14.25H137.75V4.75Z" fill="#393737"/>
<path d="M137.75 14.25H128.25V23.75H137.75V14.25Z" fill="#393737"/>
<path d="M137.75 23.75H128.25V33.25H137.75V23.75Z" fill="#393737"/>
<path d="M137.75 33.25H128.25V42.75H137.75V33.25Z" fill="#393737"/>
<path d="M137.75 42.75H128.25V52.25H137.75V42.75Z" fill="#393737"/>
<path d="M137.75 71.25H128.25V80.75H137.75V71.25Z" fill="#393737"/>
<path d="M137.75 90.25H128.25V99.75H137.75V90.25Z" fill="#393737"/>
<path d="M137.75 109.25H128.25V118.75H137.75V109.25Z" fill="#393737"/>
<path d="M137.75 118.75H128.25V128.25H137.75V118.75Z" fill="#393737"/>
<path d="M137.75 137.75H128.25V147.25H137.75V137.75Z" fill="#393737"/>
<path d="M137.75 147.25H128.25V156.75H137.75V147.25Z" fill="#393737"/>
<path d="M137.75 156.75H128.25V166.25H137.75V156.75Z" fill="#393737"/>
<path d="M137.75 175.75H128.25V185.25H137.75V175.75Z" fill="#393737"/>
<path d="M137.75 194.75H128.25V204.25H137.75V194.75Z" fill="#393737"/>
<path d="M137.75 204.25H128.25V213.75H137.75V204.25Z" fill="#393737"/>
<path d="M137.75 213.75H128.25V223.25H137.75V213.75Z" fill="#393737"/>
<path d="M137.75 223.25H128.25V232.75H137.75V223.25Z" fill="#393737"/>
<path d="M137.75 261.25H128.25V270.75H137.75V261.25Z" fill="#393737"/>
<path d="M137.75 270.75H128.25V280.25H137.75V270.75Z" fill="#393737"/>
<path d="M147.25 4.75H137.75V14.25H147.25V4.75Z" fill="#393737"/>
<path d="M147.25 33.25H137.75V42.75H147.25V33.25Z" fill="#393737"/>
<path d="M147.25 52.25H137.75V61.75H147.25V52.25Z" fill="#393737"/>
<path d="M147.25 61.75H137.75V71.25H147.25V61.75Z" fill="#393737"/>
<path d="M147.25 71.25H137.75V80.75H147.25V71.25Z" fill="#393737"/>
<path d="M147.25 109.25H137.75V118.75H147.25V109.25Z" fill="#393737"/>
<path d="M147.25 118.75H137.75V128.25H147.25V118.75Z" fill="#393737"/>
<path d="M147.25 128.25H137.75V137.75H147.25V128.25Z" fill="#393737"/>
<path d="M147.25 137.75H137.75V147.25H147.25V137.75Z" fill="#393737"/>
<path d="M147.25 156.75H137.75V166.25H147.25V156.75Z" fill="#393737"/>
<path d="M147.25 166.25H137.75V175.75H147.25V166.25Z" fill="#393737"/>
<path d="M147.25 204.25H137.75V213.75H147.25V204.25Z" fill="#393737"/>
<path d="M147.25 213.75H137.75V223.25H147.25V213.75Z" fill="#393737"/>
<path d="M147.25 223.25H137.75V232.75H147.25V223.25Z" fill="#393737"/>
<path d="M147.25 251.75H137.75V261.25H147.25V251.75Z" fill="#393737"/>
<path d="M147.25 270.75H137.75V280.25H147.25V270.75Z" fill="#393737"/>
<path d="M156.75 4.75H147.25V14.25H156.75V4.75Z" fill="#393737"/>
<path d="M156.75 14.25H147.25V23.75H156.75V14.25Z" fill="#393737"/>
<path d="M156.75 80.75H147.25V90.25H156.75V80.75Z" fill="#393737"/>
<path d="M156.75 109.25H147.25V118.75H156.75V109.25Z" fill="#393737"/>
<path d="M156.75 185.25H147.25V194.75H156.75V185.25Z" fill="#393737"/>
<path d="M156.75 194.75H147.25V204.25H156.75V194.75Z" fill="#393737"/>
<path d="M156.75 213.75H147.25V223.25H156.75V213.75Z" fill="#393737"/>
<path d="M156.75 223.25H147.25V232.75H156.75V223.25Z" fill="#393737"/>
<path d="M166.25 23.75H156.75V33.25H166.25V23.75Z" fill="#393737"/>
<path d="M166.25 33.25H156.75V42.75H166.25V33.25Z" fill="#393737"/>
<path d="M166.25 42.75H156.75V52.25H166.25V42.75Z" fill="#393737"/>
<path d="M166.25 52.25H156.75V61.75H166.25V52.25Z" fill="#393737"/>
<path d="M166.25 61.75H156.75V71.25H166.25V61.75Z" fill="#393737"/>
<path d="M166.25 71.25H156.75V80.75H166.25V71.25Z" fill="#393737"/>
<path d="M166.25 90.25H156.75V99.75H166.25V90.25Z" fill="#393737"/>
<path d="M166.25 99.75H156.75V109.25H166.25V99.75Z" fill="#393737"/>
<path d="M166.25 109.25H156.75V118.75H166.25V109.25Z" fill="#393737"/>
<path d="M166.25 118.75H156.75V128.25H166.25V118.75Z" fill="#393737"/>
<path d="M166.25 147.25H156.75V156.75H166.25V147.25Z" fill="#393737"/>
<path d="M166.25 185.25H156.75V194.75H166.25V185.25Z" fill="#393737"/>
<path d="M166.25 194.75H156.75V204.25H166.25V194.75Z" fill="#393737"/>
<path d="M166.25 213.75H156.75V223.25H166.25V213.75Z" fill="#393737"/>
<path d="M166.25 242.25H156.75V251.75H166.25V242.25Z" fill="#393737"/>
<path d="M166.25 261.25H156.75V270.75H166.25V261.25Z" fill="#393737"/>
<path d="M175.75 23.75H166.25V33.25H175.75V23.75Z" fill="#393737"/>
<path d="M175.75 42.75H166.25V52.25H175.75V42.75Z" fill="#393737"/>
<path d="M175.75 80.75H166.25V90.25H175.75V80.75Z" fill="#393737"/>
<path d="M175.75 90.25H166.25V99.75H175.75V90.25Z" fill="#393737"/>
<path d="M175.75 99.75H166.25V109.25H175.75V99.75Z" fill="#393737"/>
<path d="M175.75 109.25H166.25V118.75H175.75V109.25Z" fill="#393737"/>
<path d="M175.75 118.75H166.25V128.25H175.75V118.75Z" fill="#393737"/>
<path d="M175.75 128.25H166.25V137.75H175.75V128.25Z" fill="#393737"/>
<path d="M175.75 137.75H166.25V147.25H175.75V137.75Z" fill="#393737"/>
<path d="M175.75 147.25H166.25V156.75H175.75V147.25Z" fill="#393737"/>
<path d="M175.75 166.25H166.25V175.75H175.75V166.25Z" fill="#393737"/>
<path d="M175.75 185.25H166.25V194.75H175.75V185.25Z" fill="#393737"/>
<path d="M175.75 194.75H166.25V204.25H175.75V194.75Z" fill="#393737"/>
<path d="M175.75 213.75H166.25V223.25H175.75V213.75Z" fill="#393737"/>
<path d="M175.75 261.25H166.25V270.75H175.75V261.25Z" fill="#393737"/>
<path d="M175.75 270.75H166.25V280.25H175.75V270.75Z" fill="#393737"/>
<path d="M185.25 4.75H175.75V14.25H185.25V4.75Z" fill="#393737"/>
<path d="M185.25 23.75H175.75V33.25H185.25V23.75Z" fill="#393737"/>
<path d="M185.25 42.75H175.75V52.25H185.25V42.75Z" fill="#393737"/>
<path d="M185.25 61.75H175.75V71.25H185.25V61.75Z" fill="#393737"/>
<path d="M185.25 71.25H175.75V80.75H185.25V71.25Z" fill="#393737"/>
<path d="M185.25 90.25H175.75V99.75H185.25V90.25Z" fill="#393737"/>
<path d="M185.25 109.25H175.75V118.75H185.25V109.25Z" fill="#393737"/>
<path d="M185.25 128.25H175.75V137.75H185.25V128.25Z" fill="#393737"/>
<path d="M185.25 137.75H175.75V147.25H185.25V137.75Z" fill="#393737"/>
<path d="M185.25 166.25H175.75V175.75H185.25V166.25Z" fill="#393737"/>
<path d="M185.25 175.75H175.75V185.25H185.25V175.75Z" fill="#393737"/>
<path d="M185.25 194.75H175.75V204.25H185.25V194.75Z" fill="#393737"/>
<path d="M185.25 204.25H175.75V213.75H185.25V204.25Z" fill="#393737"/>
<path d="M185.25 242.25H175.75V251.75H185.25V242.25Z" fill="#393737"/>
<path d="M185.25 251.75H175.75V261.25H185.25V251.75Z" fill="#393737"/>
<path d="M185.25 261.25H175.75V270.75H185.25V261.25Z" fill="#393737"/>
<path d="M185.25 270.75H175.75V280.25H185.25V270.75Z" fill="#393737"/>
<path d="M194.75 14.25H185.25V23.75H194.75V14.25Z" fill="#393737"/>
<path d="M194.75 23.75H185.25V33.25H194.75V23.75Z" fill="#393737"/>
<path d="M194.75 33.25H185.25V42.75H194.75V33.25Z" fill="#393737"/>
<path d="M194.75 99.75H185.25V109.25H194.75V99.75Z" fill="#393737"/>
<path d="M194.75 147.25H185.25V156.75H194.75V147.25Z" fill="#393737"/>
<path d="M194.75 166.25H185.25V175.75H194.75V166.25Z" fill="#393737"/>
<path d="M194.75 185.25H185.25V194.75H194.75V185.25Z" fill="#393737"/>
<path d="M194.75 194.75H185.25V204.25H194.75V194.75Z" fill="#393737"/>
<path d="M194.75 213.75H185.25V223.25H194.75V213.75Z" fill="#393737"/>
<path d="M194.75 223.25H185.25V232.75H194.75V223.25Z" fill="#393737"/>
<path d="M194.75 261.25H185.25V270.75H194.75V261.25Z" fill="#393737"/>
<path d="M194.75 270.75H185.25V280.25H194.75V270.75Z" fill="#393737"/>
<path d="M204.25 4.75H194.75V14.25H204.25V4.75Z" fill="#393737"/>
<path d="M204.25 52.25H194.75V61.75H204.25V52.25Z" fill="#393737"/>
<path d="M204.25 61.75H194.75V71.25H204.25V61.75Z" fill="#393737"/>
<path d="M204.25 71.25H194.75V80.75H204.25V71.25Z" fill="#393737"/>
<path d="M204.25 109.25H194.75V118.75H204.25V109.25Z" fill="#393737"/>
<path d="M204.25 118.75H194.75V128.25H204.25V118.75Z" fill="#393737"/>
<path d="M204.25 156.75H194.75V166.25H204.25V156.75Z" fill="#393737"/>
<path d="M204.25 166.25H194.75V175.75H204.25V166.25Z" fill="#393737"/>
<path d="M204.25 175.75H194.75V185.25H204.25V175.75Z" fill="#393737"/>
<path d="M204.25 194.75H194.75V204.25H204.25V194.75Z" fill="#393737"/>
<path d="M204.25 204.25H194.75V213.75H204.25V204.25Z" fill="#393737"/>
<path d="M204.25 213.75H194.75V223.25H204.25V213.75Z" fill="#393737"/>
<path d="M204.25 223.25H194.75V232.75H204.25V223.25Z" fill="#393737"/>
<path d="M204.25 232.75H194.75V242.25H204.25V232.75Z" fill="#393737"/>
<path d="M204.25 251.75H194.75V261.25H204.25V251.75Z" fill="#393737"/>
<path d="M213.75 80.75H204.25V90.25H213.75V80.75Z" fill="#393737"/>
<path d="M213.75 99.75H204.25V109.25H213.75V99.75Z" fill="#393737"/>
<path d="M213.75 109.25H204.25V118.75H213.75V109.25Z" fill="#393737"/>
<path d="M213.75 128.25H204.25V137.75H213.75V128.25Z" fill="#393737"/>
<path d="M213.75 156.75H204.25V166.25H213.75V156.75Z" fill="#393737"/>
<path d="M213.75 166.25H204.25V175.75H213.75V166.25Z" fill="#393737"/>
<path d="M213.75 185.25H204.25V194.75H213.75V185.25Z" fill="#393737"/>
<path d="M213.75 194.75H204.25V204.25H213.75V194.75Z" fill="#393737"/>
<path d="M213.75 232.75H204.25V242.25H213.75V232.75Z" fill="#393737"/>
<path d="M213.75 261.25H204.25V270.75H213.75V261.25Z" fill="#393737"/>
<path d="M213.75 270.75H204.25V280.25H213.75V270.75Z" fill="#393737"/>
<path d="M223.25 80.75H213.75V90.25H223.25V80.75Z" fill="#393737"/>
<path d="M223.25 90.25H213.75V99.75H223.25V90.25Z" fill="#393737"/>
<path d="M223.25 99.75H213.75V109.25H223.25V99.75Z" fill="#393737"/>
<path d="M223.25 128.25H213.75V137.75H223.25V128.25Z" fill="#393737"/>
<path d="M223.25 137.75H213.75V147.25H223.25V137.75Z" fill="#393737"/>
<path d="M223.25 175.75H213.75V185.25H223.25V175.75Z" fill="#393737"/>
<path d="M223.25 185.25H213.75V194.75H223.25V185.25Z" fill="#393737"/>
<path d="M223.25 194.75H213.75V204.25H223.25V194.75Z" fill="#393737"/>
<path d="M223.25 213.75H213.75V223.25H223.25V213.75Z" fill="#393737"/>
<path d="M223.25 232.75H213.75V242.25H223.25V232.75Z" fill="#393737"/>
<path d="M223.25 251.75H213.75V261.25H223.25V251.75Z" fill="#393737"/>
<path d="M223.25 261.25H213.75V270.75H223.25V261.25Z" fill="#393737"/>
<path d="M223.25 270.75H213.75V280.25H223.25V270.75Z" fill="#393737"/>
<path d="M232.75 90.25H223.25V99.75H232.75V90.25Z" fill="#393737"/>
<path d="M232.75 99.75H223.25V109.25H232.75V99.75Z" fill="#393737"/>
<path d="M232.75 109.25H223.25V118.75H232.75V109.25Z" fill="#393737"/>
<path d="M232.75 118.75H223.25V128.25H232.75V118.75Z" fill="#393737"/>
<path d="M232.75 166.25H223.25V175.75H232.75V166.25Z" fill="#393737"/>
<path d="M232.75 175.75H223.25V185.25H232.75V175.75Z" fill="#393737"/>
<path d="M232.75 194.75H223.25V204.25H232.75V194.75Z" fill="#393737"/>
<path d="M232.75 232.75H223.25V242.25H232.75V232.75Z" fill="#393737"/>
<path d="M232.75 270.75H223.25V280.25H232.75V270.75Z" fill="#393737"/>
<path d="M242.25 80.75H232.75V90.25H242.25V80.75Z" fill="#393737"/>
<path d="M242.25 90.25H232.75V99.75H242.25V90.25Z" fill="#393737"/>
<path d="M242.25 109.25H232.75V118.75H242.25V109.25Z" fill="#393737"/>
<path d="M242.25 118.75H232.75V128.25H242.25V118.75Z" fill="#393737"/>
<path d="M242.25 156.75H232.75V166.25H242.25V156.75Z" fill="#393737"/>
<path d="M242.25 175.75H232.75V185.25H242.25V175.75Z" fill="#393737"/>
<path d="M242.25 194.75H232.75V204.25H242.25V194.75Z" fill="#393737"/>
<path d="M242.25 204.25H232.75V213.75H242.25V204.25Z" fill="#393737"/>
<path d="M242.25 213.75H232.75V223.25H242.25V213.75Z" fill="#393737"/>
<path d="M242.25 223.25H232.75V232.75H242.25V223.25Z" fill="#393737"/>
<path d="M242.25 232.75H232.75V242.25H242.25V232.75Z" fill="#393737"/>
<path d="M242.25 242.25H232.75V251.75H242.25V242.25Z" fill="#393737"/>
<path d="M242.25 261.25H232.75V270.75H242.25V261.25Z" fill="#393737"/>
<path d="M251.75 90.25H242.25V99.75H251.75V90.25Z" fill="#393737"/>
<path d="M251.75 109.25H242.25V118.75H251.75V109.25Z" fill="#393737"/>
<path d="M251.75 128.25H242.25V137.75H251.75V128.25Z" fill="#393737"/>
<path d="M251.75 147.25H242.25V156.75H251.75V147.25Z" fill="#393737"/>
<path d="M251.75 156.75H242.25V166.25H251.75V156.75Z" fill="#393737"/>
<path d="M251.75 175.75H242.25V185.25H251.75V175.75Z" fill="#393737"/>
<path d="M251.75 194.75H242.25V204.25H251.75V194.75Z" fill="#393737"/>
<path d="M251.75 204.25H242.25V213.75H251.75V204.25Z" fill="#393737"/>
<path d="M251.75 232.75H242.25V242.25H251.75V232.75Z" fill="#393737"/>
<path d="M251.75 242.25H242.25V251.75H251.75V242.25Z" fill="#393737"/>
<path d="M251.75 251.75H242.25V261.25H251.75V251.75Z" fill="#393737"/>
<path d="M261.25 80.75H251.75V90.25H261.25V80.75Z" fill="#393737"/>
<path d="M261.25 90.25H251.75V99.75H261.25V90.25Z" fill="#393737"/>
<path d="M261.25 99.75H251.75V109.25H261.25V99.75Z" fill="#393737"/>
<path d="M261.25 109.25H251.75V118.75H261.25V109.25Z" fill="#393737"/>
<path d="M261.25 128.25H251.75V137.75H261.25V128.25Z" fill="#393737"/>
<path d="M261.25 147.25H251.75V156.75H261.25V147.25Z" fill="#393737"/>
<path d="M261.25 156.75H251.75V166.25H261.25V156.75Z" fill="#393737"/>
<path d="M261.25 166.25H251.75V175.75H261.25V166.25Z" fill="#393737"/>
<path d="M261.25 185.25H251.75V194.75H261.25V185.25Z" fill="#393737"/>
<path d="M261.25 223.25H251.75V232.75H261.25V223.25Z" fill="#393737"/>
<path d="M261.25 232.75H251.75V242.25H261.25V232.75Z" fill="#393737"/>
<path d="M261.25 270.75H251.75V280.25H261.25V270.75Z" fill="#393737"/>
<path d="M270.75 80.75H261.25V90.25H270.75V80.75Z" fill="#393737"/>
<path d="M270.75 90.25H261.25V99.75H270.75V90.25Z" fill="#393737"/>
<path d="M270.75 99.75H261.25V109.25H270.75V99.75Z" fill="#393737"/>
<path d="M270.75 118.75H261.25V128.25H270.75V118.75Z" fill="#393737"/>
<path d="M270.75 128.25H261.25V137.75H270.75V128.25Z" fill="#393737"/>
<path d="M270.75 137.75H261.25V147.25H270.75V137.75Z" fill="#393737"/>
<path d="M270.75 156.75H261.25V166.25H270.75V156.75Z" fill="#393737"/>
<path d="M270.75 166.25H261.25V175.75H270.75V166.25Z" fill="#393737"/>
<path d="M270.75 194.75H261.25V204.25H270.75V194.75Z" fill="#393737"/>
<path d="M270.75 204.25H261.25V213.75H270.75V204.25Z" fill="#393737"/>
<path d="M270.75 223.25H261.25V232.75H270.75V223.25Z" fill="#393737"/>
<path d="M270.75 261.25H261.25V270.75H270.75V261.25Z" fill="#393737"/>
<path d="M280.25 90.25H270.75V99.75H280.25V90.25Z" fill="#393737"/>
<path d="M280.25 147.25H270.75V156.75H280.25V147.25Z" fill="#393737"/>
<path d="M280.25 156.75H270.75V166.25H280.25V156.75Z" fill="#393737"/>
<path d="M280.25 166.25H270.75V175.75H280.25V166.25Z" fill="#393737"/>
<path d="M280.25 185.25H270.75V194.75H280.25V185.25Z" fill="#393737"/>
<path d="M280.25 194.75H270.75V204.25H280.25V194.75Z" fill="#393737"/>
<path d="M280.25 204.25H270.75V213.75H280.25V204.25Z" fill="#393737"/>
<path d="M280.25 213.75H270.75V223.25H280.25V213.75Z" fill="#393737"/>
<path d="M280.25 232.75H270.75V242.25H280.25V232.75Z" fill="#393737"/>
<path d="M280.25 251.75H270.75V261.25H280.25V251.75Z" fill="#393737"/>
<path d="M280.25 261.25H270.75V270.75H280.25V261.25Z" fill="#393737"/>
<path d="M280.25 270.75H270.75V280.25H280.25V270.75Z" fill="#393737"/>
<path d="M4.75 28.5V47.5C4.75 53.7989 7.25223 59.8398 11.7062 64.2938C16.1602 68.7478 22.2011 71.25 28.5 71.25H47.5C53.7989 71.25 59.8398 68.7478 64.2938 64.2938C68.7478 59.8398 71.25 53.7989 71.25 47.5V28.5C71.25 22.2011 68.7478 16.1602 64.2938 11.7062C59.8398 7.25223 53.7989 4.75 47.5 4.75H28.5C22.2011 4.75 16.1602 7.25223 11.7062 11.7062C7.25223 16.1602 4.75 22.2011 4.75 28.5ZM28.5 14.25H47.5C51.2793 14.25 54.9039 15.7513 57.5763 18.4237C60.2487 21.0961 61.75 24.7207 61.75 28.5V47.5C61.75 51.2793 60.2487 54.9039 57.5763 57.5763C54.9039 60.2487 51.2793 61.75 47.5 61.75H28.5C24.7207 61.75 21.0961 60.2487 18.4237 57.5763C15.7513 54.9039 14.25 51.2793 14.25 47.5V28.5C14.25 24.7207 15.7513 21.0961 18.4237 18.4237C21.0961 15.7513 24.7207 14.25 28.5 14.25Z" fill="#393737"/>
<path d="M33.25 23.75H23.75V33.25H33.25V23.75Z" fill="#393737"/>
<path d="M33.25 33.25H23.75V42.75H33.25V33.25Z" fill="#393737"/>
<path d="M33.25 42.75H23.75V52.25H33.25V42.75Z" fill="#393737"/>
<path d="M42.75 23.75H33.25V33.25H42.75V23.75Z" fill="#393737"/>
<path d="M42.75 33.25H33.25V42.75H42.75V33.25Z" fill="#393737"/>
<path d="M42.75 42.75H33.25V52.25H42.75V42.75Z" fill="#393737"/>
<path d="M52.25 23.75H42.75V33.25H52.25V23.75Z" fill="#393737"/>
<path d="M52.25 33.25H42.75V42.75H52.25V33.25Z" fill="#393737"/>
<path d="M52.25 42.75H42.75V52.25H52.25V42.75Z" fill="#393737"/>
<path d="M256.5 4.75L237.5 4.75C231.201 4.75 225.16 7.25222 220.706 11.7062C216.252 16.1602 213.75 22.2011 213.75 28.5V47.5C213.75 53.7989 216.252 59.8398 220.706 64.2938C225.16 68.7478 231.201 71.25 237.5 71.25H256.5C262.799 71.25 268.84 68.7478 273.294 64.2938C277.748 59.8398 280.25 53.7989 280.25 47.5V28.5C280.25 22.2011 277.748 16.1602 273.294 11.7062C268.84 7.25222 262.799 4.75 256.5 4.75ZM270.75 28.5V47.5C270.75 51.2793 269.249 54.9039 266.576 57.5763C263.904 60.2487 260.279 61.75 256.5 61.75H237.5C233.721 61.75 230.096 60.2487 227.424 57.5763C224.751 54.9039 223.25 51.2793 223.25 47.5V28.5C223.25 24.7207 224.751 21.0961 227.424 18.4237C230.096 15.7513 233.721 14.25 237.5 14.25H256.5C260.279 14.25 263.904 15.7513 266.576 18.4237C269.249 21.0961 270.75 24.7207 270.75 28.5Z" fill="#393737"/>
<path d="M242.25 23.75H232.75V33.25H242.25V23.75Z" fill="#393737"/>
<path d="M242.25 33.25H232.75V42.75H242.25V33.25Z" fill="#393737"/>
<path d="M242.25 42.75H232.75V52.25H242.25V42.75Z" fill="#393737"/>
<path d="M251.75 23.75H242.25V33.25H251.75V23.75Z" fill="#393737"/>
<path d="M251.75 33.25H242.25V42.75H251.75V33.25Z" fill="#393737"/>
<path d="M251.75 42.75H242.25V52.25H251.75V42.75Z" fill="#393737"/>
<path d="M261.25 23.75H251.75V33.25H261.25V23.75Z" fill="#393737"/>
<path d="M261.25 33.25H251.75V42.75H261.25V33.25Z" fill="#393737"/>
<path d="M261.25 42.75H251.75V52.25H261.25V42.75Z" fill="#393737"/>
<path d="M28.5 280.25H47.5C53.7989 280.25 59.8398 277.748 64.2938 273.294C68.7478 268.84 71.25 262.799 71.25 256.5V237.5C71.25 231.201 68.7478 225.16 64.2938 220.706C59.8398 216.252 53.7989 213.75 47.5 213.75H28.5C22.2011 213.75 16.1602 216.252 11.7062 220.706C7.25222 225.16 4.75 231.201 4.75 237.5L4.75 256.5C4.75 262.799 7.25222 268.84 11.7062 273.294C16.1602 277.748 22.2011 280.25 28.5 280.25ZM14.25 256.5V237.5C14.25 233.721 15.7513 230.096 18.4237 227.424C21.0961 224.751 24.7207 223.25 28.5 223.25H47.5C51.2793 223.25 54.9039 224.751 57.5763 227.424C60.2487 230.096 61.75 233.721 61.75 237.5V256.5C61.75 260.279 60.2487 263.904 57.5763 266.576C54.9039 269.249 51.2793 270.75 47.5 270.75H28.5C24.7207 270.75 21.0961 269.249 18.4237 266.576C15.7513 263.904 14.25 260.279 14.25 256.5Z" fill="#393737"/>
<path d="M33.25 232.75H23.75V242.25H33.25V232.75Z" fill="#393737"/>
<path d="M33.25 242.25H23.75V251.75H33.25V242.25Z" fill="#393737"/>
<path d="M33.25 251.75H23.75V261.25H33.25V251.75Z" fill="#393737"/>
<path d="M42.75 232.75H33.25V242.25H42.75V232.75Z" fill="#393737"/>
<path d="M42.75 242.25H33.25V251.75H42.75V242.25Z" fill="#393737"/>
<path d="M42.75 251.75H33.25V261.25H42.75V251.75Z" fill="#393737"/>
<path d="M52.25 232.75H42.75V242.25H52.25V232.75Z" fill="#393737"/>
<path d="M52.25 242.25H42.75V251.75H52.25V242.25Z" fill="#393737"/>
<path d="M52.25 251.75H42.75V261.25H52.25V251.75Z" fill="#393737"/>
</svg>
